<svg width="30" height="30" viewBox="0 0 30 30" fill="none" xmlns="http://www.w3.org/2000/svg">
<path d="M14.998 0V30C23.2826 30 29.9983 23.2843 29.9983 15.0002C29.9983 6.71521 23.2826 0 14.998 0Z" fill="#252F6B"/>
<path d="M14.9998 0C6.71572 0 0 6.71546 0 15C0 23.284 6.71572 29.9997 14.9998 29.9997C23.2843 29.9997 23.2843 0 14.9998 0Z" fill="#273375"/>
<path d="M10.2855 22.9941L11.297 21.7331L9.73437 22.0161L9.19223 20.5024L8.60296 22.0161L7.00757 21.7331L8.02149 22.9663L6.96875 24.1982L8.57333 23.9462L9.11452 25.4286L9.70403 23.9469L11.3406 24.2394L10.2855 22.9941Z" fill="#F3F4F5"/>
<path d="M22.2405 24.1081L22.8141 23.3935L21.9283 23.5539L21.6211 22.6963L21.2871 23.5539L20.3831 23.3935L20.9577 24.092L20.3613 24.7904L21.2704 24.6474L21.577 25.487L21.911 24.6479L22.8385 24.8137L22.2405 24.1081Z" fill="#F3F4F5"/>
<path d="M22.2405 8.31834L22.8141 7.60355L21.9283 7.7641L21.6211 6.90649L21.2871 7.7641L20.3831 7.60355L20.9577 8.30244L20.3613 9.00045L21.2704 8.85763L21.577 9.69769L21.911 8.85807L22.8385 9.02363L22.2405 8.31834Z" fill="#F3F4F5"/>
<path d="M25.9518 12.403L26.525 11.6882L25.6397 11.8488L25.3325 10.9912L24.9986 11.8488L24.0941 11.6882L24.6686 12.3872L24.0723 13.0854L24.9813 12.9423L25.288 13.7824L25.6219 12.9428L26.5494 13.1083L25.9518 12.403Z" fill="#F3F4F5"/>
<path d="M19.0312 14.219L19.6049 13.5044L18.7191 13.665L18.4119 12.8074L18.078 13.665L17.1741 13.5044L17.7485 14.2028L17.1523 14.9013L18.0614 14.7585L18.3681 15.5978L18.702 14.759L19.6295 14.9245L19.0312 14.219Z" fill="#F3F4F5"/>
<path d="M3.15112 5.80859C2.91571 6.11197 2.69094 6.42344 2.47852 6.74436H4.08644L3.15112 5.80859Z" fill="#29337A"/>
<path d="M10.8965 14.9999H12.3415L10.8965 13.5549V14.9999Z" fill="#29337A"/>
<path d="M6.10575 2.92188C5.76159 3.17578 5.43029 3.44508 5.10938 3.72666L6.10575 4.72259V2.92188Z" fill="#29337A"/>
<path d="M4.66016 14.9999H6.10557V13.5544L4.66016 14.9999Z" fill="#29337A"/>
<path d="M15 0C13.5766 0 12.2015 0.20248 10.8965 0.573175V4.72265L15.0005 0.618839V0H15Z" fill="#29337A"/>
<path d="M14.9986 13.617V11.5344H12.916L14.9986 13.617Z" fill="#29337A"/>
<path d="M0.618903 14.9999L4.08506 11.5344H0.407113C0.143515 12.6473 0 13.8067 0 14.9999H0.618903Z" fill="#29337A"/>
<path d="M12.916 6.7444H15V4.66089L12.916 6.7444Z" fill="#29337A"/>
<path d="M15.0002 14.0544V13.617L12.9177 11.5344H15.0002V10.7886H11.7344L15.0002 14.0544Z" fill="white"/>
<path d="M4.08525 6.74424H2.47732C2.31677 6.98751 2.1642 7.23641 2.01758 7.48937H5.17638L3.30149 5.61499C3.25013 5.67896 3.19965 5.74362 3.14968 5.80822L4.08525 6.74424Z" fill="white"/>
<path d="M6.10737 13.5547V15.0002H6.85276V12.4636L4.31641 15.0002H4.66196L6.10737 13.5547Z" fill="white"/>
<path d="M10.8975 0.572998C10.6462 0.644312 10.398 0.72196 10.1523 0.805562V5.81385L15.0015 0.964974V0.619422L10.8975 4.72247V0.572998Z" fill="white"/>
<path d="M6.08131 11.5346L6.10759 11.5083L6.82688 10.7891H0.604793C0.533035 11.0351 0.467421 11.2836 0.408203 11.5346H4.08615L0.619993 15.0001H2.61566L6.08131 11.5346Z" fill="white"/>
<path d="M0.621094 15.0001L4.08726 11.5347L0.621094 15.0001Z" fill="white"/>
<path d="M15.002 7.48982V6.74444H12.918L15.002 4.66093V2.66577L10.1777 7.48982H15.002Z" fill="white"/>
<path d="M15 4.66089L12.916 6.7444L15 4.66089Z" fill="white"/>
<path d="M6.10745 4.72312L5.11108 3.72718C4.75774 4.03771 4.41852 4.36452 4.0957 4.70703L6.10745 6.71878L6.1288 6.74057L6.85283 7.46461V2.40869C6.59943 2.5733 6.35002 2.7431 6.10771 2.92214V4.72312H6.10745Z" fill="white"/>
<path d="M10.8977 13.5551L12.3427 15.0001H14.2465L10.1523 10.9062V15.0001H10.8977V13.5551Z" fill="white"/>
<path d="M6.10742 6.71875L6.12877 6.74054L6.10742 6.71875Z" fill="#D32030"/>
<path d="M12.4793 11.5347L11.7342 10.7891H15V7.48989H10.1758L10.1509 7.51523V7.48989H10.1758L15 2.6661V0.965067L10.1507 5.8142V0.805908C8.97853 1.20643 7.87246 1.74687 6.85144 2.40884V7.4645L6.87728 7.48983H6.85144V7.4645L6.12741 6.74052L6.13165 6.74477H6.10632V6.71892L4.09457 4.70717C3.81843 4.99946 3.55388 5.30214 3.30162 5.61571L5.17644 7.49008H2.01771C1.42084 8.51895 0.943621 9.62451 0.603516 10.7893H6.8256L6.85144 10.763V10.7893H6.8256L6.10632 11.5086V11.5349H6.08003L2.61432 15.0002H4.31535L6.8517 12.4636V15.0002H10.1509V10.9063L14.2448 15.0002H14.8078C14.8719 14.9332 14.9373 14.8666 15.0003 14.7977V14.0547L12.4793 11.5347Z" fill="#D32030"/>
<path d="M10.1504 5.81421L14.9998 0.965088L10.1504 5.81421Z" fill="#D32030"/>
<path d="M6.10636 11.5346V11.5081L6.08008 11.5346H6.10636Z" fill="#D32030"/>
<path d="M6.8522 10.7625L6.82617 10.7887H6.8522V10.7625Z" fill="#D32030"/>
<path d="M10.1504 7.51532L10.1755 7.48999H10.1504V7.51532Z" fill="#D32030"/>
<path d="M6.10742 6.74453H6.13301L6.12877 6.74054L6.10742 6.71875V6.74453Z" fill="#D32030"/>
<path d="M6.87734 7.4897L6.85156 7.46411V7.4897H6.87734Z" fill="#D32030"/>
</svg>
