<svg width="30" height="30" viewBox="0 0 30 30" fill="none" xmlns="http://www.w3.org/2000/svg">
<path d="M15 30C23.2843 30 30 23.2843 30 15C30 6.71573 23.2843 0 15 0C6.71573 0 0 6.71573 0 15C0 23.2843 6.71573 30 15 30Z" fill="#F0F0F0"/>
<path d="M3.10162 5.86768C1.92336 7.40066 1.0349 9.16756 0.517578 11.087H8.32098L3.10162 5.86768Z" fill="#0052B4"/>
<path d="M29.4849 11.087C28.9676 9.16756 28.0791 7.40067 26.9009 5.86768L21.6816 11.087H29.4849Z" fill="#0052B4"/>
<path d="M0.517578 18.9128C1.03496 20.8323 1.92342 22.5992 3.10162 24.1321L8.3208 18.9128H0.517578Z" fill="#0052B4"/>
<path d="M24.1334 3.1007C22.6004 1.92244 20.8335 1.03398 18.9141 0.516602V8.31994L24.1334 3.1007Z" fill="#0052B4"/>
<path d="M5.86914 26.8991C7.40213 28.0774 9.16902 28.9658 11.0884 29.4832V21.6799L5.86914 26.8991Z" fill="#0052B4"/>
<path d="M11.0884 0.516602C9.16896 1.03398 7.40207 1.92244 5.86914 3.10064L11.0884 8.31988V0.516602Z" fill="#0052B4"/>
<path d="M18.9141 29.4832C20.8335 28.9658 22.6004 28.0774 24.1333 26.8992L18.9141 21.6799V29.4832Z" fill="#0052B4"/>
<path d="M21.6816 18.9128L26.9009 24.1321C28.0791 22.5992 28.9676 20.8323 29.4849 18.9128H21.6816Z" fill="#0052B4"/>
<path d="M29.873 13.0435H16.9566H16.9566V0.126973C16.3161 0.0435938 15.6631 0 15 0C14.3368 0 13.6839 0.0435938 13.0435 0.126973V13.0434V13.0434H0.126973C0.0435938 13.6839 0 14.3369 0 15C0 15.6632 0.0435938 16.3161 0.126973 16.9565H13.0434H13.0434V29.873C13.6839 29.9564 14.3368 30 15 30C15.6631 30 16.3161 29.9565 16.9565 29.873V16.9566V16.9566H29.873C29.9564 16.3161 30 15.6632 30 15C30 14.3369 29.9564 13.6839 29.873 13.0435Z" fill="#D80027"/>
<path d="M18.9141 18.9131L25.6076 25.6067C25.9154 25.2989 26.2091 24.9772 26.4893 24.6437L20.7587 18.9131H18.9141V18.9131Z" fill="#D80027"/>
<path d="M11.0861 18.9131H11.086L4.39258 25.6065C4.70031 25.9144 5.02205 26.2081 5.35557 26.4883L11.0861 20.7576V18.9131Z" fill="#D80027"/>
<path d="M11.087 11.087V11.0869L4.39344 4.39331C4.08559 4.70105 3.79191 5.02278 3.51172 5.3563L9.24236 11.087H11.087V11.087Z" fill="#D80027"/>
<path d="M18.9141 11.087L25.6076 4.39338C25.2999 4.08553 24.9782 3.79186 24.6446 3.51172L18.9141 9.24236V11.087Z" fill="#D80027"/>
</svg>
