<svg width="30" height="30" viewBox="0 0 30 30" fill="none" xmlns="http://www.w3.org/2000/svg">
<path d="M15 30C23.2843 30 30 23.2843 30 15C30 6.71573 23.2843 0 15 0C6.71573 0 0 6.71573 0 15C0 23.2843 6.71573 30 15 30Z" fill="#0052B4"/>
<path d="M14.9986 5.86938L15.4843 7.36406H17.0558L15.7844 8.28779L16.2701 9.78246L14.9986 8.85867L13.7271 9.78246L14.2128 8.28779L12.9414 7.36406H14.5129L14.9986 5.86938Z" fill="#FFDA44"/>
<path d="M8.54416 8.54349L9.94455 9.25692L11.0558 8.14575L10.8099 9.6979L12.2102 10.4114L10.658 10.6573L10.4121 12.2095L9.69863 10.8092L8.14648 11.0551L9.25772 9.94388L8.54416 8.54349Z" fill="#FFDA44"/>
<path d="M5.86914 14.9999L7.36381 14.5142V12.9426L8.28748 14.2141L9.78221 13.7284L8.85836 14.9999L9.78221 16.2713L8.28748 15.7857L7.36381 17.0571V15.4855L5.86914 14.9999Z" fill="#FFDA44"/>
<path d="M8.54416 21.456L9.25766 20.0556L8.14648 18.9444L9.69869 19.1904L10.4121 17.79L10.658 19.3422L12.2101 19.5881L10.81 20.3016L11.0558 21.8538L9.94455 20.7425L8.54416 21.456Z" fill="#FFDA44"/>
<path d="M14.9986 24.1302L14.5129 22.6356H12.9414L14.2129 21.7118L13.7271 20.2173L14.9986 21.141L16.2701 20.2173L15.7844 21.7118L17.0558 22.6356H15.4843L14.9986 24.1302Z" fill="#FFDA44"/>
<path d="M21.455 21.456L20.0546 20.7426L18.9434 21.8538L19.1893 20.3015L17.7891 19.5881L19.3412 19.3422L19.5871 17.79L20.3005 19.1904L21.8527 18.9444L20.7414 20.0557L21.455 21.456Z" fill="#FFDA44"/>
<path d="M24.1297 14.9999L22.6351 15.4855V17.0571L21.7113 15.7856L20.2168 16.2713L21.1405 14.9999L20.2168 13.7284L21.7114 14.2141L22.6351 12.9426V14.5142L24.1297 14.9999Z" fill="#FFDA44"/>
<path d="M21.455 8.54367L20.7415 9.94406L21.8527 11.0553L20.3004 10.8093L19.5871 12.2096L19.3412 10.6574L17.7891 10.4115L19.1893 9.69809L18.9434 8.146L20.0547 9.25717L21.455 8.54367Z" fill="#FFDA44"/>
</svg>
