<svg width="30" height="30" viewBox="0 0 30 30" fill="none" xmlns="http://www.w3.org/2000/svg">
<g clip-path="url(#clip0)">
<path d="M20.0024 0.857178L18.252 5.71054C19.8677 11.0428 19.8677 18.9571 18.252 24.2896L20.0024 29.1424C25.8275 27.0826 30.0016 21.5301 30.0016 14.9995C30.0016 8.46985 25.8275 2.91703 20.0024 0.857178Z" fill="#E63026"/>
<path d="M20.0009 5.7107V0.857335C18.4366 0.304118 16.7541 0.000244141 15 0.000244141C17.313 0.000244141 14.1059 7.8392 20.0009 5.7107Z" fill="#E4E4E4"/>
<path d="M15.0003 30C16.7543 30 18.4369 29.6962 20.0012 29.1429V24.29C14.1654 23.7076 15.0003 30 15.0003 30Z" fill="#E4E4E4"/>
<path d="M0 14.9997C0 21.5522 4.20249 27.1194 10.0577 29.1626V0.837891C4.20249 2.88109 0 8.44828 0 14.9997Z" fill="#359846"/>
<path d="M20 5.71069V24.2897C21.616 18.9572 21.616 11.0429 20 5.71069Z" fill="#EF4C4C"/>
<path d="M19.9997 24.2899V5.7107C18.9785 2.33953 17.3118 0.000244141 14.9988 0.000244141C13.2666 0.000244141 11.6046 0.297721 10.0566 0.837955V29.1628C11.6046 29.703 13.2666 30.0001 14.9988 30.0001C17.3118 30 18.9785 27.6607 19.9997 24.2899Z" fill="#F3F4F5"/>
</g>
<defs>
<clipPath id="clip0">
<rect width="30" height="30" fill="white"/>
</clipPath>
</defs>
</svg>
