<svg width="30" height="30" viewBox="0 0 30 30" fill="none" xmlns="http://www.w3.org/2000/svg">
<path d="M15 30C23.2843 30 30 23.2843 30 15C30 6.71573 23.2843 0 15 0C6.71573 0 0 6.71573 0 15C0 23.2843 6.71573 30 15 30Z" fill="#FFDA44"/>
<path d="M11.7383 13.0435H29.8722C28.9134 5.68371 22.6203 0 14.9991 0C13.8792 0 12.7882 0.123809 11.7383 0.356543V13.0435H11.7383Z" fill="#0052B4"/>
<path d="M7.82605 13.0436V1.82397C3.70727 4.07128 0.75877 8.19341 0.126953 13.0436H7.82605V13.0436Z" fill="#0052B4"/>
<path d="M7.826 16.9563H0.126953C0.75877 21.8065 3.70727 25.9286 7.82605 28.1759L7.826 16.9563Z" fill="#0052B4"/>
<path d="M11.7383 16.9564V29.6433C12.7882 29.876 13.8792 29.9998 14.9991 29.9998C22.6203 29.9998 28.9134 24.3161 29.8722 16.9563H11.7383V16.9564Z" fill="#0052B4"/>
</svg>
