<svg width="30" height="30" viewBox="0 0 30 30" fill="none" xmlns="http://www.w3.org/2000/svg">
<path d="M15 30C23.2843 30 30 23.2843 30 15C30 6.71573 23.2843 0 15 0C6.71573 0 0 6.71573 0 15C0 23.2843 6.71573 30 15 30Z" fill="#D80027"/>
<path d="M14.3871 12.2568L15.6179 13.9528L17.6111 13.3065L16.3784 15.0011L17.6089 16.697L15.6165 16.0483L14.3838 17.7428L14.3851 15.6474L12.3926 14.9987L14.3858 14.3524L14.3871 12.2568Z" fill="#F0F0F0"/>
<path d="M11.0275 19.239C8.68631 19.239 6.78834 17.3411 6.78834 14.9999C6.78834 12.6587 8.68631 10.7608 11.0275 10.7608C11.7574 10.7608 12.4443 10.9454 13.0439 11.2703C12.1032 10.3502 10.8167 9.78247 9.39705 9.78247C6.51553 9.78247 4.17969 12.1184 4.17969 14.9998C4.17969 17.8813 6.51559 20.2172 9.39705 20.2172C10.8168 20.2172 12.1033 19.6494 13.0439 18.7294C12.4443 19.0544 11.7574 19.239 11.0275 19.239Z" fill="#F0F0F0"/>
</svg>
