<svg width="495" height="184" viewBox="0 0 495 184" fill="none" xmlns="http://www.w3.org/2000/svg">
<path d="M247.518 184C298.443 184 339.726 142.81 339.726 92C339.726 41.1898 298.443 0 247.518 0C196.593 0 155.311 41.1898 155.311 92C155.311 142.81 196.593 184 247.518 184Z" fill="#FFF9C4"/>
<path opacity="0.51" d="M287.01 118.516C286.694 117.876 286.316 117.268 285.882 116.702C286.3 117.319 286.646 117.972 287.01 118.516Z" fill="#AAAAAA"/>
<path opacity="0.51" d="M235.276 69.549C235.719 69.3577 236.139 69.1205 236.532 68.8412C238.114 67.6433 237.35 68.206 235.276 69.549Z" fill="#AAAAAA"/>
<path opacity="0.51" d="M271.038 161.404C275.046 158.483 278.89 155.344 282.553 152.002C287.319 147.501 297.396 135.359 286.973 118.516C291.303 127.101 285.318 143.037 267.2 147.556C247.773 152.547 240.115 131.475 241.17 119.787C242.225 108.099 267.237 101.456 267.237 101.456V97.0093C267.237 92.6352 256.541 80.3299 256.541 80.3299L242.279 93.1797C231.465 89.6552 220.85 85.5474 210.482 80.8743C217.104 81.0558 230.219 72.8522 235.276 69.549C228.891 72.3985 214.32 68.8412 214.32 68.8412C214.32 68.8412 199.877 66.5362 215.685 61.7266C237.24 55.1564 237.24 42.8511 228.309 31.6346C228.036 34.23 226.49 55.0839 209.391 48.8586C195.693 43.8856 210.209 24.52 210.209 24.52C197.276 24.3204 195.42 34.9923 195.402 41.1087C194.784 34.7927 192.746 24.7741 186.307 37.3699C182.136 45.8518 179.894 55.1478 179.74 64.5942C179.908 64.5493 180.078 64.5129 180.25 64.4853C181.268 64.4853 182.244 64.8888 182.964 65.607C183.683 66.3251 184.088 67.2992 184.088 68.3149C184.088 69.3305 183.683 70.3046 182.964 71.0228C182.244 71.741 181.268 72.1444 180.25 72.1444C180.046 72.1274 179.845 72.0909 179.649 72.0355C179.649 76.6274 179.959 81.4188 180.25 86.4644C180.698 86.8101 181.062 87.2526 181.314 87.7587C181.566 88.2648 181.699 88.8213 181.705 89.3865C181.701 90.3921 181.303 91.3563 180.595 92.0726C180.595 93.2523 180.741 94.4502 180.813 95.7025C180.177 94.849 179.623 93.9375 179.158 92.9801C178.745 93.1373 178.308 93.2232 177.867 93.2342C176.942 93.256 176.04 92.9405 175.332 92.3468C174.623 91.7531 174.156 90.9219 174.018 90.0091C173.879 89.0964 174.08 88.1646 174.58 87.3884C175.081 86.6122 175.849 86.0449 176.739 85.7929C174.611 75.9921 174.92 61.9807 177.794 48.3685C171.829 64.0508 169.22 80.8051 170.136 97.5538C171.232 97.0079 172.44 96.7222 173.665 96.7189C174.751 96.6673 175.837 96.8363 176.857 97.2157C177.876 97.5951 178.808 98.177 179.595 98.9261C180.383 99.6753 181.01 100.576 181.438 101.574C181.866 102.572 182.087 103.646 182.087 104.732C182.087 105.818 181.866 106.892 181.438 107.89C181.01 108.888 180.383 109.789 179.595 110.538C178.808 111.287 177.876 111.869 176.857 112.248C175.837 112.628 174.751 112.797 173.665 112.745H173.264C173.671 113.635 174.126 114.501 174.629 115.34C182.869 130.386 196.839 170.606 246.754 172.239C296.669 173.873 304.6 154.09 304.6 154.09C297.396 163.219 271.038 161.404 271.038 161.404ZM184.142 79.0231C184.026 79.0231 183.911 79 183.804 78.9551C183.697 78.9102 183.6 78.8444 183.518 78.7615C183.437 78.6787 183.373 78.5805 183.33 78.4727C183.288 78.3649 183.267 78.2497 183.269 78.1338C183.267 78.0187 183.288 77.9043 183.331 77.7975C183.374 77.6907 183.438 77.5936 183.519 77.5122C183.601 77.4308 183.698 77.3668 183.805 77.3239C183.912 77.281 184.027 77.2601 184.142 77.2626C184.259 77.2602 184.374 77.2809 184.482 77.3236C184.59 77.3663 184.689 77.4301 184.772 77.5112C184.855 77.5924 184.921 77.6892 184.966 77.7961C185.011 77.903 185.034 78.0178 185.034 78.1338C185.034 78.2506 185.011 78.3662 184.966 78.4741C184.921 78.582 184.855 78.68 184.773 78.7626C184.69 78.8452 184.592 78.9107 184.483 78.9554C184.375 79.0001 184.259 79.0231 184.142 79.0231V79.0231ZM186.889 53.7952C186.346 53.7952 185.815 53.6345 185.363 53.3334C184.911 53.0322 184.559 52.6042 184.351 52.1034C184.144 51.6027 184.089 51.0516 184.195 50.52C184.301 49.9884 184.563 49.5 184.947 49.1168C185.331 48.7335 185.82 48.4725 186.353 48.3667C186.886 48.261 187.438 48.3153 187.94 48.5227C188.442 48.7301 188.871 49.0814 189.173 49.5321C189.475 49.9828 189.636 50.5126 189.636 51.0547C189.631 51.78 189.34 52.4744 188.826 52.9873C188.312 53.5002 187.616 53.7905 186.889 53.7952V53.7952ZM218.686 100.839C219.445 100.839 220.187 101.063 220.818 101.484C221.45 101.905 221.942 102.503 222.232 103.203C222.523 103.903 222.599 104.673 222.451 105.416C222.302 106.158 221.937 106.841 221.4 107.376C220.863 107.912 220.179 108.277 219.435 108.424C218.69 108.572 217.919 108.496 217.217 108.206C216.516 107.917 215.917 107.426 215.495 106.796C215.073 106.166 214.848 105.426 214.848 104.668C214.848 103.653 215.252 102.679 215.972 101.96C216.692 101.242 217.668 100.839 218.686 100.839V100.839ZM214.848 147.901C212.512 147.904 210.228 147.216 208.284 145.924C206.34 144.632 204.824 142.794 203.928 140.642C203.032 138.49 202.795 136.121 203.249 133.835C203.702 131.549 204.825 129.448 206.475 127.799C208.126 126.15 210.229 125.026 212.52 124.57C214.81 124.114 217.185 124.346 219.343 125.237C221.502 126.128 223.346 127.638 224.644 129.576C225.943 131.513 226.635 133.791 226.635 136.122C226.638 137.668 226.335 139.199 225.743 140.628C225.152 142.057 224.284 143.355 223.189 144.449C222.095 145.544 220.794 146.411 219.363 147.004C217.932 147.596 216.397 147.901 214.848 147.901V147.901Z" fill="#AAAAAA"/>
<path d="M140.285 139.933C140.285 141.258 139.176 142.147 136.956 142.583C134.749 142.876 132.516 142.925 130.299 142.728C128.607 142.681 126.919 142.548 125.242 142.329C124.538 142.229 123.82 142.294 123.145 142.518C122.47 142.743 121.857 143.121 121.354 143.623C120.851 144.124 120.472 144.736 120.247 145.409C120.022 146.083 119.957 146.799 120.057 147.501C120.057 149.643 120.185 152.946 120.458 157.139C120.73 161.331 120.858 164.653 120.858 166.776C120.858 169.88 119.475 171.441 116.729 171.441C86.0836 171.441 69.9607 171.059 68.36 170.297C66.7592 169.553 65.9588 168.609 65.9588 167.448C66.2774 164.133 66.8367 160.845 67.6324 157.611C68.5423 153.859 69.1026 150.031 69.3059 146.176C69.3059 143.254 67.6506 141.784 64.3763 141.784C58.4098 141.784 49.5025 141.966 37.6544 142.329C25.8063 142.692 16.893 142.867 10.9144 142.855C3.82007 142.855 0.272926 140.066 0.272926 134.488C0.272926 131.645 0.224418 127.41 0.127402 121.783C0.0303856 116.157 -0.012059 111.922 6.80422e-05 109.079C0.259138 105.862 1.73547 102.864 4.12931 100.694C14.2729 90.2169 23.7504 79.118 32.5065 67.4618C35.3442 63.4689 44.9791 47.9148 61.4112 20.7994C64.5882 15.0462 68.0611 9.46081 71.8162 4.0655C72.2652 3.41305 72.8573 2.87128 73.5476 2.48132C74.2379 2.09136 75.0081 1.86347 75.7999 1.81496C77.9464 1.81496 84.5435 3.41212 95.5912 6.60643C106.639 9.80075 114.188 11.3919 118.238 11.3798C121.076 11.3798 122.495 13.1947 122.495 16.8246C122.367 22.0448 121.966 27.2547 121.294 32.4332C120.606 37.6654 120.193 42.9299 120.057 48.2052V104.178C122.997 104.092 125.93 103.85 128.843 103.452C131.708 102.989 134.601 102.722 137.502 102.654C139.176 102.654 140.031 103.67 140.031 105.703C140.031 107.736 139.921 110.367 139.685 114.088C139.448 117.809 139.358 120.64 139.358 122.582C139.358 124.524 139.521 127.446 139.83 131.294C140.14 135.141 140.285 137.936 140.285 139.933ZM74.472 55.9187C74.472 55.3924 74.1628 55.1202 73.5443 55.1202C72.9258 55.1202 71.9435 55.7009 71.1431 56.8444L54.0986 84.232C48.3544 93.3884 41.6465 101.906 34.0891 109.641C38.9399 109.641 51.3761 109.036 71.3978 107.826C71.5797 104.293 72.1861 95.5694 73.2168 81.6548C74.0536 70.6078 74.472 62.0291 74.472 55.9187Z" fill="white"/>
<path d="M495.001 139.933C495.001 141.258 493.891 142.147 491.672 142.583C489.465 142.876 487.232 142.925 485.014 142.728C483.323 142.681 481.635 142.548 479.957 142.329C479.253 142.229 478.535 142.294 477.86 142.518C477.186 142.743 476.573 143.121 476.07 143.623C475.567 144.124 475.188 144.736 474.963 145.409C474.738 146.083 474.673 146.799 474.773 147.501C474.773 149.643 474.9 152.946 475.173 157.139C475.446 161.331 475.573 164.653 475.573 166.776C475.573 169.88 474.191 171.441 471.444 171.441C440.787 171.441 424.664 171.059 423.075 170.297C421.475 169.553 420.674 168.609 420.674 167.448C420.993 164.133 421.552 160.845 422.348 157.611C423.258 153.859 423.818 150.031 424.021 146.176C424.021 143.254 422.366 141.784 419.092 141.784C413.125 141.784 404.218 141.966 392.37 142.329C380.522 142.692 371.608 142.867 365.63 142.855C358.511 142.855 354.958 140.066 354.97 134.488C354.97 131.645 354.922 127.41 354.825 121.783C354.728 116.157 354.685 111.922 354.697 109.079C354.956 105.862 356.433 102.864 358.827 100.694C368.97 90.2169 378.448 79.118 387.204 67.4618C390.041 63.4689 399.676 47.9148 416.108 20.7994C419.285 15.0462 422.758 9.46081 426.513 4.0655C426.964 3.41072 427.559 2.86752 428.253 2.47745C428.947 2.08737 429.72 1.86076 430.515 1.81496C432.662 1.81496 439.259 3.41212 450.307 6.60643C461.354 9.80075 468.903 11.3919 472.954 11.3798C475.791 11.3798 477.21 13.1947 477.21 16.8246C477.082 22.0448 476.681 27.2547 476.01 32.4332C475.334 37.66 474.934 42.9185 474.809 48.187V104.178C477.756 104.068 480.695 103.802 483.613 103.38C486.478 102.916 489.371 102.649 492.272 102.581C493.946 102.581 494.801 103.598 494.801 105.63C494.801 107.663 494.691 110.295 494.455 114.015C494.218 117.736 494.128 120.567 494.128 122.509C494.128 124.451 494.291 127.373 494.6 131.221C494.91 135.069 495.001 137.936 495.001 139.933ZM429.187 55.9187C429.187 55.3924 428.878 55.1202 428.26 55.1202C427.641 55.1202 426.659 55.7009 425.859 56.8444L408.814 84.232C403.07 93.3884 396.362 101.906 388.805 109.641C393.655 109.641 406.092 109.036 426.113 107.826C426.295 104.293 426.901 95.5694 427.932 81.6548C428.769 70.6078 429.187 62.0291 429.187 55.9187Z" fill="white"/>
</svg>
