<svg width="17" height="19" viewBox="0 0 17 19" fill="none" xmlns="http://www.w3.org/2000/svg">
<path d="M10.6774 2.25555C10.0705 2.09292 9.43365 2.48158 9.26289 3.11887C9.22286 3.26829 9.21206 3.42068 9.22647 3.56528C7.56065 3.57267 6.17217 4.71835 5.69204 6.51022C5.08392 8.77977 4.27661 9.67112 3.61619 10.1177C3.28597 10.3411 2.98963 10.4509 2.73052 10.5598C2.60057 10.6136 2.48033 10.6699 2.36449 10.7529C2.24866 10.8359 2.13148 10.9671 2.08659 11.1346C1.97983 11.5331 2.122 11.9339 2.38997 12.2447C2.65794 12.5555 3.04956 12.8146 3.53777 13.0667C4.17134 13.393 4.98081 13.6924 5.88222 13.9763C5.76166 14.1503 5.66304 14.3459 5.60511 14.5621C5.34882 15.5186 5.88416 16.5004 6.79511 16.7444C7.70605 16.9885 8.66056 16.406 8.91685 15.4495C8.97509 15.2321 8.98855 15.0137 8.96973 14.8036C9.89237 15.0084 10.7431 15.1539 11.4549 15.1881C12.0038 15.2138 12.4724 15.1853 12.8599 15.0501C13.2474 14.915 13.5709 14.6389 13.6777 14.2405C13.7226 14.0729 13.6867 13.9007 13.6279 13.7709C13.5691 13.6411 13.4931 13.5322 13.4074 13.4207C13.2375 13.1968 13.0358 12.9535 12.8615 12.595C12.5128 11.878 12.2594 10.7024 12.8675 8.43288C13.3473 6.64214 12.7152 4.95626 11.2791 4.11527C11.3638 3.99725 11.4307 3.85987 11.4707 3.71046C11.6415 3.07317 11.2843 2.41818 10.6774 2.25555ZM10.5221 2.83511C10.8304 2.91772 11.0055 3.23882 10.9188 3.56256C10.832 3.88629 10.5198 4.07683 10.2115 3.99422C9.9032 3.9116 9.72811 3.5905 9.81485 3.26677C9.9016 2.94303 10.2138 2.75249 10.5221 2.83511ZM10.7661 4.51164C12.164 5.181 12.7614 6.62102 12.3155 8.28498C11.6813 10.6519 11.9291 12.0213 12.3432 12.8735C12.5504 13.299 12.7954 13.5964 12.9535 13.8038C13.0321 13.9073 13.0892 13.9918 13.112 14.0404C13.1348 14.0889 13.1282 14.0835 13.1257 14.0926C13.0772 14.2737 12.962 14.3847 12.6891 14.4803C12.4162 14.5758 12.0019 14.6213 11.4932 14.5966C10.4755 14.5483 9.08729 14.2528 7.57156 13.8467C6.05584 13.4405 4.70583 13.0024 3.80033 12.5353C3.34742 12.3023 3.01139 12.0558 2.82285 11.8366C2.63431 11.6175 2.59002 11.4636 2.63855 11.2825C2.64097 11.2735 2.63252 11.2749 2.67655 11.2442C2.72059 11.2135 2.81226 11.1689 2.93207 11.1185C3.17275 11.018 3.53361 10.883 3.92582 10.6181C4.71053 10.087 5.60979 9.02501 6.244 6.65812C6.68955 4.99529 7.9256 4.05626 9.47006 4.17407C9.61542 4.36467 9.81367 4.50878 10.0562 4.57377C10.3009 4.63934 10.5444 4.6063 10.7661 4.51164ZM6.47245 14.1539C6.78003 14.2436 7.09178 14.3393 7.41627 14.4262C7.74076 14.5132 8.05858 14.5862 8.3698 14.6623C8.42119 14.8629 8.42313 15.0842 8.36489 15.3016C8.19232 15.9456 7.5638 16.3292 6.9504 16.1649C6.33699 16.0005 5.98448 15.3541 6.15706 14.71C6.2159 14.4904 6.32548 14.3014 6.47245 14.1539Z" fill="#2A2A2A" stroke="black" stroke-width="0.4"/>
</svg>
