<svg width="30" height="30" viewBox="0 0 30 30" fill="none" xmlns="http://www.w3.org/2000/svg">
<g clip-path="url(#clip0)">
<path d="M0.000570028 0L16.2006 16.2L25.8568 6.54375L19.3881 0H17.7006L21.1881 3.4875C21.7881 4.0875 21.6006 4.67344 21.3006 5.5125C21.181 5.87344 21.0568 6.18281 21.0568 6.54375C21.0568 6.90469 21.2326 7.32422 21.4131 7.74375C21.7131 8.40469 21.8982 8.94844 21.6568 9.1875L18.0006 12.8438C17.881 12.9633 17.4521 12.7758 17.2131 12.6563C16.9131 12.5367 16.6131 12.4125 16.3131 12.4125C16.074 12.4125 15.8443 12.5391 15.5443 12.6C14.9443 12.8391 14.6443 12.9 14.3443 12.6L3.60057 1.85625C3.23963 1.49531 3.36151 1.25625 3.60057 0.65625C3.66151 0.417188 3.71307 0.239063 3.71307 0H0.000570028ZM10.2943 0C9.98495 0.314063 9.69432 0.6 9.69432 0.6C8.14744 2.46094 8.08885 5.03203 9.60057 6.54375C10.2803 7.22344 11.2482 7.62891 12.3193 7.6875C13.5849 7.68281 14.8037 7.13438 15.7693 6.16875C17.3607 4.575 17.7474 2.28516 16.7256 0.6C16.7256 0.6 16.5521 0.3375 16.3318 0H10.2943ZM3.18807 4.9875L10.2006 16.2L12.7881 14.5875L10.6131 12.4125C10.4935 12.4125 10.3764 12.4266 10.2568 12.4875C9.59588 12.607 9.29588 12.607 9.05682 12.1875L6.90057 8.75625L3.18807 4.9875ZM17.9631 7.14375C17.5271 7.14375 17.124 7.30781 16.8381 7.59375C16.5451 7.88438 16.3881 8.27813 16.3881 8.7C16.4443 9.1875 16.606 9.57422 16.8943 9.8625C17.4779 10.4461 18.5232 10.4461 19.1068 9.8625C19.7092 9.26016 19.7139 8.23359 19.1068 7.575C18.8279 7.29609 18.399 7.14375 17.9631 7.14375ZM8.86932 16.725C7.78885 16.725 6.90057 17.325 6.90057 17.325L10.8006 19.9688C11.1006 19.8492 11.506 19.725 11.9256 19.725C12.5256 19.725 13.3764 19.6055 14.1568 19.425C13.0764 18.7641 11.2764 17.6391 10.8568 17.4C10.2568 16.9805 9.53026 16.725 8.86932 16.725ZM21.9006 16.725C19.0201 16.725 17.9326 17.932 17.2131 18.7125C16.974 18.9516 16.7935 19.1367 16.6131 19.2563C16.374 19.3758 15.9568 19.5445 15.3568 19.725C14.2764 20.025 12.9615 20.2641 12.0006 20.325C10.8006 20.3859 10.2006 21.1055 10.2006 21.825C10.2006 22.0055 10.1959 22.132 10.2568 22.3125V22.3688C10.2568 22.4297 10.3131 22.4414 10.3131 22.5C10.4326 22.7391 10.6178 22.9195 10.8568 23.1C11.0959 23.2805 11.4639 23.4 11.9443 23.4H15.3568C16.7959 23.4 18.7764 22.8609 18.9568 22.8H19.0131C19.1935 22.7391 19.3084 22.7883 19.3693 22.9688C19.4303 23.0883 19.381 23.2641 19.2006 23.325C19.1396 23.325 17.1639 23.925 15.5443 23.925H11.9443C11.3443 23.925 10.4326 24 9.41307 23.4L3.00057 19.0688C1.55916 18.1688 -0.0580238 18.5883 0.000570028 20.2688C0.000570028 20.8688 0.595883 21.6539 1.55682 22.3125C2.33729 22.8516 11.0935 28.5445 11.8131 29.025C12.5326 29.5055 13.3131 30 14.5131 30C15.174 30 15.9521 29.8055 16.9131 29.325C17.5131 29.025 19.5568 27.9492 21.0568 27.1688L22.3131 26.5125C23.274 26.032 23.581 26.0883 24.3006 26.5688L25.9131 27.6563C26.0326 27.7172 26.2201 27.7734 26.4006 27.7125C26.5201 27.6516 26.6959 27.5367 26.7568 27.3563L29.9443 20.2688C30.0639 19.9688 29.9443 19.6195 29.6443 19.5C24.7248 17.2805 23.4006 16.725 21.9006 16.725ZM4.91307 17.4C4.31307 17.4 3.34979 17.6883 3.16932 18.4688L9.76932 22.8563L9.84432 22.9125L9.90057 22.9688C9.66151 22.6078 9.54432 22.1836 9.54432 21.825C9.54432 21.2836 9.77635 20.7445 10.2568 20.325L7.25682 18.3C6.23729 17.6391 5.51307 17.4 4.91307 17.4Z" fill="#2B5FAE"/>
</g>
<defs>
<clipPath id="clip0">
<rect width="30" height="30" fill="white"/>
</clipPath>
</defs>
</svg>
