<svg width="30" height="30" viewBox="0 0 30 30" fill="none" xmlns="http://www.w3.org/2000/svg">
<path d="M8.4 0C6.74297 0 5.4 1.34297 5.4 3C5.4 4.65703 6.74297 6 8.4 6C10.057 6 11.4 4.65703 11.4 3C11.4 1.34297 10.057 0 8.4 0ZM25.8 0C24.143 0 22.8 1.34297 22.8 3C22.8 4.65703 24.143 6 25.8 6C27.457 6 28.8 4.65703 28.8 3C28.8 1.34297 27.457 0 25.8 0ZM16.8 4.8C16.4672 4.8 16.2 5.06953 16.2 5.4V7.8C16.2 8.13047 16.4672 8.4 16.8 8.4H16.9688C16.7578 8.43984 16.5633 8.54297 16.4062 8.7L14.0625 11.0438L12.15 8.5125C11.55 7.67344 10.5258 7.2 9.50625 7.2H6.8625C5.6625 7.2 4.575 7.86797 3.975 8.8875L0.15 15.4875C-0.15 16.0266 0.0234375 16.6875 0.5625 16.9875C0.742969 17.107 0.925781 17.1 1.10625 17.1C1.46719 17.1 1.88203 16.9148 2.0625 16.5563L4.51875 12.1875L3.43125 17.4H0V18.6H21.6V17.4H12.8063L11.475 11.2875L13.05 13.3875C13.2305 13.6266 13.5188 13.8 13.8188 13.8H13.875C14.175 13.8 14.482 13.6805 14.6625 13.5L17.9062 10.2563C18.3867 9.83672 18.382 9.11953 17.9625 8.7C17.8055 8.54297 17.6109 8.43984 17.4 8.4H18C18.3328 8.4 18.6 8.13047 18.6 7.8V5.4C18.6 5.06953 18.3328 4.8 18 4.8H16.8ZM16.0125 17.4C16.2984 17.4 16.5891 17.2922 16.8 17.0813L22.8 10.8375V28.8C22.8 29.4609 23.3391 30 24 30H27C27.6609 30 28.2 29.4609 28.2 28.8V19.8H28.8C29.4609 19.8 30 19.2609 30 18.6V10.4625C30 8.6625 28.5 7.2 26.7 7.2H24.6C23.6391 7.2 22.7484 7.53047 22.0875 8.25L15.3 15.525C14.8195 15.9445 14.8242 16.6617 15.2438 17.0813C15.4523 17.2922 15.7266 17.4 16.0125 17.4Z" fill="#2B5FAE"/>
</svg>
