<svg width="87" height="29" viewBox="0 0 87 29" fill="none" xmlns="http://www.w3.org/2000/svg">
<path d="M26.5351 27.3541C26.5351 27.6391 26.4681 27.8961 26.3181 28.1131C26.1691 28.3301 25.9651 28.5061 25.6941 28.6281C25.4231 28.7501 25.0971 28.8181 24.7321 28.8181C24.4201 28.8181 24.1761 28.8041 23.9591 28.7501C23.7561 28.7091 23.5391 28.6281 23.3091 28.5201V27.4221C23.5391 27.5441 23.7971 27.6391 24.0411 27.7071C24.2981 27.7751 24.5291 27.8021 24.7461 27.8021C24.9361 27.8021 25.0721 27.7751 25.1531 27.7071C25.2351 27.6391 25.2751 27.5581 25.2751 27.4631C25.2751 27.3951 25.2611 27.3411 25.2211 27.3001C25.1801 27.2461 25.1261 27.2051 25.0581 27.1511C24.9771 27.0971 24.7731 27.0021 24.4481 26.8531C24.1501 26.7171 23.9191 26.5821 23.7701 26.4601C23.6211 26.3381 23.5131 26.1891 23.4311 26.0261C23.3641 25.8631 23.3231 25.6601 23.3231 25.4431C23.3231 25.0231 23.4721 24.6841 23.7841 24.4541C24.0961 24.2241 24.5161 24.1011 25.0581 24.1011C25.5331 24.1011 26.0201 24.2091 26.5091 24.4261L26.1291 25.3881C25.6951 25.1851 25.3291 25.0901 25.0181 25.0901C24.8551 25.0901 24.7471 25.1171 24.6651 25.1711C24.5971 25.2251 24.5571 25.2931 24.5571 25.3881C24.5571 25.4831 24.5981 25.5641 24.6921 25.6321C24.7871 25.7001 25.0451 25.8361 25.4511 26.0251C25.8441 26.2011 26.1161 26.3911 26.2781 26.5941C26.4541 26.7851 26.5351 27.0431 26.5351 27.3541ZM30.2501 27.3541C30.2501 27.6391 30.1821 27.8961 30.0331 28.1131C29.8841 28.3301 29.6801 28.5061 29.4091 28.6281C29.1381 28.7501 28.8131 28.8181 28.4471 28.8181C28.1491 28.8181 27.8911 28.8041 27.6741 28.7501C27.4711 28.7091 27.2541 28.6281 27.0241 28.5201V27.4221C27.2541 27.5441 27.5121 27.6391 27.7561 27.7071C28.0141 27.7751 28.2441 27.8021 28.4611 27.8021C28.6501 27.8021 28.7861 27.7751 28.8681 27.7071C28.9491 27.6391 29.0031 27.5581 29.0031 27.4631C29.0031 27.3951 28.9891 27.3411 28.9491 27.3001C28.9081 27.2461 28.8541 27.2051 28.7861 27.1511C28.7051 27.0971 28.5011 27.0021 28.1761 26.8531C27.8781 26.7171 27.6471 26.5821 27.4981 26.4601C27.3491 26.3381 27.2411 26.1891 27.1731 26.0261C27.1051 25.8631 27.0651 25.6601 27.0651 25.4431C27.0651 25.0231 27.2141 24.6841 27.5261 24.4541C27.8381 24.2241 28.2581 24.1011 28.8001 24.1011C29.2751 24.1011 29.7621 24.2091 30.2511 24.4261L29.8711 25.3881C29.4371 25.1851 29.0711 25.0901 28.7601 25.0901C28.5971 25.0901 28.4751 25.1171 28.4071 25.1711C28.3391 25.2251 28.2991 25.2931 28.2991 25.3881C28.2991 25.4831 28.3401 25.5641 28.4341 25.6321C28.5291 25.7001 28.7731 25.8361 29.1931 26.0251C29.5861 26.2011 29.8711 26.3911 30.0201 26.5941C30.1681 26.7851 30.2501 27.0431 30.2501 27.3541ZM30.9541 28.7511V24.1551H32.1881V27.7471H33.9501V28.7501H30.9541V28.7511ZM36.8111 24.3861C36.2421 24.3861 35.7811 24.5761 35.4561 24.9421C35.1301 25.3081 34.9551 25.8101 34.9551 26.4611C34.9551 27.1111 35.1181 27.6271 35.4151 27.9931C35.7271 28.3591 36.1741 28.5351 36.7571 28.5351C37.1361 28.5351 37.5031 28.4811 37.8151 28.3861V28.6711C37.5171 28.7791 37.1371 28.8341 36.6761 28.8341C36.0251 28.8341 35.5241 28.6311 35.1571 28.2101C34.7911 27.7901 34.6011 27.2071 34.6011 26.4611C34.6011 26.0001 34.6961 25.5801 34.8721 25.2271C35.0481 24.8741 35.3061 24.5901 35.6311 24.4001C35.9561 24.2101 36.3491 24.1151 36.7831 24.1151C37.2301 24.1151 37.6371 24.1961 37.9891 24.3721L37.8671 24.6571C37.5291 24.4671 37.1771 24.3861 36.8111 24.3861ZM41.3521 28.7511H38.8441V24.1551H41.3521V24.4531H39.1691V26.1881H41.2301V26.4861H39.1691V28.4521H41.3521V28.7511ZM42.7081 26.7451V28.7381H42.3961V24.1421H43.4941C44.0631 24.1421 44.4831 24.2501 44.7551 24.4541C45.0261 24.6711 45.1621 24.9831 45.1621 25.4031C45.1621 25.7151 45.0801 25.9721 44.9181 26.1761C44.7551 26.3931 44.5111 26.5421 44.1721 26.6371L45.4191 28.7241H45.0401L43.8601 26.7311H42.7081V26.7451ZM42.7081 26.4741H43.5891C43.9821 26.4741 44.2801 26.3921 44.4841 26.2161C44.7011 26.0401 44.8101 25.7821 44.8101 25.4571C44.8101 25.1041 44.7021 24.8471 44.4981 24.6981C44.2951 24.5351 43.9421 24.4541 43.4681 24.4541H42.7091V26.4741H42.7081ZM47.4121 28.7511H47.0871V24.4671H45.5961V24.1691H48.9041V24.4671H47.4131V28.7511H47.4121ZM49.5811 28.7511V24.1551H49.9061V28.7511H49.5811ZM51.5201 28.7511H51.2081V24.1551H53.7291V24.4531H51.5331V26.4051H53.6071V26.7031H51.5331V28.7501H51.5201V28.7511ZM54.4341 28.7511V24.1551H54.7591V28.7511H54.4341ZM58.0131 24.3861C57.4431 24.3861 56.9821 24.5761 56.6571 24.9421C56.3321 25.3081 56.1561 25.8101 56.1561 26.4611C56.1561 27.1111 56.3191 27.6271 56.6311 27.9931C56.9431 28.3591 57.3901 28.5351 57.9731 28.5351C58.3531 28.5351 58.7191 28.4811 59.0311 28.3861V28.6711C58.7331 28.7791 58.3531 28.8341 57.8921 28.8341C57.2411 28.8341 56.7401 28.6311 56.3731 28.2101C56.0071 27.7901 55.8171 27.2071 55.8171 26.4611C55.8171 26.0001 55.9121 25.5801 56.0881 25.2271C56.2641 24.8741 56.5221 24.5901 56.8471 24.4001C57.1721 24.2101 57.5651 24.1151 57.9991 24.1151C58.4461 24.1151 58.8531 24.1961 59.2061 24.3721L59.0701 24.6571C58.7311 24.4671 58.3791 24.3861 58.0131 24.3861ZM62.2561 27.1241H60.3851L59.7481 28.7371H59.3951L61.2391 24.1281H61.4431L63.2461 28.7371H62.8801L62.2561 27.1241ZM60.5071 26.8391H62.1471L61.5231 25.1851C61.4691 25.0491 61.4151 24.8731 61.3341 24.6431C61.2801 24.8471 61.2121 25.0231 61.1441 25.1851L60.5071 26.8391ZM65.1031 28.7511H64.7781V24.4671H63.2871V24.1691H66.5951V24.4671H65.1041V28.7511H65.1031ZM69.7801 28.7511H67.2721V24.1551H69.7801V24.4531H67.5841V26.1881H69.6581V26.4861H67.5841V28.4521H69.7801V28.7511Z" fill="#231F20"/>
<path d="M20.2618 14.6C20.5328 13.936 20.2618 13.096 19.6518 12.729C19.0418 12.363 18.5268 11.482 18.5128 10.763C18.4998 10.045 17.9028 9.394 17.1978 9.299V6.833C17.1978 3.064 14.1348 0 10.3528 0C6.58381 0 3.51981 3.064 3.51981 6.833V9.305C2.82681 9.413 2.24581 10.068 2.23181 10.764C2.21881 11.469 1.70381 12.364 1.09281 12.73C0.482813 13.109 0.211813 13.95 0.482813 14.601C0.767813 15.266 0.658813 16.282 0.252813 16.865C-0.153187 17.448 -0.059187 18.329 0.455813 18.817C0.984813 19.305 1.29681 20.268 1.16081 20.972C1.02481 21.663 1.45881 22.436 2.13681 22.667C2.81481 22.898 3.49181 23.656 3.65581 24.348C3.81881 25.039 4.53681 25.555 5.24181 25.5C5.94681 25.445 6.88181 25.853 7.31581 26.422C7.74981 26.991 8.61681 27.168 9.24081 26.829C9.87781 26.49 10.8948 26.49 11.5178 26.829C12.1418 27.168 12.9958 26.992 13.4298 26.422C13.8638 25.853 14.7988 25.446 15.5038 25.5C16.2088 25.554 16.9268 25.039 17.0898 24.348C17.2528 23.657 17.9308 22.898 18.6088 22.667C19.2728 22.437 19.7198 21.677 19.5848 20.972C19.4488 20.281 19.7748 19.305 20.2898 18.817C20.8048 18.329 20.8998 17.448 20.4928 16.865C20.0998 16.268 19.9908 15.251 20.2618 14.6ZM6.86881 6.833C6.86881 4.908 8.42781 3.349 10.3528 3.349C12.2778 3.349 13.8368 4.908 13.8368 6.833V7.12C13.7448 7.128 13.6538 7.145 13.5658 7.171C12.8748 7.374 11.8848 7.157 11.3428 6.696C10.8008 6.235 9.91881 6.235 9.37681 6.696C8.83381 7.158 7.84481 7.375 7.17981 7.171C7.07781 7.141 6.97381 7.124 6.86781 7.118V6.833H6.86881ZM10.3528 23.453C6.61081 23.453 3.57481 20.416 3.57481 16.675C3.57481 15.251 4.01581 13.93 4.76681 12.839C5.31781 12.039 6.03481 11.363 6.86981 10.862C7.88781 10.25 9.07981 9.897 10.3538 9.897C11.6278 9.897 12.8188 10.25 13.8378 10.862C14.6718 11.363 15.3898 12.039 15.9398 12.839C16.6908 13.93 17.1318 15.252 17.1318 16.675C17.1308 20.416 14.0938 23.453 10.3528 23.453ZM10.8128 12.228H14.7298C14.7298 12.228 14.4858 13.828 13.1298 13.828H11.1918C9.99881 13.828 9.53781 14.113 9.33481 14.248C8.99581 14.492 8.79281 14.817 8.65681 15.143C8.61581 15.279 8.50781 15.658 8.45381 15.997L8.27781 17.339C8.23681 17.637 8.22381 18.085 8.26381 18.288C8.35881 18.803 8.62981 19.088 9.06381 19.25C9.38981 19.372 9.85081 19.413 10.3248 19.413H13.8358C13.8358 19.413 13.6458 21.013 12.1138 21.013H9.47081C7.96581 21.013 6.94981 20.471 6.35281 19.806C5.85081 19.237 5.66181 18.45 5.78281 17.393L5.97281 15.861C6.24381 13.841 7.42381 12.648 9.60581 12.323C9.97281 12.269 10.3788 12.228 10.8128 12.228ZM74.8268 10.303C75.3008 10.845 75.4908 11.577 75.3688 12.54C75.3688 12.54 75.1798 14.14 75.1658 14.235C75.0838 14.75 74.9358 15.184 74.7318 15.55C74.3528 16.187 73.5928 17.19 70.8148 17.19H68.0758C67.1408 17.19 66.7068 16.851 66.7878 16.255L67.0858 14.018L67.3978 11.483H68.5638C69.4038 11.483 69.6208 12.201 69.5668 12.649L69.1878 15.727H70.5298C71.5468 15.727 72.6988 15.483 72.9018 13.883L73.0648 12.649C73.2818 11.104 72.5368 10.643 71.1538 10.643H69.8248H68.7808C67.8858 10.643 67.7098 9.979 67.6968 9.45V9.205H71.2488C73.0238 9.205 74.1898 9.584 74.8268 10.303ZM38.9838 9.029H38.5898C35.7978 9.056 34.3338 10.222 34.0218 12.445L33.8318 13.882C33.7098 14.872 33.8858 15.617 34.3738 16.159C34.9698 16.824 36.0138 17.311 37.5868 17.325H37.9798C40.7178 17.298 42.1688 16.173 42.5218 14.098L42.5488 13.949L42.7388 12.512C42.8608 11.482 42.6848 10.709 42.1828 10.153C41.5858 9.489 40.5418 9.042 38.9838 9.029ZM40.4338 12.513L40.2578 13.828C40.1768 14.411 40.0278 14.858 39.7698 15.197C39.4168 15.644 38.8888 15.915 38.1568 15.915H37.7368C37.0048 15.915 36.4758 15.658 36.2458 15.237C36.0968 14.925 36.0568 14.478 36.1378 13.882L36.3138 12.567C36.4088 11.862 36.6388 11.347 37.0048 10.981C37.3708 10.629 37.8728 10.466 38.4958 10.466H38.9028C39.3228 10.466 39.8928 10.534 40.2038 10.954C40.4478 11.306 40.5288 11.808 40.4338 12.513ZM85.6178 10.154C85.0208 9.489 83.9768 9.042 82.4178 9.029H82.0248C79.2328 9.056 77.7678 10.222 77.4568 12.445L77.2668 13.882C77.1448 14.872 77.3208 15.617 77.8088 16.159C78.4048 16.824 79.4488 17.311 81.0218 17.325H81.4148C84.1528 17.298 85.6038 16.173 85.9568 14.098L85.9838 13.949L86.1738 12.512C86.2818 11.482 86.1058 10.709 85.6178 10.154ZM83.8688 12.513L83.6928 13.828C83.6108 14.411 83.4628 14.858 83.2048 15.197C82.8518 15.644 82.3238 15.915 81.5918 15.915H81.1578C80.4258 15.915 79.8968 15.658 79.6668 15.237C79.5178 14.925 79.4778 14.478 79.5588 13.882L79.7348 12.567C79.8298 11.862 80.0598 11.347 80.4258 10.981C80.7788 10.629 81.2938 10.466 81.9168 10.466H82.3238C82.7438 10.466 83.3138 10.534 83.6248 10.954C83.8828 11.306 83.9638 11.808 83.8688 12.513ZM61.5008 9.029H61.1078C58.3158 9.056 56.8508 10.222 56.5398 12.445L56.3498 13.882C56.2278 14.872 56.4038 15.617 56.8918 16.159C57.4888 16.824 58.5328 17.311 60.1048 17.325H60.4988C63.2368 17.298 64.6868 16.173 65.0398 14.098L65.0668 13.949L65.2568 12.512C65.3788 11.482 65.2018 10.709 64.7008 10.153C64.1038 9.489 63.0738 9.042 61.5008 9.029ZM62.9648 12.513L62.7888 13.828C62.7068 14.411 62.5588 14.858 62.3008 15.197C61.9478 15.644 61.4198 15.915 60.6878 15.915H60.2678C59.5358 15.915 59.0068 15.658 58.7768 15.237C58.6278 14.925 58.5868 14.478 58.6678 13.882L58.8438 12.567C58.9388 11.862 59.1558 11.347 59.5348 10.981C59.9008 10.629 60.4028 10.466 61.0258 10.466H61.4328C61.8528 10.466 62.4228 10.534 62.7338 10.954C62.9788 11.306 63.0598 11.808 62.9648 12.513ZM53.9628 9.191H54.9798L54.1388 15.996C54.0978 16.321 53.9218 16.633 53.6778 16.85C53.5148 16.999 53.2308 17.162 52.8378 17.162H51.6858L52.2688 12.512L49.8558 15.562C49.7878 15.643 49.5578 15.901 49.2868 15.901H49.2598C49.0028 15.901 48.8128 15.643 48.7448 15.535L47.1588 12.512L46.7248 16.01C46.6838 16.335 46.5208 16.647 46.2638 16.864C46.1008 17.013 45.8158 17.176 45.4228 17.176H44.2298L45.2058 9.205H46.1818C46.8058 9.205 47.2258 9.354 47.4288 9.679L49.5848 13.136L52.6618 9.652C52.9198 9.354 53.3668 9.205 53.9628 9.191ZM29.6698 9.191H33.2618C33.2618 9.191 33.0318 10.641 31.7978 10.641H30.0218C28.9378 10.641 28.5028 10.899 28.3268 11.035C28.0148 11.252 27.8258 11.563 27.7028 11.848C27.6618 11.956 27.5678 12.309 27.5128 12.621L27.3498 13.841C27.3088 14.098 27.3088 14.505 27.3368 14.695C27.4318 15.169 27.6618 15.427 28.0688 15.576C28.3668 15.684 28.7868 15.725 29.2208 15.725H32.4068C32.4068 15.725 32.2438 17.189 30.8478 17.189H28.4348C27.0658 17.189 26.1438 16.688 25.6018 16.091C25.1408 15.576 24.9778 14.858 25.0868 13.895L25.2628 12.499C25.5198 10.669 26.5778 9.584 28.5708 9.286C28.9098 9.232 29.2758 9.205 29.6688 9.205V9.191H29.6698Z" fill="#C41230"/>
</svg>
