<svg width="45" height="27" viewBox="0 0 45 27" fill="none" xmlns="http://www.w3.org/2000/svg">
<path d="M45 13.5C45 20.9077 38.9769 27 31.5 27C24.0923 27 18 20.9077 18 13.5C18 6.09231 24.0231 0 31.4308 0C38.9769 0 45 6.09231 45 13.5Z" fill="#F9B50B"/>
<path d="M26.9308 13.5692C26.9308 12.6 26.7923 11.6308 26.6539 10.7308H18.3462C18.4154 10.2462 18.5539 9.83077 18.6923 9.27693H26.1C25.9615 8.79231 25.7539 8.30769 25.5462 7.82308H19.2462C19.4538 7.33846 19.7308 6.92308 20.0077 6.36923H24.7846C24.5077 5.88462 24.1615 5.4 23.7462 4.91539H21.1154C21.5308 4.43077 21.9462 4.01539 22.5 3.53077C20.1462 1.31538 16.9615 0 13.4308 0C6.09231 0.207692 0 6.09231 0 13.5C0 20.9077 6.02308 27 13.5 27C17.0308 27 20.1462 25.6154 22.5692 23.4692C23.0539 23.0539 23.4692 22.5692 23.9538 22.0154H21.1846C20.8385 21.6 20.4923 21.1154 20.2154 20.6308H24.9231C25.2 20.2154 25.4769 19.7308 25.6846 19.1769H19.3846C19.1769 18.7615 18.9692 18.2769 18.8308 17.7231H26.2385C26.6539 16.4769 26.9308 15.0923 26.9308 13.5692Z" fill="#C8191C"/>
<path d="M18.2769 16.9616L18.4846 15.7155C18.4153 15.7155 18.2769 15.7847 18.1384 15.7847C17.6538 15.7847 17.5846 15.5078 17.6538 15.3693L18.0692 12.877H18.8307L19.0384 11.4924H18.3461L18.4846 10.6616H17.0307C17.0307 10.6616 16.2 15.3693 16.2 15.9232C16.2 16.7539 16.6846 17.1693 17.3769 17.1693C17.7923 17.1693 18.1384 17.0309 18.2769 16.9616Z" fill="white"/>
<path d="M18.7616 14.6768C18.7616 16.6845 20.1462 17.1691 21.2539 17.1691C22.2924 17.1691 22.777 16.9614 22.777 16.9614L23.0539 15.5768C23.0539 15.5768 22.2924 15.923 21.5308 15.923C19.9385 15.923 20.2154 14.746 20.2154 14.746H23.1231C23.1231 14.746 23.3308 13.846 23.3308 13.4307C23.3308 12.5307 22.8462 11.3537 21.2539 11.3537C19.8693 11.2845 18.7616 12.8768 18.7616 14.6768ZM21.2539 12.5999C22.0154 12.5999 21.877 13.4999 21.877 13.5691H20.2847C20.3539 13.4999 20.4924 12.5999 21.2539 12.5999Z" fill="white"/>
<path d="M30.323 16.9615L30.5999 15.3692C30.5999 15.3692 29.9076 15.7154 29.3538 15.7154C28.3845 15.7154 27.8999 14.9539 27.8999 14.0539C27.8999 12.3231 28.7307 11.4231 29.7691 11.4231C30.4614 11.4231 31.0845 11.8385 31.0845 11.8385L31.2922 10.3154C31.2922 10.3154 30.4614 9.96924 29.6307 9.96924C27.9691 9.96924 26.3768 11.4231 26.3768 14.1231C26.3768 15.9231 27.2076 17.1 28.9384 17.1C29.5614 17.1692 30.323 16.9615 30.323 16.9615Z" fill="white"/>
<path d="M10.4538 11.2842C9.48455 11.2842 8.72302 11.5611 8.72302 11.5611L8.51532 12.8073C8.51532 12.8073 9.1384 12.5303 10.1076 12.5303C10.5922 12.5303 11.0076 12.5996 11.0076 13.0149C11.0076 13.2919 10.9384 13.3611 10.9384 13.3611H10.3153C9.06917 13.3611 7.75378 13.8457 7.75378 15.5073C7.75378 16.8226 8.58455 17.0996 9.1384 17.0996C10.1076 17.0996 10.5922 16.4765 10.6615 16.4765L10.5922 17.0303H11.7692L12.323 13.0842C12.323 11.3534 10.9384 11.2842 10.4538 11.2842ZM10.7307 14.4688C10.7307 14.6765 10.5922 15.8534 9.76148 15.8534C9.34609 15.8534 9.20763 15.5073 9.20763 15.2996C9.20763 14.9534 9.41532 14.4688 10.523 14.4688C10.6615 14.4688 10.7307 14.4688 10.7307 14.4688Z" fill="white"/>
<path d="M13.7077 17.0999C14.0539 17.0999 15.8539 17.1692 15.8539 15.2307C15.8539 13.4307 14.1231 13.7769 14.1231 13.0846C14.1231 12.7384 14.4 12.5999 14.8846 12.5999C15.0923 12.5999 15.8539 12.6692 15.8539 12.6692L16.0615 11.3538C16.0615 11.3538 15.5769 11.2153 14.6769 11.2153C13.6385 11.2153 12.5308 11.6307 12.5308 13.0846C12.5308 14.7461 14.3308 14.6076 14.3308 15.2307C14.3308 15.6461 13.8462 15.7153 13.5 15.7153C12.8769 15.7153 12.1846 15.5076 12.1846 15.5076L11.9769 16.823C12.1154 16.9615 12.5308 17.0999 13.7077 17.0999Z" fill="white"/>
<path d="M42.2307 10.1772L41.9538 12.1157C41.9538 12.1157 41.4 11.4234 40.5692 11.4234C39.2538 11.4234 38.1461 13.0157 38.1461 14.8849C38.1461 16.0619 38.7 17.2388 39.9461 17.2388C40.7769 17.2388 41.3307 16.6849 41.3307 16.6849L41.2615 17.1696H42.7154L43.7538 10.3157L42.2307 10.1772ZM41.5384 13.9157C41.5384 14.6772 41.1923 15.7157 40.3615 15.7157C39.8769 15.7157 39.6 15.3003 39.6 14.5388C39.6 13.3619 40.0846 12.6696 40.7769 12.6696C41.2615 12.7388 41.5384 13.0849 41.5384 13.9157Z" fill="white"/>
<path d="M2.63083 17.0311L3.4616 11.908L3.60006 17.0311H4.56929L6.43852 11.908L5.67699 17.0311H7.20006L8.37699 10.1772H6.02314L4.56929 14.4003L4.50006 10.1772H2.42314L1.24622 17.0311H2.63083Z" fill="white"/>
<path d="M24.7847 17.031C25.2001 14.6772 25.2693 12.7387 26.3078 13.0849C26.4462 12.1849 26.6539 11.7695 26.7924 11.4233H26.5155C25.8924 11.4233 25.3385 12.2541 25.3385 12.2541L25.477 11.4926H24.0924L23.1924 17.031H24.7847Z" fill="white"/>
<path d="M33.6462 11.2842C32.6769 11.2842 31.9154 11.5611 31.9154 11.5611L31.7077 12.8073C31.7077 12.8073 32.3308 12.5303 33.3 12.5303C33.7846 12.5303 34.2 12.5996 34.2 13.0149C34.2 13.2919 34.1308 13.3611 34.1308 13.3611H33.5077C32.2616 13.3611 30.9462 13.8457 30.9462 15.5073C30.9462 16.8226 31.7769 17.0996 32.3308 17.0996C33.3 17.0996 33.7846 16.4765 33.8539 16.4765L33.7846 17.0303H35.1L35.6539 13.0842C35.6539 11.3534 34.1308 11.2842 33.6462 11.2842ZM33.9923 14.4688C33.9923 14.6765 33.8539 15.8534 33.0231 15.8534C32.6077 15.8534 32.4692 15.5073 32.4692 15.2996C32.4692 14.9534 32.6769 14.4688 33.7846 14.4688C33.9231 14.4688 33.9231 14.4688 33.9923 14.4688Z" fill="white"/>
<path d="M36.7615 17.031C37.1769 14.6772 37.2461 12.7387 38.2846 13.0849C38.423 12.1849 38.6307 11.7695 38.7692 11.4233H38.4923C37.8692 11.4233 37.3153 12.2541 37.3153 12.2541L37.4538 11.4926H36.0692L35.1692 17.031H36.7615Z" fill="white"/>
</svg>
