<svg width="82" height="38" viewBox="0 0 82 38" fill="none" xmlns="http://www.w3.org/2000/svg">
<path d="M14.5262 22.4209C14.2104 22.1841 13.8157 22.0262 13.4209 21.9473C13.0262 21.7894 12.6315 21.7894 12.2367 21.7894C11.9999 21.7894 11.763 21.7894 11.5262 21.8683C11.2893 21.9473 11.1315 22.0262 10.9736 22.1052C10.8157 22.1841 10.6578 22.342 10.5788 22.4999C10.4999 22.6578 10.4209 22.8157 10.4209 22.9736C10.4209 23.1315 10.4209 23.2894 10.4999 23.3683C10.5788 23.4473 10.6578 23.6052 10.8157 23.6841C10.9736 23.7631 11.1315 23.842 11.3683 23.9209C11.6051 23.9999 11.842 23.9999 12.0788 24.0788L12.6315 24.1578C12.9472 24.2367 13.263 24.2367 13.5788 24.3946C13.8946 24.4736 14.1315 24.6315 14.3683 24.7894C14.6051 24.9473 14.842 25.1841 14.9209 25.421C15.0788 25.6578 15.1578 25.9736 15.1578 26.3683C15.1578 26.7631 15.0788 27.1578 14.9209 27.4736C14.763 27.7894 14.5262 28.0262 14.2104 28.2631C13.8946 28.4999 13.5788 28.6578 13.1841 28.7367C12.7893 28.8157 12.3946 28.8946 11.9209 28.8946C11.6841 28.8946 11.3683 28.8946 11.0525 28.8157C10.7367 28.7367 10.4999 28.7367 10.1841 28.5788C9.86829 28.4999 9.63145 28.342 9.39461 28.2631C9.15777 28.1052 8.92092 27.9473 8.68408 27.7894L9.39461 26.7631C9.5525 26.921 9.7104 26.9999 9.86829 27.0788C10.0262 27.1578 10.263 27.3157 10.4999 27.3946C10.7367 27.4736 10.9736 27.5525 11.2104 27.5525C11.4472 27.6315 11.6841 27.6315 11.9209 27.6315C12.1578 27.6315 12.3946 27.6315 12.6315 27.5525C12.8683 27.4736 13.0262 27.3946 13.1841 27.3157C13.342 27.2367 13.4999 27.0788 13.5788 26.9209C13.6578 26.7631 13.7367 26.6052 13.7367 26.4473C13.7367 26.1315 13.5788 25.8946 13.263 25.7367C12.9472 25.5788 12.4736 25.4209 11.9209 25.342L11.5262 25.2631C11.2104 25.1841 10.9736 25.1841 10.6578 25.0262C10.342 24.9473 10.1051 24.7894 9.86829 24.6315C9.63145 24.4736 9.47356 24.2367 9.31566 23.9999C9.15777 23.7631 9.07882 23.4473 9.07882 23.0525C9.07882 22.6578 9.15777 22.2631 9.31566 22.0262C9.47356 21.7104 9.7104 21.4736 10.0262 21.2367C10.342 20.9999 10.6578 20.842 11.0525 20.7631C11.4472 20.6841 11.842 20.6052 12.2367 20.6052C12.7893 20.6052 13.342 20.6841 13.8157 20.842C14.2893 20.9999 14.6841 21.2367 15.1578 21.4736L14.5262 22.4209ZM18.9472 23.0525C19.342 23.0525 19.6578 23.1315 19.9736 23.2894C20.2893 23.4473 20.5262 23.6052 20.763 23.842C20.9999 24.0788 21.1578 24.3946 21.3157 24.7104C21.4736 25.0262 21.4736 25.4209 21.4736 25.8946C21.4736 25.9736 21.4736 26.0525 21.4736 26.1315C21.4736 26.2104 21.4736 26.2894 21.4736 26.3683H17.4472C17.4472 26.6052 17.5262 26.842 17.6841 26.9999C17.763 27.1578 17.9209 27.3157 18.0788 27.3946C18.2367 27.4736 18.3946 27.5525 18.5525 27.6315C18.7104 27.7104 18.9472 27.7104 19.1051 27.7104C19.342 27.7104 19.6578 27.6315 19.8946 27.5525C20.1315 27.4736 20.4472 27.3157 20.6841 27.1578L21.3157 28.0262C20.9999 28.342 20.6051 28.4999 20.2893 28.6578C19.8946 28.7367 19.4999 28.8157 19.1051 28.8157C18.7104 28.8157 18.3157 28.7367 17.9999 28.5788C17.6841 28.421 17.3683 28.2631 17.1315 28.0262C16.8946 27.7894 16.6578 27.4736 16.5788 27.1578C16.4209 26.842 16.342 26.4473 16.342 25.9736C16.342 25.5788 16.4209 25.1841 16.5788 24.7894C16.7367 24.4736 16.8946 24.1578 17.1315 23.842C17.3683 23.6052 17.6841 23.3683 17.9999 23.2894C18.1578 23.1315 18.4736 23.0525 18.9472 23.0525ZM18.8683 24.1578C18.6315 24.1578 18.4736 24.1578 18.3157 24.2367C18.1578 24.3157 17.9999 24.3946 17.9209 24.5525C17.763 24.7104 17.6841 24.7894 17.6051 24.9473C17.5262 25.1052 17.4472 25.2631 17.4472 25.4999H20.2893C20.2104 25.1052 20.0525 24.7104 19.8157 24.4736C19.5788 24.2367 19.263 24.1578 18.8683 24.1578ZM25.1841 23.0525C25.5788 23.0525 25.9736 23.1315 26.2893 23.2894C26.6051 23.4473 26.9209 23.6841 27.1578 23.9209L26.3683 24.7104C26.2104 24.5525 25.9736 24.3946 25.7367 24.3157C25.4999 24.2367 25.263 24.1578 25.0262 24.1578C24.7893 24.1578 24.5525 24.2367 24.3946 24.3157C24.1578 24.3946 23.9999 24.5525 23.9209 24.7104C23.763 24.8683 23.6841 25.0262 23.6051 25.2631C23.5262 25.4999 23.4472 25.7367 23.4472 25.9736C23.4472 26.2104 23.5262 26.4473 23.6051 26.6841C23.6841 26.9209 23.763 27.0788 23.9209 27.2367C24.0788 27.3946 24.2367 27.4736 24.3946 27.6315C24.5525 27.7104 24.7893 27.7894 25.0262 27.7894C25.263 27.7894 25.4999 27.7104 25.7367 27.6315C25.9736 27.5525 26.1315 27.3946 26.3683 27.2367L27.0788 28.0262C26.842 28.342 26.5262 28.4999 26.2104 28.6578C25.8946 28.8157 25.4999 28.8946 25.1051 28.8946C24.7104 28.8946 24.3157 28.8157 23.9209 28.6578C23.6051 28.4999 23.2893 28.342 23.0525 28.0262C22.8157 27.7894 22.5788 27.4736 22.4999 27.0788C22.342 26.7631 22.263 26.3683 22.263 25.9736C22.263 25.5788 22.342 25.1841 22.4999 24.8683C22.6578 24.5525 22.8157 24.2367 23.0525 23.9209C23.2893 23.6841 23.6051 23.4473 23.9209 23.2894C24.3946 23.1315 24.7893 23.0525 25.1841 23.0525ZM33.3946 26.3683C33.3946 26.7631 33.3157 27.1578 33.1578 27.4736C32.9999 27.7894 32.842 28.0262 32.6051 28.2631C32.3683 28.4999 32.1315 28.5788 31.8157 28.7367C31.4999 28.8157 31.1841 28.8946 30.8683 28.8946C30.5525 28.8946 30.2367 28.8157 29.9209 28.7367C29.6051 28.6578 29.3683 28.4999 29.1315 28.2631C28.8946 28.1052 28.7367 27.7894 28.5788 27.4736C28.4209 27.1578 28.342 26.7631 28.342 26.3683V23.2104H29.5262V26.2104C29.5262 26.4473 29.5262 26.6841 29.6051 26.842C29.6841 26.9999 29.763 27.1578 29.9209 27.3157C30.0788 27.3946 30.1578 27.4736 30.3157 27.5525C30.4736 27.6315 30.6315 27.6315 30.8683 27.6315C31.0262 27.6315 31.263 27.6315 31.4209 27.5525C31.5788 27.4736 31.7367 27.3946 31.8157 27.3157C31.9736 27.2367 32.0525 27.0788 32.1315 26.842C32.2104 26.6841 32.2104 26.4473 32.2104 26.2104V23.2104H33.3946V26.3683ZM37.7367 23.0525C37.8946 23.0525 38.0525 23.0525 38.2104 23.0525C38.3683 23.0525 38.5262 23.1315 38.6051 23.1315L38.2893 24.3157C38.1315 24.2367 38.0525 24.2367 37.8157 24.1578C37.6578 24.1578 37.4999 24.0788 37.342 24.0788C37.1841 24.0788 36.9472 24.0788 36.7893 24.1578C36.6315 24.2367 36.4736 24.3157 36.3946 24.4736C36.3157 24.6315 36.1578 24.7894 36.1578 24.9473C36.0788 25.1052 36.0788 25.342 36.0788 25.5788V28.5788H34.8946V23.1315H36.0788V23.7631C36.2367 23.5262 36.4736 23.2894 36.7893 23.2104C37.0262 23.1315 37.342 23.0525 37.7367 23.0525ZM41.6841 23.0525C42.0788 23.0525 42.3946 23.1315 42.7104 23.2894C43.0262 23.4473 43.263 23.6052 43.4999 23.842C43.7367 24.0788 43.8946 24.3946 44.0525 24.7104C44.2104 25.0262 44.2104 25.4209 44.2104 25.8946C44.2104 25.9736 44.2104 26.0525 44.2104 26.1315C44.2104 26.2104 44.2104 26.2894 44.2104 26.3683H40.263C40.263 26.6052 40.342 26.842 40.4999 26.9999C40.5788 27.1578 40.7367 27.3157 40.8946 27.3946C41.0525 27.4736 41.2104 27.5525 41.3683 27.6315C41.5262 27.7104 41.763 27.7104 41.9209 27.7104C42.1578 27.7104 42.4736 27.6315 42.7104 27.5525C42.9472 27.4736 43.263 27.3157 43.4999 27.1578L44.0525 28.0262C43.7367 28.342 43.342 28.4999 43.0262 28.6578C42.6315 28.7367 42.2367 28.8157 41.842 28.8157C41.4472 28.8157 41.0525 28.7367 40.7367 28.5788C40.4209 28.421 40.1051 28.2631 39.8683 28.0262C39.6315 27.7894 39.3946 27.4736 39.3157 27.1578C39.1578 26.842 39.0788 26.4473 39.0788 25.9736C39.0788 25.5788 39.1578 25.1841 39.3157 24.7894C39.4736 24.4736 39.6315 24.1578 39.8683 23.842C40.1051 23.6052 40.4209 23.3683 40.7367 23.2894C40.8946 23.1315 41.2893 23.0525 41.6841 23.0525ZM41.6841 24.1578C41.4472 24.1578 41.2893 24.1578 41.1315 24.2367C40.9736 24.3157 40.8157 24.3946 40.7367 24.5525C40.5788 24.7104 40.4999 24.7894 40.4209 24.9473C40.342 25.1052 40.263 25.2631 40.263 25.4999H43.1051C43.0262 25.1052 42.8683 24.7104 42.6315 24.4736C42.3946 24.2367 42.0788 24.1578 41.6841 24.1578ZM49.4209 20.5262C49.7367 20.5262 50.1315 20.5262 50.4472 20.6052C50.763 20.6841 51.0788 20.7631 51.3946 20.921C51.7104 21.0788 51.9472 21.2367 52.1841 21.4736C52.4209 21.7104 52.5788 21.9473 52.7367 22.1841L51.6315 22.8946C51.3946 22.4999 51.0788 22.2631 50.6841 22.0262C50.2893 21.7894 49.8946 21.7104 49.4209 21.7104C49.0262 21.7104 48.6315 21.7894 48.3157 21.9473C47.9999 22.1052 47.6841 22.2631 47.4472 22.5788C47.2104 22.8157 46.9736 23.1315 46.8946 23.5262C46.7367 23.9209 46.6578 24.2367 46.6578 24.7104C46.6578 25.1052 46.7367 25.4999 46.8946 25.8946C47.0525 26.2894 47.2104 26.5262 47.4472 26.842C47.6841 27.0788 47.9999 27.3157 48.3157 27.3946C48.6315 27.5525 49.0262 27.6315 49.4209 27.6315C49.8946 27.6315 50.2893 27.5525 50.6841 27.3157C51.0788 27.0788 51.3946 26.842 51.6315 26.4473L52.6578 27.2367C52.4999 27.4736 52.263 27.7104 52.0262 27.9473C51.7893 28.1841 51.5525 28.342 51.2367 28.421C50.9209 28.5788 50.6841 28.6578 50.3683 28.7367C50.0525 28.8157 49.7367 28.8157 49.342 28.8157C48.7104 28.8157 48.1578 28.7367 47.6841 28.4999C47.2104 28.2631 46.7367 28.0262 46.342 27.6315C45.9472 27.2367 45.7104 26.842 45.4736 26.2894C45.2367 25.8157 45.1578 25.2631 45.1578 24.6315C45.1578 23.9999 45.2367 23.4473 45.4736 22.9736C45.7104 22.4999 45.9472 22.0262 46.342 21.6315C46.7367 21.2367 47.1315 20.9999 47.6841 20.7631C48.2367 20.6841 48.7893 20.5262 49.4209 20.5262ZM56.4472 23.0525C56.842 23.0525 57.2367 23.1315 57.6315 23.2894C58.0262 23.4473 58.263 23.6052 58.5788 23.9209C58.8157 24.1578 59.0525 24.4736 59.2104 24.8683C59.3683 25.1841 59.4472 25.5788 59.4472 25.9736C59.4472 26.3683 59.3683 26.7631 59.2104 27.0788C59.0525 27.3946 58.8946 27.7104 58.5788 28.0262C58.342 28.2631 58.0262 28.4999 57.6315 28.6578C57.2367 28.8157 56.9209 28.8946 56.4472 28.8946C56.0525 28.8946 55.6578 28.8157 55.263 28.6578C54.8683 28.4999 54.6315 28.342 54.3157 28.0262C54.0788 27.7894 53.842 27.4736 53.6841 27.0788C53.5262 26.7631 53.4472 26.3683 53.4472 25.9736C53.4472 25.5788 53.5262 25.1841 53.6841 24.8683C53.842 24.5525 53.9999 24.2367 54.3157 23.9209C54.5525 23.6841 54.8683 23.4473 55.263 23.2894C55.6578 23.1315 56.0525 23.0525 56.4472 23.0525ZM56.4472 24.1578C56.2104 24.1578 55.9736 24.2367 55.7367 24.3157C55.4999 24.3946 55.342 24.5525 55.1841 24.7104C55.0262 24.8683 54.9472 25.0262 54.7893 25.2631C54.7104 25.4999 54.6315 25.7367 54.6315 25.9736C54.6315 26.2104 54.7104 26.4473 54.7893 26.6841C54.8683 26.9209 55.0262 27.0788 55.1841 27.2367C55.342 27.3946 55.4999 27.4736 55.7367 27.6315C55.9736 27.7104 56.2104 27.7894 56.4472 27.7894C56.6841 27.7894 56.9209 27.7104 57.1578 27.6315C57.3946 27.5525 57.5525 27.3946 57.7104 27.2367C57.8683 27.0788 57.9472 26.9209 58.1051 26.6841C58.1841 26.4473 58.263 26.2104 58.263 25.9736C58.263 25.7367 58.1841 25.4999 58.1051 25.2631C58.0262 25.0262 57.8683 24.8683 57.7104 24.7104C57.5525 24.5525 57.3946 24.4736 57.1578 24.3157C56.9209 24.2367 56.6841 24.1578 56.4472 24.1578ZM62.9999 23.0525C63.3946 23.0525 63.7104 23.1315 64.0262 23.2894C64.342 23.4473 64.5788 23.6052 64.7367 23.842V20.4473H65.9209V28.6578H64.7367V28.0262C64.5788 28.2631 64.342 28.4999 64.0262 28.5788C63.7104 28.7367 63.3946 28.8157 62.9999 28.8157C62.6051 28.8157 62.2893 28.7367 61.8946 28.5788C61.5788 28.421 61.263 28.2631 61.0262 27.9473C60.7893 27.7104 60.5525 27.3946 60.4736 26.9999C60.3157 26.6841 60.2367 26.2894 60.2367 25.8157C60.2367 25.421 60.3157 25.0262 60.4736 24.6315C60.6315 24.3157 60.7893 23.9999 61.0262 23.6841C61.263 23.4473 61.5788 23.2104 61.8946 23.0525C62.2104 23.1315 62.6051 23.0525 62.9999 23.0525ZM63.0788 24.1578C62.842 24.1578 62.6051 24.2367 62.3683 24.3157C62.1315 24.3946 61.9736 24.5525 61.8157 24.7104C61.6578 24.8683 61.5788 25.0262 61.4999 25.2631C61.4209 25.4999 61.4209 25.7367 61.4209 25.9736C61.4209 26.2104 61.4209 26.4473 61.4999 26.6841C61.5788 26.9209 61.6578 27.0788 61.8157 27.2367C61.9736 27.3946 62.1315 27.5525 62.3683 27.6315C62.6051 27.7104 62.763 27.7894 63.0788 27.7894C63.3157 27.7894 63.5525 27.7104 63.7893 27.6315C64.0262 27.5525 64.1841 27.3946 64.342 27.2367C64.4999 27.0788 64.5788 26.9209 64.6578 26.6841C64.7367 26.4473 64.8157 26.2104 64.8157 25.9736C64.8157 25.7367 64.7367 25.4999 64.6578 25.2631C64.5788 25.0262 64.4999 24.8683 64.342 24.7104C64.1841 24.5525 64.0262 24.3946 63.7893 24.3157C63.5525 24.2367 63.3946 24.1578 63.0788 24.1578ZM69.8683 23.0525C70.263 23.0525 70.5788 23.1315 70.8946 23.2894C71.2104 23.4473 71.4472 23.6052 71.6841 23.842C71.9209 24.0788 72.0788 24.3946 72.2367 24.7104C72.3946 25.0262 72.3946 25.4209 72.3946 25.8946C72.3946 25.9736 72.3946 26.0525 72.3946 26.1315C72.3946 26.2104 72.3946 26.2894 72.3946 26.3683H68.3683C68.3683 26.6052 68.4472 26.842 68.6051 26.9999C68.6841 27.1578 68.842 27.3157 68.9999 27.3946C69.1578 27.4736 69.3157 27.5525 69.4736 27.6315C69.6315 27.7104 69.8683 27.7104 70.0262 27.7104C70.263 27.7104 70.5788 27.6315 70.8157 27.5525C71.0525 27.4736 71.3683 27.3157 71.6051 27.1578L72.1578 28.0262C71.842 28.342 71.4472 28.4999 71.1315 28.6578C70.7367 28.7367 70.342 28.8157 69.9472 28.8157C69.5525 28.8157 69.1578 28.7367 68.842 28.5788C68.5262 28.421 68.2104 28.2631 67.9736 28.0262C67.7367 27.7894 67.4999 27.4736 67.4209 27.1578C67.263 26.842 67.1841 26.4473 67.1841 25.9736C67.1841 25.5788 67.263 25.1841 67.4209 24.7894C67.5788 24.4736 67.7367 24.1578 67.9736 23.842C68.2104 23.6052 68.5262 23.3683 68.842 23.2894C69.0788 23.1315 69.4736 23.0525 69.8683 23.0525ZM72.9472 28.6578V28.421H73.0262V28.342H72.7104V28.421H72.7893L72.9472 28.6578ZM73.4999 28.6578V28.342H73.4209L73.342 28.5788L73.263 28.342H73.1841V28.6578H73.263V28.421L73.342 28.6578H73.4209L73.4999 28.421V28.6578ZM69.7893 24.1578C69.5525 24.1578 69.3946 24.1578 69.2367 24.2367C69.0788 24.3157 68.9209 24.3946 68.842 24.5525C68.6841 24.7104 68.6051 24.7894 68.5262 24.9473C68.4472 25.1052 68.3683 25.2631 68.3683 25.4999H71.2104C71.1315 25.1052 70.9736 24.7104 70.7367 24.4736C70.4999 24.2367 70.1841 24.1578 69.7893 24.1578Z" fill="#F59E1F"/>
<path d="M18.4738 17.4472H17.1317V10.6577L14.7633 16.5788H13.3422L10.8948 10.6577V17.3683H9.55273V9.15774H11.6054L13.9738 15.0788L16.3422 9.15774H18.3948V17.4472H18.4738ZM25.5001 17.4472H24.2369V16.7367C24.0791 16.9735 23.7633 17.2104 23.5264 17.3683C23.2106 17.5262 22.8948 17.6051 22.5001 17.6051C22.1054 17.6051 21.7106 17.5262 21.3948 17.3683C21.0791 17.2104 20.7633 17.0525 20.5264 16.7367C20.2896 16.4998 20.0527 16.1841 19.8948 15.7893C19.7369 15.3946 19.658 14.9998 19.658 14.6051C19.658 14.2104 19.7369 13.7367 19.8948 13.4209C20.0527 13.0262 20.2106 12.7104 20.5264 12.4735C20.7633 12.2367 21.0791 11.9998 21.3948 11.842C21.7106 11.6841 22.1054 11.6051 22.5001 11.6051C22.8948 11.6051 23.2896 11.6841 23.5264 11.842C23.8422 11.9998 24.0791 12.1577 24.2369 12.4735V11.763H25.5001V17.4472ZM22.658 12.7893C22.4212 12.7893 22.1843 12.8683 21.9475 12.9472C21.7106 13.0262 21.5527 13.1841 21.3948 13.342C21.2369 13.4998 21.158 13.6577 21.0791 13.8946C21.0001 14.1314 21.0001 14.3683 21.0001 14.6051C21.0001 14.842 21.0001 15.0788 21.0791 15.3156C21.158 15.5525 21.2369 15.7104 21.3948 15.8683C21.5527 16.0262 21.7106 16.1841 21.9475 16.263C22.1843 16.342 22.4212 16.4209 22.658 16.4209C22.8948 16.4209 23.1317 16.342 23.3685 16.263C23.6054 16.1841 23.7633 16.0262 23.9212 15.8683C24.0791 15.7104 24.158 15.5525 24.2369 15.3156C24.3159 15.0788 24.3948 14.842 24.3948 14.6051C24.3948 14.3683 24.3159 14.1314 24.2369 13.8946C24.158 13.6577 24.0001 13.4998 23.9212 13.342C23.7633 13.1841 23.6054 13.0262 23.3685 12.9472C23.1317 12.7893 22.8948 12.7893 22.658 12.7893ZM31.1843 13.1841C31.1054 13.1051 31.0264 13.1051 30.8685 13.0262C30.7106 12.9472 30.6317 12.9472 30.4738 12.8683C30.3159 12.7893 30.158 12.7893 30.0001 12.7893C29.8422 12.7893 29.6843 12.7104 29.4475 12.7104C29.1317 12.7104 28.8159 12.7893 28.658 12.8683C28.5001 13.0262 28.3422 13.1841 28.3422 13.342C28.3422 13.4209 28.3422 13.4998 28.4212 13.5788C28.5001 13.6577 28.5001 13.7367 28.658 13.7367C28.7369 13.8156 28.8159 13.8156 28.9738 13.8156C29.0527 13.8156 29.2106 13.8946 29.3685 13.8946L29.9212 13.9735C30.5527 14.0525 31.0264 14.2104 31.3422 14.5262C31.658 14.763 31.8948 15.1577 31.8948 15.6314C31.8948 15.8683 31.8159 16.1841 31.7369 16.342C31.658 16.5788 31.4212 16.7367 31.2633 16.8946C31.0264 17.0525 30.7896 17.2104 30.4738 17.2893C30.158 17.3683 29.7633 17.4472 29.3685 17.4472C29.2106 17.4472 29.0527 17.4472 28.8948 17.4472C28.7369 17.4472 28.5001 17.3683 28.2633 17.3683C28.0264 17.2893 27.7896 17.2104 27.6317 17.1314C27.3948 17.0525 27.158 16.8946 27.0001 16.7367L27.5527 15.7893C27.6317 15.8683 27.7896 15.9472 27.8685 16.0262C28.0264 16.1051 28.1054 16.1841 28.2633 16.1841C28.4212 16.263 28.5791 16.263 28.7369 16.342C28.8948 16.342 29.1317 16.4209 29.3685 16.4209C29.7633 16.4209 30.0791 16.342 30.3159 16.263C30.5527 16.1051 30.6317 15.9472 30.6317 15.7893C30.6317 15.6314 30.5527 15.4735 30.3948 15.3946C30.2369 15.3156 30.0001 15.2367 29.6843 15.1577L29.1317 15.0788C28.5001 14.9998 28.0264 14.842 27.7106 14.5262C27.3948 14.2104 27.2369 13.8946 27.2369 13.4209C27.2369 13.1051 27.3159 12.8683 27.3948 12.6314C27.4738 12.3946 27.6317 12.2367 27.8685 12.0788C28.1054 11.9209 28.3422 11.842 28.5791 11.6841C28.8948 11.6051 29.2106 11.5262 29.5264 11.5262C30.0001 11.5262 30.3948 11.6051 30.7896 11.6841C31.1843 11.763 31.5001 11.9209 31.8159 12.1577L31.1843 13.1841ZM37.0264 12.8683H34.8948V15.3156C34.8948 15.4735 34.8948 15.6314 34.9738 15.7893C35.0527 15.9472 35.0527 16.0262 35.1317 16.1051C35.2106 16.1841 35.2896 16.263 35.4475 16.263C35.5264 16.263 35.6843 16.342 35.7633 16.342C35.9212 16.342 36.158 16.342 36.3159 16.263C36.5527 16.1841 36.7106 16.1051 36.8685 16.0262L37.3422 16.9735C37.1054 17.1314 36.8685 17.2893 36.5527 17.3683C36.2369 17.4472 35.9212 17.5262 35.6054 17.5262C34.9738 17.5262 34.5001 17.3683 34.1054 16.9735C33.7106 16.5788 33.5527 16.0262 33.5527 15.3156V12.7893H32.4475V11.6841H33.5527V9.94721H34.8159V11.6841H36.9475V12.8683H37.0264ZM40.8159 11.6051C41.2106 11.6051 41.6054 11.6841 41.9212 11.842C42.2369 11.9998 42.5527 12.1577 42.7896 12.4735C43.0264 12.7104 43.1843 13.0262 43.3422 13.4209C43.5001 13.8156 43.5791 14.2104 43.5791 14.6051C43.5791 14.6841 43.5791 14.763 43.5791 14.842C43.5791 14.9209 43.5791 14.9998 43.5791 15.0788H39.3948C39.3948 15.3156 39.4738 15.5525 39.6317 15.7104C39.7106 15.8683 39.8685 16.0262 40.0264 16.1841C40.1843 16.263 40.3422 16.4209 40.5001 16.4209C40.658 16.4998 40.8948 16.4998 41.0527 16.4998C41.3685 16.4998 41.6054 16.4209 41.9212 16.342C42.2369 16.263 42.4738 16.1051 42.7106 15.8683L43.3422 16.7367C43.0264 17.0525 42.6317 17.2104 42.2369 17.3683C41.8422 17.4472 41.4475 17.5262 40.9738 17.5262C40.5791 17.5262 40.1843 17.4472 39.7896 17.2893C39.4738 17.1314 39.158 16.9735 38.8422 16.6577C38.6054 16.4209 38.3685 16.1051 38.2106 15.7104C38.0527 15.3156 37.9738 14.9209 37.9738 14.5262C37.9738 14.0525 38.0527 13.6577 38.2106 13.342C38.3685 12.9472 38.5264 12.6314 38.7633 12.3946C39.0001 12.1577 39.3159 11.9209 39.6317 11.763C40.0264 11.6841 40.4212 11.6051 40.8159 11.6051ZM40.8159 12.7104C40.5791 12.7104 40.4212 12.7104 40.2633 12.7893C40.1054 12.8683 39.9475 12.9472 39.7896 13.1051C39.6317 13.263 39.5527 13.342 39.4738 13.5788C39.3948 13.7367 39.3159 13.9735 39.3159 14.1314H42.2369C42.158 13.6577 42.0001 13.342 41.7633 13.1051C41.5264 12.7893 41.2106 12.7104 40.8159 12.7104ZM47.7633 11.6051C47.9212 11.6051 48.158 11.6051 48.2369 11.6051C48.3948 11.6051 48.5527 11.6841 48.7106 11.763L48.3948 12.9472C48.2369 12.8683 48.0791 12.8683 47.9212 12.7893C47.7633 12.7893 47.6054 12.7104 47.4475 12.7104C47.2896 12.7104 47.0527 12.7104 46.8948 12.7893C46.7369 12.8683 46.5791 12.9472 46.5001 13.1051C46.4212 13.263 46.2633 13.4209 46.1843 13.5788C46.1054 13.7367 46.1054 13.9735 46.1054 14.2104V17.2893H44.8422V11.6051H46.0264V12.2367C46.1843 11.9998 46.4212 11.763 46.7369 11.6051C47.1317 11.6841 47.4475 11.6051 47.7633 11.6051ZM52.0264 11.6051C52.4212 11.6051 52.8159 11.6841 53.2106 11.842C53.6054 11.9998 53.9212 12.2367 54.158 12.5525L53.3685 13.4209C53.1317 13.263 52.9738 13.1051 52.7369 12.9472C52.5001 12.8683 52.2633 12.7893 52.0264 12.7893C51.7896 12.7893 51.5527 12.8683 51.3948 12.9472C51.158 13.0262 51.0001 13.1841 50.8422 13.342C50.6843 13.4998 50.6054 13.6577 50.5264 13.8946C50.4475 14.1314 50.3685 14.3683 50.3685 14.6051C50.3685 14.842 50.4475 15.0788 50.5264 15.3156C50.6054 15.5525 50.7633 15.7104 50.8422 15.8683C51.0001 16.0262 51.158 16.1841 51.3948 16.263C51.6317 16.342 51.7896 16.4209 52.0264 16.4209C52.2633 16.4209 52.5791 16.342 52.8159 16.263C53.0527 16.1841 53.2896 16.0262 53.4475 15.8683L54.2369 16.7367C54.0001 17.0525 53.6843 17.2893 53.2896 17.4472C52.8948 17.6051 52.5001 17.6841 52.1054 17.6841C51.6317 17.6841 51.2369 17.6051 50.9212 17.4472C50.5264 17.2893 50.2106 17.0525 49.9738 16.8156C49.7369 16.5788 49.5001 16.263 49.3422 15.8683C49.1843 15.4735 49.1054 15.0788 49.1054 14.6841C49.1054 14.2893 49.1843 13.8946 49.3422 13.4998C49.5001 13.1051 49.658 12.7893 49.9738 12.5525C50.2106 12.3156 50.5264 12.0788 50.9212 11.9209C51.158 11.6841 51.5527 11.6051 52.0264 11.6051ZM60.7106 17.4472H59.4475V16.7367C59.2896 16.9735 58.9738 17.2104 58.7369 17.3683C58.4212 17.5262 58.1054 17.6051 57.7106 17.6051C57.3159 17.6051 56.9212 17.5262 56.6054 17.3683C56.2896 17.2104 55.9738 17.0525 55.7369 16.7367C55.5001 16.4998 55.2633 16.1841 55.1054 15.7893C54.9475 15.3946 54.8685 14.9998 54.8685 14.6051C54.8685 14.2104 54.9475 13.7367 55.1054 13.4209C55.2633 13.0262 55.4212 12.7104 55.7369 12.4735C55.9738 12.2367 56.2896 11.9998 56.6054 11.842C56.9212 11.6841 57.3159 11.6051 57.7106 11.6051C58.1054 11.6051 58.5001 11.6841 58.7369 11.842C59.0527 11.9998 59.2896 12.1577 59.4475 12.4735V11.763H60.7106V17.4472ZM57.8685 12.7893C57.6317 12.7893 57.3948 12.8683 57.158 12.9472C56.9212 13.0262 56.7633 13.1841 56.6054 13.342C56.4475 13.4998 56.3685 13.6577 56.2896 13.8946C56.2106 14.1314 56.2106 14.3683 56.2106 14.6051C56.2106 14.842 56.2896 15.0788 56.2896 15.3156C56.3685 15.5525 56.4475 15.7104 56.6054 15.8683C56.7633 16.0262 56.9212 16.1841 57.158 16.263C57.3948 16.342 57.6317 16.4209 57.8685 16.4209C58.1054 16.4209 58.3422 16.342 58.5791 16.263C58.8159 16.1841 58.9738 16.0262 59.1317 15.8683C59.2896 15.7104 59.3685 15.5525 59.4475 15.3156C59.5264 15.0788 59.6054 14.842 59.6054 14.6051C59.6054 14.3683 59.5264 14.1314 59.4475 13.8946C59.3685 13.6577 59.2106 13.4998 59.1317 13.342C58.9738 13.1841 58.8159 13.0262 58.5791 12.9472C58.3422 12.7893 58.1054 12.7893 57.8685 12.7893ZM65.3685 11.6051C65.5264 11.6051 65.7633 11.6051 65.8422 11.6051C66.0001 11.6051 66.158 11.6841 66.3159 11.763L66.0001 12.9472C65.8422 12.8683 65.6843 12.8683 65.5264 12.7893C65.3685 12.7893 65.2106 12.7104 65.0527 12.7104C64.8948 12.7104 64.658 12.7104 64.5001 12.7893C64.3422 12.8683 64.1843 12.9472 64.1054 13.1051C64.0264 13.263 63.8685 13.4209 63.7896 13.5788C63.7106 13.7367 63.7106 13.9735 63.7106 14.2104V17.2893H62.4475V11.6051H63.6317V12.2367C63.7896 11.9998 64.0264 11.763 64.3422 11.6051C64.7369 11.6841 65.0527 11.6051 65.3685 11.6051ZM69.4738 11.6051C69.8685 11.6051 70.2633 11.6841 70.5001 11.842C70.8159 11.9998 71.0527 12.1577 71.2106 12.4735V8.9209H72.4738V17.4472H71.2106V16.7367C71.0527 16.9735 70.7369 17.2104 70.5001 17.3683C70.1843 17.5262 69.8685 17.6051 69.4738 17.6051C69.0791 17.6051 68.6843 17.5262 68.3685 17.3683C68.0527 17.2104 67.7369 17.0525 67.5001 16.7367C67.2633 16.4998 67.0264 16.1841 66.8685 15.7893C66.7106 15.3946 66.6317 14.9998 66.6317 14.6051C66.6317 14.2104 66.7106 13.7367 66.8685 13.4209C67.0264 13.0262 67.1843 12.7104 67.5001 12.4735C67.7369 12.2367 68.0527 11.9998 68.3685 11.842C68.6843 11.6841 69.0791 11.6051 69.4738 11.6051ZM73.8948 16.8946C73.9738 16.8946 73.9738 16.8946 74.0527 16.8946C74.1317 16.8946 74.1317 16.9735 74.1317 16.9735L74.2106 17.0525C74.2106 17.1314 74.2106 17.1314 74.2106 17.2104C74.2106 17.2893 74.2106 17.2893 74.2106 17.3683C74.2106 17.4472 74.1317 17.4472 74.1317 17.4472L74.0527 17.5262C73.9738 17.5262 73.9738 17.5262 73.8948 17.5262C73.8159 17.5262 73.8159 17.5262 73.7369 17.5262C73.658 17.5262 73.658 17.4472 73.658 17.4472L73.579 17.3683C73.579 17.2893 73.579 17.2893 73.579 17.2104C73.579 17.1314 73.579 17.1314 73.579 17.0525C73.579 16.9735 73.658 16.9735 73.658 16.9735L73.7369 16.8946C73.8159 16.8946 73.8159 16.8946 73.8948 16.8946ZM73.8948 17.5262H73.9738C73.9738 17.5262 74.0527 17.5262 74.0527 17.4472L74.1317 17.3683V17.2893V17.2104C74.1317 17.2104 74.1317 17.1314 74.0527 17.1314L73.9738 17.0525H73.8948H73.8159C73.8159 17.0525 73.7369 17.0525 73.7369 17.1314L73.658 17.2104V17.2893V17.3683C73.658 17.3683 73.658 17.4472 73.7369 17.4472L73.8159 17.5262H73.8948ZM73.8948 17.0525C73.9738 17.0525 73.9738 17.0525 73.9738 17.0525V17.1314V17.2104H73.8948L73.9738 17.3683H73.8948L73.8159 17.2104V17.3683H73.7369V17.0525H73.8948ZM73.8159 17.1314V17.2104H73.8948C73.8948 17.2104 73.8948 17.2104 73.9738 17.2104C73.9738 17.2104 73.9738 17.2104 73.8948 17.2104H73.8159V17.1314ZM69.6317 12.7893C69.3948 12.7893 69.158 12.8683 68.9212 12.9472C68.6843 13.0262 68.5264 13.1841 68.3685 13.342C68.2106 13.4998 68.1317 13.6577 68.0527 13.8946C67.8948 14.1314 67.8948 14.3683 67.8948 14.6051C67.8948 14.842 67.9738 15.0788 67.9738 15.3156C68.0527 15.5525 68.1317 15.7104 68.2896 15.8683C68.4475 16.0262 68.6054 16.1841 68.8422 16.263C69.0791 16.342 69.3159 16.4209 69.5527 16.4209C69.7896 16.4209 70.0264 16.342 70.2633 16.263C70.5001 16.1841 70.658 16.0262 70.8159 15.8683C70.9738 15.7104 71.0527 15.5525 71.1317 15.3156C71.2106 15.0788 71.2896 14.842 71.2896 14.6051C71.2896 14.3683 71.2106 14.1314 71.1317 13.8946C71.0527 13.6577 70.8948 13.4998 70.8159 13.342C70.658 13.1841 70.5001 13.0262 70.2633 12.9472C70.1054 12.7893 69.8685 12.7893 69.6317 12.7893Z" fill="#E41522"/>
</svg>
