<svg width="234" height="59" viewBox="0 0 234 59" fill="none" xmlns="http://www.w3.org/2000/svg">
<rect width="234" height="59" rx="5" fill="url(#paint0_linear)"/>
<path opacity="0.4" d="M203.948 23.4288C203.82 23.4288 203.693 23.3798 203.595 23.2828C202.855 22.5518 201.574 22.2228 199.447 22.2198C197.32 22.2238 196.04 22.5508 195.3 23.2828C195.104 23.4768 194.787 23.4748 194.593 23.2778C194.399 23.0828 194.401 22.7638 194.598 22.5708C195.805 21.3788 197.825 21.2228 199.448 21.2188C201.073 21.2228 203.094 21.3768 204.302 22.5708C204.498 22.7638 204.5 23.0828 204.306 23.2778C204.206 23.3778 204.077 23.4288 203.948 23.4288ZM192.543 23.1788C192.689 22.9448 192.622 22.6358 192.389 22.4878C191.647 22.0148 190.83 21.6648 189.969 21.4448C188.963 21.1888 187.936 21.1268 186.912 21.2528C186.639 21.2868 186.443 21.5368 186.478 21.8108C186.51 22.0848 186.763 22.2858 187.036 22.2468C187.933 22.1358 188.838 22.1918 189.723 22.4158C190.483 22.6078 191.2 22.9188 191.852 23.3348C191.936 23.3878 192.03 23.4128 192.122 23.4128C192.286 23.4088 192.448 23.3268 192.543 23.1788ZM217.318 23.2778C217.511 23.0828 217.509 22.7638 217.314 22.5708C216.105 21.3788 214.085 21.2228 212.46 21.2188C210.835 21.2228 208.815 21.3768 207.608 22.5708C207.412 22.7638 207.41 23.0828 207.604 23.2778C207.798 23.4748 208.115 23.4768 208.311 23.2828C209.053 22.5518 210.332 22.2228 212.458 22.2198C214.587 22.2238 215.866 22.5508 216.605 23.2828C216.704 23.3798 216.831 23.4288 216.958 23.4288C217.09 23.4288 217.219 23.3778 217.318 23.2778ZM220.055 23.3308C220.711 22.9148 221.428 22.6038 222.186 22.4118C223.071 22.1878 223.975 22.1308 224.874 22.2428C225.149 22.2818 225.397 22.0818 225.433 21.8068C225.467 21.5348 225.273 21.2848 224.998 21.2488C223.977 21.1228 222.948 21.1858 221.94 21.4408C221.08 21.6608 220.264 22.0108 219.52 22.4838C219.288 22.6318 219.217 22.9408 219.367 23.1738C219.463 23.3228 219.624 23.4048 219.789 23.4048C219.879 23.4088 219.973 23.3838 220.055 23.3308ZM206.448 34.7978V23.7988C206.448 23.5228 206.222 23.2988 205.948 23.2988C205.673 23.2988 205.448 23.5228 205.448 23.7988V34.7978C205.448 36.1768 204.326 37.2988 202.948 37.2988C201.57 37.2988 200.448 36.1768 200.448 34.7978C200.448 34.5228 200.222 34.2978 199.948 34.2978C199.673 34.2978 199.448 34.5228 199.448 34.7978C199.448 36.7298 201.017 38.2988 202.948 38.2988C204.878 38.2988 206.448 36.7298 206.448 34.7978ZM227.678 21.0148C227.907 20.8588 227.963 20.5458 227.807 20.3198C222.858 13.1068 214.684 8.79883 205.949 8.79883C197.213 8.79883 189.04 13.1068 184.09 20.3198C183.935 20.5478 183.989 20.8588 184.219 21.0148C184.448 21.1708 184.758 21.1128 184.913 20.8848C189.678 13.9428 197.542 9.79883 205.949 9.79883C214.356 9.79883 222.22 13.9448 226.985 20.8848C227.082 21.0268 227.237 21.1028 227.397 21.1028C227.494 21.1028 227.592 21.0728 227.678 21.0148ZM205.948 5.29883C205.396 5.29883 204.948 5.74583 204.948 6.29883C204.948 6.85283 205.396 7.29883 205.948 7.29883C206.5 7.29883 206.948 6.85283 206.948 6.29883C206.948 5.74583 206.5 5.29883 205.948 5.29883ZM52.751 52.9328C52.902 52.9328 53.028 52.9838 53.129 53.0808C53.228 53.1828 53.278 53.3078 53.278 53.4588C53.278 53.6058 53.222 53.7368 53.11 53.8508C52.587 54.3118 51.969 54.5388 51.259 54.5388C50.475 54.5388 49.805 54.2618 49.251 53.7078C48.695 53.1508 48.419 52.4808 48.419 51.6988C48.419 50.9158 48.695 50.2458 49.251 49.6898C49.805 49.1328 50.475 48.8578 51.259 48.8578C51.973 48.8578 52.589 49.0868 53.11 49.5458C53.232 49.6538 53.293 49.7868 53.293 49.9448C53.293 50.0968 53.243 50.2258 53.144 50.3268C53.044 50.4298 52.918 50.4778 52.766 50.4778C52.638 50.4778 52.523 50.4368 52.421 50.3568C52.248 50.2108 52.067 50.1008 51.878 50.0268C51.69 49.9528 51.483 49.9158 51.26 49.9158C51.013 49.9158 50.781 49.9628 50.565 50.0548C50.349 50.1508 50.16 50.2758 49.998 50.4378C49.836 50.5978 49.708 50.7878 49.614 51.0018C49.521 51.2188 49.475 51.4498 49.475 51.6948C49.475 51.9428 49.521 52.1738 49.614 52.3898C49.708 52.6068 49.836 52.7928 49.998 52.9538C50.16 53.1148 50.35 53.2408 50.565 53.3338C50.782 53.4288 51.013 53.4758 51.26 53.4758C51.484 53.4758 51.69 53.4388 51.878 53.3668C52.067 53.2958 52.246 53.1848 52.416 53.0398C52.511 52.9738 52.622 52.9368 52.751 52.9328ZM62.478 51.1208C62.478 50.8108 62.417 50.5198 62.297 50.2458C62.177 49.9718 62.015 49.7288 61.81 49.5238C61.605 49.3188 61.365 49.1598 61.09 49.0398C60.815 48.9188 60.523 48.8578 60.216 48.8578C59.532 48.8578 58.956 49.1278 58.486 49.6658C58.262 49.3948 58.004 49.1898 57.706 49.0618C57.408 48.9258 57.09 48.8608 56.752 48.8608C56.292 48.8608 55.882 48.9818 55.52 49.2218C55.486 49.1128 55.424 49.0248 55.332 48.9578C55.241 48.8938 55.136 48.8578 55.018 48.8578C54.872 48.8578 54.748 48.9108 54.645 49.0118C54.542 49.1158 54.491 49.2408 54.491 49.3838V54.0038C54.491 54.1518 54.543 54.2768 54.645 54.3818C54.749 54.4848 54.874 54.5358 55.023 54.5358C55.169 54.5358 55.293 54.4838 55.395 54.3818C55.499 54.2778 55.551 54.1528 55.551 54.0038V51.1178C55.551 50.9518 55.581 50.7978 55.645 50.6498C55.707 50.5038 55.793 50.3788 55.903 50.2668C56.013 50.1588 56.14 50.0728 56.286 50.0068C56.432 49.9438 56.588 49.9128 56.753 49.9128C56.918 49.9128 57.073 49.9438 57.219 50.0098C57.365 50.0748 57.491 50.1598 57.601 50.2708C57.708 50.3768 57.795 50.5028 57.86 50.6498C57.923 50.7958 57.956 50.9518 57.956 51.1178V54.0038C57.956 54.1518 58.008 54.2768 58.111 54.3818C58.214 54.4848 58.34 54.5358 58.488 54.5358C58.634 54.5358 58.758 54.4838 58.861 54.3818C58.965 54.2778 59.016 54.1528 59.016 54.0038V51.1178C59.016 50.9518 59.047 50.7978 59.109 50.6498C59.172 50.5038 59.258 50.3788 59.368 50.2708C59.478 50.1628 59.605 50.0768 59.751 50.0098C59.897 49.9468 60.052 49.9128 60.219 49.9128C60.386 49.9128 60.546 49.9438 60.693 50.0098C60.84 50.0758 60.967 50.1608 61.076 50.2728C61.183 50.3808 61.269 50.5078 61.332 50.6558C61.395 50.8018 61.425 50.9548 61.425 51.1178V54.0038C61.425 54.1518 61.477 54.2768 61.577 54.3818C61.68 54.4848 61.805 54.5358 61.953 54.5358C62.099 54.5358 62.224 54.4838 62.326 54.3818C62.43 54.2778 62.481 54.1528 62.481 54.0038V51.1208H62.478ZM66.652 54.5388C67.041 54.5388 67.403 54.4718 67.736 54.3338C68.069 54.1938 68.377 53.9868 68.661 53.7078C69.216 53.1588 69.493 52.4898 69.493 51.6988C69.493 51.3048 69.424 50.9398 69.286 50.6038C69.146 50.2678 68.939 49.9618 68.661 49.6878C68.1 49.1338 67.43 48.8558 66.652 48.8558C65.869 48.8558 65.199 49.1338 64.645 49.6878C64.089 50.2458 63.813 50.9148 63.813 51.6988V56.4438C63.813 56.5958 63.863 56.7228 63.962 56.8238C64.061 56.9238 64.189 56.9708 64.34 56.9708C64.488 56.9708 64.614 56.9208 64.718 56.8238C64.821 56.7228 64.872 56.5958 64.872 56.4438V53.9158C65.381 54.3318 65.974 54.5388 66.652 54.5388ZM64.873 51.6988C64.873 51.4558 64.919 51.2248 65.013 51.0098C65.107 50.7938 65.232 50.6068 65.391 50.4468C65.549 50.2858 65.738 50.1588 65.954 50.0638C66.17 49.9668 66.403 49.9198 66.652 49.9198C66.9 49.9198 67.131 49.9668 67.348 50.0638C67.564 50.1588 67.751 50.2868 67.913 50.4498C68.073 50.6108 68.199 50.7998 68.292 51.0148C68.386 51.2278 68.433 51.4558 68.433 51.7018C68.433 51.9448 68.386 52.1748 68.292 52.3898C68.199 52.6048 68.073 52.7898 67.913 52.9528C67.751 53.1148 67.563 53.2428 67.348 53.3378C67.13 53.4348 66.9 53.4818 66.652 53.4818C66.403 53.4818 66.17 53.4348 65.954 53.3378C65.737 53.2428 65.549 53.1158 65.391 52.9558C65.232 52.7948 65.107 52.6038 65.013 52.3918C64.919 52.1728 64.873 51.9398 64.873 51.6988ZM75.118 54.0118C75.118 54.1578 75.171 54.2828 75.274 54.3848C75.377 54.4888 75.502 54.5388 75.651 54.5388C75.797 54.5388 75.921 54.4848 76.024 54.3848C76.127 54.2818 76.179 54.1568 76.179 54.0118V51.6988C76.179 50.9158 75.902 50.2458 75.347 49.6898C74.785 49.1328 74.117 48.8578 73.338 48.8578C72.553 48.8578 71.884 49.1328 71.329 49.6898C70.775 50.2458 70.497 50.9158 70.497 51.6988C70.497 52.4808 70.775 53.1508 71.329 53.7078C71.884 54.2618 72.553 54.5388 73.338 54.5388C73.677 54.5388 73.994 54.4828 74.292 54.3778C74.589 54.2708 74.864 54.1118 75.117 53.9098L75.118 54.0118ZM73.339 49.9188C73.587 49.9188 73.818 49.9668 74.034 50.0618C74.25 50.1588 74.439 50.2868 74.599 50.4488C74.759 50.6108 74.887 50.8008 74.98 51.0118C75.073 51.2278 75.118 51.4548 75.118 51.6998C75.118 51.9418 75.073 52.1728 74.98 52.3868C74.887 52.6048 74.759 52.7908 74.599 52.9528C74.439 53.1138 74.249 53.2438 74.034 53.3378C73.817 53.4348 73.587 53.4838 73.339 53.4838C73.088 53.4838 72.857 53.4348 72.639 53.3378C72.424 53.2438 72.236 53.1158 72.076 52.9558C71.917 52.7948 71.792 52.6038 71.698 52.3918C71.605 52.1728 71.559 51.9448 71.559 51.7028C71.559 51.4588 71.605 51.2298 71.698 51.0138C71.792 50.7968 71.917 50.6098 72.076 50.4478C72.235 50.2898 72.424 50.1628 72.639 50.0648C72.856 49.9668 73.088 49.9188 73.339 49.9188ZM77.286 53.6828C77.215 53.7728 77.181 53.8808 77.181 54.0118C77.181 54.0828 77.194 54.1538 77.221 54.2148C77.247 54.2778 77.285 54.3358 77.332 54.3848C77.379 54.4348 77.436 54.4738 77.499 54.4988C77.563 54.5238 77.633 54.5398 77.707 54.5398C77.856 54.5398 77.98 54.4828 78.083 54.3768L79.635 52.5228L81.176 54.3768C81.284 54.4828 81.41 54.5398 81.556 54.5398C81.631 54.5398 81.701 54.5238 81.764 54.4988C81.828 54.4738 81.884 54.4348 81.932 54.3848C81.979 54.3358 82.017 54.2808 82.047 54.2148C82.075 54.1518 82.089 54.0828 82.089 54.0118C82.089 53.8768 82.052 53.7688 81.978 53.6828L80.32 51.6968L81.964 49.7398C82.048 49.6348 82.09 49.5168 82.09 49.3868C82.09 49.3178 82.076 49.2478 82.048 49.1848C82.018 49.1218 81.98 49.0638 81.933 49.0148C81.885 48.9648 81.829 48.9268 81.765 48.9018C81.702 48.8758 81.632 48.8608 81.557 48.8608C81.399 48.8608 81.269 48.9198 81.167 49.0338L79.636 50.8658L78.104 49.0338C78 48.9198 77.868 48.8608 77.708 48.8608C77.634 48.8608 77.564 48.8758 77.5 48.9018C77.437 48.9268 77.38 48.9648 77.333 49.0148C77.286 49.0638 77.248 49.1188 77.222 49.1848C77.195 49.2478 77.182 49.3178 77.182 49.3868C77.182 49.5308 77.222 49.6478 77.303 49.7398L78.947 51.6968L77.286 53.6828ZM88.545 51.6988C88.542 51.3048 88.472 50.9418 88.335 50.6078C88.197 50.2718 87.989 49.9648 87.714 49.6898C87.151 49.1328 86.483 48.8578 85.705 48.8578C84.92 48.8578 84.251 49.1328 83.696 49.6898C83.142 50.2458 82.864 50.9158 82.864 51.6988C82.864 52.4808 83.142 53.1508 83.696 53.7078C84.251 54.2618 84.92 54.5388 85.705 54.5388C86.482 54.5388 87.151 54.2618 87.714 53.7078C88.268 53.1588 88.545 52.4908 88.545 51.6988ZM85.705 49.9188C85.952 49.9188 86.184 49.9668 86.4 50.0618C86.615 50.1588 86.804 50.2868 86.965 50.4488C87.124 50.6108 87.252 50.8008 87.345 51.0118C87.438 51.2278 87.484 51.4548 87.484 51.6998C87.484 51.9418 87.438 52.1728 87.345 52.3868C87.252 52.6048 87.124 52.7908 86.965 52.9528C86.804 53.1138 86.614 53.2438 86.4 53.3378C86.183 53.4348 85.952 53.4838 85.705 53.4838C85.454 53.4838 85.221 53.4348 85.004 53.3378C84.789 53.2438 84.602 53.1158 84.441 52.9558C84.283 52.7948 84.157 52.6038 84.064 52.3918C83.971 52.1728 83.924 51.9448 83.924 51.7028C83.924 51.4588 83.971 51.2298 84.064 51.0138C84.157 50.7978 84.283 50.6098 84.441 50.4478C84.601 50.2898 84.789 50.1628 85.004 50.0648C85.221 49.9668 85.454 49.9188 85.705 49.9188ZM100.638 51.6988C100.635 51.3048 100.565 50.9418 100.428 50.6078C100.29 50.2718 100.082 49.9648 99.807 49.6898C99.244 49.1328 98.576 48.8578 97.798 48.8578C97.013 48.8578 96.344 49.1328 95.789 49.6898C95.235 50.2458 94.957 50.9158 94.957 51.6988C94.957 52.4808 95.235 53.1508 95.789 53.7078C96.344 54.2618 97.013 54.5388 97.798 54.5388C98.575 54.5388 99.244 54.2618 99.807 53.7078C100.361 53.1588 100.638 52.4908 100.638 51.6988ZM97.798 49.9188C98.045 49.9188 98.277 49.9668 98.493 50.0618C98.708 50.1588 98.897 50.2868 99.058 50.4488C99.217 50.6108 99.345 50.8008 99.438 51.0118C99.531 51.2278 99.577 51.4548 99.577 51.6998C99.577 51.9418 99.531 52.1728 99.438 52.3868C99.345 52.6048 99.217 52.7908 99.058 52.9528C98.897 53.1138 98.707 53.2438 98.493 53.3378C98.276 53.4348 98.045 53.4838 97.798 53.4838C97.547 53.4838 97.314 53.4348 97.097 53.3378C96.882 53.2438 96.695 53.1158 96.534 52.9558C96.376 52.7948 96.25 52.6038 96.157 52.3918C96.064 52.1728 96.017 51.9448 96.017 51.7028C96.017 51.4588 96.064 51.2298 96.157 51.0138C96.25 50.7978 96.376 50.6098 96.534 50.4478C96.694 50.2898 96.882 50.1628 97.097 50.0648C97.314 49.9668 97.547 49.9188 97.798 49.9188ZM90.237 48.8578C90.163 48.8578 90.092 48.8728 90.03 48.8988C89.966 48.9238 89.91 48.9618 89.862 49.0118C89.814 49.0608 89.777 49.1168 89.75 49.1818C89.724 49.2448 89.709 49.3148 89.709 49.3838V54.0088C89.709 54.0798 89.724 54.1488 89.75 54.2118C89.777 54.2748 89.814 54.3328 89.862 54.3818C89.91 54.4318 89.966 54.4688 90.03 54.4958C90.093 54.5228 90.163 54.5358 90.237 54.5358H92.55C92.782 54.5358 93.002 54.4918 93.206 54.4018C93.41 54.3118 93.589 54.1908 93.741 54.0388C93.892 53.8868 94.012 53.7088 94.1 53.5038C94.189 53.2998 94.233 53.0818 94.233 52.8538C94.233 52.7078 94.218 52.5768 94.189 52.4568C94.161 52.3368 94.118 52.2258 94.063 52.1158C94.007 52.0068 93.936 51.9008 93.851 51.8008C93.767 51.6998 93.668 51.6008 93.558 51.4958C93.75 51.2248 93.846 50.9028 93.846 50.5418C93.846 50.3128 93.802 50.0968 93.712 49.8918C93.623 49.6888 93.502 49.5078 93.35 49.3588C93.197 49.2068 93.019 49.0858 92.815 48.9958C92.611 48.9058 92.392 48.8608 92.163 48.8608H90.237V48.8578ZM90.766 51.1718V49.9188H92.164C92.249 49.9188 92.329 49.9368 92.405 49.9718C92.481 50.0038 92.548 50.0488 92.603 50.1068C92.658 50.1628 92.704 50.2278 92.737 50.3028C92.771 50.3788 92.789 50.4588 92.789 50.5418C92.789 50.6338 92.771 50.7188 92.737 50.7938C92.704 50.8698 92.657 50.9368 92.599 50.9918C92.542 51.0478 92.475 51.0918 92.4 51.1238C92.324 51.1528 92.246 51.1718 92.164 51.1718H90.766ZM90.766 53.4798V52.2278H92.551C92.631 52.2278 92.71 52.2438 92.786 52.2748C92.862 52.3078 92.928 52.3508 92.985 52.4088C93.043 52.4648 93.089 52.5308 93.123 52.6088C93.157 52.6868 93.174 52.7688 93.174 52.8568C93.174 52.9448 93.157 53.0248 93.123 53.0988C93.089 53.1718 93.044 53.2408 92.988 53.2958C92.933 53.3548 92.866 53.3998 92.791 53.4328C92.715 53.4628 92.635 53.4798 92.551 53.4798H90.766ZM140.982 54.5388C141.13 54.5388 141.256 54.4868 141.359 54.3848C141.463 54.2818 141.515 54.1568 141.515 54.0118V49.3868C141.515 49.2408 141.462 49.1168 141.359 49.0148C141.256 48.9108 141.132 48.8608 140.988 48.8608C140.84 48.8608 140.714 48.9138 140.609 49.0148C140.506 49.1188 140.456 49.2438 140.456 49.3868V51.8938C140.456 52.1128 140.414 52.3198 140.331 52.5078C140.249 52.6988 140.134 52.8668 139.988 53.0148C139.842 53.1608 139.675 53.2728 139.48 53.3568C139.289 53.4388 139.084 53.4818 138.868 53.4818C138.646 53.4818 138.441 53.4388 138.25 53.3568C138.057 53.2728 137.889 53.1608 137.745 53.0168C137.599 52.8718 137.488 52.7038 137.404 52.5108C137.322 52.3198 137.281 52.1128 137.281 51.8938V49.3868C137.281 49.2408 137.228 49.1168 137.126 49.0148C137.023 48.9108 136.898 48.8608 136.753 48.8608C136.606 48.8608 136.479 48.9138 136.376 49.0148C136.272 49.1188 136.221 49.2438 136.221 49.3868V51.8938C136.221 52.2538 136.291 52.5968 136.432 52.9158C136.573 53.2368 136.762 53.5198 137.002 53.7588C137.241 53.9978 137.523 54.1908 137.843 54.3288C138.164 54.4688 138.506 54.5388 138.868 54.5388C139.173 54.5388 139.454 54.4978 139.716 54.4148C139.977 54.3318 140.223 54.1988 140.456 54.0188C140.459 54.1648 140.51 54.2888 140.607 54.3868C140.705 54.4868 140.831 54.5388 140.982 54.5388ZM106.633 54.5388C106.781 54.5388 106.907 54.4848 107.01 54.3848C107.114 54.2808 107.166 54.1568 107.166 54.0118V49.3868C107.166 49.2408 107.114 49.1168 107.01 49.0168C106.907 48.9128 106.783 48.8608 106.638 48.8608C106.49 48.8608 106.364 48.9138 106.26 49.0168C106.157 49.1198 106.106 49.2438 106.106 49.3868V51.8938C106.106 52.1148 106.065 52.3198 105.981 52.5078C105.899 52.6988 105.785 52.8668 105.639 53.0148C105.493 53.1608 105.325 53.2748 105.131 53.3568C104.939 53.4388 104.735 53.4818 104.518 53.4818C104.297 53.4818 104.092 53.4388 103.9 53.3568C103.707 53.2748 103.539 53.1618 103.395 53.0168C103.25 52.8718 103.137 52.7038 103.055 52.5108C102.972 52.3198 102.93 52.1148 102.93 51.8938V49.3868C102.93 49.2408 102.879 49.1168 102.776 49.0168C102.673 48.9128 102.548 48.8608 102.404 48.8608C102.255 48.8608 102.129 48.9138 102.026 49.0168C101.922 49.1198 101.871 49.2438 101.871 49.3868V51.8938C101.871 52.2538 101.941 52.5968 102.082 52.9168C102.222 53.2368 102.412 53.5208 102.652 53.7578C102.892 53.9978 103.173 54.1908 103.493 54.3288C103.815 54.4718 104.157 54.5388 104.518 54.5388C104.823 54.5388 105.104 54.4978 105.366 54.4148C105.626 54.3318 105.873 54.1998 106.106 54.0188C106.109 54.1648 106.16 54.2888 106.258 54.3868C106.354 54.4868 106.48 54.5388 106.633 54.5388ZM104.518 48.2558C104.751 48.2558 104.97 48.2238 105.175 48.1568C105.379 48.0908 105.558 47.9998 105.71 47.8828C105.862 47.7688 105.982 47.6288 106.072 47.4688C106.162 47.3138 106.206 47.1418 106.206 46.9578C106.206 46.8118 106.157 46.6848 106.057 46.5798C105.957 46.4748 105.831 46.4248 105.68 46.4248C105.528 46.4248 105.401 46.4778 105.299 46.5758C105.224 46.6528 105.177 46.7458 105.156 46.8478C105.149 46.9438 105.088 47.0218 104.969 47.0858C104.844 47.1578 104.693 47.1928 104.517 47.1928C104.341 47.1928 104.191 47.1578 104.066 47.0858C103.948 47.0218 103.882 46.9428 103.874 46.8478C103.856 46.7438 103.811 46.6528 103.737 46.5758C103.634 46.4728 103.508 46.4248 103.356 46.4248C103.204 46.4248 103.077 46.4798 102.978 46.5798C102.878 46.6838 102.829 46.8088 102.829 46.9578C102.829 47.1418 102.874 47.3118 102.964 47.4688C103.053 47.6288 103.174 47.7688 103.326 47.8828C103.478 47.9998 103.657 48.0908 103.861 48.1568C104.065 48.2238 104.284 48.2558 104.518 48.2558ZM115.538 52.9328C115.409 52.9368 115.298 52.9738 115.203 53.0428C115.034 53.1888 114.855 53.2988 114.665 53.3698C114.477 53.4418 114.27 53.4788 114.047 53.4788C113.8 53.4788 113.568 53.4298 113.352 53.3368C113.136 53.2438 112.947 53.1178 112.785 52.9568C112.623 52.7958 112.495 52.6068 112.401 52.3928C112.308 52.1738 112.262 51.9438 112.262 51.6988C112.262 51.4528 112.308 51.2198 112.401 51.0048C112.495 50.7878 112.623 50.6008 112.785 50.4408C112.947 50.2808 113.137 50.1538 113.352 50.0598C113.569 49.9658 113.8 49.9188 114.047 49.9188C114.271 49.9188 114.477 49.9558 114.665 50.0278C114.855 50.1038 115.036 50.2148 115.208 50.3578C115.31 50.4398 115.425 50.4788 115.553 50.4788C115.705 50.4788 115.831 50.4298 115.932 50.3298C116.031 50.2268 116.081 50.1008 116.081 49.9488C116.081 49.7898 116.019 49.6568 115.898 49.5488C115.377 49.0888 114.76 48.8608 114.046 48.8608C113.261 48.8608 112.592 49.1358 112.037 49.6928C111.483 50.2488 111.205 50.9188 111.205 51.7018C111.205 52.4858 111.483 53.1558 112.037 53.7108C112.592 54.2658 113.261 54.5418 114.046 54.5418C114.755 54.5418 115.373 54.3128 115.898 53.8538C116.008 53.7438 116.064 53.6118 116.064 53.4618C116.064 53.3108 116.015 53.1858 115.915 53.0838C115.815 52.9818 115.69 52.9328 115.538 52.9328ZM121.296 52.9398C121.164 52.9438 121.048 52.9888 120.945 53.0728C120.787 53.2098 120.613 53.3088 120.426 53.3778C120.239 53.4438 120.035 53.4818 119.811 53.4818C119.617 53.4818 119.427 53.4518 119.246 53.3898C119.066 53.3278 118.901 53.2438 118.75 53.1318C118.6 53.0228 118.469 52.8918 118.357 52.7358C118.245 52.5838 118.161 52.4128 118.103 52.2258H122.12C122.268 52.2258 122.393 52.1748 122.497 52.0778C122.601 51.9758 122.651 51.8488 122.651 51.6998C122.651 51.3058 122.583 50.9428 122.444 50.6048C122.305 50.2688 122.096 49.9618 121.821 49.6908C121.258 49.1338 120.59 48.8588 119.811 48.8588C119.028 48.8588 118.358 49.1338 117.804 49.6908C117.249 50.2468 116.972 50.9168 116.972 51.6998C116.972 52.4818 117.249 53.1518 117.804 53.7088C118.358 54.2628 119.028 54.5398 119.811 54.5398C120.524 54.5398 121.144 54.3108 121.668 53.8518C121.771 53.7478 121.819 53.6218 121.819 53.4728C121.819 53.3188 121.768 53.1938 121.671 53.0928C121.573 52.9918 121.448 52.9398 121.296 52.9398ZM118.105 51.1718C118.16 50.9838 118.242 50.8178 118.353 50.6618C118.465 50.5078 118.597 50.3768 118.749 50.2658C118.9 50.1578 119.067 50.0708 119.25 50.0088C119.434 49.9468 119.621 49.9168 119.813 49.9168C120.007 49.9168 120.193 49.9468 120.375 50.0088C120.557 50.0708 120.723 50.1548 120.872 50.2658C121.021 50.3748 121.152 50.5058 121.268 50.6618C121.381 50.8148 121.466 50.9828 121.526 51.1718H118.105ZM126.525 54.5388C126.916 54.5388 127.277 54.4718 127.609 54.3338C127.943 54.1938 128.252 53.9868 128.536 53.7078C129.09 53.1588 129.368 52.4898 129.368 51.6988C129.368 51.3048 129.298 50.9398 129.159 50.6038C129.021 50.2678 128.812 49.9618 128.536 49.6878C127.974 49.1338 127.305 48.8558 126.525 48.8558C125.743 48.8558 125.073 49.1338 124.519 49.6878C123.961 50.2458 123.687 50.9148 123.687 51.6988V56.4438C123.687 56.5958 123.738 56.7228 123.834 56.8238C123.935 56.9238 124.062 56.9708 124.212 56.9708C124.36 56.9708 124.485 56.9208 124.589 56.8238C124.693 56.7228 124.745 56.5958 124.745 56.4438V53.9158C125.255 54.3318 125.848 54.5388 126.525 54.5388ZM124.748 51.6988C124.748 51.4558 124.793 51.2248 124.887 51.0098C124.981 50.7948 125.106 50.6068 125.266 50.4468C125.423 50.2858 125.612 50.1588 125.829 50.0638C126.045 49.9668 126.277 49.9198 126.525 49.9198C126.773 49.9198 127.004 49.9668 127.222 50.0638C127.437 50.1588 127.625 50.2868 127.786 50.4498C127.946 50.6108 128.073 50.7998 128.166 51.0148C128.261 51.2278 128.306 51.4558 128.306 51.7018C128.306 51.9448 128.261 52.1748 128.166 52.3898C128.073 52.6048 127.946 52.7898 127.786 52.9528C127.625 53.1148 127.436 53.2428 127.222 53.3378C127.004 53.4348 126.773 53.4818 126.525 53.4818C126.277 53.4818 126.045 53.4348 125.829 53.3378C125.611 53.2428 125.424 53.1158 125.266 52.9558C125.106 52.7948 124.981 52.6038 124.887 52.3918C124.793 52.1728 124.748 51.9398 124.748 51.6988ZM131.061 48.8578C130.987 48.8578 130.915 48.8728 130.854 48.8988C130.791 48.9238 130.733 48.9618 130.686 49.0118C130.639 49.0608 130.602 49.1168 130.576 49.1818C130.55 49.2448 130.534 49.3148 130.534 49.3838V54.0088C130.534 54.0798 130.55 54.1488 130.576 54.2118C130.602 54.2748 130.639 54.3328 130.686 54.3818C130.733 54.4318 130.79 54.4688 130.854 54.4958C130.918 54.5228 130.987 54.5358 131.061 54.5358H133.374C133.605 54.5358 133.826 54.4918 134.029 54.4018C134.234 54.3118 134.413 54.1908 134.564 54.0388C134.715 53.8868 134.835 53.7088 134.923 53.5038C135.013 53.2998 135.056 53.0818 135.056 52.8538C135.056 52.7078 135.04 52.5768 135.013 52.4568C134.984 52.3368 134.941 52.2258 134.886 52.1158C134.829 52.0068 134.758 51.9008 134.673 51.8008C134.589 51.6998 134.491 51.6008 134.38 51.4958C134.572 51.2248 134.668 50.9028 134.668 50.5418C134.668 50.3128 134.624 50.0968 134.535 49.8918C134.444 49.6888 134.324 49.5078 134.172 49.3588C134.021 49.2068 133.841 49.0858 133.64 48.9958C133.435 48.9058 133.215 48.8608 132.988 48.8608H131.06V48.8578H131.061ZM131.588 51.1718V49.9188H132.986C133.07 49.9188 133.15 49.9368 133.228 49.9718C133.301 50.0038 133.37 50.0488 133.423 50.1068C133.48 50.1628 133.525 50.2278 133.56 50.3028C133.591 50.3788 133.611 50.4588 133.611 50.5418C133.611 50.6338 133.591 50.7188 133.56 50.7938C133.525 50.8698 133.478 50.9368 133.42 50.9918C133.36 51.0478 133.295 51.0918 133.222 51.1238C133.146 51.1528 133.066 51.1718 132.986 51.1718H131.588ZM131.588 53.4798V52.2278H133.373C133.453 52.2278 133.532 52.2438 133.607 52.2748C133.683 52.3078 133.75 52.3508 133.808 52.4088C133.865 52.4648 133.912 52.5308 133.945 52.6088C133.978 52.6868 133.996 52.7688 133.996 52.8568C133.996 52.9448 133.978 53.0248 133.945 53.0988C133.912 53.1718 133.866 53.2408 133.81 53.2958C133.753 53.3548 133.687 53.3998 133.613 53.4328C133.537 53.4628 133.458 53.4798 133.373 53.4798H131.588ZM147.038 52.9328C146.909 52.9368 146.798 52.9738 146.703 53.0428C146.534 53.1888 146.355 53.2988 146.165 53.3698C145.977 53.4418 145.769 53.4788 145.547 53.4788C145.299 53.4788 145.068 53.4298 144.852 53.3368C144.636 53.2438 144.448 53.1178 144.286 52.9568C144.125 52.7958 143.997 52.6068 143.901 52.3928C143.809 52.1738 143.762 51.9438 143.762 51.6988C143.762 51.4528 143.809 51.2198 143.901 51.0048C143.997 50.7878 144.125 50.6008 144.286 50.4408C144.448 50.2808 144.64 50.1538 144.852 50.0598C145.069 49.9658 145.299 49.9188 145.547 49.9188C145.772 49.9188 145.977 49.9558 146.165 50.0278C146.355 50.1038 146.535 50.2148 146.708 50.3578C146.811 50.4398 146.925 50.4788 147.053 50.4788C147.204 50.4788 147.331 50.4298 147.432 50.3298C147.533 50.2268 147.58 50.1008 147.58 49.9488C147.58 49.7898 147.519 49.6568 147.398 49.5488C146.877 49.0888 146.257 48.8608 145.544 48.8608C144.759 48.8608 144.09 49.1358 143.535 49.6928C142.979 50.2488 142.703 50.9188 142.703 51.7018C142.703 52.4858 142.979 53.1558 143.535 53.7108C144.09 54.2658 144.759 54.5418 145.544 54.5418C146.253 54.5418 146.871 54.3128 147.398 53.8538C147.506 53.7438 147.564 53.6118 147.564 53.4618C147.564 53.3108 147.515 53.1858 147.415 53.0838C147.315 52.9818 147.189 52.9328 147.038 52.9328ZM102 33.9988C102 34.5648 101.884 35.1028 101.692 35.6028C101.044 37.2918 99.418 38.4988 97.5 38.4988L88.502 38.5008C87.673 38.5008 87.001 37.8278 87.001 36.9988C87.001 36.1708 87.673 35.4988 88.502 35.4988H97.499C98.328 35.4988 99 34.8238 99 33.9958C99 33.1768 98.338 32.5098 97.519 32.4988C97.519 32.4988 89.709 32.4978 91.5 32.4978C89.709 32.4978 88.176 31.4438 87.451 29.9308C87.17 29.3428 87 28.6918 87 27.9978C87 27.4768 87.105 26.9868 87.267 26.5238C87.879 24.7698 89.528 23.5028 91.49 23.4988C91.493 23.4988 91.496 23.4978 91.5 23.4978C91.504 23.4978 91.506 23.4988 91.51 23.4988H99.499C100.328 23.4988 101 24.1708 101 24.9988C101 25.8208 100.338 26.4868 99.519 26.4988C99.512 26.4988 99.506 26.5008 99.499 26.5008H91.482C90.662 26.5128 90.001 27.1788 90.001 27.9988C90.001 28.8208 90.663 29.4868 91.482 29.4988H97.5C97.507 29.4988 97.513 29.5008 97.52 29.5008C99.383 29.5088 100.978 30.6488 101.654 32.2708C101.875 32.8038 102 33.3858 102 33.9988ZM137 36.9988C137 36.1708 136.328 35.4988 135.5 35.4988C134.671 35.4988 134 36.1708 134 36.9988C134 37.8268 134.671 38.4988 135.5 38.4988C136.328 38.4988 137 37.8268 137 36.9988ZM152.499 23.5008C151.67 23.5008 150.998 24.1728 150.998 25.0018V25.0128V30.9858V31.0008C150.998 31.0048 150.997 31.0078 150.997 31.0118C150.994 32.1638 150.545 33.2048 149.828 33.9998C149.004 34.9138 147.825 35.4998 146.5 35.4998C145.175 35.4998 143.996 34.9138 143.172 33.9998C142.455 33.2048 142.006 32.1638 142.003 31.0118C142.003 31.0078 142.002 31.0048 142.002 31.0008V30.9858V25.0108V25.0008C142.002 24.1718 141.329 23.4998 140.501 23.4998C139.672 23.4998 139 24.1718 139 25.0008V30.9998C139 32.0338 139.21 33.0208 139.59 33.9168C139.602 33.9438 139.618 33.9738 139.63 33.9998C139.76 34.2978 139.91 34.5848 140.077 34.8578C140.577 35.6838 141.232 36.4078 142.002 36.9848C142.002 36.9868 142.002 36.9868 142.002 36.9868C143.257 37.9318 144.813 38.4998 146.5 38.4998C148.188 38.4998 149.743 37.9348 150.997 36.9868C150.997 36.9868 150.997 36.9868 150.997 36.9848C152.023 36.2138 152.848 35.1878 153.369 33.9998C153.381 33.9738 153.396 33.9438 153.408 33.9168C153.789 33.0208 153.999 32.0338 153.999 30.9998V25.0018C154 24.1728 153.328 23.5008 152.499 23.5008ZM120 30.9998C120 35.1358 116.636 38.5008 112.5 38.5008C112.487 38.5008 112.475 38.4968 112.462 38.4968C110.788 38.4888 109.248 37.9248 108.002 36.9848C106.183 35.6168 105 33.4458 105 30.9998C105 30.9988 105 30.9988 105 30.9988C105 26.8618 108.364 23.4978 112.5 23.4978C112.513 23.4978 112.525 23.5018 112.538 23.5018C114.212 23.5098 115.752 24.0738 116.998 25.0128C118.816 26.3818 120 28.5538 120 30.9998ZM112.5 35.4988C114.982 35.4988 117 33.4778 117 30.9988V30.9848C116.992 28.5098 114.977 26.4988 112.5 26.4988C110.018 26.4988 108 28.5198 108 30.9998V31.0148C108.008 33.4848 110.023 35.4988 112.5 35.4988ZM130.5 35.4998C128.02 35.4998 126.001 33.4788 126.001 31.0008C126.001 30.9958 126.002 30.9908 126.002 30.9848V19.0018C126.002 18.1728 125.329 17.5008 124.501 17.5008C123.672 17.5008 123 18.1728 123 19.0018V30.9998C123 31.0008 123 31.0008 123 31.0008C123 35.1368 126.363 38.5018 130.5 38.5018C130.514 38.5018 130.525 38.4978 130.538 38.4978C131.35 38.4768 132.001 37.8148 132.001 36.9998C132.001 36.1728 131.329 35.4998 130.5 35.4998ZM53.499 38.4968C54.328 38.4968 55 37.8248 55 36.9958V30.9978C55 26.8618 51.636 23.4978 47.5 23.4978C43.364 23.4978 40 26.8618 40 30.9978C40 35.1338 43.364 38.4988 47.5 38.4988C48.329 38.4988 49.001 37.8268 49.001 36.9968C49.001 36.1698 48.329 35.4968 47.5 35.4968C45.02 35.4968 43.001 33.4768 43.001 30.9978C43.001 28.5188 45.02 26.4988 47.5 26.4988C49.981 26.4988 51.998 28.5188 51.998 30.9978V36.9958C51.998 37.8248 52.67 38.4968 53.499 38.4968ZM82.499 38.4968C83.328 38.4968 84 37.8248 84 36.9958V30.9978C84 26.8618 80.636 23.4978 76.5 23.4978C72.364 23.4978 69 26.8618 69 30.9978C69 35.1338 72.364 38.4988 76.5 38.4988C77.329 38.4988 78.001 37.8268 78.001 36.9968C78.001 36.1698 77.329 35.4968 76.5 35.4968C74.02 35.4968 72.001 33.4768 72.001 30.9978C72.001 28.5188 74.02 26.4988 76.5 26.4988C78.981 26.4988 80.998 28.5188 80.998 30.9978V36.9958C80.998 37.8248 81.67 38.4968 82.499 38.4968ZM170.499 38.4968C171.328 38.4968 172 37.8248 172 36.9958V30.9978C172 26.8618 168.637 23.4978 164.5 23.4978C160.363 23.4978 157 26.8618 157 30.9978C157 35.1338 160.363 38.4988 164.5 38.4988C165.329 38.4988 166.001 37.8268 166.001 36.9968C166.001 36.1698 165.329 35.4968 164.5 35.4968C162.02 35.4968 160.001 33.4768 160.001 30.9978C160.001 28.5188 162.02 26.4988 164.5 26.4988C166.98 26.4988 168.998 28.5188 168.998 30.9978V36.9958C168.998 37.8248 169.67 38.4968 170.499 38.4968ZM65.5 23.4978C64.547 23.4978 63.64 23.6848 62.801 24.0088C62.729 24.0358 62.654 24.0598 62.583 24.0888C62.526 24.1118 62.473 24.1438 62.416 24.1688C59.816 25.3488 58 27.9618 58 30.9978V30.9988V36.9958C58 37.8248 58.672 38.4968 59.501 38.4968C60.33 38.4968 61.002 37.8248 61.002 36.9958V30.9978C61.002 29.7578 61.506 28.6338 62.32 27.8188C63.135 27.0048 64.26 26.4998 65.5 26.4998C65.502 26.4998 65.503 26.4988 65.505 26.4988C66.332 26.4958 67.001 25.8248 67.001 24.9998C67.001 24.1698 66.329 23.4978 65.5 23.4978ZM23.501 44.4988C24.33 44.4988 25.002 43.8268 25.002 42.9978V30.9998C25.002 28.5208 27.019 26.5008 29.5 26.5008C31.98 26.5008 33.999 28.5208 33.999 30.9998C33.999 33.4788 31.98 35.4988 29.5 35.4988C28.671 35.4988 27.999 36.1718 27.999 36.9988C27.999 37.8288 28.671 38.5008 29.5 38.5008C33.636 38.5008 37 35.1358 37 30.9998C37 26.8638 33.636 23.4998 29.5 23.4998C25.363 23.4998 22 26.8638 22 30.9998V42.9978C22 43.8268 22.672 44.4988 23.501 44.4988ZM221 54.4988H153.469C152.917 54.4988 152.469 54.0518 152.469 53.4988C152.469 52.9438 152.917 52.4988 153.469 52.4988H221C224.309 52.4988 227 49.8098 227 46.4988V29.0638C227 28.5098 227.448 28.0638 228 28.0638C228.552 28.0638 229 28.5098 229 29.0638V46.5008C229 50.9098 225.411 54.4988 221 54.4988ZM45.641 53.4988C45.641 52.9438 45.193 52.4988 44.641 52.4988H14C10.691 52.4988 8 49.8098 8 46.4988V14.4988C8 11.1898 10.691 8.49883 14 8.49883H187.547C188.1 8.49883 188.547 8.05183 188.547 7.49883C188.547 6.94583 188.1 6.49883 187.547 6.49883H14C9.589 6.49883 6 10.0878 6 14.4988V46.4988C6 50.9098 9.589 54.4988 14 54.4988H44.641C45.193 54.4988 45.641 54.0518 45.641 53.4988Z" fill="black"/>
<path d="M203.5 23.129C203.373 23.129 203.246 23.081 203.148 22.984C202.407 22.253 201.127 21.924 198.999 21.921C196.872 21.924 195.592 22.252 194.852 22.984C194.655 23.178 194.339 23.176 194.145 22.98C193.951 22.784 193.953 22.466 194.149 22.273C195.356 21.08 197.376 20.924 199 20.921C200.625 20.924 202.646 21.079 203.853 22.273C204.049 22.466 204.051 22.784 203.857 22.98C203.758 23.079 203.629 23.129 203.5 23.129ZM192.096 22.879C192.243 22.646 192.175 22.337 191.942 22.189C191.199 21.715 190.383 21.365 189.522 21.145C188.516 20.889 187.489 20.827 186.465 20.953C186.192 20.987 185.997 21.237 186.031 21.511C186.064 21.784 186.314 21.985 186.589 21.946C187.486 21.835 188.391 21.891 189.276 22.115C190.035 22.308 190.752 22.618 191.405 23.034C191.489 23.087 191.582 23.112 191.674 23.112C191.838 23.11 192 23.028 192.096 22.879ZM216.87 22.98C217.064 22.784 217.062 22.466 216.866 22.273C215.658 21.08 213.638 20.924 212.013 20.921C210.388 20.924 208.369 21.079 207.161 22.273C206.965 22.466 206.963 22.784 207.157 22.98C207.352 23.176 207.668 23.178 207.865 22.984C208.606 22.253 209.886 21.924 212.012 21.921C214.141 21.924 215.42 22.252 216.16 22.984C216.258 23.081 216.385 23.129 216.512 23.129C216.643 23.129 216.771 23.079 216.87 22.98ZM219.607 23.032C220.263 22.616 220.98 22.306 221.738 22.113C222.623 21.889 223.527 21.832 224.425 21.944C224.698 21.983 224.949 21.783 224.983 21.509C225.018 21.235 224.824 20.986 224.549 20.951C223.528 20.825 222.499 20.888 221.492 21.143C220.631 21.363 219.816 21.713 219.072 22.187C218.839 22.335 218.769 22.644 218.918 22.877C219.014 23.026 219.175 23.108 219.34 23.108C219.432 23.11 219.525 23.085 219.607 23.032ZM206 34.499V23.5C206 23.224 205.775 23 205.5 23C205.225 23 205 23.224 205 23.5V34.499C205 35.878 203.878 37 202.5 37C201.122 37 200 35.878 200 34.499C200 34.224 199.775 33.999 199.5 33.999C199.225 33.999 199 34.224 199 34.499C199 36.431 200.57 38 202.5 38C204.43 38 206 36.431 206 34.499ZM227.23 20.715C227.459 20.559 227.515 20.247 227.359 20.02C222.409 12.807 214.236 8.5 205.5 8.5C196.764 8.5 188.591 12.807 183.641 20.02C183.485 20.248 183.541 20.559 183.77 20.715C183.999 20.872 184.309 20.814 184.464 20.586C189.229 13.645 197.093 9.5 205.5 9.5C213.907 9.5 221.771 13.645 226.536 20.586C226.633 20.727 226.789 20.803 226.949 20.803C227.046 20.803 227.145 20.774 227.23 20.715ZM205.5 5C204.948 5 204.5 5.447 204.5 6C204.5 6.553 204.948 7 205.5 7C206.052 7 206.5 6.553 206.5 6C206.5 5.447 206.052 5 205.5 5ZM52.494 52.459C52.365 52.463 52.254 52.5 52.159 52.569C51.99 52.715 51.811 52.826 51.621 52.897C51.432 52.969 51.226 53.006 51.002 53.006C50.755 53.006 50.523 52.958 50.307 52.865C50.091 52.771 49.901 52.646 49.739 52.484C49.577 52.324 49.449 52.134 49.356 51.92C49.263 51.702 49.217 51.473 49.217 51.225C49.217 50.979 49.263 50.746 49.356 50.532C49.449 50.315 49.577 50.127 49.739 49.967C49.901 49.806 50.091 49.681 50.307 49.585C50.523 49.493 50.755 49.446 51.002 49.446C51.226 49.446 51.432 49.483 51.621 49.557C51.81 49.631 51.991 49.742 52.164 49.887C52.265 49.967 52.38 50.007 52.508 50.007C52.661 50.007 52.787 49.957 52.886 49.856C52.985 49.755 53.035 49.627 53.035 49.475C53.035 49.317 52.974 49.184 52.852 49.076C52.331 48.616 51.715 48.387 51.001 48.387C50.217 48.387 49.547 48.663 48.993 49.219C48.438 49.775 48.161 50.445 48.161 51.228C48.161 52.011 48.438 52.681 48.993 53.236C49.547 53.791 50.217 54.068 51.001 54.068C51.711 54.068 52.328 53.839 52.852 53.379C52.964 53.268 53.019 53.137 53.019 52.988C53.019 52.836 52.969 52.711 52.87 52.609C52.771 52.509 52.645 52.459 52.494 52.459ZM62.22 50.647C62.22 50.339 62.16 50.047 62.04 49.772C61.919 49.498 61.757 49.256 61.553 49.052C61.348 48.848 61.108 48.686 60.833 48.567C60.558 48.446 60.266 48.385 59.959 48.385C59.275 48.385 58.699 48.655 58.229 49.192C58.005 48.921 57.746 48.718 57.448 48.587C57.15 48.453 56.832 48.387 56.494 48.387C56.034 48.387 55.624 48.507 55.262 48.747C55.228 48.64 55.166 48.551 55.074 48.485C54.983 48.42 54.878 48.385 54.76 48.385C54.614 48.385 54.49 48.438 54.387 48.539C54.284 48.643 54.233 48.768 54.233 48.912V53.532C54.233 53.679 54.284 53.806 54.387 53.91C54.491 54.014 54.616 54.064 54.765 54.064C54.911 54.064 55.035 54.011 55.137 53.91C55.241 53.806 55.293 53.681 55.293 53.532V50.646C55.293 50.48 55.324 50.326 55.387 50.179C55.449 50.033 55.536 49.907 55.645 49.795C55.755 49.687 55.882 49.601 56.028 49.536C56.174 49.473 56.329 49.442 56.495 49.442C56.66 49.442 56.815 49.473 56.961 49.539C57.106 49.602 57.233 49.688 57.342 49.798C57.45 49.906 57.536 50.032 57.601 50.179C57.664 50.325 57.697 50.48 57.697 50.646V53.532C57.697 53.679 57.749 53.806 57.852 53.91C57.955 54.014 58.081 54.064 58.229 54.064C58.375 54.064 58.499 54.011 58.602 53.91C58.706 53.806 58.757 53.681 58.757 53.532V50.646C58.757 50.48 58.788 50.326 58.85 50.179C58.913 50.033 58.999 49.908 59.108 49.798C59.218 49.691 59.345 49.605 59.491 49.539C59.637 49.476 59.792 49.442 59.959 49.442C60.126 49.442 60.286 49.473 60.433 49.539C60.58 49.602 60.708 49.69 60.816 49.8C60.923 49.91 61.009 50.037 61.072 50.183C61.134 50.329 61.165 50.482 61.165 50.646V53.532C61.165 53.679 61.217 53.806 61.317 53.91C61.419 54.014 61.544 54.064 61.693 54.064C61.839 54.064 61.963 54.011 62.066 53.91C62.17 53.806 62.221 53.681 62.221 53.532L62.22 50.647ZM66.396 54.065C66.785 54.065 67.147 53.998 67.479 53.86C67.812 53.723 68.12 53.514 68.404 53.235C68.959 52.686 69.236 52.016 69.236 51.225C69.236 50.833 69.166 50.468 69.028 50.132C68.889 49.796 68.681 49.49 68.403 49.216C67.842 48.662 67.172 48.384 66.394 48.384C65.611 48.384 64.941 48.662 64.387 49.216C63.831 49.772 63.555 50.442 63.555 51.225V55.973C63.555 56.124 63.605 56.25 63.704 56.35C63.805 56.451 63.932 56.501 64.083 56.501C64.232 56.501 64.358 56.451 64.461 56.353C64.564 56.252 64.615 56.126 64.615 55.974V53.445C65.124 53.858 65.717 54.065 66.396 54.065ZM64.616 51.228C64.616 50.984 64.662 50.754 64.755 50.539C64.849 50.322 64.974 50.135 65.133 49.975C65.292 49.813 65.48 49.686 65.696 49.591C65.912 49.496 66.145 49.449 66.395 49.449C66.643 49.449 66.874 49.496 67.091 49.591C67.307 49.686 67.495 49.815 67.656 49.977C67.817 50.139 67.943 50.328 68.035 50.542C68.129 50.756 68.176 50.984 68.176 51.229C68.176 51.474 68.129 51.703 68.035 51.917C67.942 52.132 67.816 52.318 67.656 52.482C67.494 52.644 67.307 52.771 67.091 52.867C66.874 52.963 66.643 53.01 66.395 53.01C66.145 53.01 65.912 52.963 65.696 52.867C65.479 52.771 65.291 52.644 65.133 52.484C64.974 52.324 64.849 52.134 64.755 51.92C64.662 51.7 64.616 51.47 64.616 51.228ZM74.861 53.539C74.861 53.685 74.914 53.81 75.017 53.912C75.12 54.014 75.245 54.065 75.393 54.065C75.539 54.065 75.663 54.014 75.767 53.912C75.87 53.809 75.922 53.684 75.922 53.539V51.226C75.922 50.443 75.645 49.773 75.09 49.218C74.528 48.662 73.859 48.386 73.081 48.386C72.296 48.386 71.627 48.662 71.072 49.218C70.518 49.773 70.24 50.443 70.24 51.226C70.24 52.01 70.518 52.681 71.072 53.236C71.627 53.79 72.296 54.066 73.081 54.066C73.419 54.066 73.737 54.012 74.035 53.906C74.332 53.797 74.607 53.64 74.86 53.437L74.861 53.539ZM73.082 49.446C73.33 49.446 73.561 49.494 73.777 49.588C73.992 49.685 74.182 49.812 74.342 49.974C74.502 50.137 74.63 50.327 74.722 50.539C74.815 50.754 74.86 50.981 74.86 51.227C74.86 51.469 74.815 51.7 74.722 51.914C74.629 52.13 74.501 52.317 74.342 52.479C74.181 52.641 73.992 52.77 73.777 52.864C73.56 52.961 73.329 53.009 73.082 53.009C72.831 53.009 72.599 52.961 72.382 52.864C72.167 52.77 71.979 52.643 71.819 52.483C71.66 52.321 71.535 52.132 71.442 51.918C71.349 51.7 71.303 51.472 71.303 51.228C71.303 50.984 71.349 50.755 71.442 50.54C71.535 50.322 71.661 50.135 71.819 49.975C71.979 49.815 72.167 49.688 72.382 49.591C72.599 49.494 72.831 49.446 73.082 49.446ZM77.029 53.209C76.958 53.298 76.924 53.408 76.924 53.539C76.924 53.61 76.937 53.679 76.964 53.742C76.99 53.805 77.028 53.862 77.075 53.912C77.122 53.961 77.179 53.999 77.242 54.026C77.306 54.052 77.376 54.067 77.45 54.067C77.599 54.067 77.723 54.011 77.826 53.903L79.378 52.048L80.919 53.903C81.027 54.011 81.153 54.067 81.299 54.067C81.374 54.067 81.444 54.052 81.507 54.026C81.571 53.999 81.627 53.961 81.675 53.912C81.722 53.862 81.76 53.808 81.79 53.742C81.818 53.679 81.832 53.61 81.832 53.539C81.832 53.403 81.795 53.294 81.721 53.209L80.063 51.222L81.707 49.265C81.791 49.161 81.833 49.043 81.833 48.914C81.833 48.844 81.819 48.774 81.791 48.711C81.761 48.648 81.723 48.59 81.676 48.541C81.628 48.492 81.572 48.454 81.508 48.428C81.445 48.402 81.375 48.387 81.3 48.387C81.142 48.387 81.012 48.445 80.91 48.56L79.379 50.392L77.847 48.56C77.743 48.445 77.611 48.387 77.451 48.387C77.377 48.387 77.307 48.402 77.243 48.428C77.18 48.454 77.123 48.492 77.076 48.541C77.029 48.59 76.991 48.645 76.965 48.711C76.938 48.774 76.925 48.844 76.925 48.914C76.925 49.058 76.965 49.173 77.046 49.265L78.69 51.222L77.029 53.209ZM88.288 51.228C88.285 50.834 88.215 50.472 88.078 50.137C87.94 49.802 87.732 49.495 87.457 49.219C86.894 48.663 86.226 48.387 85.448 48.387C84.663 48.387 83.994 48.663 83.439 49.219C82.885 49.775 82.607 50.445 82.607 51.228C82.607 52.011 82.885 52.681 83.439 53.236C83.994 53.791 84.663 54.068 85.448 54.068C86.225 54.068 86.894 53.791 87.457 53.236C88.011 52.687 88.288 52.019 88.288 51.228ZM85.448 49.446C85.695 49.446 85.927 49.494 86.143 49.588C86.358 49.685 86.547 49.812 86.708 49.974C86.867 50.137 86.995 50.327 87.088 50.539C87.181 50.754 87.227 50.981 87.227 51.227C87.227 51.469 87.181 51.7 87.088 51.914C86.995 52.13 86.867 52.317 86.708 52.479C86.547 52.641 86.357 52.77 86.143 52.864C85.926 52.961 85.695 53.009 85.448 53.009C85.197 53.009 84.964 52.961 84.747 52.864C84.532 52.77 84.345 52.643 84.184 52.483C84.026 52.321 83.9 52.132 83.807 51.918C83.714 51.7 83.667 51.472 83.667 51.228C83.667 50.984 83.714 50.755 83.807 50.54C83.9 50.324 84.026 50.135 84.184 49.975C84.344 49.815 84.532 49.688 84.747 49.591C84.964 49.494 85.197 49.446 85.448 49.446ZM100.381 51.228C100.378 50.834 100.308 50.472 100.171 50.137C100.033 49.802 99.825 49.495 99.55 49.219C98.987 48.663 98.319 48.387 97.541 48.387C96.756 48.387 96.087 48.663 95.532 49.219C94.978 49.775 94.7 50.445 94.7 51.228C94.7 52.011 94.978 52.681 95.532 53.236C96.087 53.791 96.756 54.068 97.541 54.068C98.318 54.068 98.987 53.791 99.55 53.236C100.104 52.687 100.381 52.019 100.381 51.228ZM97.541 49.446C97.788 49.446 98.02 49.494 98.236 49.588C98.451 49.685 98.64 49.812 98.801 49.974C98.96 50.137 99.088 50.327 99.181 50.539C99.274 50.754 99.32 50.981 99.32 51.227C99.32 51.469 99.274 51.7 99.181 51.914C99.088 52.13 98.96 52.317 98.801 52.479C98.64 52.641 98.45 52.77 98.236 52.864C98.019 52.961 97.788 53.009 97.541 53.009C97.29 53.009 97.057 52.961 96.84 52.864C96.625 52.77 96.438 52.643 96.277 52.483C96.119 52.321 95.993 52.132 95.9 51.918C95.807 51.7 95.76 51.472 95.76 51.228C95.76 50.984 95.807 50.755 95.9 50.54C95.993 50.324 96.119 50.135 96.277 49.975C96.437 49.815 96.625 49.688 96.84 49.591C97.057 49.494 97.29 49.446 97.541 49.446ZM89.98 48.387C89.906 48.387 89.835 48.402 89.773 48.428C89.709 48.454 89.653 48.492 89.605 48.542C89.557 48.591 89.52 48.647 89.493 48.711C89.467 48.774 89.452 48.844 89.452 48.914V53.539C89.452 53.61 89.467 53.678 89.493 53.742C89.52 53.805 89.557 53.862 89.605 53.912C89.653 53.961 89.709 53.999 89.773 54.026C89.836 54.052 89.906 54.065 89.98 54.065H92.293C92.525 54.065 92.745 54.022 92.949 53.932C93.153 53.841 93.332 53.721 93.484 53.569C93.635 53.417 93.755 53.239 93.843 53.034C93.932 52.83 93.976 52.612 93.976 52.383C93.976 52.237 93.961 52.105 93.932 51.986C93.904 51.866 93.861 51.753 93.806 51.644C93.75 51.536 93.679 51.431 93.594 51.33C93.51 51.228 93.411 51.128 93.301 51.025C93.493 50.753 93.589 50.433 93.589 50.07C93.589 49.841 93.545 49.625 93.455 49.42C93.366 49.216 93.245 49.037 93.093 48.886C92.94 48.735 92.762 48.614 92.558 48.524C92.354 48.434 92.135 48.389 91.906 48.389L89.98 48.387ZM90.509 50.699V49.446H91.907C91.992 49.446 92.072 49.463 92.148 49.498C92.224 49.53 92.291 49.576 92.346 49.632C92.401 49.689 92.447 49.754 92.48 49.83C92.514 49.905 92.532 49.985 92.532 50.069C92.532 50.161 92.514 50.246 92.48 50.321C92.447 50.397 92.4 50.463 92.342 50.518C92.285 50.575 92.218 50.619 92.143 50.651C92.067 50.682 91.989 50.699 91.907 50.699H90.509ZM90.509 53.007V51.754H92.294C92.374 51.754 92.453 51.771 92.529 51.802C92.605 51.834 92.671 51.878 92.728 51.935C92.786 51.992 92.832 52.058 92.866 52.135C92.9 52.213 92.917 52.295 92.917 52.383C92.917 52.472 92.9 52.552 92.866 52.626C92.832 52.7 92.787 52.767 92.731 52.824C92.676 52.882 92.609 52.927 92.534 52.959C92.458 52.991 92.378 53.007 92.294 53.007H90.509ZM140.779 54.065C140.926 54.065 141.052 54.014 141.156 53.912C141.26 53.81 141.31 53.684 141.31 53.539V48.914C141.31 48.768 141.258 48.643 141.156 48.541C141.052 48.438 140.929 48.386 140.784 48.386C140.637 48.386 140.51 48.439 140.406 48.541C140.302 48.645 140.252 48.769 140.252 48.914V51.419C140.252 51.64 140.21 51.845 140.127 52.035C140.045 52.225 139.93 52.393 139.785 52.54C139.639 52.686 139.471 52.799 139.277 52.883C139.085 52.965 138.88 53.008 138.664 53.008C138.443 53.008 138.238 52.965 138.046 52.883C137.854 52.799 137.686 52.687 137.541 52.543C137.396 52.399 137.284 52.23 137.201 52.038C137.118 51.845 137.077 51.64 137.077 51.419V48.914C137.077 48.768 137.025 48.643 136.922 48.541C136.819 48.439 136.693 48.386 136.549 48.386C136.401 48.386 136.276 48.439 136.172 48.541C136.068 48.645 136.018 48.769 136.018 48.914V51.419C136.018 51.78 136.087 52.123 136.229 52.442C136.369 52.764 136.559 53.046 136.798 53.286C137.037 53.524 137.319 53.716 137.639 53.856C137.96 53.996 138.303 54.065 138.664 54.065C138.969 54.065 139.25 54.024 139.512 53.942C139.772 53.858 140.02 53.725 140.252 53.545C140.255 53.691 140.307 53.814 140.404 53.914C140.501 54.017 140.627 54.065 140.779 54.065ZM106.376 54.065C106.524 54.065 106.65 54.014 106.753 53.912C106.857 53.808 106.909 53.684 106.909 53.539V48.914C106.909 48.768 106.857 48.643 106.753 48.542C106.65 48.438 106.526 48.387 106.381 48.387C106.233 48.387 106.107 48.439 106.003 48.542C105.9 48.646 105.849 48.769 105.849 48.914V51.419C105.849 51.64 105.808 51.845 105.724 52.035C105.642 52.225 105.528 52.393 105.382 52.54C105.236 52.687 105.068 52.8 104.874 52.883C104.682 52.965 104.478 53.007 104.261 53.007C104.04 53.007 103.835 52.965 103.643 52.883C103.45 52.8 103.282 52.687 103.138 52.543C102.993 52.399 102.88 52.23 102.798 52.038C102.715 51.847 102.673 51.64 102.673 51.419V48.914C102.673 48.768 102.622 48.643 102.519 48.542C102.416 48.438 102.291 48.387 102.147 48.387C101.998 48.387 101.872 48.439 101.769 48.542C101.665 48.646 101.614 48.769 101.614 48.914V51.419C101.614 51.78 101.684 52.123 101.825 52.444C101.965 52.764 102.155 53.046 102.395 53.285C102.635 53.524 102.916 53.716 103.236 53.856C103.558 53.997 103.9 54.065 104.261 54.065C104.566 54.065 104.847 54.024 105.109 53.942C105.369 53.858 105.616 53.727 105.849 53.545C105.852 53.691 105.903 53.814 106.001 53.914C106.098 54.017 106.224 54.065 106.376 54.065ZM104.261 47.783C104.494 47.783 104.713 47.75 104.918 47.684C105.122 47.618 105.301 47.526 105.453 47.41C105.605 47.294 105.725 47.155 105.815 46.996C105.905 46.839 105.949 46.667 105.949 46.485C105.949 46.337 105.9 46.211 105.8 46.106C105.7 46.003 105.574 45.952 105.423 45.952C105.271 45.952 105.144 46.003 105.042 46.102C104.967 46.182 104.92 46.272 104.899 46.376C104.892 46.473 104.831 46.55 104.712 46.614C104.587 46.685 104.436 46.72 104.26 46.72C104.084 46.72 103.934 46.685 103.809 46.614C103.691 46.55 103.625 46.47 103.617 46.376C103.599 46.272 103.554 46.182 103.48 46.102C103.377 46.001 103.251 45.952 103.099 45.952C102.947 45.952 102.82 46.005 102.721 46.106C102.621 46.21 102.572 46.335 102.572 46.485C102.572 46.667 102.617 46.839 102.707 46.996C102.796 47.155 102.917 47.294 103.069 47.41C103.221 47.526 103.4 47.618 103.604 47.684C103.809 47.75 104.027 47.783 104.261 47.783ZM115.281 52.459C115.152 52.463 115.041 52.5 114.946 52.569C114.777 52.715 114.598 52.826 114.408 52.897C114.22 52.969 114.013 53.006 113.79 53.006C113.543 53.006 113.311 52.958 113.095 52.865C112.879 52.771 112.69 52.646 112.528 52.484C112.366 52.324 112.238 52.134 112.144 51.92C112.051 51.702 112.005 51.473 112.005 51.225C112.005 50.979 112.051 50.746 112.144 50.532C112.238 50.315 112.366 50.127 112.528 49.967C112.69 49.806 112.88 49.681 113.095 49.585C113.312 49.493 113.543 49.446 113.79 49.446C114.014 49.446 114.22 49.483 114.408 49.557C114.598 49.631 114.779 49.742 114.951 49.887C115.053 49.967 115.168 50.007 115.296 50.007C115.448 50.007 115.574 49.957 115.675 49.856C115.774 49.755 115.824 49.627 115.824 49.475C115.824 49.317 115.762 49.184 115.641 49.076C115.12 48.616 114.503 48.387 113.789 48.387C113.004 48.387 112.335 48.663 111.78 49.219C111.226 49.775 110.948 50.445 110.948 51.228C110.948 52.011 111.226 52.681 111.78 53.236C112.335 53.791 113.004 54.068 113.789 54.068C114.498 54.068 115.116 53.839 115.641 53.379C115.751 53.268 115.807 53.137 115.807 52.988C115.807 52.836 115.758 52.711 115.658 52.609C115.559 52.509 115.434 52.459 115.281 52.459ZM121.039 52.47C120.907 52.474 120.791 52.517 120.687 52.601C120.529 52.738 120.357 52.838 120.17 52.906C119.983 52.974 119.779 53.01 119.555 53.01C119.361 53.01 119.171 52.979 118.99 52.918C118.81 52.857 118.645 52.772 118.494 52.661C118.344 52.551 118.213 52.42 118.101 52.265C117.989 52.11 117.905 51.941 117.847 51.754H121.864C122.012 51.754 122.139 51.704 122.241 51.605C122.345 51.505 122.397 51.378 122.397 51.228C122.397 50.834 122.327 50.472 122.188 50.134C122.049 49.797 121.841 49.491 121.565 49.219C121.002 48.663 120.334 48.388 119.555 48.388C118.772 48.388 118.102 48.663 117.548 49.219C116.993 49.775 116.716 50.445 116.716 51.228C116.716 52.011 116.993 52.681 117.548 53.236C118.102 53.791 118.772 54.068 119.555 54.068C120.268 54.068 120.888 53.839 121.412 53.379C121.515 53.275 121.563 53.149 121.563 52.999C121.563 52.846 121.514 52.72 121.415 52.621C121.316 52.521 121.191 52.47 121.039 52.47ZM117.849 50.699C117.904 50.511 117.986 50.344 118.097 50.188C118.209 50.035 118.341 49.903 118.493 49.792C118.644 49.684 118.811 49.598 118.994 49.536C119.178 49.474 119.365 49.443 119.557 49.443C119.751 49.443 119.938 49.474 120.119 49.536C120.3 49.598 120.466 49.682 120.616 49.792C120.765 49.902 120.896 50.033 121.012 50.188C121.125 50.342 121.21 50.512 121.27 50.699H117.849ZM126.27 54.065C126.661 54.065 127.022 53.998 127.354 53.86C127.688 53.723 127.997 53.514 128.28 53.235C128.835 52.686 129.112 52.016 129.112 51.225C129.112 50.833 129.043 50.468 128.903 50.132C128.766 49.796 128.557 49.49 128.28 49.216C127.718 48.662 127.05 48.384 126.27 48.384C125.487 48.384 124.817 48.662 124.264 49.216C123.707 49.772 123.432 50.442 123.432 51.225V55.973C123.432 56.124 123.483 56.25 123.58 56.35C123.68 56.451 123.807 56.499 123.958 56.499C124.107 56.499 124.232 56.449 124.335 56.35C124.439 56.25 124.491 56.124 124.491 55.973V53.442C124.998 53.858 125.591 54.065 126.27 54.065ZM124.491 51.228C124.491 50.984 124.536 50.754 124.63 50.539C124.723 50.322 124.85 50.135 125.008 49.975C125.166 49.813 125.356 49.686 125.571 49.591C125.788 49.496 126.02 49.449 126.27 49.449C126.518 49.449 126.749 49.496 126.965 49.591C127.181 49.686 127.369 49.815 127.529 49.977C127.689 50.139 127.816 50.328 127.91 50.542C128.004 50.756 128.05 50.984 128.05 51.229C128.05 51.474 128.004 51.703 127.91 51.917C127.816 52.131 127.689 52.318 127.529 52.482C127.369 52.644 127.179 52.771 126.965 52.867C126.748 52.963 126.518 53.01 126.27 53.01C126.02 53.01 125.788 52.963 125.571 52.867C125.354 52.771 125.167 52.644 125.008 52.484C124.849 52.324 124.723 52.134 124.63 51.92C124.536 51.7 124.491 51.47 124.491 51.228ZM130.805 48.387C130.731 48.387 130.659 48.402 130.596 48.428C130.533 48.454 130.477 48.492 130.428 48.542C130.381 48.591 130.344 48.647 130.317 48.711C130.292 48.774 130.276 48.844 130.276 48.914V53.539C130.276 53.61 130.292 53.678 130.317 53.742C130.344 53.805 130.381 53.862 130.428 53.912C130.477 53.961 130.532 53.999 130.596 54.026C130.659 54.052 130.731 54.065 130.805 54.065H133.118C133.35 54.065 133.569 54.022 133.774 53.932C133.979 53.841 134.157 53.721 134.309 53.569C134.46 53.417 134.58 53.239 134.668 53.034C134.756 52.83 134.8 52.612 134.8 52.383C134.8 52.237 134.785 52.105 134.757 51.986C134.729 51.866 134.686 51.753 134.629 51.644C134.574 51.536 134.503 51.431 134.418 51.33C134.334 51.228 134.236 51.128 134.125 51.025C134.316 50.753 134.413 50.433 134.413 50.07C134.413 49.841 134.369 49.625 134.279 49.42C134.189 49.216 134.068 49.037 133.917 48.886C133.764 48.735 133.586 48.614 133.383 48.524C133.178 48.434 132.96 48.389 132.731 48.389L130.805 48.387ZM131.331 50.699V49.446H132.73C132.814 49.446 132.894 49.463 132.97 49.498C133.045 49.53 133.113 49.576 133.167 49.632C133.222 49.689 133.269 49.754 133.302 49.83C133.335 49.905 133.353 49.985 133.353 50.069C133.353 50.161 133.335 50.246 133.302 50.321C133.269 50.397 133.222 50.463 133.164 50.518C133.106 50.575 133.039 50.619 132.965 50.651C132.89 50.682 132.81 50.699 132.73 50.699H131.331ZM131.331 53.007V51.754H133.116C133.195 51.754 133.275 51.771 133.351 51.802C133.426 51.834 133.493 51.878 133.55 51.935C133.607 51.992 133.654 52.058 133.689 52.135C133.722 52.213 133.738 52.295 133.738 52.383C133.738 52.472 133.722 52.552 133.689 52.626C133.654 52.7 133.609 52.767 133.552 52.824C133.497 52.882 133.431 52.927 133.355 52.959C133.279 52.991 133.201 53.007 133.116 53.007H131.331ZM146.781 52.459C146.652 52.463 146.541 52.5 146.445 52.569C146.277 52.715 146.097 52.826 145.908 52.897C145.72 52.969 145.513 53.006 145.29 53.006C145.042 53.006 144.811 52.958 144.596 52.865C144.379 52.771 144.19 52.646 144.028 52.484C143.867 52.324 143.739 52.134 143.645 51.92C143.551 51.702 143.505 51.473 143.505 51.225C143.505 50.979 143.551 50.746 143.645 50.532C143.739 50.315 143.867 50.127 144.028 49.967C144.19 49.806 144.381 49.681 144.596 49.585C144.813 49.493 145.042 49.446 145.29 49.446C145.514 49.446 145.721 49.483 145.908 49.557C146.097 49.631 146.277 49.742 146.451 49.887C146.553 49.967 146.668 50.007 146.796 50.007C146.947 50.007 147.074 49.957 147.174 49.856C147.274 49.755 147.323 49.627 147.323 49.475C147.323 49.317 147.261 49.184 147.14 49.076C146.619 48.616 146.001 48.387 145.288 48.387C144.503 48.387 143.834 48.663 143.278 49.219C142.725 49.775 142.447 50.445 142.447 51.228C142.447 52.011 142.725 52.681 143.278 53.236C143.834 53.791 144.503 54.068 145.288 54.068C145.997 54.068 146.615 53.839 147.14 53.379C147.25 53.268 147.306 53.137 147.306 52.988C147.306 52.836 147.257 52.711 147.158 52.609C147.059 52.509 146.934 52.459 146.781 52.459ZM100.653 31.271C99.977 29.651 98.382 28.51 96.519 28.502C96.512 28.502 96.506 28.5 96.499 28.5H90.481C89.661 28.489 89 27.822 89 27C89 26.179 89.662 25.513 90.481 25.502H98.498C98.505 25.502 98.511 25.5 98.518 25.5C99.338 25.489 99.999 24.822 99.999 24C99.999 23.172 99.327 22.5 98.498 22.5H90.51C90.507 22.5 90.504 22.499 90.5 22.499C90.496 22.499 90.494 22.5 90.49 22.5C88.528 22.504 86.879 23.771 86.267 25.525C86.105 25.989 86 26.48 86 26.999C86 27.693 86.17 28.344 86.451 28.931C87.176 30.446 88.709 31.499 90.5 31.499C88.709 31.499 96.519 31.5 96.519 31.5C97.338 31.511 98 32.178 98 32.997C98 33.825 97.328 34.5 96.499 34.5H87.502C86.673 34.5 86.001 35.172 86.001 36C86.001 36.829 86.673 37.502 87.502 37.502L96.5 37.5C98.418 37.5 100.044 36.295 100.692 34.604C100.883 34.104 101 33.567 101 33C101 32.387 100.875 31.804 100.653 31.271ZM136 36C136 35.172 135.328 34.5 134.5 34.5C133.671 34.5 133 35.172 133 36C133 36.828 133.671 37.5 134.5 37.5C135.328 37.5 136 36.828 136 36ZM151.499 22.502C150.67 22.502 149.998 23.174 149.998 24.003V24.013V29.987V30.001C149.998 30.005 149.997 30.008 149.997 30.012C149.994 31.164 149.545 32.205 148.828 33C148.004 33.914 146.825 34.5 145.5 34.5C144.175 34.5 142.996 33.914 142.172 33C141.455 32.205 141.006 31.164 141.003 30.012C141.003 30.008 141.002 30.005 141.002 30.001V29.986V24.012V24.002C141.002 23.173 140.329 22.501 139.501 22.501C138.672 22.501 138 23.173 138 24.002V30.001C138 31.035 138.21 32.021 138.59 32.918C138.602 32.946 138.618 32.973 138.63 33.001C138.76 33.299 138.91 33.586 139.077 33.86C139.577 34.686 140.232 35.409 141.002 35.987C141.002 35.989 141.002 35.989 141.002 35.989C142.257 36.935 143.813 37.501 145.5 37.501C147.188 37.501 148.743 36.935 149.997 35.989V35.987C151.023 35.216 151.848 34.19 152.369 33.001C152.381 32.973 152.396 32.946 152.409 32.918C152.789 32.021 152.999 31.035 152.999 30.001V24.003C153 23.174 152.328 22.502 151.499 22.502ZM119 30.001C119 34.137 115.636 37.502 111.5 37.502C111.487 37.502 111.475 37.498 111.462 37.498C109.788 37.49 108.248 36.926 107.002 35.987C105.184 34.618 104 32.448 104 30.001V30C104 25.864 107.364 22.499 111.5 22.499C111.513 22.499 111.525 22.503 111.538 22.503C113.212 22.511 114.752 23.075 115.998 24.013C117.816 25.383 119 27.554 119 30.001ZM111.5 34.5C113.982 34.5 116 32.48 116 30V29.986C115.992 27.512 113.977 25.5 111.5 25.5C109.018 25.5 107 27.521 107 30.001V30.015C107.008 32.488 109.023 34.5 111.5 34.5ZM129.5 34.501C127.02 34.501 125.001 32.482 125.001 30.002C125.001 29.997 125.002 29.992 125.002 29.987V18.003C125.002 17.174 124.329 16.502 123.501 16.502C122.672 16.502 122 17.174 122 18.003V30.001C122 30.002 122 30.002 122 30.002C122 34.138 125.363 37.503 129.5 37.503C129.514 37.503 129.525 37.499 129.538 37.499C130.35 37.478 131.001 36.817 131.001 36.001C131.001 35.174 130.329 34.501 129.5 34.501ZM52.499 37.498C53.328 37.498 54 36.826 54 35.997V29.999C54 25.863 50.636 22.499 46.5 22.499C42.364 22.499 39 25.863 39 29.999C39 34.135 42.364 37.5 46.5 37.5C47.329 37.5 48.001 36.828 48.001 35.998C48.001 35.171 47.329 34.498 46.5 34.498C44.02 34.498 42.001 32.479 42.001 29.999C42.001 27.519 44.02 25.5 46.5 25.5C48.981 25.5 50.998 27.519 50.998 29.999V35.997C50.998 36.826 51.67 37.498 52.499 37.498ZM81.499 37.498C82.328 37.498 83 36.826 83 35.997V29.999C83 25.863 79.636 22.499 75.5 22.499C71.364 22.499 68 25.863 68 29.999C68 34.135 71.364 37.5 75.5 37.5C76.329 37.5 77.001 36.828 77.001 35.998C77.001 35.171 76.329 34.498 75.5 34.498C73.02 34.498 71.001 32.479 71.001 29.999C71.001 27.519 73.02 25.5 75.5 25.5C77.981 25.5 79.998 27.519 79.998 29.999V35.997C79.998 36.826 80.67 37.498 81.499 37.498ZM169.499 37.498C170.328 37.498 171 36.826 171 35.997V29.999C171 25.863 167.637 22.499 163.5 22.499C159.363 22.499 156 25.863 156 29.999C156 34.135 159.363 37.5 163.5 37.5C164.329 37.5 165.001 36.828 165.001 35.998C165.001 35.171 164.329 34.498 163.5 34.498C161.02 34.498 159.001 32.479 159.001 29.999C159.001 27.519 161.02 25.5 163.5 25.5C165.98 25.5 167.998 27.519 167.998 29.999V35.997C167.998 36.826 168.67 37.498 169.499 37.498ZM64.5 22.499C63.547 22.499 62.64 22.685 61.801 23.01C61.729 23.037 61.654 23.06 61.583 23.09C61.526 23.113 61.473 23.145 61.416 23.17C58.816 24.349 57 26.963 57 29.999V30V35.997C57 36.826 57.672 37.498 58.501 37.498C59.33 37.498 60.002 36.826 60.002 35.997V29.999C60.002 28.759 60.506 27.635 61.32 26.82C62.135 26.006 63.26 25.501 64.5 25.501C64.502 25.501 64.503 25.5 64.505 25.5C65.332 25.497 66.001 24.826 66.001 24.001C66.001 23.171 65.329 22.499 64.5 22.499ZM22.501 43.5C23.33 43.5 24.002 42.828 24.002 41.999V30.001C24.002 27.521 26.019 25.502 28.5 25.502C30.98 25.502 32.999 27.521 32.999 30.001C32.999 32.481 30.98 34.5 28.5 34.5C27.671 34.5 26.999 35.173 26.999 36C26.999 36.83 27.671 37.502 28.5 37.502C32.636 37.502 36 34.137 36 30.001C36 25.865 32.636 22.501 28.5 22.501C24.363 22.501 21 25.865 21 30.001V41.999C21 42.828 21.672 43.5 22.501 43.5Z" fill="white"/>
<path d="M228 28.064V45.501C228 49.912 224.411 53.501 220 53.501H152.469C151.917 53.501 151.469 53.054 151.469 52.501C151.469 51.948 151.917 51.501 152.469 51.501H220C223.309 51.501 226 48.81 226 45.501V28.064C226 27.511 226.448 27.064 227 27.064C227.552 27.064 228 27.511 228 28.064ZM43.641 51.5H13C9.691 51.5 7 48.81 7 45.5V13.5C7 10.191 9.691 7.5 13 7.5H186.547C187.1 7.5 187.547 7.053 187.547 6.5C187.547 5.947 187.1 5.5 186.547 5.5H13C8.589 5.5 5 9.089 5 13.5V45.5C5 49.911 8.589 53.5 13 53.5H43.641C44.193 53.5 44.641 53.053 44.641 52.5C44.641 51.946 44.193 51.5 43.641 51.5Z" fill="#A3CC39"/>
<defs>
<linearGradient id="paint0_linear" x1="117" y1="0" x2="117" y2="59" gradientUnits="userSpaceOnUse">
<stop stop-color="#1A5E9C"/>
<stop offset="1" stop-color="#599EDB"/>
</linearGradient>
</defs>
</svg>
