<svg width="51" height="16" viewBox="0 0 51 16" fill="none" xmlns="http://www.w3.org/2000/svg">
<path d="M47.3303 0.222656H44.1403C43.1759 0.222656 42.4341 0.519398 41.989 1.48381L35.9058 15.3565H40.2085C40.2085 15.3565 40.9504 13.5019 41.0987 13.0567C41.5439 13.0567 45.7724 13.0567 46.3659 13.0567C46.5143 13.576 46.8852 15.2823 46.8852 15.2823H50.7429L47.3303 0.222656ZM42.2857 9.94095C42.6566 9.05073 43.9178 5.71238 43.9178 5.71238C43.9178 5.78657 44.2887 4.82215 44.4371 4.30286L44.7338 5.63819C44.7338 5.63819 45.5499 9.27328 45.6982 10.0151H42.2857V9.94095Z" fill="#3362AB"/>
<path d="M36.2025 10.386C36.2025 13.5018 33.3834 15.5789 29.0065 15.5789C27.1518 15.5789 25.3714 15.208 24.407 14.7629L25.0005 11.3504L25.5198 11.5729C26.8551 12.1664 27.7453 12.389 29.3774 12.389C30.5644 12.389 31.8255 11.9439 31.8255 10.9053C31.8255 10.2376 31.3062 9.79248 29.6741 9.05063C28.1163 8.30877 26.0391 7.1218 26.0391 4.97043C26.0391 2.00301 28.9323 0 33.0125 0C34.5704 0 35.9057 0.296742 36.7218 0.667669L36.1283 3.93183L35.8315 3.63509C35.0897 3.33835 34.1253 3.0416 32.7158 3.0416C31.1579 3.11579 30.416 3.78346 30.416 4.37694C30.416 5.04461 31.3062 5.56391 32.7158 6.23158C35.0897 7.34436 36.2025 8.60551 36.2025 10.386Z" fill="#3362AB"/>
<path d="M0 0.370961L0.0741855 0.0742188H6.45414C7.34436 0.0742188 8.01203 0.370961 8.23459 1.33537L9.64411 8.01206C8.23459 4.45116 4.97043 1.55793 0 0.370961Z" fill="#F9B50B"/>
<path d="M18.6206 0.222623L12.1664 15.2823H7.78947L4.0802 2.67074C6.75088 4.37701 8.97644 7.04769 9.79248 8.90232L10.2376 10.4602L14.2436 0.148438H18.6206V0.222623Z" fill="#3362AB"/>
<path d="M20.3268 0.148438H24.407L21.8105 15.2823H17.7303L20.3268 0.148438Z" fill="#3362AB"/>
</svg>
