<svg width="25" height="25" viewBox="0 0 25 25" fill="none" xmlns="http://www.w3.org/2000/svg">
<path d="M12.931 16.5483V10.8155L13.7013 10.7327C14.91 10.6033 16.0986 10.3283 17.2414 9.91378V0H0V25H17.2414V24.3965C15.9294 23.5474 14.8487 22.3858 14.0964 21.016C13.3441 19.6462 12.9437 18.111 12.931 16.5483ZM15.9483 9.48275H10.3448V8.62068H15.9483V9.48275ZM15.9483 7.32758H10.3448V6.46551H15.9483V7.32758ZM3.87931 1.2931H13.3621V3.87931H3.87931V1.2931ZM5.04611 9.35645C4.96528 9.43726 4.85567 9.48266 4.74137 9.48266C4.62708 9.48266 4.51746 9.43726 4.43663 9.35645L3.14353 8.06335L3.75301 7.45387L4.74137 8.44223L7.8849 5.2987L8.49439 5.90818L5.04611 9.35645ZM8.49439 14.0978L5.04611 17.5461C4.96528 17.6269 4.85567 17.6723 4.74137 17.6723C4.62708 17.6723 4.51746 17.6269 4.43663 17.5461L3.14353 16.253L3.75301 15.6435L4.74137 16.6319L7.8849 13.4883L8.49439 14.0978ZM1.2931 5.60344C1.2931 5.48912 1.33851 5.37949 1.41935 5.29865C1.50018 5.21782 1.60982 5.17241 1.72414 5.17241H6.79223L5.93016 6.03448H2.15517V10.3448H6.46551V9.15602L7.32758 8.29396V10.7758C7.32758 10.8902 7.28217 10.9998 7.20133 11.0806C7.1205 11.1615 7.01086 11.2069 6.89654 11.2069H1.72414C1.60982 11.2069 1.50018 11.1615 1.41935 11.0806C1.33851 10.9998 1.2931 10.8902 1.2931 10.7758V5.60344ZM6.89654 19.3965H1.72414C1.60982 19.3965 1.50018 19.3511 1.41935 19.2703C1.33851 19.1894 1.2931 19.0798 1.2931 18.9655V13.7931C1.2931 13.6788 1.33851 13.5691 1.41935 13.4883C1.50018 13.4075 1.60982 13.3621 1.72414 13.3621H6.79223L5.93016 14.2241H2.15517V18.5345H6.46551V17.3457L7.32758 16.4836V18.9655C7.32758 19.0798 7.28217 19.1894 7.20133 19.2703C7.1205 19.3511 7.01086 19.3965 6.89654 19.3965ZM12.069 23.2758H9.05171V22.4138H12.069V23.2758ZM12.069 21.5517H7.32758V20.6896H12.069V21.5517ZM12.069 17.6724H9.48275V16.8103H12.069V17.6724ZM12.069 15.5172H9.48275V14.6552H12.069V15.5172Z" fill="#9E9E9E"/>
<path d="M19.3964 9.91373C17.6483 10.8139 15.7483 11.3818 13.793 11.5887V16.5482C13.8214 18.2913 14.37 19.9861 15.3684 21.4152C16.3668 22.8443 17.7695 23.9425 19.3964 24.5689C21.0233 23.9425 22.426 22.8443 23.4244 21.4152C24.4228 19.9861 24.9714 18.2913 24.9999 16.5482V11.5887C23.0445 11.3819 21.1445 10.8139 19.3964 9.91373ZM18.408 19.7012C18.3272 19.782 18.2176 19.8274 18.1033 19.8274C17.989 19.8274 17.8794 19.782 17.7986 19.7012L15.6434 17.546L16.2529 16.9366L18.1033 18.787L22.5399 14.3504L23.1494 14.9598L18.408 19.7012Z" fill="#9E9E9E"/>
<path d="M12.4998 2.15521H4.74121V3.01728H12.4998V2.15521Z" fill="#9E9E9E"/>
</svg>
