<svg width="26" height="24" viewBox="0 0 26 24" fill="none" xmlns="http://www.w3.org/2000/svg">
<path d="M25.5618 9.03546H16.8753C16.8883 8.89348 16.8969 8.75149 16.8969 8.6052C16.9052 7.48876 16.4836 6.41136 15.7185 5.59338H19.0631C19.178 5.59338 19.2882 5.54805 19.3695 5.46736C19.4507 5.38667 19.4964 5.27723 19.4964 5.16312C19.4964 5.04901 19.4507 4.93957 19.3695 4.85888C19.2882 4.77819 19.178 4.73286 19.0631 4.73286H14.5336C14.1858 4.56814 13.8134 4.46061 13.431 4.41447V0.43026C13.431 0.316148 13.3853 0.20671 13.3041 0.12602C13.2228 0.0453309 13.1126 0 12.9977 0C12.8828 0 12.7726 0.0453309 12.6914 0.12602C12.6101 0.20671 12.5645 0.316148 12.5645 0.43026V4.41447C12.182 4.46061 11.8096 4.56814 11.4619 4.73286H6.93233C6.81743 4.73286 6.70723 4.77819 6.62598 4.85888C6.54473 4.93957 6.49909 5.04901 6.49909 5.16312C6.49909 5.27723 6.54473 5.38667 6.62598 5.46736C6.70723 5.54805 6.81743 5.59338 6.93233 5.59338H10.277C9.51182 6.41136 9.09027 7.48876 9.09855 8.6052C9.09855 8.75149 9.10721 8.89348 9.12021 9.03546H0.43368C0.326239 9.03535 0.222592 9.0749 0.142858 9.14641C0.0631238 9.21793 0.012992 9.31632 0.00219441 9.42248C-0.00860319 9.52864 0.0207038 9.635 0.0844261 9.72091C0.148148 9.80681 0.24174 9.86614 0.347031 9.88738L4.64914 10.778H4.6526C4.44736 11.0101 4.33377 11.3082 4.33287 11.617C4.33287 11.9594 4.4698 12.2877 4.71355 12.5297C4.9573 12.7718 5.28789 12.9078 5.6326 12.9078C5.97731 12.9078 6.3079 12.7718 6.55165 12.5297C6.79539 12.2877 6.93233 11.9594 6.93233 11.617C6.93055 11.4881 6.90907 11.3601 6.86864 11.2375H6.87168L10.7405 12.0378H10.7449C11.3855 12.5436 12.1793 12.8199 12.9977 12.8217C13.8184 12.8183 14.6143 12.5427 15.2593 12.0387L19.1238 11.2384H19.1268C19.0865 11.3607 19.065 11.4883 19.0631 11.617C19.0631 11.9594 19.2001 12.2877 19.4438 12.5297C19.6876 12.7718 20.0182 12.9078 20.3629 12.9078C20.7076 12.9078 21.0382 12.7718 21.2819 12.5297C21.5257 12.2877 21.6626 11.9594 21.6626 11.617C21.6615 11.3085 21.5479 11.0107 21.3429 10.7789H21.3463L25.6484 9.88824C25.7547 9.86797 25.8495 9.80893 25.9142 9.72274C25.9788 9.63654 26.0087 9.52944 25.9978 9.4225C25.9869 9.31555 25.9362 9.21653 25.8555 9.1449C25.7748 9.07327 25.67 9.03423 25.5618 9.03546ZM5.6326 12.0473C5.54691 12.0473 5.46315 12.022 5.3919 11.9748C5.32066 11.9275 5.26513 11.8603 5.23233 11.7817C5.19954 11.7031 5.19096 11.6165 5.20768 11.5331C5.2244 11.4496 5.26566 11.373 5.32625 11.3128C5.38684 11.2526 5.46404 11.2116 5.54808 11.195C5.63212 11.1784 5.71923 11.1869 5.79839 11.2195C5.87756 11.2521 5.94522 11.3072 5.99283 11.378C6.04043 11.4487 6.06584 11.5319 6.06584 11.617C6.06584 11.7311 6.0202 11.8406 5.93895 11.9213C5.8577 12.002 5.7475 12.0473 5.6326 12.0473ZM14.7307 8.6052H11.2648C11.1499 8.6052 11.0397 8.55987 10.9584 8.47918C10.8772 8.39849 10.8315 8.28905 10.8315 8.17494C10.8315 7.60438 11.0597 7.05719 11.466 6.65374C11.8722 6.2503 12.4232 6.02364 12.9977 6.02364C13.5723 6.02364 14.1232 6.2503 14.5295 6.65374C14.9357 7.05719 15.164 7.60438 15.164 8.17494C15.164 8.28905 15.1183 8.39849 15.0371 8.47918C14.9558 8.55987 14.8456 8.6052 14.7307 8.6052ZM20.3629 12.0473C20.2772 12.0473 20.1934 12.022 20.1222 11.9748C20.0509 11.9275 19.9954 11.8603 19.9626 11.7817C19.9298 11.7031 19.9212 11.6165 19.938 11.5331C19.9547 11.4496 19.9959 11.373 20.0565 11.3128C20.1171 11.2526 20.1943 11.2116 20.2783 11.195C20.3624 11.1784 20.4495 11.1869 20.5287 11.2195C20.6078 11.2521 20.6755 11.3072 20.7231 11.378C20.7707 11.4487 20.7961 11.5319 20.7961 11.617C20.7961 11.7311 20.7505 11.8406 20.6692 11.9213C20.588 12.002 20.4778 12.0473 20.3629 12.0473Z" fill="#9E9E9E"/>
<path d="M25.418 13.8422C25.2 13.5105 24.8662 13.2705 24.4808 13.1685C24.0954 13.0664 23.6856 13.1095 23.3302 13.2894L20.9612 14.4941C21.1229 14.8764 21.1404 15.3038 21.0106 15.6979C20.8809 16.0921 20.6125 16.4266 20.2546 16.6402L15.433 19.4799C14.3023 20.149 12.9556 20.3598 11.6725 20.0685L7.3158 19.0329L7.51726 18.1961L11.8653 19.2287C12.9317 19.4696 14.0506 19.2944 14.9907 18.7395L19.8118 15.8998C20.0087 15.783 20.1514 15.5938 20.2088 15.3733C20.2662 15.1528 20.2338 14.9186 20.1186 14.7217C19.8666 14.2885 19.4566 13.9681 18.9734 13.8267C18.4902 13.6854 17.9708 13.7339 17.5226 13.9623L14.0259 15.7444C13.7812 15.8693 13.5098 15.9336 13.2348 15.9318C12.9598 15.93 12.6892 15.8621 12.4463 15.7341L10.0634 14.4773C9.27352 14.0624 8.38782 13.8605 7.49477 13.8918C6.60172 13.9231 5.73258 14.1866 4.97412 14.6559L6.33277 21.0878L7.05629 20.9329C7.43622 20.8518 7.8274 20.8364 8.21261 20.8873L13.6243 21.4768C14.6422 21.6116 15.6747 21.3719 16.527 20.803L25.1802 15.0375C25.3699 14.9093 25.5012 14.7122 25.546 14.4887C25.5907 14.2652 25.5452 14.0332 25.4193 13.8427L25.418 13.8422Z" fill="#9E9E9E"/>
<path d="M0.433594 13.9778L2.38925 23.234L5.75079 22.5155L3.7947 13.2593L0.433594 13.9778ZM2.13494 15.8107L1.95688 14.9691L2.80473 14.7923L2.9828 15.6335L2.13494 15.8107Z" fill="#9E9E9E"/>
</svg>
