<svg width="25" height="25" viewBox="0 0 25 25" fill="none" xmlns="http://www.w3.org/2000/svg">
<path d="M5.76355 7.36624L12.4998 1.78592L19.2355 7.36624C19.5926 7.66204 20.0485 7.79882 20.503 7.7465C20.9574 7.69417 21.3732 7.45703 21.6588 7.08722L13.5773 0.391738C13.2715 0.138163 12.8915 0 12.4998 0C12.108 0 11.728 0.138163 11.4222 0.391738L3.33984 7.08812C3.48134 7.27122 3.65628 7.42367 3.85467 7.53674C4.05305 7.64982 4.27101 7.72131 4.49607 7.74714C4.72114 7.77297 4.94892 7.75262 5.16639 7.68727C5.38387 7.62191 5.58678 7.51282 5.76355 7.36624Z" fill="#9E9E9E"/>
<path d="M16.6085 14.5853C17.0057 14.3741 17.4456 14.2637 17.8921 14.263C18.1086 14.2639 18.3243 14.291 18.5348 14.3438V7.9291L12.5003 2.92914L6.46582 7.9291V14.4612C7.67769 14.2969 8.90885 14.5291 9.98694 15.1255L10.3451 15.3223V9.37507H14.6555V15.625L16.6085 14.5853Z" fill="#9E9E9E"/>
<path d="M24.8572 15.2563C24.6403 14.9121 24.3082 14.6631 23.9247 14.5572C23.5413 14.4513 23.1336 14.4959 22.78 14.6826L20.4231 15.9326C20.5839 16.3293 20.6014 16.7727 20.4723 17.1817C20.3432 17.5906 20.0761 17.9377 19.7201 18.1594L14.9231 21.1058C13.7982 21.7999 12.4583 22.0187 11.1817 21.7165L6.84683 20.641L7.04726 19.7727L11.3731 20.8442C12.4341 21.0941 13.5473 20.9124 14.4826 20.3366L19.2792 17.3902C19.475 17.269 19.6169 17.0727 19.6741 16.8439C19.7312 16.6151 19.6989 16.3722 19.5843 16.1679C19.3337 15.7184 18.9257 15.3859 18.445 15.2393C17.9642 15.0926 17.4475 15.143 17.0016 15.3799L13.5227 17.229C13.2793 17.3586 13.0093 17.4252 12.7356 17.4234C12.462 17.4215 12.1929 17.3512 11.9511 17.2183L9.58045 15.9143C8.79457 15.4838 7.91338 15.2743 7.02489 15.3068C6.13639 15.3393 5.27168 15.6127 4.51709 16.0996L5.86881 22.7732L6.58864 22.6125C6.96664 22.5283 7.35582 22.5123 7.73907 22.5651L13.1231 23.1767C14.1359 23.3166 15.1631 23.0679 16.011 22.4776L24.6201 16.4955C24.8086 16.3624 24.939 16.1579 24.9834 15.9261C25.0277 15.6943 24.9824 15.4538 24.8572 15.2563Z" fill="#9E9E9E"/>
<path d="M0 15.3962L1.94569 25.0001L5.29008 24.2546L3.34396 14.6506L0 15.3962ZM1.69267 17.2979L1.51552 16.4247L2.35905 16.2412L2.53621 17.114L1.69267 17.2979Z" fill="#9E9E9E"/>
</svg>
