<svg width="25" height="24" viewBox="0 0 25 24" fill="none" xmlns="http://www.w3.org/2000/svg">
<path d="M15.8879 6.37735L14.6492 4.23785L12.47 9.61828C12.4387 9.69423 12.3851 9.75921 12.3162 9.80488C12.2472 9.85056 12.166 9.87484 12.0829 9.87461H12.0659C11.98 9.87128 11.8973 9.84182 11.829 9.79026C11.7608 9.7387 11.7103 9.66757 11.6846 9.5866L10.2913 5.11752L9.52171 6.38352C9.48483 6.44414 9.43275 6.49435 9.37049 6.5293C9.30824 6.56426 9.23791 6.58278 9.1663 6.58307H6.24965V5.76019H8.93047L10.0592 3.90253C10.1007 3.83439 10.1612 3.77958 10.2335 3.7447C10.3059 3.70982 10.3869 3.69638 10.4668 3.706C10.5467 3.71562 10.6221 3.74788 10.6838 3.7989C10.7455 3.84991 10.791 3.91748 10.8146 3.99346L12.1342 8.22884L14.1959 3.13889C14.2248 3.06669 14.2738 3.00405 14.3372 2.9582C14.4007 2.91235 14.476 2.88517 14.5544 2.87979C14.6329 2.87441 14.7113 2.89105 14.7805 2.9278C14.8498 2.96455 14.9071 3.0199 14.9458 3.08746L16.4913 5.76019H20.2412C20.9041 3.03768 19.4412 1.58693 19.4412 1.58693C19.0689 1.09491 18.5856 0.69533 18.0296 0.419871C17.4737 0.144411 16.8604 0.00065429 16.2383 0C14.1021 0 12.4996 1.58693 12.4996 1.58693C12.4996 1.58693 10.8971 0 8.76088 0C8.13858 0.000398621 7.52495 0.144033 6.96868 0.419502C6.41241 0.694972 5.92883 1.09469 5.55632 1.58693C5.55632 1.58693 0.74968 6.34814 12.4996 14.8119C17.1396 11.4698 19.1967 8.70529 19.9883 6.58307H16.2496C16.1763 6.58321 16.1043 6.56427 16.0408 6.52815C15.9773 6.49203 15.9246 6.44002 15.8879 6.37735Z" fill="#9E9E9E"/>
<path d="M23.75 4.9372C23.4924 4.93825 23.2414 5.01787 23.0314 5.16517C22.8214 5.31247 22.6625 5.52025 22.5767 5.76008H20.2434C20.1747 6.03901 20.0897 6.31377 19.9888 6.58296H22.5767C22.6534 6.79575 22.7879 6.98361 22.9655 7.12601C23.1431 7.26842 23.3569 7.35988 23.5835 7.39042C23.8102 7.42096 24.041 7.38939 24.2507 7.29916C24.4604 7.20894 24.641 7.06353 24.7726 6.87883C24.9043 6.69412 24.9821 6.47723 24.9973 6.25185C25.0126 6.02647 24.9649 5.80128 24.8594 5.60088C24.7538 5.40048 24.5945 5.23258 24.3989 5.11553C24.2032 4.99849 23.9788 4.93679 23.75 4.9372ZM23.75 6.58296C23.6676 6.58296 23.587 6.55883 23.5185 6.51362C23.45 6.46842 23.3966 6.40416 23.3651 6.32897C23.3335 6.25379 23.3253 6.17107 23.3413 6.09125C23.3574 6.01144 23.3971 5.93813 23.4554 5.88059C23.5136 5.82305 23.5879 5.78386 23.6687 5.76799C23.7495 5.75211 23.8333 5.76026 23.9094 5.7914C23.9856 5.82254 24.0507 5.87528 24.0964 5.94294C24.1422 6.0106 24.1667 6.09015 24.1667 6.17152C24.1667 6.28064 24.1228 6.3853 24.0446 6.46246C23.9665 6.53962 23.8605 6.58296 23.75 6.58296Z" fill="#9E9E9E"/>
<path d="M3.33331 5.76007H0V6.58295H3.33331V5.76007Z" fill="#9E9E9E"/>
<path d="M24.4448 14.8827C24.2351 14.5654 23.9141 14.336 23.5434 14.2384C23.1727 14.1408 22.7786 14.1819 22.4369 14.354L20.1585 15.506C20.314 15.8716 20.3309 16.2803 20.2061 16.6572C20.0813 17.0341 19.8231 17.354 19.479 17.5583L14.8419 20.2738C13.7545 20.9136 12.4592 21.1152 11.2252 20.8367L7.03527 19.8463L7.22902 19.0461L11.4107 20.0335C12.4363 20.2639 13.5123 20.0964 14.4165 19.5657L19.0531 16.8502C19.2425 16.7385 19.3796 16.5576 19.4349 16.3467C19.4901 16.1359 19.4589 15.912 19.3481 15.7237C19.1058 15.3094 18.7115 15.003 18.2468 14.8678C17.7821 14.7327 17.2825 14.7791 16.8515 14.9975L13.4886 16.7017C13.2533 16.8211 12.9923 16.8825 12.7278 16.8808C12.4632 16.8791 12.2031 16.8142 11.9694 16.6918L9.67776 15.49C8.91808 15.0932 8.06627 14.9001 7.2074 14.9301C6.34852 14.96 5.51263 15.212 4.7832 15.6607L6.08986 21.8114L6.78569 21.6632C7.15109 21.5857 7.52729 21.5709 7.89777 21.6196L13.1023 22.1833C14.0813 22.3122 15.0743 22.083 15.894 21.539L24.216 16.0257C24.3984 15.9031 24.5248 15.7146 24.5678 15.5009C24.6108 15.2871 24.5671 15.0653 24.446 14.8831L24.4448 14.8827Z" fill="#9E9E9E"/>
<path d="M0.416504 15.0124L2.29733 23.8637L5.53022 23.1766L3.64898 14.3253L0.416504 15.0124ZM2.05274 16.7651L1.8815 15.9603L2.69691 15.7912L2.86816 16.5956L2.05274 16.7651Z" fill="#9E9E9E"/>
</svg>
