<svg width="30" height="30" viewBox="0 0 30 30" fill="none" xmlns="http://www.w3.org/2000/svg">
<path d="M9.0002 1.7998C8.0078 1.7998 7.2002 2.6074 7.2002 3.5998V26.3998C7.2002 27.3922 8.0078 28.1998 9.0002 28.1998H21.0002C21.9926 28.1998 22.8002 27.3922 22.8002 26.3998V3.5998C22.8002 2.6074 21.9926 1.7998 21.0002 1.7998H9.0002ZM8.4002 5.9998H21.6002V23.3998H8.4002V5.9998ZM18.9459 11.974L13.4779 17.442L11.0463 15.0104L10.2061 15.8506L13.4779 19.1225L19.7861 12.8143L18.9459 11.974ZM13.2002 25.1998H16.8002C17.132 25.1998 17.4002 25.468 17.4002 25.7998C17.4002 26.1316 17.132 26.3998 16.8002 26.3998H13.2002C12.8684 26.3998 12.6002 26.1316 12.6002 25.7998C12.6002 25.468 12.8684 25.1998 13.2002 25.1998Z" fill="#2B5FAE"/>
</svg>
