<?xml version="1.0" encoding="utf-8"?>
<!-- Generator: Adobe Illustrator 16.0.0, SVG Export Plug-In . SVG Version: 6.00 Build 0)  -->
<!DOCTYPE svg PUBLIC "-//W3C//DTD SVG 1.1//EN" "http://www.w3.org/Graphics/SVG/1.1/DTD/svg11.dtd">
<svg version="1.1" id="Слой_1" xmlns="http://www.w3.org/2000/svg" xmlns:xlink="http://www.w3.org/1999/xlink" x="0px" y="0px"
	 width="229px" height="56px" viewBox="0 0 229 56" enable-background="new 0 0 229 56" xml:space="preserve">
<path opacity="0.4" enable-background="new    " d="M198.948,18.928c-0.127,0-0.254-0.048-0.352-0.145
	c-0.741-0.731-2.021-1.06-4.149-1.063c-2.127,0.003-3.407,0.331-4.147,1.063c-0.197,0.194-0.513,0.192-0.707-0.004
	c-0.193-0.196-0.191-0.514,0.004-0.707c1.207-1.193,3.228-1.349,4.852-1.353c1.625,0.003,3.646,0.158,4.854,1.353
	c0.195,0.193,0.197,0.511,0.004,0.707C199.206,18.878,199.077,18.928,198.948,18.928z M187.544,18.678
	c0.147-0.233,0.079-0.542-0.154-0.69c-0.742-0.474-1.559-0.824-2.42-1.044c-1.006-0.256-2.033-0.318-3.057-0.192
	c-0.273,0.034-0.468,0.284-0.434,0.558c0.033,0.274,0.285,0.474,0.558,0.435c0.897-0.111,1.802-0.055,2.687,0.169
	c0.76,0.193,1.477,0.503,2.129,0.919c0.084,0.053,0.178,0.078,0.27,0.078C187.286,18.909,187.448,18.827,187.544,18.678z
	 M212.318,18.779c0.194-0.196,0.192-0.514-0.004-0.707c-1.208-1.193-3.228-1.349-4.853-1.353c-1.625,0.003-3.645,0.158-4.853,1.353
	c-0.196,0.193-0.198,0.511-0.004,0.707c0.194,0.196,0.511,0.198,0.708,0.004c0.74-0.731,2.021-1.06,4.146-1.063
	c2.129,0.003,3.408,0.331,4.148,1.063c0.098,0.097,0.225,0.145,0.352,0.145C212.091,18.928,212.22,18.878,212.318,18.779z
	 M215.056,18.831c0.656-0.416,1.373-0.726,2.131-0.919c0.885-0.224,1.789-0.281,2.687-0.169c0.275,0.039,0.524-0.161,0.558-0.435
	c0.035-0.273-0.158-0.523-0.434-0.558c-1.021-0.126-2.049-0.063-3.057,0.192c-0.861,0.22-1.676,0.57-2.42,1.044
	c-0.233,0.148-0.303,0.457-0.154,0.69c0.096,0.149,0.257,0.231,0.422,0.231C214.88,18.909,214.974,18.884,215.056,18.831z
	 M201.448,30.298V19.299c0-0.276-0.225-0.5-0.5-0.5s-0.5,0.224-0.5,0.5v10.999c0,1.379-1.122,2.501-2.5,2.501s-2.5-1.122-2.5-2.501
	c0-0.276-0.225-0.5-0.5-0.5s-0.5,0.224-0.5,0.5c0,1.931,1.57,3.501,3.5,3.501S201.448,32.229,201.448,30.298z M222.679,16.514
	c0.229-0.156,0.285-0.468,0.129-0.695c-4.95-7.213-13.123-11.52-21.859-11.52s-16.909,4.307-21.859,11.52
	c-0.156,0.228-0.1,0.539,0.129,0.695c0.229,0.157,0.539,0.099,0.694-0.129c4.765-6.942,12.629-11.086,21.036-11.086
	s16.271,4.145,21.036,11.086c0.097,0.141,0.253,0.217,0.413,0.217C222.494,16.602,222.593,16.573,222.679,16.514z M200.948,0.799
	c-0.552,0-1,0.447-1,1c0,0.553,0.448,1,1,1s1-0.447,1-1C201.948,1.246,201.5,0.799,200.948,0.799z M47.751,48.432
	c0.151,0,0.277,0.051,0.378,0.149c0.099,0.101,0.149,0.226,0.149,0.378c0,0.148-0.056,0.279-0.168,0.391
	c-0.523,0.461-1.141,0.689-1.851,0.689c-0.784,0-1.454-0.277-2.008-0.831c-0.556-0.556-0.832-1.226-0.832-2.009
	s0.276-1.453,0.832-2.008c0.554-0.558,1.224-0.832,2.008-0.832c0.714,0,1.33,0.229,1.851,0.688c0.122,0.107,0.183,0.241,0.183,0.4
	c0,0.15-0.05,0.279-0.149,0.381c-0.1,0.104-0.226,0.15-0.378,0.15c-0.128,0-0.243-0.041-0.345-0.121
	c-0.173-0.146-0.354-0.256-0.543-0.33c-0.188-0.073-0.395-0.11-0.618-0.11c-0.247,0-0.479,0.047-0.695,0.14
	c-0.216,0.096-0.405,0.221-0.567,0.383c-0.162,0.16-0.29,0.349-0.384,0.563c-0.093,0.217-0.139,0.448-0.139,0.694
	s0.046,0.478,0.139,0.693c0.094,0.217,0.222,0.404,0.384,0.565s0.352,0.287,0.567,0.38c0.217,0.094,0.448,0.141,0.695,0.141
	c0.224,0,0.43-0.037,0.618-0.108c0.189-0.071,0.368-0.183,0.538-0.327C47.511,48.473,47.622,48.436,47.751,48.432 M57.478,46.621
	c0-0.309-0.061-0.6-0.181-0.875s-0.282-0.516-0.487-0.721s-0.445-0.365-0.72-0.485c-0.275-0.121-0.567-0.181-0.874-0.181
	c-0.684,0-1.26,0.269-1.73,0.807c-0.224-0.271-0.482-0.475-0.78-0.605c-0.298-0.135-0.616-0.201-0.954-0.201
	c-0.46,0-0.87,0.121-1.232,0.361c-0.034-0.109-0.096-0.197-0.188-0.263c-0.091-0.065-0.196-0.099-0.314-0.099
	c-0.146,0-0.27,0.052-0.373,0.154c-0.103,0.104-0.154,0.228-0.154,0.371v4.62c0,0.147,0.052,0.272,0.154,0.378
	c0.104,0.104,0.229,0.154,0.378,0.154c0.146,0,0.27-0.053,0.372-0.154c0.104-0.104,0.156-0.229,0.156-0.378V46.62
	c0-0.166,0.03-0.32,0.094-0.468c0.062-0.146,0.148-0.271,0.258-0.383c0.11-0.108,0.237-0.194,0.383-0.26
	c0.146-0.062,0.302-0.094,0.467-0.094s0.32,0.032,0.466,0.098c0.146,0.064,0.272,0.149,0.382,0.26
	c0.107,0.106,0.194,0.232,0.259,0.379c0.063,0.146,0.096,0.302,0.096,0.468v2.886c0,0.148,0.052,0.273,0.155,0.378
	c0.103,0.103,0.229,0.154,0.377,0.154c0.146,0,0.27-0.052,0.373-0.154c0.104-0.104,0.155-0.229,0.155-0.378V46.62
	c0-0.166,0.031-0.32,0.093-0.468c0.063-0.146,0.149-0.271,0.259-0.379c0.11-0.108,0.237-0.194,0.383-0.26
	c0.146-0.064,0.301-0.098,0.468-0.098c0.167,0,0.327,0.032,0.474,0.098c0.147,0.064,0.274,0.15,0.383,0.262
	c0.107,0.108,0.193,0.235,0.256,0.383c0.063,0.146,0.093,0.299,0.093,0.462v2.886c0,0.148,0.052,0.273,0.152,0.378
	c0.103,0.103,0.228,0.154,0.376,0.154c0.146,0,0.271-0.052,0.373-0.154c0.104-0.104,0.155-0.229,0.155-0.378v-2.885H57.478
	L57.478,46.621z M61.652,50.039c0.389,0,0.751-0.068,1.084-0.205c0.333-0.139,0.641-0.346,0.925-0.626
	c0.555-0.549,0.832-1.218,0.832-2.009c0-0.393-0.069-0.758-0.207-1.094c-0.14-0.336-0.347-0.643-0.625-0.916
	c-0.561-0.555-1.231-0.832-2.009-0.832c-0.783,0-1.453,0.277-2.007,0.832c-0.556,0.557-0.832,1.226-0.832,2.01v4.746
	c0,0.152,0.05,0.279,0.149,0.379s0.227,0.148,0.378,0.148c0.148,0,0.274-0.051,0.378-0.148c0.103-0.1,0.154-0.227,0.154-0.379
	v-2.529C60.381,49.832,60.974,50.039,61.652,50.039 M59.873,47.199c0-0.243,0.046-0.473,0.14-0.689
	c0.094-0.216,0.219-0.404,0.378-0.564c0.158-0.16,0.347-0.287,0.563-0.383c0.216-0.096,0.449-0.143,0.698-0.143
	c0.248,0,0.479,0.047,0.696,0.143c0.216,0.096,0.403,0.224,0.565,0.387c0.16,0.16,0.286,0.35,0.379,0.564
	c0.094,0.213,0.141,0.442,0.141,0.688c0,0.242-0.047,0.473-0.141,0.688c-0.093,0.215-0.219,0.401-0.379,0.564
	c-0.162,0.162-0.35,0.29-0.565,0.385c-0.218,0.096-0.448,0.143-0.696,0.143c-0.249,0-0.482-0.047-0.698-0.143
	c-0.217-0.095-0.405-0.222-0.563-0.382c-0.159-0.161-0.284-0.351-0.378-0.565C59.919,47.673,59.873,47.441,59.873,47.199
	 M70.118,49.512c0,0.146,0.053,0.271,0.156,0.373c0.103,0.104,0.228,0.154,0.377,0.154c0.146,0,0.27-0.053,0.373-0.154
	c0.103-0.103,0.155-0.228,0.155-0.373v-2.313c0-0.783-0.277-1.453-0.832-2.008c-0.562-0.558-1.23-0.832-2.009-0.832
	c-0.785,0-1.454,0.274-2.009,0.832c-0.554,0.555-0.832,1.225-0.832,2.008s0.278,1.453,0.832,2.009
	c0.555,0.554,1.224,0.831,2.009,0.831c0.339,0,0.656-0.055,0.954-0.161c0.297-0.108,0.572-0.265,0.825-0.468L70.118,49.512
	 M68.339,45.419c0.248,0,0.479,0.048,0.695,0.142c0.216,0.098,0.405,0.226,0.565,0.388c0.16,0.161,0.288,0.352,0.381,0.563
	c0.093,0.215,0.138,0.443,0.138,0.688c0,0.243-0.045,0.473-0.138,0.687c-0.093,0.217-0.221,0.404-0.381,0.566
	c-0.16,0.162-0.35,0.291-0.565,0.385c-0.217,0.096-0.447,0.145-0.695,0.145c-0.251,0-0.482-0.049-0.7-0.145
	c-0.215-0.094-0.403-0.222-0.563-0.382c-0.159-0.161-0.284-0.351-0.378-0.565c-0.093-0.218-0.139-0.447-0.139-0.688
	c0-0.244,0.046-0.474,0.139-0.688c0.094-0.218,0.219-0.404,0.378-0.566c0.159-0.159,0.348-0.286,0.563-0.383
	C67.856,45.467,68.088,45.419,68.339,45.419 M72.286,49.182c-0.071,0.09-0.105,0.199-0.105,0.33c0,0.071,0.013,0.141,0.04,0.203
	c0.026,0.064,0.064,0.121,0.111,0.17s0.104,0.088,0.167,0.114c0.064,0.026,0.134,0.041,0.208,0.041c0.149,0,0.273-0.056,0.376-0.163
	l1.552-1.855l1.541,1.855c0.108,0.107,0.234,0.163,0.38,0.163c0.075,0,0.145-0.015,0.208-0.041c0.064-0.026,0.12-0.065,0.168-0.114
	c0.047-0.049,0.085-0.104,0.115-0.17c0.028-0.063,0.042-0.132,0.042-0.203c0-0.135-0.037-0.244-0.111-0.33l-1.658-1.986l1.644-1.956
	c0.084-0.105,0.126-0.224,0.126-0.353c0-0.07-0.014-0.139-0.042-0.203c-0.03-0.063-0.068-0.121-0.115-0.17
	c-0.048-0.049-0.104-0.087-0.168-0.113c-0.063-0.025-0.133-0.041-0.208-0.041c-0.158,0-0.288,0.06-0.39,0.174l-1.531,1.832
	l-1.532-1.832c-0.104-0.114-0.236-0.174-0.396-0.174c-0.074,0-0.144,0.016-0.208,0.041c-0.063,0.026-0.12,0.064-0.167,0.113
	s-0.085,0.105-0.111,0.17c-0.027,0.064-0.04,0.133-0.04,0.203c0,0.144,0.04,0.26,0.121,0.353l1.644,1.956L72.286,49.182z
	 M83.545,47.199c-0.003-0.393-0.073-0.756-0.21-1.09c-0.138-0.336-0.346-0.644-0.621-0.918c-0.563-0.558-1.231-0.832-2.009-0.832
	c-0.785,0-1.454,0.274-2.009,0.832c-0.554,0.555-0.832,1.225-0.832,2.008s0.278,1.453,0.832,2.009
	c0.555,0.554,1.224,0.831,2.009,0.831c0.777,0,1.446-0.277,2.009-0.831C83.268,48.659,83.545,47.991,83.545,47.199 M80.705,45.419
	c0.247,0,0.479,0.048,0.695,0.142c0.215,0.098,0.404,0.226,0.565,0.388c0.159,0.161,0.287,0.352,0.38,0.563
	c0.093,0.215,0.139,0.443,0.139,0.688c0,0.243-0.046,0.473-0.139,0.687c-0.093,0.217-0.221,0.404-0.38,0.566
	c-0.161,0.162-0.351,0.291-0.565,0.385c-0.217,0.096-0.448,0.145-0.695,0.145c-0.251,0-0.484-0.049-0.701-0.145
	c-0.215-0.094-0.402-0.222-0.563-0.382c-0.158-0.161-0.284-0.351-0.377-0.565c-0.093-0.218-0.14-0.447-0.14-0.688
	c0-0.244,0.047-0.474,0.14-0.688c0.093-0.217,0.219-0.404,0.377-0.566c0.16-0.159,0.348-0.286,0.563-0.383
	C80.221,45.467,80.454,45.419,80.705,45.419 M85.237,44.359c-0.074,0-0.145,0.014-0.207,0.041c-0.064,0.024-0.12,0.063-0.168,0.113
	c-0.048,0.049-0.085,0.104-0.112,0.17c-0.026,0.063-0.041,0.133-0.041,0.201v4.625c0,0.071,0.015,0.141,0.041,0.203
	c0.027,0.063,0.064,0.121,0.112,0.17c0.048,0.051,0.104,0.087,0.168,0.114c0.063,0.026,0.133,0.04,0.207,0.04h2.313
	c0.232,0,0.452-0.044,0.656-0.135c0.204-0.09,0.383-0.211,0.535-0.362c0.151-0.151,0.271-0.33,0.359-0.535
	c0.089-0.204,0.133-0.422,0.133-0.649c0-0.146-0.015-0.278-0.044-0.398c-0.028-0.12-0.071-0.232-0.126-0.341
	c-0.056-0.109-0.127-0.214-0.212-0.315c-0.084-0.101-0.183-0.201-0.293-0.305c0.192-0.271,0.288-0.592,0.288-0.954
	c0-0.229-0.044-0.446-0.134-0.651c-0.089-0.203-0.21-0.383-0.362-0.533c-0.153-0.151-0.331-0.272-0.535-0.362
	s-0.423-0.136-0.652-0.136H85.237L85.237,44.359z M85.766,46.672v-1.253h1.398c0.085,0,0.165,0.017,0.241,0.052
	c0.076,0.033,0.143,0.078,0.198,0.135s0.101,0.121,0.134,0.197c0.034,0.076,0.052,0.156,0.052,0.239
	c0,0.092-0.018,0.177-0.052,0.252c-0.033,0.076-0.08,0.142-0.138,0.198c-0.057,0.056-0.124,0.1-0.199,0.132
	c-0.076,0.03-0.154,0.048-0.236,0.048H85.766z M85.766,48.979v-1.252h1.785c0.08,0,0.159,0.017,0.235,0.047
	c0.076,0.033,0.142,0.076,0.199,0.135c0.058,0.056,0.104,0.122,0.138,0.199c0.034,0.078,0.051,0.16,0.051,0.248
	s-0.017,0.168-0.051,0.242s-0.079,0.143-0.135,0.198c-0.055,0.058-0.122,0.103-0.197,0.136c-0.076,0.031-0.156,0.047-0.24,0.047
	H85.766z M95.036,50.039c0.148,0,0.274-0.051,0.377-0.154c0.104-0.103,0.155-0.228,0.155-0.373v-4.625
	c0-0.146-0.052-0.27-0.155-0.373c-0.103-0.103-0.227-0.154-0.372-0.154c-0.148,0-0.274,0.054-0.378,0.154
	c-0.103,0.104-0.154,0.229-0.154,0.373v2.506c0,0.219-0.042,0.426-0.125,0.615c-0.082,0.191-0.197,0.359-0.342,0.506
	c-0.146,0.146-0.314,0.258-0.508,0.342c-0.192,0.082-0.397,0.125-0.613,0.125c-0.221,0-0.426-0.043-0.618-0.125
	c-0.193-0.084-0.361-0.195-0.505-0.34c-0.145-0.144-0.257-0.313-0.34-0.505s-0.124-0.399-0.124-0.618v-2.506
	c0-0.146-0.052-0.27-0.155-0.373c-0.103-0.103-0.228-0.154-0.373-0.154c-0.148,0-0.274,0.054-0.377,0.154
	c-0.104,0.104-0.155,0.229-0.155,0.373v2.506c0,0.361,0.07,0.703,0.211,1.023c0.14,0.322,0.33,0.604,0.57,0.843
	c0.239,0.239,0.521,0.431,0.841,0.57c0.321,0.14,0.663,0.21,1.025,0.21c0.305,0,0.586-0.041,0.848-0.124
	c0.26-0.083,0.507-0.216,0.74-0.397c0.003,0.146,0.054,0.271,0.152,0.369C94.758,49.988,94.884,50.039,95.036,50.039
	 M101.633,50.039c0.148,0,0.274-0.053,0.377-0.154c0.104-0.104,0.156-0.228,0.156-0.373v-4.625c0-0.146-0.052-0.27-0.156-0.371
	c-0.103-0.104-0.227-0.156-0.372-0.156c-0.148,0-0.274,0.054-0.378,0.156c-0.103,0.104-0.154,0.228-0.154,0.371v2.506
	c0,0.222-0.041,0.426-0.125,0.615c-0.082,0.191-0.196,0.359-0.342,0.506s-0.314,0.26-0.508,0.342
	c-0.192,0.082-0.396,0.125-0.613,0.125c-0.221,0-0.426-0.043-0.618-0.125c-0.193-0.082-0.361-0.194-0.505-0.34
	c-0.145-0.144-0.258-0.313-0.34-0.505c-0.083-0.192-0.125-0.396-0.125-0.618v-2.506c0-0.146-0.051-0.27-0.154-0.371
	c-0.103-0.104-0.228-0.156-0.372-0.156c-0.149,0-0.275,0.054-0.378,0.156c-0.104,0.104-0.155,0.228-0.155,0.371v2.506
	c0,0.361,0.07,0.703,0.211,1.024c0.14,0.321,0.33,0.603,0.57,0.841c0.24,0.24,0.521,0.432,0.841,0.571
	c0.322,0.142,0.664,0.21,1.025,0.21c0.305,0,0.586-0.041,0.848-0.124c0.26-0.083,0.507-0.215,0.74-0.397
	c0.003,0.146,0.054,0.271,0.152,0.369C101.354,49.988,101.48,50.039,101.633,50.039 M99.518,43.756c0.233,0,0.452-0.033,0.657-0.099
	c0.204-0.066,0.383-0.157,0.535-0.274c0.152-0.115,0.272-0.254,0.362-0.414c0.09-0.156,0.134-0.328,0.134-0.511
	c0-0.147-0.049-0.274-0.149-0.378s-0.226-0.155-0.377-0.155c-0.152,0-0.279,0.052-0.381,0.151c-0.075,0.078-0.122,0.17-0.143,0.273
	c-0.007,0.096-0.068,0.174-0.187,0.237c-0.125,0.072-0.276,0.106-0.452,0.106c-0.176,0-0.326-0.034-0.451-0.106
	c-0.118-0.063-0.184-0.144-0.192-0.237c-0.018-0.104-0.063-0.195-0.137-0.273c-0.103-0.102-0.229-0.151-0.381-0.151
	s-0.279,0.054-0.378,0.155c-0.1,0.104-0.149,0.229-0.149,0.378c0,0.183,0.045,0.354,0.135,0.511c0.089,0.16,0.21,0.299,0.362,0.414
	c0.152,0.117,0.331,0.208,0.535,0.274C99.065,43.723,99.284,43.756,99.518,43.756 M110.538,48.432
	c-0.129,0.004-0.24,0.041-0.335,0.111c-0.169,0.146-0.348,0.256-0.538,0.327c-0.188,0.073-0.395,0.11-0.618,0.11
	c-0.247,0-0.479-0.049-0.695-0.143c-0.216-0.093-0.405-0.219-0.567-0.38c-0.162-0.161-0.29-0.351-0.384-0.563
	c-0.093-0.22-0.139-0.449-0.139-0.695s0.046-0.479,0.139-0.694c0.094-0.217,0.222-0.405,0.384-0.565
	c0.162-0.159,0.352-0.287,0.567-0.381c0.217-0.093,0.448-0.14,0.695-0.14c0.224,0,0.43,0.037,0.618,0.11
	c0.19,0.076,0.371,0.186,0.543,0.33c0.102,0.082,0.217,0.121,0.345,0.121c0.152,0,0.278-0.049,0.379-0.15
	c0.099-0.102,0.149-0.229,0.149-0.381c0-0.159-0.062-0.292-0.183-0.4c-0.521-0.46-1.138-0.689-1.852-0.689
	c-0.785,0-1.454,0.276-2.009,0.832c-0.554,0.557-0.832,1.227-0.832,2.01s0.278,1.454,0.832,2.009
	c0.555,0.556,1.224,0.831,2.009,0.831c0.709,0,1.327-0.229,1.852-0.688c0.11-0.111,0.166-0.242,0.166-0.393
	s-0.049-0.275-0.149-0.378S110.69,48.432,110.538,48.432 M116.296,48.441c-0.132,0.004-0.248,0.048-0.351,0.132
	c-0.158,0.137-0.332,0.237-0.519,0.305s-0.391,0.103-0.615,0.103c-0.194,0-0.384-0.029-0.565-0.092
	c-0.18-0.061-0.345-0.146-0.496-0.257c-0.15-0.11-0.281-0.241-0.393-0.396c-0.112-0.153-0.196-0.324-0.254-0.51h4.017
	c0.148,0,0.273-0.052,0.377-0.149c0.104-0.101,0.154-0.228,0.154-0.378c0-0.393-0.068-0.756-0.207-1.094
	c-0.139-0.336-0.348-0.644-0.623-0.914c-0.563-0.558-1.231-0.832-2.01-0.832c-0.783,0-1.453,0.274-2.007,0.832
	c-0.555,0.555-0.832,1.225-0.832,2.008s0.277,1.453,0.832,2.009c0.554,0.554,1.224,0.831,2.007,0.831
	c0.713,0,1.333-0.229,1.857-0.689c0.103-0.104,0.151-0.229,0.151-0.379c0-0.154-0.051-0.279-0.148-0.379
	C116.573,48.492,116.448,48.441,116.296,48.441 M113.105,46.672c0.055-0.188,0.137-0.355,0.248-0.51
	c0.112-0.154,0.244-0.285,0.396-0.396c0.151-0.107,0.318-0.195,0.501-0.256c0.184-0.062,0.371-0.092,0.563-0.092
	c0.194,0,0.38,0.03,0.562,0.092c0.182,0.061,0.348,0.146,0.497,0.256c0.149,0.11,0.28,0.241,0.396,0.396
	c0.113,0.154,0.198,0.322,0.258,0.51H113.105z M121.525,50.039c0.391,0,0.752-0.068,1.084-0.205
	c0.334-0.139,0.643-0.346,0.927-0.626c0.554-0.549,0.832-1.218,0.832-2.009c0-0.393-0.07-0.758-0.209-1.094
	c-0.138-0.336-0.347-0.643-0.623-0.916c-0.562-0.555-1.231-0.832-2.011-0.832c-0.782,0-1.452,0.277-2.006,0.832
	c-0.558,0.557-0.832,1.226-0.832,2.01v4.746c0,0.152,0.051,0.279,0.147,0.379c0.101,0.1,0.228,0.148,0.378,0.148
	c0.148,0,0.273-0.051,0.377-0.148c0.104-0.1,0.156-0.227,0.156-0.379v-2.529C120.255,49.832,120.848,50.039,121.525,50.039
	 M119.748,47.199c0-0.243,0.045-0.473,0.139-0.689c0.094-0.216,0.219-0.404,0.379-0.564c0.157-0.16,0.346-0.287,0.563-0.383
	c0.216-0.096,0.448-0.143,0.696-0.143s0.479,0.047,0.697,0.143c0.215,0.096,0.403,0.224,0.564,0.387
	c0.16,0.16,0.287,0.35,0.38,0.564c0.095,0.213,0.14,0.442,0.14,0.688c0,0.242-0.045,0.473-0.14,0.688
	c-0.093,0.215-0.22,0.401-0.38,0.564c-0.161,0.162-0.35,0.29-0.564,0.385c-0.218,0.096-0.449,0.143-0.697,0.143
	s-0.48-0.047-0.696-0.143c-0.218-0.095-0.405-0.222-0.563-0.382c-0.16-0.161-0.285-0.351-0.379-0.565
	C119.793,47.673,119.748,47.441,119.748,47.199 M126.061,44.359c-0.074,0-0.146,0.014-0.207,0.041
	c-0.063,0.024-0.121,0.063-0.168,0.113c-0.047,0.049-0.084,0.104-0.11,0.17c-0.026,0.063-0.042,0.133-0.042,0.201v4.625
	c0,0.071,0.016,0.141,0.042,0.203s0.063,0.121,0.11,0.17c0.047,0.051,0.104,0.087,0.168,0.114c0.063,0.026,0.133,0.04,0.207,0.04
	h2.313c0.231,0,0.452-0.044,0.655-0.135c0.205-0.09,0.384-0.211,0.535-0.362s0.271-0.33,0.359-0.535
	c0.09-0.204,0.133-0.422,0.133-0.649c0-0.146-0.016-0.278-0.043-0.398c-0.029-0.12-0.072-0.232-0.127-0.341
	c-0.057-0.109-0.128-0.214-0.213-0.315c-0.084-0.101-0.182-0.201-0.293-0.305c0.192-0.271,0.288-0.592,0.288-0.954
	c0-0.229-0.044-0.446-0.133-0.651c-0.091-0.203-0.211-0.383-0.363-0.533c-0.151-0.151-0.331-0.272-0.532-0.362
	c-0.205-0.09-0.425-0.136-0.652-0.136H126.061L126.061,44.359z M126.588,46.672v-1.253h1.398c0.084,0,0.164,0.017,0.242,0.052
	c0.073,0.033,0.142,0.078,0.195,0.135c0.057,0.057,0.102,0.121,0.137,0.197c0.031,0.076,0.051,0.156,0.051,0.239
	c0,0.092-0.02,0.177-0.051,0.252c-0.035,0.076-0.082,0.142-0.14,0.198c-0.06,0.056-0.125,0.1-0.198,0.132
	c-0.076,0.03-0.156,0.048-0.236,0.048H126.588z M126.588,48.979v-1.252h1.785c0.08,0,0.159,0.017,0.234,0.047
	c0.076,0.033,0.143,0.076,0.201,0.135c0.057,0.056,0.104,0.122,0.137,0.199c0.033,0.078,0.051,0.16,0.051,0.248
	s-0.018,0.168-0.051,0.242s-0.079,0.143-0.135,0.198c-0.057,0.058-0.123,0.103-0.197,0.136c-0.076,0.031-0.155,0.047-0.24,0.047
	H126.588z M132.532,43.35c0-0.172-0.062-0.317-0.183-0.439c-0.121-0.121-0.271-0.184-0.441-0.184c-0.172,0-0.318,0.063-0.441,0.184
	c-0.121,0.122-0.183,0.271-0.183,0.439c0,0.174,0.062,0.32,0.183,0.442c0.123,0.121,0.27,0.183,0.441,0.183
	c0.173,0,0.32-0.062,0.441-0.183C132.471,43.67,132.532,43.521,132.532,43.35 M131.381,49.507c0,0.147,0.053,0.274,0.155,0.378
	c0.103,0.104,0.228,0.154,0.372,0.154c0.146,0,0.27-0.053,0.373-0.154c0.104-0.104,0.156-0.229,0.158-0.378v-4.614
	c-0.002-0.147-0.057-0.273-0.158-0.379c-0.104-0.103-0.229-0.154-0.373-0.154c-0.145,0-0.27,0.054-0.372,0.154
	c-0.104,0.104-0.155,0.229-0.155,0.379V49.507 M138.038,48.432c-0.129,0.004-0.24,0.041-0.335,0.111
	c-0.169,0.146-0.348,0.256-0.538,0.327c-0.188,0.073-0.396,0.11-0.618,0.11c-0.248,0-0.479-0.049-0.695-0.143
	c-0.216-0.093-0.404-0.219-0.566-0.38c-0.161-0.161-0.289-0.351-0.385-0.563c-0.092-0.22-0.139-0.449-0.139-0.695
	s0.047-0.479,0.139-0.694c0.096-0.217,0.224-0.405,0.385-0.565c0.162-0.159,0.354-0.287,0.566-0.381
	c0.217-0.093,0.447-0.14,0.695-0.14c0.225,0,0.43,0.037,0.618,0.11c0.19,0.076,0.37,0.186,0.543,0.33
	c0.103,0.082,0.217,0.121,0.345,0.121c0.151,0,0.278-0.049,0.379-0.15s0.148-0.229,0.148-0.381c0-0.159-0.061-0.292-0.182-0.4
	c-0.521-0.46-1.141-0.689-1.854-0.689c-0.785,0-1.454,0.276-2.009,0.832c-0.556,0.557-0.832,1.227-0.832,2.01
	s0.276,1.454,0.832,2.009c0.555,0.556,1.224,0.831,2.009,0.831c0.709,0,1.327-0.229,1.854-0.688
	c0.108-0.111,0.166-0.242,0.166-0.393s-0.049-0.275-0.149-0.378S138.189,48.432,138.038,48.432 M97,29.499
	c0,0.567-0.116,1.104-0.308,1.604c-0.648,1.688-2.274,2.896-4.192,2.896l-8.998,0.002c-0.829,0-1.501-0.673-1.501-1.502
	c0-0.828,0.672-1.5,1.501-1.5h8.997c0.829,0,1.501-0.675,1.501-1.503c0-0.819-0.662-1.486-1.481-1.497c0,0-7.81-0.001-6.019-0.001
	c-1.791,0-3.324-1.054-4.049-2.568C82.17,24.843,82,24.192,82,23.498c0-0.52,0.105-1.01,0.267-1.474
	c0.612-1.754,2.261-3.021,4.223-3.025c0.003,0,0.006-0.001,0.01-0.001s0.006,0.001,0.01,0.001h7.989c0.829,0,1.501,0.672,1.501,1.5
	c0,0.822-0.662,1.489-1.481,1.5c-0.007,0-0.013,0.002-0.02,0.002h-8.017c-0.82,0.011-1.481,0.677-1.481,1.498
	c0,0.822,0.662,1.489,1.481,1.5H92.5c0.007,0,0.013,0.002,0.02,0.002c1.863,0.008,3.458,1.148,4.134,2.769
	C96.875,28.303,97,28.886,97,29.499z M132,32.499c0-0.828-0.672-1.5-1.5-1.5c-0.829,0-1.5,0.672-1.5,1.5s0.671,1.5,1.5,1.5
	C131.328,33.999,132,33.327,132,32.499 M147.499,19.001c-0.829,0-1.501,0.672-1.501,1.501v0.01v5.974V26.5
	c0,0.004-0.001,0.007-0.001,0.011c-0.003,1.152-0.452,2.193-1.169,2.988c-0.824,0.914-2.003,1.5-3.328,1.5s-2.504-0.586-3.328-1.5
	c-0.717-0.795-1.166-1.836-1.169-2.988c0-0.004-0.001-0.007-0.001-0.011v-0.015v-5.974v-0.01c0-0.829-0.673-1.501-1.501-1.501
	c-0.829,0-1.501,0.672-1.501,1.501V26.5c0,1.034,0.21,2.02,0.59,2.917c0.012,0.028,0.028,0.056,0.04,0.083
	c0.13,0.298,0.28,0.585,0.447,0.859c0.5,0.826,1.155,1.549,1.925,2.127c0,0.002,0,0.002,0,0.002C138.257,33.434,139.813,34,141.5,34
	l0,0l0,0c1.688,0,3.243-0.566,4.497-1.512c0,0,0,0,0-0.002c1.026-0.771,1.851-1.797,2.372-2.986c0.012-0.027,0.027-0.055,0.04-0.083
	c0.38-0.897,0.59-1.883,0.59-2.917v-5.998C149,19.673,148.328,19.001,147.499,19.001z M115,26.5c0,4.136-3.364,7.501-7.5,7.501
	c-0.013,0-0.025-0.004-0.038-0.004c-1.674-0.008-3.214-0.572-4.46-1.511C101.183,31.117,100,28.947,100,26.5
	c0-0.001,0-0.001,0-0.001c0-4.136,3.364-7.501,7.5-7.501c0.013,0,0.025,0.004,0.038,0.004c1.674,0.008,3.214,0.572,4.46,1.51
	C113.816,21.882,115,24.053,115,26.5z M107.5,30.999c2.482,0,4.5-2.021,4.5-4.5v-0.014c-0.008-2.474-2.023-4.486-4.5-4.486
	c-2.482,0-4.5,2.021-4.5,4.501v0.014C103.008,28.986,105.023,30.999,107.5,30.999z M125.5,31c-2.48,0-4.499-2.02-4.499-4.499
	c0-0.005,0.001-0.01,0.001-0.015V14.502c0-0.829-0.673-1.501-1.501-1.501c-0.829,0-1.501,0.672-1.501,1.501V26.5
	c0,0.001,0,0.001,0,0.001c0,4.136,3.363,7.501,7.5,7.501c0.014,0,0.025-0.004,0.038-0.004c0.812-0.021,1.463-0.682,1.463-1.498
	C127.001,31.673,126.329,31,125.5,31z M48.499,33.997c0.829,0,1.501-0.672,1.501-1.501v-5.998c0-4.136-3.364-7.5-7.5-7.5
	s-7.5,3.364-7.5,7.5c0,4.136,3.364,7.501,7.5,7.501c0.829,0,1.501-0.672,1.501-1.502c0-0.827-0.672-1.5-1.501-1.5
	c-2.48,0-4.499-2.019-4.499-4.499c0-2.48,2.019-4.499,4.499-4.499c2.481,0,4.498,2.019,4.498,4.499v5.998
	C46.998,33.325,47.67,33.997,48.499,33.997 M77.499,33.997c0.829,0,1.501-0.672,1.501-1.501v-5.998c0-4.136-3.364-7.5-7.5-7.5
	s-7.5,3.364-7.5,7.5c0,4.136,3.364,7.501,7.5,7.501c0.829,0,1.501-0.672,1.501-1.502c0-0.827-0.672-1.5-1.501-1.5
	c-2.48,0-4.499-2.019-4.499-4.499c0-2.48,2.019-4.499,4.499-4.499c2.481,0,4.498,2.019,4.498,4.499v5.998
	C75.998,33.325,76.67,33.997,77.499,33.997 M165.499,33.997c0.829,0,1.501-0.672,1.501-1.501v-5.998c0-4.136-3.363-7.5-7.5-7.5
	s-7.5,3.364-7.5,7.5c0,4.136,3.363,7.501,7.5,7.501c0.829,0,1.501-0.672,1.501-1.502c0-0.827-0.672-1.5-1.501-1.5
	c-2.48,0-4.499-2.019-4.499-4.499c0-2.48,2.019-4.499,4.499-4.499s4.498,2.019,4.498,4.499v5.998
	C163.998,33.325,164.67,33.997,165.499,33.997 M60.5,18.998L60.5,18.998c-0.953,0-1.86,0.186-2.699,0.511
	c-0.072,0.027-0.147,0.05-0.218,0.08c-0.057,0.023-0.11,0.055-0.167,0.08C54.816,20.848,53,23.462,53,26.498v0.001v5.997
	c0,0.829,0.672,1.501,1.501,1.501s1.501-0.672,1.501-1.501v-5.998c0-1.24,0.504-2.364,1.318-3.179C58.135,22.505,59.26,22,60.5,22
	c0.002,0,0.003-0.001,0.005-0.001c0.827-0.003,1.496-0.674,1.496-1.499C62.001,19.67,61.329,18.998,60.5,18.998z M18.501,39.999
	c0.829,0,1.501-0.672,1.501-1.501V26.5c0-2.48,2.017-4.499,4.498-4.499c2.48,0,4.499,2.019,4.499,4.499
	c0,2.48-2.019,4.499-4.499,4.499c-0.829,0-1.501,0.673-1.501,1.5c0,0.83,0.672,1.502,1.501,1.502c4.136,0,7.5-3.365,7.5-7.501
	S28.636,19,24.5,19c-4.137,0-7.5,3.364-7.5,7.5v11.998C17,39.327,17.672,39.999,18.501,39.999 M216,49.999h-73.531
	c-0.552,0-1-0.447-1-1c0-0.554,0.448-1,1-1H216c3.309,0,6-2.69,6-6V24.563c0-0.553,0.448-1,1-1s1,0.447,1,1V42
	C224,46.41,220.411,49.999,216,49.999z M40.641,48.999c0-0.554-0.448-1-1-1H9c-3.309,0-6-2.69-6-6v-32c0-3.309,2.691-6,6-6h173.547
	c0.553,0,1-0.447,1-1c0-0.553-0.447-1-1-1H9c-4.411,0-8,3.589-8,8v32c0,4.411,3.589,8,8,8h30.641
	C40.193,49.999,40.641,49.552,40.641,48.999z"/>
<path fill="#FFFFFF" d="M198.5,18.628c-0.127,0-0.254-0.048-0.352-0.145c-0.741-0.731-2.021-1.06-4.149-1.063
	c-2.127,0.003-3.407,0.331-4.147,1.063c-0.197,0.194-0.513,0.192-0.707-0.004c-0.193-0.196-0.191-0.514,0.004-0.707
	c1.207-1.193,3.228-1.349,4.852-1.352c1.625,0.003,3.646,0.158,4.854,1.352c0.195,0.193,0.197,0.511,0.004,0.707
	C198.758,18.578,198.629,18.628,198.5,18.628z M187.096,18.378c0.147-0.233,0.079-0.542-0.154-0.69
	c-0.742-0.474-1.559-0.824-2.42-1.044c-1.006-0.256-2.033-0.318-3.057-0.192c-0.273,0.034-0.468,0.284-0.434,0.558
	c0.033,0.274,0.285,0.474,0.558,0.435c0.897-0.111,1.802-0.055,2.687,0.169c0.76,0.193,1.477,0.503,2.129,0.919
	c0.084,0.053,0.178,0.078,0.27,0.078C186.838,18.609,187,18.527,187.096,18.378z M211.87,18.479
	c0.194-0.196,0.192-0.514-0.004-0.707c-1.208-1.193-3.228-1.349-4.853-1.352c-1.625,0.003-3.645,0.158-4.853,1.352
	c-0.196,0.193-0.198,0.511-0.004,0.707s0.511,0.198,0.708,0.004c0.74-0.731,2.021-1.06,4.146-1.063
	c2.129,0.003,3.408,0.331,4.148,1.063c0.098,0.097,0.225,0.145,0.352,0.145C211.643,18.628,211.771,18.578,211.87,18.479z
	 M214.607,18.531c0.656-0.416,1.373-0.726,2.131-0.919c0.885-0.224,1.789-0.281,2.687-0.169c0.275,0.039,0.524-0.161,0.558-0.435
	c0.035-0.273-0.158-0.523-0.434-0.558c-1.021-0.126-2.049-0.063-3.057,0.192c-0.861,0.22-1.676,0.57-2.42,1.044
	c-0.233,0.148-0.303,0.457-0.154,0.69c0.096,0.149,0.257,0.231,0.422,0.231C214.432,18.609,214.525,18.584,214.607,18.531z
	 M201,29.998V18.999c0-0.276-0.225-0.5-0.5-0.5s-0.5,0.224-0.5,0.5v10.999c0,1.379-1.122,2.501-2.5,2.501s-2.5-1.122-2.5-2.501
	c0-0.275-0.225-0.5-0.5-0.5s-0.5,0.225-0.5,0.5c0,1.932,1.57,3.501,3.5,3.501S201,31.93,201,29.998z M222.23,16.214
	c0.229-0.156,0.285-0.468,0.129-0.695c-4.95-7.213-13.123-11.52-21.859-11.52s-16.909,4.307-21.859,11.52
	c-0.156,0.228-0.1,0.539,0.129,0.695c0.229,0.157,0.539,0.099,0.694-0.129c4.765-6.941,12.629-11.086,21.036-11.086
	s16.271,4.145,21.036,11.086c0.097,0.141,0.253,0.217,0.413,0.217C222.046,16.302,222.145,16.273,222.23,16.214z M200.5,0.499
	c-0.552,0-1,0.447-1,1c0,0.553,0.448,1,1,1s1-0.447,1-1C201.5,0.946,201.052,0.499,200.5,0.499z M47.494,47.958
	c0.151,0,0.278,0.05,0.378,0.149c0.099,0.101,0.149,0.226,0.149,0.377c0,0.147-0.056,0.279-0.167,0.392
	c-0.524,0.46-1.141,0.688-1.851,0.688c-0.784,0-1.454-0.276-2.008-0.83c-0.555-0.555-0.832-1.227-0.832-2.01
	s0.277-1.453,0.832-2.009c0.554-0.556,1.224-0.832,2.008-0.832c0.714,0,1.33,0.229,1.851,0.689c0.122,0.106,0.183,0.239,0.183,0.399
	c0,0.151-0.05,0.279-0.149,0.381c-0.1,0.103-0.226,0.15-0.378,0.15c-0.128,0-0.243-0.04-0.344-0.121
	c-0.173-0.146-0.354-0.255-0.543-0.33c-0.189-0.074-0.395-0.111-0.619-0.111c-0.247,0-0.479,0.049-0.695,0.141
	c-0.216,0.095-0.406,0.223-0.568,0.382c-0.162,0.16-0.29,0.351-0.383,0.563c-0.093,0.218-0.139,0.449-0.139,0.695
	s0.046,0.479,0.139,0.694c0.093,0.216,0.221,0.403,0.383,0.565c0.162,0.16,0.352,0.287,0.568,0.379
	c0.216,0.094,0.448,0.142,0.695,0.142c0.224,0,0.43-0.037,0.619-0.11c0.189-0.069,0.368-0.182,0.538-0.326
	C47.254,47.999,47.365,47.962,47.494,47.958 M57.22,46.146c0-0.309-0.06-0.601-0.18-0.875c-0.121-0.274-0.283-0.517-0.487-0.721
	c-0.205-0.203-0.445-0.365-0.72-0.484c-0.275-0.121-0.567-0.183-0.874-0.183c-0.684,0-1.26,0.271-1.73,0.808
	c-0.224-0.271-0.483-0.475-0.781-0.605c-0.298-0.134-0.616-0.2-0.954-0.2c-0.46,0-0.87,0.12-1.232,0.36
	c-0.034-0.107-0.096-0.196-0.188-0.262c-0.091-0.065-0.196-0.101-0.314-0.101c-0.146,0-0.27,0.054-0.373,0.154
	c-0.103,0.104-0.154,0.229-0.154,0.373v4.62c0,0.146,0.051,0.273,0.154,0.378c0.104,0.104,0.229,0.153,0.378,0.153
	c0.146,0,0.27-0.053,0.372-0.153c0.104-0.104,0.156-0.229,0.156-0.378v-2.887c0-0.166,0.031-0.319,0.094-0.467
	c0.062-0.146,0.149-0.271,0.258-0.384c0.11-0.108,0.237-0.194,0.383-0.259c0.146-0.063,0.301-0.094,0.467-0.094
	c0.165,0,0.32,0.031,0.466,0.097c0.145,0.063,0.272,0.149,0.381,0.259c0.108,0.108,0.194,0.234,0.259,0.381
	c0.063,0.146,0.096,0.301,0.096,0.467v2.887c0,0.146,0.052,0.273,0.155,0.378s0.229,0.153,0.377,0.153
	c0.146,0,0.27-0.053,0.373-0.153c0.104-0.104,0.155-0.229,0.155-0.378v-2.887c0-0.166,0.031-0.319,0.093-0.467
	c0.063-0.146,0.149-0.271,0.258-0.381c0.11-0.107,0.237-0.193,0.383-0.259c0.146-0.063,0.301-0.097,0.468-0.097
	s0.327,0.031,0.474,0.097c0.147,0.063,0.275,0.151,0.383,0.261c0.107,0.11,0.193,0.237,0.256,0.383
	c0.062,0.146,0.093,0.299,0.093,0.463v2.887c0,0.146,0.052,0.273,0.152,0.378c0.102,0.104,0.227,0.153,0.376,0.153
	c0.146,0,0.27-0.053,0.373-0.153c0.104-0.104,0.155-0.229,0.155-0.378L57.22,46.146L57.22,46.146z M61.396,49.564
	c0.389,0,0.751-0.067,1.083-0.205c0.333-0.137,0.641-0.346,0.925-0.625c0.555-0.549,0.832-1.219,0.832-2.01
	c0-0.393-0.07-0.758-0.208-1.094c-0.139-0.336-0.347-0.642-0.625-0.916c-0.561-0.554-1.231-0.832-2.009-0.832
	c-0.783,0-1.453,0.278-2.007,0.832c-0.556,0.557-0.832,1.227-0.832,2.01v4.748c0,0.15,0.05,0.276,0.149,0.377
	C58.805,51.95,58.932,52,59.083,52c0.149,0,0.275-0.05,0.378-0.148c0.103-0.101,0.154-0.227,0.154-0.379v-2.529
	C60.124,49.357,60.717,49.564,61.396,49.564 M59.616,46.727c0-0.244,0.046-0.474,0.139-0.688c0.094-0.218,0.219-0.404,0.378-0.563
	c0.159-0.162,0.347-0.289,0.563-0.385c0.216-0.095,0.449-0.142,0.699-0.142c0.248,0,0.479,0.047,0.696,0.142
	c0.216,0.096,0.404,0.225,0.565,0.387c0.161,0.162,0.287,0.351,0.379,0.564c0.094,0.214,0.141,0.441,0.141,0.688
	c0,0.244-0.047,0.474-0.141,0.688c-0.093,0.215-0.219,0.4-0.379,0.564c-0.162,0.162-0.349,0.289-0.565,0.386
	c-0.217,0.096-0.448,0.143-0.696,0.143c-0.25,0-0.483-0.047-0.699-0.143c-0.217-0.097-0.405-0.224-0.563-0.384
	c-0.159-0.159-0.284-0.35-0.378-0.563C59.662,47.199,59.616,46.969,59.616,46.727 M69.861,49.038c0,0.146,0.053,0.271,0.156,0.373
	s0.228,0.153,0.376,0.153c0.146,0,0.27-0.051,0.374-0.153c0.103-0.103,0.155-0.228,0.155-0.373v-2.313
	c0-0.783-0.277-1.453-0.832-2.008c-0.562-0.556-1.231-0.832-2.009-0.832c-0.785,0-1.454,0.276-2.009,0.832
	c-0.554,0.555-0.832,1.225-0.832,2.008c0,0.784,0.278,1.455,0.832,2.01c0.555,0.555,1.224,0.83,2.009,0.83
	c0.338,0,0.656-0.054,0.954-0.159c0.297-0.109,0.572-0.267,0.825-0.47L69.861,49.038 M68.082,44.945
	c0.248,0,0.479,0.048,0.695,0.142c0.215,0.097,0.405,0.224,0.565,0.386c0.16,0.163,0.288,0.354,0.38,0.565
	c0.093,0.215,0.138,0.442,0.138,0.688c0,0.241-0.045,0.473-0.138,0.687c-0.093,0.216-0.221,0.403-0.38,0.565
	c-0.161,0.162-0.35,0.291-0.565,0.385c-0.217,0.097-0.448,0.145-0.695,0.145c-0.251,0-0.483-0.048-0.7-0.145
	c-0.215-0.094-0.403-0.221-0.563-0.381c-0.159-0.162-0.284-0.352-0.377-0.565c-0.093-0.218-0.139-0.446-0.139-0.69
	s0.046-0.473,0.139-0.688c0.093-0.219,0.219-0.405,0.377-0.564c0.16-0.16,0.348-0.287,0.563-0.385
	C67.599,44.993,67.831,44.945,68.082,44.945 M72.029,48.708c-0.071,0.089-0.105,0.199-0.105,0.33c0,0.071,0.013,0.14,0.04,0.203
	c0.026,0.063,0.064,0.12,0.111,0.17c0.047,0.049,0.104,0.087,0.167,0.114c0.064,0.025,0.134,0.041,0.208,0.041
	c0.149,0,0.273-0.057,0.376-0.164l1.552-1.855l1.541,1.855c0.108,0.107,0.234,0.164,0.38,0.164c0.075,0,0.145-0.016,0.208-0.041
	c0.064-0.027,0.12-0.065,0.168-0.114c0.047-0.05,0.085-0.104,0.115-0.17c0.028-0.063,0.042-0.132,0.042-0.203
	c0-0.136-0.037-0.245-0.111-0.33l-1.658-1.987l1.644-1.957c0.084-0.104,0.126-0.222,0.126-0.351c0-0.07-0.014-0.14-0.042-0.203
	c-0.03-0.063-0.068-0.121-0.115-0.17c-0.048-0.049-0.104-0.087-0.168-0.113c-0.063-0.026-0.133-0.041-0.208-0.041
	c-0.158,0-0.288,0.058-0.39,0.173l-1.531,1.832l-1.532-1.832c-0.104-0.115-0.236-0.173-0.396-0.173
	c-0.074,0-0.144,0.015-0.208,0.041c-0.063,0.026-0.12,0.064-0.167,0.113c-0.047,0.049-0.085,0.104-0.111,0.17
	c-0.027,0.063-0.04,0.133-0.04,0.203c0,0.144,0.04,0.259,0.121,0.351l1.644,1.957L72.029,48.708z M83.288,46.727
	c-0.003-0.394-0.073-0.756-0.21-1.091c-0.138-0.335-0.346-0.642-0.621-0.918c-0.563-0.556-1.231-0.832-2.009-0.832
	c-0.785,0-1.454,0.276-2.009,0.832c-0.554,0.556-0.832,1.226-0.832,2.009s0.278,1.453,0.832,2.008
	c0.555,0.556,1.224,0.832,2.009,0.832c0.777,0,1.446-0.276,2.009-0.832C83.011,48.186,83.288,47.518,83.288,46.727 M80.448,44.945
	c0.247,0,0.479,0.048,0.695,0.142c0.215,0.097,0.404,0.224,0.565,0.386c0.159,0.163,0.287,0.354,0.38,0.565
	c0.093,0.215,0.139,0.442,0.139,0.688c0,0.241-0.046,0.473-0.139,0.687c-0.093,0.216-0.221,0.403-0.38,0.565
	c-0.161,0.162-0.351,0.291-0.565,0.385c-0.217,0.097-0.448,0.145-0.695,0.145c-0.251,0-0.484-0.048-0.701-0.145
	c-0.215-0.094-0.402-0.221-0.563-0.381c-0.158-0.162-0.284-0.352-0.377-0.565c-0.093-0.218-0.14-0.446-0.14-0.69
	s0.047-0.473,0.14-0.688c0.093-0.216,0.219-0.405,0.377-0.564c0.16-0.16,0.348-0.287,0.563-0.385
	C79.964,44.993,80.197,44.945,80.448,44.945 M84.98,43.886c-0.074,0-0.145,0.015-0.207,0.041c-0.064,0.026-0.12,0.064-0.168,0.114
	c-0.048,0.049-0.085,0.105-0.112,0.169c-0.026,0.063-0.041,0.133-0.041,0.203v4.625c0,0.071,0.015,0.139,0.041,0.203
	c0.027,0.063,0.064,0.12,0.112,0.17c0.048,0.049,0.104,0.087,0.168,0.114c0.063,0.025,0.133,0.039,0.207,0.039h2.313
	c0.232,0,0.452-0.043,0.656-0.133c0.204-0.092,0.383-0.212,0.535-0.363c0.151-0.152,0.271-0.33,0.359-0.535
	c0.089-0.204,0.133-0.422,0.133-0.651c0-0.146-0.015-0.278-0.044-0.397c-0.028-0.119-0.071-0.232-0.126-0.342
	c-0.056-0.107-0.127-0.213-0.212-0.313c-0.084-0.103-0.183-0.202-0.293-0.306c0.192-0.271,0.288-0.592,0.288-0.955
	c0-0.229-0.044-0.444-0.134-0.649c-0.089-0.204-0.21-0.383-0.362-0.534c-0.153-0.15-0.331-0.271-0.535-0.361
	s-0.423-0.135-0.652-0.135L84.98,43.886L84.98,43.886z M85.509,46.198v-1.253h1.398c0.085,0,0.165,0.017,0.241,0.052
	c0.076,0.032,0.143,0.078,0.198,0.134c0.055,0.057,0.101,0.122,0.134,0.198c0.034,0.075,0.052,0.155,0.052,0.239
	c0,0.092-0.018,0.177-0.052,0.252c-0.033,0.076-0.08,0.142-0.138,0.197c-0.057,0.057-0.124,0.101-0.199,0.133
	c-0.076,0.031-0.154,0.048-0.236,0.048H85.509z M85.509,48.506v-1.253h1.785c0.08,0,0.159,0.017,0.235,0.048
	c0.076,0.032,0.142,0.076,0.199,0.133c0.058,0.058,0.104,0.123,0.138,0.2c0.034,0.078,0.051,0.16,0.051,0.248
	c0,0.089-0.017,0.169-0.051,0.243c-0.034,0.074-0.079,0.141-0.135,0.198c-0.055,0.058-0.122,0.103-0.197,0.135
	c-0.076,0.032-0.156,0.048-0.24,0.048H85.509z M94.779,49.564c0.148,0,0.274-0.051,0.377-0.153c0.104-0.103,0.155-0.228,0.155-0.373
	v-4.625c0-0.146-0.052-0.271-0.155-0.373c-0.103-0.103-0.227-0.155-0.372-0.155c-0.148,0-0.274,0.053-0.378,0.155
	c-0.103,0.104-0.154,0.228-0.154,0.373v2.505c0,0.221-0.042,0.426-0.125,0.616c-0.082,0.19-0.197,0.358-0.342,0.505
	c-0.146,0.146-0.314,0.259-0.508,0.343c-0.192,0.082-0.397,0.125-0.613,0.125c-0.221,0-0.426-0.043-0.618-0.125
	c-0.193-0.084-0.361-0.196-0.505-0.34c-0.145-0.144-0.257-0.313-0.34-0.505c-0.083-0.193-0.124-0.398-0.124-0.619v-2.505
	c0-0.146-0.052-0.271-0.155-0.373s-0.228-0.155-0.373-0.155c-0.148,0-0.274,0.053-0.377,0.155c-0.104,0.104-0.155,0.228-0.155,0.373
	v2.505c0,0.361,0.07,0.704,0.211,1.023c0.14,0.322,0.33,0.604,0.57,0.844c0.239,0.238,0.521,0.43,0.841,0.57
	c0.321,0.14,0.663,0.209,1.025,0.209c0.305,0,0.586-0.041,0.848-0.123c0.26-0.084,0.507-0.217,0.74-0.397
	c0.003,0.146,0.054,0.269,0.152,0.369C94.501,49.516,94.627,49.564,94.779,49.564 M101.376,49.564c0.148,0,0.274-0.051,0.377-0.153
	c0.104-0.104,0.156-0.228,0.156-0.373v-4.625c0-0.146-0.052-0.271-0.156-0.372c-0.103-0.104-0.227-0.155-0.372-0.155
	c-0.148,0-0.274,0.052-0.378,0.155c-0.103,0.104-0.154,0.227-0.154,0.372v2.505c0,0.221-0.041,0.426-0.125,0.616
	c-0.082,0.19-0.196,0.358-0.342,0.505s-0.314,0.26-0.508,0.343c-0.192,0.082-0.396,0.124-0.613,0.124
	c-0.221,0-0.426-0.042-0.618-0.124c-0.193-0.083-0.361-0.196-0.505-0.34c-0.145-0.144-0.258-0.313-0.34-0.505
	c-0.083-0.191-0.125-0.398-0.125-0.619v-2.505c0-0.146-0.051-0.271-0.154-0.372c-0.103-0.104-0.228-0.155-0.372-0.155
	c-0.149,0-0.275,0.052-0.378,0.155c-0.104,0.104-0.155,0.227-0.155,0.372v2.505c0,0.361,0.07,0.704,0.211,1.025
	c0.14,0.32,0.33,0.602,0.57,0.841c0.24,0.239,0.521,0.431,0.841,0.571c0.322,0.141,0.664,0.209,1.025,0.209
	c0.305,0,0.586-0.041,0.848-0.123c0.26-0.084,0.507-0.215,0.74-0.397c0.003,0.146,0.054,0.269,0.152,0.369
	C101.098,49.516,101.224,49.564,101.376,49.564 M99.261,43.282c0.233,0,0.452-0.033,0.657-0.099
	c0.204-0.066,0.383-0.158,0.535-0.274c0.152-0.116,0.272-0.255,0.362-0.414c0.09-0.157,0.134-0.329,0.134-0.511
	c0-0.148-0.049-0.274-0.149-0.379c-0.1-0.104-0.226-0.154-0.377-0.154c-0.152,0-0.279,0.051-0.381,0.15
	c-0.075,0.08-0.122,0.17-0.143,0.273c-0.007,0.098-0.068,0.174-0.187,0.238c-0.125,0.07-0.276,0.105-0.452,0.105
	c-0.176,0-0.326-0.035-0.451-0.105c-0.118-0.064-0.184-0.145-0.192-0.238c-0.018-0.104-0.063-0.193-0.137-0.273
	c-0.103-0.102-0.229-0.15-0.381-0.15c-0.152,0-0.279,0.053-0.378,0.154c-0.1,0.104-0.149,0.229-0.149,0.379
	c0,0.182,0.045,0.354,0.135,0.511c0.089,0.159,0.21,0.298,0.362,0.414c0.152,0.116,0.331,0.208,0.535,0.274
	C98.809,43.249,99.027,43.282,99.261,43.282 M110.281,47.958c-0.129,0.004-0.24,0.041-0.335,0.11
	c-0.169,0.146-0.348,0.257-0.538,0.328c-0.188,0.071-0.395,0.108-0.618,0.108c-0.247,0-0.479-0.048-0.695-0.141
	c-0.216-0.095-0.405-0.22-0.567-0.382c-0.162-0.159-0.29-0.35-0.384-0.563c-0.093-0.218-0.139-0.446-0.139-0.694
	c0-0.246,0.046-0.479,0.139-0.693c0.094-0.217,0.222-0.405,0.384-0.565c0.162-0.161,0.352-0.286,0.567-0.382
	c0.217-0.092,0.448-0.139,0.695-0.139c0.224,0,0.43,0.037,0.618,0.111c0.19,0.073,0.371,0.185,0.543,0.329
	c0.102,0.08,0.217,0.12,0.345,0.12c0.152,0,0.278-0.05,0.379-0.15c0.099-0.102,0.149-0.229,0.149-0.381
	c0-0.158-0.062-0.291-0.183-0.399c-0.521-0.46-1.138-0.689-1.852-0.689c-0.785,0-1.454,0.276-2.009,0.832
	c-0.554,0.556-0.832,1.226-0.832,2.009s0.278,1.453,0.832,2.008c0.555,0.556,1.224,0.832,2.009,0.832
	c0.709,0,1.327-0.229,1.852-0.688c0.11-0.11,0.166-0.242,0.166-0.392c0-0.151-0.049-0.276-0.149-0.379
	C110.559,48.008,110.434,47.958,110.281,47.958 M116.039,47.969c-0.132,0.004-0.248,0.047-0.352,0.131
	c-0.158,0.137-0.33,0.237-0.518,0.306c-0.187,0.067-0.391,0.104-0.615,0.104c-0.194,0-0.384-0.03-0.565-0.092
	c-0.18-0.062-0.345-0.146-0.496-0.257c-0.15-0.11-0.281-0.241-0.393-0.396c-0.112-0.154-0.196-0.324-0.254-0.511h4.016
	c0.148,0,0.275-0.05,0.378-0.149c0.104-0.1,0.155-0.227,0.155-0.377c0-0.394-0.069-0.756-0.209-1.094
	c-0.139-0.337-0.347-0.643-0.623-0.915c-0.563-0.556-1.23-0.831-2.009-0.831c-0.783,0-1.453,0.275-2.007,0.831
	c-0.555,0.556-0.832,1.226-0.832,2.009s0.277,1.453,0.832,2.008c0.554,0.556,1.224,0.832,2.007,0.832
	c0.712,0,1.333-0.229,1.857-0.688c0.104-0.104,0.15-0.229,0.15-0.38c0-0.153-0.049-0.279-0.147-0.378
	C116.316,48.02,116.191,47.969,116.039,47.969 M112.849,46.198c0.055-0.188,0.137-0.355,0.248-0.511
	c0.112-0.153,0.244-0.285,0.396-0.396c0.151-0.107,0.318-0.193,0.501-0.256c0.184-0.063,0.371-0.094,0.563-0.094
	c0.194,0,0.381,0.031,0.562,0.094c0.181,0.063,0.347,0.146,0.497,0.256c0.149,0.109,0.28,0.241,0.396,0.396
	c0.113,0.153,0.198,0.323,0.258,0.511H112.849z M121.27,49.564c0.392,0,0.752-0.067,1.084-0.205
	c0.334-0.137,0.644-0.346,0.926-0.625c0.556-0.549,0.832-1.219,0.832-2.01c0-0.393-0.068-0.758-0.209-1.094
	c-0.137-0.336-0.346-0.642-0.623-0.916c-0.562-0.554-1.229-0.832-2.01-0.832c-0.783,0-1.453,0.278-2.006,0.832
	c-0.557,0.557-0.832,1.227-0.832,2.01v4.748c0,0.15,0.051,0.276,0.148,0.377c0.1,0.101,0.227,0.148,0.378,0.148
	c0.149,0,0.274-0.05,0.377-0.148c0.104-0.101,0.156-0.227,0.156-0.377v-2.531C119.998,49.357,120.591,49.564,121.27,49.564
	 M119.491,46.727c0-0.244,0.045-0.474,0.139-0.688c0.093-0.218,0.22-0.404,0.378-0.563c0.158-0.162,0.348-0.289,0.563-0.385
	c0.218-0.095,0.449-0.142,0.699-0.142c0.248,0,0.479,0.047,0.695,0.142c0.217,0.096,0.404,0.225,0.564,0.387
	s0.287,0.351,0.381,0.564s0.14,0.441,0.14,0.688c0,0.244-0.046,0.474-0.14,0.688s-0.221,0.4-0.381,0.564
	c-0.16,0.162-0.35,0.289-0.564,0.386c-0.217,0.096-0.447,0.143-0.695,0.143c-0.25,0-0.481-0.047-0.699-0.143
	c-0.217-0.097-0.403-0.224-0.563-0.384c-0.158-0.159-0.285-0.35-0.378-0.563C119.536,47.199,119.491,46.969,119.491,46.727
	 M125.805,43.886c-0.074,0-0.146,0.015-0.209,0.041c-0.063,0.026-0.119,0.064-0.168,0.114c-0.047,0.049-0.084,0.105-0.111,0.169
	c-0.024,0.063-0.041,0.133-0.041,0.203v4.625c0,0.071,0.017,0.139,0.041,0.203c0.027,0.063,0.064,0.12,0.111,0.17
	c0.049,0.049,0.104,0.087,0.168,0.114c0.063,0.025,0.135,0.039,0.209,0.039h2.313c0.231,0,0.45-0.043,0.655-0.133
	c0.205-0.092,0.384-0.212,0.535-0.363c0.151-0.152,0.271-0.33,0.359-0.535c0.088-0.204,0.132-0.422,0.132-0.651
	c0-0.146-0.015-0.278-0.043-0.397s-0.071-0.232-0.128-0.342c-0.055-0.107-0.126-0.213-0.211-0.313
	c-0.084-0.103-0.182-0.202-0.293-0.306c0.191-0.271,0.288-0.592,0.288-0.955c0-0.229-0.044-0.444-0.134-0.649
	c-0.09-0.204-0.211-0.383-0.362-0.534c-0.153-0.15-0.331-0.271-0.534-0.361c-0.205-0.09-0.423-0.135-0.652-0.135L125.805,43.886
	L125.805,43.886z M126.331,46.198v-1.253h1.399c0.084,0,0.164,0.017,0.24,0.052c0.074,0.032,0.143,0.078,0.196,0.134
	c0.056,0.057,0.103,0.122,0.135,0.198c0.033,0.075,0.052,0.155,0.052,0.239c0,0.092-0.019,0.177-0.052,0.252
	c-0.032,0.076-0.079,0.142-0.138,0.197c-0.059,0.057-0.125,0.101-0.199,0.133c-0.074,0.031-0.154,0.048-0.234,0.048H126.331z
	 M126.331,48.506v-1.253h1.785c0.079,0,0.159,0.017,0.235,0.048c0.074,0.032,0.142,0.076,0.198,0.133
	c0.058,0.058,0.104,0.123,0.14,0.2c0.033,0.078,0.049,0.16,0.049,0.248c0,0.089-0.016,0.169-0.049,0.243
	c-0.035,0.074-0.08,0.141-0.137,0.198c-0.056,0.058-0.121,0.103-0.197,0.135s-0.154,0.048-0.239,0.048H126.331z M132.275,42.876
	c0-0.172-0.063-0.319-0.185-0.44c-0.12-0.121-0.269-0.184-0.44-0.184s-0.317,0.063-0.44,0.184c-0.122,0.121-0.183,0.271-0.183,0.44
	c0,0.173,0.061,0.319,0.183,0.442c0.123,0.121,0.271,0.183,0.44,0.183c0.174,0,0.32-0.062,0.44-0.183
	C132.214,43.195,132.275,43.049,132.275,42.876 M131.124,49.033c0,0.148,0.052,0.273,0.155,0.378
	c0.103,0.103,0.228,0.153,0.371,0.153c0.146,0,0.271-0.051,0.373-0.153c0.104-0.104,0.158-0.229,0.16-0.378v-4.615
	c-0.002-0.148-0.058-0.273-0.16-0.378c-0.104-0.103-0.229-0.154-0.373-0.154c-0.146,0-0.271,0.052-0.371,0.154
	c-0.104,0.104-0.155,0.229-0.155,0.378V49.033 M137.781,47.958c-0.129,0.004-0.24,0.041-0.336,0.11
	c-0.168,0.146-0.348,0.257-0.537,0.328c-0.188,0.071-0.395,0.108-0.618,0.108c-0.248,0-0.479-0.048-0.694-0.141
	c-0.217-0.095-0.406-0.22-0.568-0.382c-0.16-0.159-0.288-0.35-0.383-0.563c-0.094-0.218-0.14-0.446-0.14-0.694
	c0-0.246,0.046-0.479,0.14-0.693c0.095-0.217,0.223-0.405,0.383-0.565c0.162-0.161,0.354-0.286,0.568-0.382
	c0.217-0.092,0.446-0.139,0.694-0.139c0.224,0,0.431,0.037,0.618,0.111c0.189,0.073,0.369,0.185,0.543,0.329
	c0.102,0.08,0.217,0.12,0.345,0.12c0.151,0,0.278-0.05,0.378-0.15c0.1-0.102,0.149-0.229,0.149-0.381
	c0-0.158-0.062-0.291-0.183-0.399c-0.521-0.46-1.14-0.689-1.853-0.689c-0.785,0-1.454,0.276-2.011,0.832
	c-0.553,0.556-0.83,1.226-0.83,2.009s0.277,1.453,0.83,2.008c0.557,0.556,1.226,0.832,2.011,0.832c0.709,0,1.327-0.229,1.853-0.688
	c0.109-0.11,0.166-0.242,0.166-0.392c0-0.151-0.05-0.276-0.148-0.379C138.059,48.008,137.934,47.958,137.781,47.958 M96,28.499
	c0,0.567-0.116,1.104-0.308,1.604c-0.648,1.688-2.274,2.896-4.192,2.896l-8.998,0.002c-0.829,0-1.501-0.673-1.501-1.502
	c0-0.828,0.672-1.5,1.501-1.5h8.997c0.829,0,1.501-0.675,1.501-1.503c0-0.819-0.662-1.486-1.481-1.497c0,0-7.81-0.001-6.019-0.001
	c-1.791,0-3.324-1.054-4.049-2.568C81.17,23.843,81,23.192,81,22.498c0-0.52,0.105-1.01,0.267-1.474
	c0.612-1.754,2.261-3.021,4.223-3.025c0.003,0,0.006-0.001,0.01-0.001s0.006,0.001,0.01,0.001h7.989c0.829,0,1.501,0.672,1.501,1.5
	c0,0.822-0.662,1.489-1.481,1.5c-0.007,0-0.013,0.002-0.02,0.002h-8.017c-0.82,0.011-1.481,0.677-1.481,1.498
	c0,0.822,0.662,1.489,1.481,1.5H91.5c0.007,0,0.013,0.002,0.02,0.002c1.863,0.008,3.458,1.148,4.134,2.769
	C95.875,27.303,96,27.886,96,28.499z M131,31.499c0-0.828-0.672-1.5-1.5-1.5c-0.829,0-1.5,0.672-1.5,1.5s0.671,1.5,1.5,1.5
	C130.328,32.999,131,32.327,131,31.499 M146.499,18.001c-0.829,0-1.501,0.672-1.501,1.501v0.01v5.974V25.5
	c0,0.004-0.001,0.007-0.001,0.011c-0.003,1.152-0.452,2.193-1.169,2.988c-0.824,0.914-2.003,1.5-3.328,1.5s-2.504-0.586-3.328-1.5
	c-0.717-0.795-1.166-1.836-1.169-2.988c0-0.004-0.001-0.007-0.001-0.011v-0.015v-5.974v-0.01c0-0.829-0.673-1.501-1.501-1.501
	c-0.829,0-1.501,0.672-1.501,1.501V25.5c0,1.034,0.21,2.02,0.59,2.917c0.012,0.028,0.028,0.055,0.04,0.083
	c0.13,0.298,0.28,0.585,0.447,0.859c0.5,0.826,1.155,1.549,1.925,2.127c0,0.002,0,0.002,0,0.002C137.257,32.434,138.813,33,140.5,33
	l0,0l0,0c1.688,0,3.243-0.566,4.497-1.512c0,0,0,0,0-0.002c1.026-0.771,1.851-1.797,2.372-2.986c0.012-0.028,0.027-0.055,0.04-0.083
	c0.38-0.897,0.59-1.883,0.59-2.917v-5.998C148,18.673,147.328,18.001,146.499,18.001z M114,25.5c0,4.136-3.364,7.501-7.5,7.501
	c-0.013,0-0.025-0.004-0.038-0.004c-1.674-0.008-3.214-0.572-4.46-1.511C100.184,30.117,99,27.947,99,25.5c0-0.001,0-0.001,0-0.001
	c0-4.136,3.364-7.501,7.5-7.501c0.013,0,0.025,0.004,0.038,0.004c1.674,0.008,3.214,0.572,4.46,1.51
	C112.816,20.882,114,23.053,114,25.5z M106.5,29.999c2.482,0,4.5-2.02,4.5-4.5v-0.014c-0.008-2.474-2.023-4.486-4.5-4.486
	c-2.482,0-4.5,2.021-4.5,4.501v0.014C102.008,27.987,104.023,29.999,106.5,29.999z M124.5,30c-2.48,0-4.499-2.019-4.499-4.499
	c0-0.005,0.001-0.01,0.001-0.015V13.502c0-0.829-0.673-1.501-1.501-1.501c-0.829,0-1.501,0.672-1.501,1.501V25.5
	c0,0.001,0,0.001,0,0.001c0,4.136,3.363,7.501,7.5,7.501c0.014,0,0.025-0.004,0.038-0.004c0.812-0.021,1.463-0.682,1.463-1.498
	C126.001,30.673,125.329,30,124.5,30z M47.499,32.997c0.829,0,1.501-0.672,1.501-1.501v-5.998c0-4.136-3.364-7.5-7.5-7.5
	s-7.5,3.364-7.5,7.5c0,4.136,3.364,7.501,7.5,7.501c0.829,0,1.501-0.672,1.501-1.502c0-0.827-0.672-1.5-1.501-1.5
	c-2.48,0-4.499-2.019-4.499-4.499s2.019-4.499,4.499-4.499c2.481,0,4.498,2.019,4.498,4.499v5.998
	C45.998,32.325,46.67,32.997,47.499,32.997 M76.499,32.997c0.829,0,1.501-0.672,1.501-1.501v-5.998c0-4.136-3.364-7.5-7.5-7.5
	s-7.5,3.364-7.5,7.5c0,4.136,3.364,7.501,7.5,7.501c0.829,0,1.501-0.672,1.501-1.502c0-0.827-0.672-1.5-1.501-1.5
	c-2.48,0-4.499-2.019-4.499-4.499s2.019-4.499,4.499-4.499c2.481,0,4.498,2.019,4.498,4.499v5.998
	C74.998,32.325,75.67,32.997,76.499,32.997 M164.499,32.997c0.829,0,1.501-0.672,1.501-1.501v-5.998c0-4.136-3.363-7.5-7.5-7.5
	s-7.5,3.364-7.5,7.5c0,4.136,3.363,7.501,7.5,7.501c0.829,0,1.501-0.672,1.501-1.502c0-0.827-0.672-1.5-1.501-1.5
	c-2.48,0-4.499-2.019-4.499-4.499s2.019-4.499,4.499-4.499s4.498,2.019,4.498,4.499v5.998
	C162.998,32.325,163.67,32.997,164.499,32.997 M59.5,17.998L59.5,17.998c-0.953,0-1.86,0.186-2.699,0.511
	c-0.072,0.027-0.147,0.05-0.218,0.08c-0.057,0.023-0.11,0.055-0.167,0.08C53.816,19.848,52,22.462,52,25.498v0.001v5.997
	c0,0.829,0.672,1.501,1.501,1.501s1.501-0.672,1.501-1.501v-5.998c0-1.24,0.504-2.364,1.318-3.179C57.135,21.505,58.26,21,59.5,21
	c0.002,0,0.003-0.001,0.005-0.001c0.827-0.003,1.496-0.674,1.496-1.499C61.001,18.67,60.329,17.998,59.5,17.998z M17.501,38.999
	c0.829,0,1.501-0.672,1.501-1.501V25.5c0-2.48,2.017-4.499,4.498-4.499c2.48,0,4.499,2.019,4.499,4.499s-2.019,4.499-4.499,4.499
	c-0.829,0-1.501,0.673-1.501,1.5c0,0.83,0.672,1.502,1.501,1.502c4.136,0,7.5-3.365,7.5-7.501S27.636,18,23.5,18
	c-4.137,0-7.5,3.364-7.5,7.5v11.998C16,38.327,16.672,38.999,17.501,38.999"/>
<path fill="#A3CC39" d="M215,48.999h-73.531c-0.552,0-1-0.447-1-1c0-0.554,0.448-1,1-1H215c3.309,0,6-2.69,6-6V23.563
	c0-0.553,0.448-1,1-1s1,0.447,1,1V41C223,45.41,219.411,48.999,215,48.999z M39.641,47.999c0-0.554-0.448-1-1-1H8
	c-3.309,0-6-2.69-6-6v-32c0-3.309,2.691-6,6-6h173.547c0.553,0,1-0.447,1-1c0-0.553-0.447-1-1-1H8c-4.411,0-8,3.589-8,8v32
	c0,4.411,3.589,8,8,8h30.641C39.193,48.999,39.641,48.552,39.641,47.999z"/>
</svg>
