<svg width="30" height="30" viewBox="0 0 30 30" fill="none" xmlns="http://www.w3.org/2000/svg">
<path d="M24.7565 15.8564C24.5154 15.8564 24.3199 16.0519 24.3199 16.293C24.3199 16.5987 24.0712 16.8474 23.7655 16.8474C23.4599 16.8474 23.2112 16.5987 23.2112 16.293C23.2112 16.0519 23.0157 15.8564 22.7746 15.8564C22.5335 15.8564 22.338 16.0519 22.338 16.293C22.338 17.0802 22.9784 17.7205 23.7655 17.7205C24.5526 17.7205 25.1931 17.0801 25.1931 16.293C25.1931 16.0518 24.9976 15.8564 24.7565 15.8564Z" fill="#2A2A2A"/>
<path d="M28.8541 15.9276L27.6253 15.534C27.4679 15.4836 27.3439 15.3579 27.2936 15.1979C27.0346 14.3745 26.6437 13.6015 26.1319 12.9002C25.8987 12.5806 25.6393 12.2754 25.3559 11.9848C25.5372 11.1895 25.6358 10.2895 25.623 9.51186C25.6047 8.39945 25.3824 7.74701 24.9434 7.51709C24.707 7.39311 23.9875 7.01646 20.0929 8.79924C20.0007 8.84142 19.9146 8.8934 19.8348 8.95293C19.5722 8.88238 19.3039 8.81711 19.0339 8.75852C19.0014 8.75143 18.9679 8.74516 18.9351 8.73824C19.2507 8.04883 19.435 7.30006 19.4696 6.52709C19.4804 6.28615 19.2939 6.08213 19.0529 6.07141C18.8126 6.05945 18.608 6.24707 18.5972 6.48801C18.5404 7.75897 18.0131 8.9548 17.1128 9.85521C16.5748 10.3932 15.9449 10.7839 15.2736 11.03C14.1094 10.8667 12.9236 10.8667 11.7594 11.03C11.088 10.7839 10.4582 10.3932 9.92027 9.85521C8.95969 8.89463 8.43064 7.61746 8.43064 6.25897C8.43064 4.90041 8.95969 3.6233 9.92027 2.66271C10.8809 1.70207 12.1581 1.17303 13.5165 1.17303C14.875 1.17303 16.1522 1.70207 17.1128 2.66271C17.4988 3.04873 17.8178 3.48924 18.0609 3.97188C18.1693 4.18727 18.4319 4.27398 18.6472 4.16547C18.8626 4.05707 18.9493 3.79451 18.8408 3.57918C18.5559 3.01322 18.1822 2.49719 17.7303 2.0452C16.6048 0.919668 15.1083 0.299805 13.5166 0.299805C11.9249 0.299805 10.4284 0.919668 9.30287 2.0452C8.17734 3.17078 7.55748 4.66721 7.55748 6.25891C7.55748 7.85061 8.17734 9.34709 9.30287 10.4726C9.62754 10.7973 9.98074 11.0765 10.3543 11.3104C10.3545 11.3104 10.3546 11.3103 10.3547 11.3103C10.0832 11.3809 9.81381 11.4601 9.54738 11.5492C9.31869 11.6256 9.19529 11.8729 9.27176 12.1017C9.34816 12.3304 9.59561 12.4538 9.82424 12.3774C12.2053 11.5814 14.8279 11.5814 17.2089 12.3774C17.2549 12.3927 17.3015 12.4 17.3474 12.4C17.53 12.4 17.7003 12.2845 17.7614 12.1017C17.8379 11.873 17.7145 11.6256 17.4858 11.5492C17.2194 11.4601 16.9499 11.3808 16.6785 11.3103C16.6786 11.3103 16.6787 11.3104 16.6788 11.3104C17.0525 11.0765 17.4056 10.7973 17.7303 10.4726C18.0175 10.1854 18.2711 9.87174 18.4912 9.5384C18.6115 9.56178 18.731 9.58627 18.8487 9.61182C19.0055 9.64586 19.1616 9.68242 19.3163 9.7208C19.3114 9.73978 19.3065 9.75871 19.3024 9.77799C19.0895 10.7884 19.1033 11.6821 19.3435 12.434C19.5594 13.1099 19.9489 13.6575 20.5013 14.0616C21.1523 14.5379 21.9383 14.7436 22.6503 14.7436C23.1861 14.7436 23.6801 14.627 24.0429 14.4215C24.4533 14.189 24.7972 13.6993 25.0693 12.9639C25.1951 13.1107 25.3144 13.2612 25.4268 13.4151C25.8824 14.0394 26.2303 14.7274 26.4607 15.4599C26.596 15.8902 26.9319 16.2288 27.3591 16.3657L28.5879 16.7593C28.9103 16.8626 29.127 17.1594 29.127 17.4979V19.5355C29.127 19.8741 28.9103 20.1709 28.5879 20.2742L26.6081 20.9083C26.2913 21.0099 26.0232 21.2276 25.8533 21.5213C25.0754 22.8656 23.8525 23.978 22.2183 24.8277C22.0295 24.9259 21.8987 25.1017 21.8593 25.3099L21.2252 28.6675C21.2077 28.76 21.1267 28.8271 21.0325 28.8271H18.9708C18.8766 28.8271 18.7956 28.76 18.7781 28.6675L18.4269 26.8119C18.3577 26.4468 18.0153 26.2043 17.6467 26.2601C16.7586 26.3944 15.8435 26.4624 14.9269 26.4624C14.245 26.4624 13.5718 26.4244 12.926 26.3494C12.5688 26.3083 12.2361 26.5517 12.1694 26.9044L11.8356 28.6675C11.8181 28.76 11.7371 28.8271 11.6429 28.8271H9.58119C9.48703 28.8271 9.406 28.76 9.38824 28.6661L8.7777 25.4949C8.73838 25.2906 8.61006 25.1168 8.42543 25.0182C5.63965 23.5311 4.16719 21.0464 4.16719 17.8332C4.16719 16.2097 4.52238 14.774 5.22287 13.5661C5.87654 12.4388 6.83127 11.5067 8.06051 10.7957C8.26922 10.6749 8.34053 10.4079 8.21982 10.1991C8.09912 9.99039 7.83205 9.9192 7.62328 10.0398C5.23975 11.4186 3.80215 13.5458 3.40635 16.2476V16.2475C3.36434 16.2437 3.32227 16.2401 3.28037 16.2357C3.28799 15.9442 3.23525 15.6501 3.12041 15.3646C2.86711 14.735 2.3468 14.2805 1.79479 14.2069C1.35979 14.1486 0.94582 14.3333 0.658535 14.7129C0.241992 15.2633 0.309902 15.6989 0.440156 15.9674C0.660059 16.4205 1.22531 16.741 2.16334 16.9425C2.13756 16.9811 2.1092 17.0199 2.07814 17.0588C1.52391 17.7539 0.870937 17.9076 0.446953 17.9221C0.19875 17.9305 0 18.1298 0 18.3781V18.3803C0 18.6252 0.193301 18.825 0.438047 18.8362C0.469395 18.8377 0.502148 18.8385 0.53625 18.8385C1.07273 18.8385 1.93377 18.6406 2.761 17.6033C2.8916 17.4396 2.99801 17.2669 3.0798 17.0884C3.16219 17.0977 3.24135 17.1057 3.31717 17.1127C3.31717 17.1125 3.31717 17.1124 3.31723 17.1122C3.30234 17.3488 3.29408 17.5889 3.29408 17.8332C3.29408 19.6512 3.7275 21.2722 4.58221 22.6513C5.37029 23.9228 6.49863 24.9639 7.93699 25.7468L8.53055 28.8298C8.626 29.3342 9.06785 29.7003 9.58119 29.7003H11.6429C12.1563 29.7003 12.5981 29.3342 12.6936 28.8298L12.9953 27.2356C13.6221 27.302 14.2709 27.3356 14.9269 27.3356C15.8269 27.3356 16.7258 27.2729 17.6019 27.1492L17.92 28.8299C18.0155 29.3343 18.4574 29.7003 18.9707 29.7003H21.0324C21.5457 29.7003 21.9876 29.3342 22.0831 28.8297L22.7005 25.5607C24.4447 24.6384 25.7595 23.4268 26.6089 21.9586C26.6702 21.8528 26.7645 21.7752 26.8744 21.74L28.8541 21.1058C29.5395 20.8861 30 20.2551 30 19.5354V17.4978C30 16.7782 29.5395 16.1472 28.8541 15.9276ZM24.6843 10.7387C24.5162 12.1758 24.0654 13.4051 23.6125 13.6616C23.0977 13.9533 21.9091 14.0096 21.0168 13.3568C20.1233 12.7032 19.826 11.5279 20.1567 9.95799C20.1567 9.95793 20.1567 9.95793 20.1567 9.95793C20.1899 9.80025 20.302 9.66385 20.4564 9.59318C22.6421 8.59264 23.9023 8.26539 24.3705 8.26539C24.4412 8.26539 24.4938 8.27283 24.5288 8.28654C24.6694 8.43643 24.8539 9.28844 24.6843 10.7387ZM1.22584 15.5861C1.18066 15.4929 1.2873 15.3292 1.35492 15.2397C1.46209 15.0982 1.56082 15.0692 1.63541 15.0692C1.65117 15.0692 1.66588 15.0705 1.67936 15.0723C1.8801 15.0991 2.16135 15.32 2.31035 15.6904C2.34545 15.7776 2.39104 15.922 2.4017 16.1021C1.7973 15.9769 1.32773 15.7964 1.22584 15.5861Z" fill="#2A2A2A"/>
<path d="M13.9408 5.75838V4.19604C14.4796 4.23453 14.6797 4.4808 14.8644 4.4808C15.0953 4.4808 15.2031 4.18836 15.2031 4.04211C15.2031 3.66494 14.4642 3.50334 13.9408 3.48793V3.28004C13.9408 3.1877 13.8253 3.10303 13.7099 3.10303C13.579 3.10303 13.4866 3.1877 13.4866 3.28004V3.50322C12.7554 3.58021 12.0243 3.96506 12.0243 4.93484C12.0243 5.92004 12.7939 6.19713 13.4866 6.4434V8.25213C12.7015 8.19055 12.4938 7.65178 12.2398 7.65178C12.0473 7.65178 11.8857 7.90578 11.8857 8.09053C11.8857 8.46764 12.5323 8.98332 13.4866 8.99873V9.23732C13.4866 9.32967 13.579 9.41434 13.7099 9.41434C13.8254 9.41434 13.9408 9.32967 13.9408 9.23732V8.97564C14.7721 8.86016 15.3416 8.3368 15.3416 7.3901C15.3416 6.34338 14.6104 6.00465 13.9408 5.75838ZM13.5328 5.61219C13.1249 5.45826 12.7939 5.29666 12.7939 4.85797C12.7939 4.45772 13.1018 4.26529 13.5328 4.21145V5.61219ZM13.8946 8.23672V6.61273C14.2717 6.77434 14.5719 6.98984 14.5719 7.47471C14.5719 7.91352 14.3102 8.15979 13.8946 8.23672Z" fill="#2A2A2A"/>
</svg>
