<svg width="950" height="591" viewBox="0 0 950 591" fill="none" xmlns="http://www.w3.org/2000/svg">
<g clip-path="url(#clip0)">
<path d="M836.052 432.778L950 421.166C950 421.166 847.997 428.613 827.815 426.698C807.634 424.783 792.771 413.657 791.342 406.028C789.914 398.398 811.19 392.774 819.275 392.774C827.36 392.774 844.806 387.545 844.806 387.545C832.625 387.545 820.451 388.163 808.333 389.4C795.78 391.193 780.978 391.132 753.38 387.545C746.754 386.694 727.576 376.937 736.025 366.024C738.548 362.771 743.168 360.734 749.186 359.032L739.338 352.952C733.483 354.241 727.931 356.646 722.986 360.035C705.904 372.194 667.425 406.757 636.575 411.712C605.725 416.667 526.366 434.723 526.336 434.723C514.604 432.869 494.969 430.103 474.666 428.644C437.828 426.06 422.114 426.09 368.286 401.437C314.458 376.785 254.946 383.533 254.946 383.533C254.946 383.533 258.229 380.22 253.427 378.426C249.931 377.591 246.247 378.147 243.153 379.976C243.153 379.976 251.542 364.382 243.153 358.394C234.765 352.405 208.413 358.394 208.413 358.394C208.413 358.394 214.492 372.772 208.413 379.976C202.334 387.181 167.168 387.241 143.157 393.777C119.145 400.313 92.0031 431.653 68.8732 436.73C42.5518 442.475 0 440.56 0 440.56V495.641C16.0481 496.887 49.7856 481.567 67.9918 484.667C89.2677 488.254 104.678 512.938 126.987 519.99C151.545 527.802 199.477 519.108 221.938 523.881C244.399 528.653 260.265 542.12 285.432 525.401C310.598 508.682 343.454 506.524 343.454 506.524C343.454 506.524 310.02 504.122 284.763 516.099C259.505 528.076 230.996 513.728 217.136 511.023C203.276 508.317 198.565 504.426 202.456 499.046C207.236 492.905 213.253 487.837 220.118 484.171C226.982 480.505 234.54 478.324 242.302 477.767C255.397 476.977 268.258 473.944 280.325 468.8C280.325 468.8 256.983 475.366 246.892 474.18C236.801 472.995 225.616 474.18 199.568 490.656C173.52 507.132 144.16 493.696 144.16 493.696C140.117 491.446 123.947 486.522 135.041 456.002C146.135 425.482 228.777 418.825 228.777 418.825C323.728 419.555 352.177 418.977 381.234 444.451C386.735 449.314 393.817 449.679 395.823 456.002C388.407 472.873 416.734 489.197 423.026 499.775C429.318 510.354 426.369 519.321 427.281 529.413C430.868 521.784 427.281 506.736 425.701 499.532C424.12 492.328 416.279 485.154 409.531 475.062C402.783 464.969 406.704 458.343 406.704 458.343C411.78 452.962 422.813 455.941 433.786 458.89C445.943 462.173 474.392 468.009 491.747 472.478C503.479 475.518 520.287 474.454 529.922 473.451L533.296 473.086C538.797 472.66 549.587 472.721 554.177 479.165C560.468 487.95 557.216 501.417 557.216 501.417C557.216 501.417 567.337 488.406 558.006 475.153C565.301 477.159 583.386 476.43 583.386 476.43C583.386 476.43 637.791 465.213 668.945 435.027C700.099 404.842 714.263 404.295 723.138 403.322C732.013 402.349 771.769 400.282 783.349 415.025C792.923 427.185 821.098 431.653 831.189 432.747L840.307 443.539L836.052 432.778Z" fill="#212121"/>
<path d="M464.21 419.95C464.21 419.95 446.855 429.525 444.15 437.915C441.445 446.305 449.104 461.443 454.788 466.824C460.471 472.204 469.985 464.878 469.985 464.878C469.985 464.878 458.496 447.156 463.085 439.435C467.675 431.714 479.194 427.549 479.194 427.549L464.21 419.95Z" fill="#5D4037"/>
<path d="M475.486 426.242C475.486 426.242 460.289 434.328 457.523 442.718C454.757 451.108 460.563 464.726 466.186 470.076C471.808 475.426 483.297 469.62 483.297 469.62C483.297 469.62 471.808 451.868 476.398 444.147C479.453 439.157 483.073 434.536 487.188 430.376L475.486 426.242Z" fill="#6D4C41"/>
<path d="M489.012 430.255C489.012 430.255 473.815 438.341 471.049 446.731C468.283 455.12 476.034 468.769 481.717 474.089C487.401 479.409 496.914 473.633 496.914 473.633C496.914 473.633 485.456 455.88 490.045 448.159C493.1 443.169 496.72 438.548 500.835 434.389L489.012 430.255Z" fill="#8D6E63"/>
<path d="M618.218 424.023C618.218 424.023 633.415 432.109 636.181 440.499C638.947 448.889 631.227 464.027 625.543 469.408C619.86 474.788 610.346 467.462 610.346 467.462C610.346 467.462 621.835 449.74 617.246 442.019C612.656 434.298 601.137 430.133 601.137 430.133L618.218 424.023Z" fill="#8D6E63"/>
<path d="M604.844 428.826C604.844 428.826 620.042 436.912 622.807 445.302C625.573 453.692 619.768 467.31 614.175 472.66C608.583 478.01 597.063 472.204 597.063 472.204C597.063 472.204 608.522 454.452 603.933 446.731C600.878 441.74 597.257 437.12 593.143 432.96L604.844 428.826Z" fill="#6D4C41"/>
<path d="M591.318 432.839C591.318 432.839 606.515 440.925 609.281 449.314C612.047 457.704 604.297 471.353 598.613 476.673C592.929 481.992 583.416 476.217 583.416 476.217C583.416 476.217 594.905 458.464 590.285 450.743C587.235 445.758 583.625 441.138 579.525 436.973L591.318 432.839Z" fill="#5D4037"/>
<path d="M440.867 204.883C440.867 204.883 362.693 256.408 362.997 303.981C363.301 351.554 386.218 376.298 387.555 377.666C388.893 379.034 394.303 377.666 394.303 377.666C394.303 377.666 405.062 386.208 406.461 387.089C407.859 387.971 427.129 387.089 427.129 387.089L440.897 237.47L450.471 213.668L440.867 204.883Z" fill="#37474F"/>
<path d="M634.934 204.883C634.934 204.883 713.108 256.408 712.804 303.981C712.5 351.554 689.583 376.298 688.246 377.666C686.909 379.034 681.498 377.666 681.498 377.666C681.498 377.666 670.739 386.208 669.341 387.089C667.943 387.971 648.673 387.089 648.673 387.089L634.934 237.531L625.36 213.729L634.934 204.883Z" fill="#37474F"/>
<path d="M657.668 153.906C649.918 94.0518 721.891 59.6715 718.912 1.06393C718.912 30.5501 689.096 77.7584 646.513 102.898C603.931 128.037 624.873 119.677 624.873 119.677C624.873 119.677 648.337 154.666 657.668 153.906Z" fill="#546E7A"/>
<path d="M696.178 58.6683L637.335 124.632C637.335 124.632 632.685 112.047 600.193 108.916C624.296 98.2467 696.178 58.6683 696.178 58.6683Z" fill="#37474F"/>
<path d="M424.332 152.842C432.083 92.9878 360.079 58.6076 363.088 0C363.088 29.4862 392.905 76.6944 435.487 101.834C478.069 126.973 457.127 118.553 457.127 118.553C457.127 118.553 433.663 153.602 424.332 152.842Z" fill="#546E7A"/>
<path d="M387.496 58.6683L446.339 124.632C446.339 124.632 450.99 112.047 483.481 108.916C459.378 98.2467 387.496 58.6683 387.496 58.6683Z" fill="#37474F"/>
<path d="M669.097 327.692C664.294 397.942 614.387 445.15 546 445.15C474.756 445.15 415.488 415.755 406.491 345.657C400.99 302.826 415.609 237.531 459.651 196.706C496.519 162.539 593.385 172.144 621.469 200.719C649.553 229.293 672.045 284.222 669.097 327.692Z" fill="#78909C"/>
<path d="M540.561 479.013C594.26 479.013 637.792 423.581 637.792 355.202C637.792 286.823 594.26 231.39 540.561 231.39C486.862 231.39 443.33 286.823 443.33 355.202C443.33 423.581 486.862 479.013 540.561 479.013Z" fill="#90A4AE"/>
<path d="M600.193 105.451C585.777 105.457 571.809 110.462 560.669 119.613C549.529 128.764 541.906 141.496 539.1 155.638C536.808 144.055 531.272 133.361 523.138 124.803C515.003 116.244 504.605 110.173 493.154 107.297C481.703 104.421 469.67 104.858 458.458 108.558C447.246 112.257 437.315 119.066 429.823 128.192C422.33 137.318 417.585 148.386 416.139 160.105C414.693 171.824 416.606 183.713 421.655 194.387C426.705 205.061 434.683 214.081 444.659 220.395C454.636 226.709 466.202 230.059 478.008 230.053C491.746 230.053 502.111 220.204 514.694 217.894C523.083 216.435 536.699 221.389 539.009 230.053C539.009 230.053 544.146 213.607 563.629 218.167C575.969 221.207 586.455 230.053 600.102 230.053C616.627 230.053 632.475 223.487 644.16 211.801C655.845 200.114 662.41 184.264 662.41 167.737C662.41 151.209 655.845 135.359 644.16 123.673C632.475 111.986 616.627 105.421 600.102 105.421L600.193 105.451Z" fill="#B0BEC5"/>
<path d="M600.193 204.883C620.706 204.883 637.335 188.252 637.335 167.737C637.335 147.221 620.706 130.59 600.193 130.59C579.681 130.59 563.052 147.221 563.052 167.737C563.052 188.252 579.681 204.883 600.193 204.883Z" fill="#FFF9C4"/>
<path d="M539.102 51.9808C495.912 52.1935 435.488 73.077 435.488 73.077L539.102 120.255L643.324 72.9554C643.324 72.9554 582.292 52.1935 539.102 51.9808Z" fill="#37474F"/>
<path d="M478.009 204.883C498.522 204.883 515.151 188.252 515.151 167.737C515.151 147.221 498.522 130.59 478.009 130.59C457.496 130.59 440.867 147.221 440.867 167.737C440.867 188.252 457.496 204.883 478.009 204.883Z" fill="#FFF9C4"/>
<path d="M590.62 65.6295C558.858 67.1798 539.102 98.3987 539.102 98.3987C539.102 98.3987 519.346 68.0006 487.432 66.3591C457.038 64.9 379.289 58.7291 353.15 29.4862C375.034 56.2061 416.461 92.7446 456.734 109.859C467.25 114.327 482.569 113.719 491.018 117.549C516.397 129.101 525.911 144.908 526.367 170.868L539.102 182.389L551.989 170.989C552.414 144.938 561.654 128.432 587.033 116.942C595.483 113.111 610.802 113.719 621.318 109.251C661.59 92.1063 726.421 38.8488 748.305 11.9769C722.166 41.2198 677.334 58.6683 590.62 65.6295Z" fill="#546E7A"/>
<path d="M353.301 29.4862L350.414 25.8992C351.315 27.1431 352.279 28.3403 353.301 29.4862V29.4862Z" fill="#546E7A"/>
<path d="M600.193 160.259C599.151 160.243 598.117 160.44 597.154 160.836L598.886 166.551L592.807 165.518C592.58 166.236 592.457 166.983 592.442 167.737C592.442 169.216 592.881 170.662 593.702 171.891C594.524 173.121 595.692 174.079 597.058 174.645C598.424 175.211 599.928 175.36 601.378 175.071C602.828 174.782 604.161 174.07 605.206 173.024C606.252 171.979 606.964 170.646 607.253 169.196C607.541 167.745 607.393 166.241 606.827 164.875C606.261 163.509 605.303 162.341 604.073 161.519C602.844 160.697 601.398 160.259 599.919 160.259H600.193Z" fill="black"/>
<path d="M478.008 160.259C476.966 160.248 475.933 160.444 474.968 160.836L476.701 166.551L470.804 165.518C470.553 166.231 470.42 166.981 470.409 167.737C470.403 169.223 470.838 170.678 471.66 171.916C472.481 173.155 473.651 174.122 475.023 174.695C476.394 175.268 477.904 175.421 479.362 175.135C480.821 174.849 482.161 174.136 483.214 173.087C484.267 172.038 484.985 170.7 485.277 169.243C485.57 167.786 485.423 166.275 484.855 164.901C484.288 163.527 483.326 162.353 482.091 161.526C480.855 160.7 479.403 160.259 477.917 160.259H478.008Z" fill="black"/>
<path d="M539.102 152.842C530.781 159.153 524.949 168.193 522.628 178.376C529.375 190.535 539.102 210.902 539.102 210.902L555.575 178.376C555.575 178.376 550.317 161.627 539.102 152.842Z" fill="#6D4C41"/>
<path d="M539.102 146.185C539.102 146.185 522.172 164.423 522.628 178.376C526.063 169.682 535.333 156.793 539.102 156.793C542.871 156.793 552.141 169.682 555.575 178.376C556.031 164.454 539.102 146.185 539.102 146.185Z" fill="#BCAAA4"/>
<path d="M552.657 510.05C549.827 510.144 547.072 510.98 544.666 512.473C542.26 513.967 540.289 516.066 538.949 518.561C534.694 527.103 536.487 544.856 536.487 544.856C536.487 544.856 552.414 534.763 555.119 524.854C557.824 514.944 552.657 510.05 552.657 510.05Z" fill="#689F38"/>
<path d="M433.087 529.869C433.294 532.971 434.28 535.97 435.953 538.59C437.627 541.21 439.934 543.365 442.661 544.856C451.931 549.659 479.134 548.747 479.134 548.747C479.134 548.747 465.062 530.508 456.095 527.468C447.129 524.428 441.476 524.185 433.087 529.869Z" fill="#689F38"/>
<path d="M424.393 537.104C424.393 537.104 415.275 535.402 408.223 548.807C401.172 562.213 418.709 591 418.709 591C418.709 591 440.867 564.341 435.761 551.148C430.654 537.955 424.393 537.104 424.393 537.104Z" fill="#689F38"/>
<path d="M839.488 383.563C837.836 382.638 836.49 381.25 835.616 379.571C834.741 377.892 834.376 375.994 834.564 374.11C835.445 367.848 847.816 359.518 847.816 359.518C847.816 359.518 849.609 370.766 847.816 374.717C845.653 378.189 842.823 381.196 839.488 383.563V383.563Z" fill="#689F38"/>
<path d="M848.606 383.563C848.304 381.091 848.627 378.582 849.546 376.266C850.465 373.951 851.949 371.903 853.864 370.31C860.398 365.355 877.693 366.024 877.693 366.024C877.693 366.024 871.401 381.223 865.322 383.563C859.244 385.904 848.606 383.563 848.606 383.563Z" fill="#689F38"/>
<path d="M846.902 451.169C847.371 449.779 848.169 448.522 849.227 447.506C850.285 446.49 851.573 445.744 852.981 445.332C857.479 444.451 869.151 447.126 869.151 447.126C865.521 450.202 861.075 452.156 856.355 452.749C849.395 453.205 846.902 451.169 846.902 451.169Z" fill="#689F38"/>
<path d="M843.103 450.287C843.103 450.287 837.237 454.786 838.817 459.407C840.398 464.027 851.188 472.903 851.188 472.903C851.188 472.903 854.835 459.923 851.188 454.938C850.355 453.532 849.173 452.365 847.756 451.55C846.34 450.735 844.737 450.3 843.103 450.287V450.287Z" fill="#689F38"/>
</g>
<defs>
<clipPath id="clip0">
<rect width="950" height="591" fill="white"/>
</clipPath>
</defs>
</svg>
