<svg width="30" height="30" viewBox="0 0 30 30" fill="none" xmlns="http://www.w3.org/2000/svg">
<path d="M15 30C23.2843 30 30 23.2843 30 15C30 6.71573 23.2843 0 15 0C6.71573 0 0 6.71573 0 15C0 23.2843 6.71573 30 15 30Z" fill="#F0F0F0"/>
<path d="M30 14.9999C30 9.05297 26.5392 3.91453 21.5218 1.48828V28.5114C26.5392 26.0852 30 20.9468 30 14.9999Z" fill="#D80027"/>
<path d="M0 14.9999C0 20.9468 3.46084 26.0852 8.47828 28.5115V1.48828C3.46084 3.91453 0 9.05297 0 14.9999Z" fill="#D80027"/>
<path d="M17.6087 16.9565L20.2173 15.6522L18.913 15V13.6957L16.3043 15L17.6087 12.3913H16.3043L15 10.4348L13.6956 12.3913H12.3912L13.6956 15L11.0869 13.6957V15L9.78259 15.6522L12.3912 16.9565L11.7391 18.2609H14.3478V20.2174H15.6521V18.2609H18.2608L17.6087 16.9565Z" fill="#D80027"/>
</svg>
