<svg width="30" height="30" viewBox="0 0 30 30" fill="none" xmlns="http://www.w3.org/2000/svg">
<path d="M9.9002 1.80005C8.74238 1.80005 7.80019 2.74224 7.80019 3.90005V16.2H7.5002C7.00332 16.2 6.60019 16.6032 6.60019 17.1C6.60019 17.5969 7.00332 18 7.5002 18H22.5002C22.9971 18 23.4002 17.5969 23.4002 17.1C23.4002 16.6032 22.9971 16.2 22.5002 16.2H22.2002V3.90005C22.2002 2.74224 21.258 1.80005 20.1002 1.80005H9.9002ZM10.8002 3.00005H12.6002V16.8H10.8002V3.00005ZM3.0002 6.60005C2.00879 6.60005 1.2002 7.40864 1.2002 8.40005V22.2001C1.2002 23.1915 2.00879 24 3.0002 24H27.0002C27.9916 24 28.8002 23.1915 28.8002 22.2001V8.40005C28.8002 7.40864 27.9916 6.60005 27.0002 6.60005H22.8002V7.80005H27.0002C27.3307 7.80005 27.6002 8.06958 27.6002 8.40005V21H2.4002V8.40005C2.4002 8.06958 2.66973 7.80005 3.0002 7.80005H7.20019V6.60005H3.0002ZM11.1939 25.2001L10.8939 27H9.60019C9.58144 27 9.56269 27 9.54394 27C9.21348 27.0165 8.95566 27.2977 8.97207 27.6282C8.98848 27.9586 9.26973 28.2165 9.60019 28.2001H20.4002C20.6158 28.2024 20.8174 28.0899 20.9275 27.9024C21.0354 27.7149 21.0354 27.4852 20.9275 27.2977C20.8174 27.1102 20.6158 26.9977 20.4002 27H19.1064L18.8064 25.2001H11.1939Z" fill="#2B5FAE"/>
</svg>
