<svg width="30" height="30" viewBox="0 0 30 30" fill="none" xmlns="http://www.w3.org/2000/svg">
<path d="M15.0002 1.2002C14.9252 1.2002 14.8479 1.21895 14.7775 1.25879L9.51348 4.26113L15.0002 7.95254L20.5197 4.28223L15.2205 1.25879C15.1525 1.21895 15.0752 1.2002 15.0002 1.2002ZM9.0002 5.0627V10.6314C9.0002 10.7768 9.06113 10.915 9.16894 11.0064L14.5385 15.6002V8.7916L9.0002 5.0627ZM21.0002 5.10488L15.4619 8.7916V15.6002L20.8314 11.0064C20.9369 10.915 21.0002 10.7768 21.0002 10.6314V5.10488ZM3.0002 7.20019C2.03691 7.20019 1.2002 7.80019 1.2002 9.0002V16.2002C1.2002 18.0002 1.76035 18.5041 2.4002 19.2002C2.4002 19.2002 5.98144 23.7963 6.60019 24.6002V28.2846C6.60019 28.8002 7.08066 28.8002 7.20019 28.8002H12.0002C12.6002 28.8002 12.6002 28.4604 12.6002 28.2002V23.4002C12.6002 21.1924 11.5033 19.5775 10.2377 18.3049L7.36191 15.2369C6.2627 14.1377 5.41895 14.8549 5.25488 15.0283C4.71348 15.5955 4.71113 16.4791 5.24551 17.0369L8.12129 20.0932C8.31348 20.2947 8.31348 20.6205 8.12129 20.8221C8.02754 20.9228 7.90098 20.9721 7.77441 20.9721C7.6502 20.9721 7.52363 20.9228 7.42754 20.8221L4.79316 18.0072C3.0002 16.2002 4.2002 14.4002 4.8002 14.4002V9.0002C4.8002 7.80019 3.96348 7.20019 3.0002 7.20019ZM27.0002 7.20019C26.0369 7.20019 25.2002 7.80019 25.2002 9.0002V14.4002C25.8002 14.4002 27.0002 16.2002 25.2072 18.0072L22.5729 20.8221C22.4768 20.9228 22.3502 20.9721 22.226 20.9721C22.0994 20.9721 21.9729 20.9228 21.8791 20.8221C21.6869 20.6205 21.6869 20.2947 21.8791 20.0932L24.7572 17.0369C25.2893 16.4791 25.2869 15.5955 24.7479 15.0283C24.5814 14.8549 23.7377 14.1377 22.6385 15.2369L19.7627 18.3049C18.4971 19.5775 17.4002 21.1924 17.4002 23.4002V28.2002C17.4002 28.4604 17.4002 28.8002 18.0002 28.8002H22.8002C22.9197 28.8002 23.4002 28.8002 23.4002 28.2846V24.6002C24.0189 23.7963 27.6002 19.2002 27.6002 19.2002C28.24 18.5041 28.8002 18.0002 28.8002 16.2002V9.0002C28.8002 7.80019 27.9635 7.20019 27.0002 7.20019Z" fill="#2B5FAE"/>
</svg>
