<svg width="30" height="30" viewBox="0 0 30 30" fill="none" xmlns="http://www.w3.org/2000/svg">
<path d="M25.8002 5.40015H4.20019C2.54551 5.40015 1.2002 6.74546 1.2002 8.40015V21.6001C1.2002 23.2548 2.54551 24.6001 4.20019 24.6001H25.8002C27.4549 24.6001 28.8002 23.2548 28.8002 21.6001V8.40015C28.8002 6.74546 27.4549 5.40015 25.8002 5.40015ZM4.80019 10.8001C4.80019 10.4697 5.06973 10.2001 5.40019 10.2001H7.80019C8.13066 10.2001 8.40019 10.4697 8.40019 10.8001V12.6001C8.40019 12.9306 8.13066 13.2001 7.80019 13.2001H5.40019C5.06973 13.2001 4.80019 12.9306 4.80019 12.6001V10.8001ZM5.40019 16.8001H8.40019C8.73066 16.8001 9.00019 17.0673 9.00019 17.4001C9.00019 17.733 8.73066 18.0001 8.40019 18.0001H5.40019C5.06973 18.0001 4.80019 17.733 4.80019 17.4001C4.80019 17.0673 5.06973 16.8001 5.40019 16.8001ZM13.2002 21.0001H5.40019C5.06973 21.0001 4.80019 20.733 4.80019 20.4001C4.80019 20.0673 5.06973 19.8001 5.40019 19.8001H13.2002C13.5307 19.8001 13.8002 20.0673 13.8002 20.4001C13.8002 20.733 13.5307 21.0001 13.2002 21.0001ZM13.8002 18.0001H10.8002C10.4697 18.0001 10.2002 17.733 10.2002 17.4001C10.2002 17.0673 10.4697 16.8001 10.8002 16.8001H13.8002C14.1307 16.8001 14.4002 17.0673 14.4002 17.4001C14.4002 17.733 14.1307 18.0001 13.8002 18.0001ZM19.2002 18.0001H16.2002C15.8674 18.0001 15.6002 17.733 15.6002 17.4001C15.6002 17.0673 15.8674 16.8001 16.2002 16.8001H19.2002C19.533 16.8001 19.8002 17.0673 19.8002 17.4001C19.8002 17.733 19.533 18.0001 19.2002 18.0001ZM24.6002 18.0001H21.6002C21.2674 18.0001 21.0002 17.733 21.0002 17.4001C21.0002 17.0673 21.2674 16.8001 21.6002 16.8001H24.6002C24.933 16.8001 25.2002 17.0673 25.2002 17.4001C25.2002 17.733 24.933 18.0001 24.6002 18.0001ZM24.6002 12.0001H16.8002C16.4674 12.0001 16.2002 11.7306 16.2002 11.4001C16.2002 11.0697 16.4674 10.8001 16.8002 10.8001H24.6002C24.933 10.8001 25.2002 11.0697 25.2002 11.4001C25.2002 11.7306 24.933 12.0001 24.6002 12.0001Z" fill="#2B5FAE"/>
</svg>
