<svg width="30" height="30" viewBox="0 0 30 30" fill="none" xmlns="http://www.w3.org/2000/svg">
<path d="M15.0002 1.7998C14.9045 1.7998 14.8083 1.82217 14.7213 1.86777L2.12129 8.46777C1.92389 8.57157 1.8002 8.77661 1.8002 8.9998V10.1998C1.8002 10.531 2.069 10.7998 2.4002 10.7998H27.6002C27.932 10.7998 28.2002 10.531 28.2002 10.1998V8.9998C28.2002 8.77661 28.0771 8.57157 27.8791 8.46777L15.2791 1.86777C15.1921 1.82217 15.0959 1.7998 15.0002 1.7998ZM15.0002 5.3998C15.9938 5.3998 16.8002 6.20561 16.8002 7.1998C16.8002 8.19401 15.9938 8.9998 15.0002 8.9998C14.006 8.9998 13.2002 8.19401 13.2002 7.1998C13.2002 6.20561 14.006 5.3998 15.0002 5.3998ZM4.8002 11.9998C4.469 11.9998 4.2002 12.2686 4.2002 12.5998V20.9998H7.80019V12.5998C7.80019 12.2686 7.53139 11.9998 7.20019 11.9998H4.8002ZM10.8002 11.9998C10.469 11.9998 10.2002 12.2686 10.2002 12.5998V20.9998H13.8002V12.5998C13.8002 12.2686 13.5314 11.9998 13.2002 11.9998H10.8002ZM16.8002 11.9998C16.4684 11.9998 16.2002 12.2151 16.2002 12.4803V18.2588C16.5716 18.0944 16.9799 17.9998 17.4119 17.9998H19.8002V12.4803C19.8002 12.2151 19.532 11.9998 19.2002 11.9998H16.8002ZM22.8002 11.9998C22.4684 11.9998 22.2002 12.1798 22.2002 12.4006V17.9998H25.8002V12.4006C25.8002 12.1798 25.532 11.9998 25.2002 11.9998H22.8002ZM17.4002 19.2104C16.4559 19.2104 15.6107 19.9398 15.6107 20.9189V27.0807C15.6107 28.0247 16.4005 28.7893 17.3451 28.7893H27.6553C28.5992 28.7893 29.3906 28.0239 29.3896 27.0783V20.9189C29.3896 19.9402 28.5448 19.2104 27.6002 19.2104H17.4002ZM24.9939 21.5998H26.5701C26.7879 21.5998 26.9639 21.761 26.9639 21.9596V23.04C26.9639 23.2386 26.7879 23.3998 26.5701 23.3998H24.9939C24.7761 23.3998 24.6002 23.2386 24.6002 23.04V21.9596C24.6002 21.761 24.7761 21.5998 24.9939 21.5998ZM3.0002 22.1998C2.669 22.1998 2.4002 22.468 2.4002 22.7998V23.9998H1.8002C1.469 23.9998 1.2002 24.268 1.2002 24.5998V26.3998C1.2002 26.7316 1.469 26.9998 1.8002 26.9998H14.4002V22.1998H3.0002ZM18.6002 24.5998H19.2002C19.532 24.5998 19.8002 24.8686 19.8002 25.1998C19.8002 25.531 19.532 25.7998 19.2002 25.7998H18.6002C18.2684 25.7998 18.0002 25.531 18.0002 25.1998C18.0002 24.8686 18.2684 24.5998 18.6002 24.5998ZM21.0002 24.5998H21.6002C21.932 24.5998 22.2002 24.8686 22.2002 25.1998C22.2002 25.531 21.932 25.7998 21.6002 25.7998H21.0002C20.6684 25.7998 20.4002 25.531 20.4002 25.1998C20.4002 24.8686 20.6684 24.5998 21.0002 24.5998ZM23.4002 24.5998H24.0002C24.332 24.5998 24.6002 24.8686 24.6002 25.1998C24.6002 25.531 24.332 25.7998 24.0002 25.7998H23.4002C23.0684 25.7998 22.8002 25.531 22.8002 25.1998C22.8002 24.8686 23.0684 24.5998 23.4002 24.5998ZM25.8002 24.5998H26.4002C26.732 24.5998 27.0002 24.8686 27.0002 25.1998C27.0002 25.531 26.732 25.7998 26.4002 25.7998H25.8002C25.4684 25.7998 25.2002 25.531 25.2002 25.1998C25.2002 24.8686 25.4684 24.5998 25.8002 24.5998Z" fill="#2B5FAE"/>
</svg>
