<svg width="30" height="30" viewBox="0 0 30 30" fill="none" xmlns="http://www.w3.org/2000/svg">
<path d="M1.8 4.7998C0.808594 4.7998 0 5.6084 0 6.5998V20.9998C0 21.9912 0.808594 22.7998 1.8 22.7998H4.25625C4.54219 24.5014 6.02109 25.7998 7.8 25.7998C9.57891 25.7998 11.0578 24.5014 11.3438 22.7998H16.9125C17.8383 22.7998 18.6 22.0381 18.6 21.1123V6.5998C18.6 5.6084 17.7914 4.7998 16.8 4.7998H1.8ZM19.8 7.79981V22.7998H19.8563C20.1422 24.5014 21.6211 25.7998 23.4 25.7998C25.1789 25.7998 26.6578 24.5014 26.9438 22.7998H28.2C29.1258 22.7998 30 21.9256 30 20.9998V15.2436C30 14.5686 29.7422 13.9498 29.5125 13.4811C29.2828 13.0123 29.0438 12.6748 29.0438 12.6748V12.6561L27.6563 10.7998L26.5688 9.35606V9.33731C26.4539 9.19199 26.3086 9.03965 26.1375 8.86856C25.6969 8.41152 25.1461 7.96856 24.4313 7.83731C24.293 7.81152 24.1477 7.79981 24 7.79981H19.8ZM22.8 11.3998H26.5875L28.0688 13.3686L28.0875 13.3873C28.0992 13.4037 28.2609 13.6334 28.4438 14.0061C28.5914 14.3084 28.7109 14.6857 28.7625 14.9998H22.8C22.6992 14.9998 22.5375 14.9248 22.4062 14.7936C22.275 14.6623 22.2 14.5006 22.2 14.3998V11.9998C22.2 11.7045 22.5609 11.3998 22.8 11.3998ZM3 11.9998H5.4V12.6561H3.7875V13.4436H5.2125V14.0436H3.7875V15.4873H3V11.9998ZM6 11.9998H7.8C8.1 11.9998 8.8125 12.1756 8.8125 12.9561C8.8125 13.4951 8.46797 13.7389 8.2875 13.7998C8.40703 13.7998 8.75625 13.917 8.75625 14.7561C8.75625 14.817 8.76797 15.2365 8.8875 15.3561H8.1C8.03906 15.2365 8.04375 15.1217 8.04375 14.9998C7.98281 14.4607 7.98281 14.0436 7.44375 14.0436H6.65625V15.3561H6V11.9998ZM9.6 11.9998H12.1125V12.6561H10.3125V13.3873H12V13.9873H10.3125V14.8123H12.1875V15.4873H9.6V11.9998ZM13.0125 11.9998H15.5438V12.6561H13.7438V13.3873H15.4125V13.9873H13.7438V14.8123H15.6V15.4873H13.0125V11.9998ZM6.7125 12.5998V13.5561H7.55625C7.73672 13.5561 8.1 13.5678 8.1 13.0873C8.1 12.6678 7.73672 12.5998 7.55625 12.5998H6.7125ZM7.8 19.7998C9.13359 19.7998 10.2 20.8662 10.2 22.1998C10.2 23.5334 9.13359 24.5998 7.8 24.5998C6.46641 24.5998 5.4 23.5334 5.4 22.1998C5.4 20.8662 6.46641 19.7998 7.8 19.7998ZM23.4 19.7998C24.7336 19.7998 25.8 20.8662 25.8 22.1998C25.8 23.5334 24.7336 24.5998 23.4 24.5998C22.0664 24.5998 21 23.5334 21 22.1998C21 20.8662 22.0664 19.7998 23.4 19.7998Z" fill="#2B5FAE"/>
</svg>
