<svg width="30" height="30" viewBox="0 0 30 30" fill="none" xmlns="http://www.w3.org/2000/svg">
<g clip-path="url(#clip0)">
<path d="M11.5513 1.20021C11.482 1.20066 11.412 1.21281 11.3439 1.23771L0.400903 5.25255C0.0373027 5.38575 -0.1125 5.81852 0.0926995 6.14552L3.00012 10.5002L15.0001 6.00021L12.0751 1.48732C11.9599 1.30372 11.7593 1.19886 11.5513 1.20021ZM15.0001 6.00021L19.8493 7.81896L28.0947 4.7006L18.6564 1.23771C18.384 1.13811 18.0787 1.24252 17.9251 1.48732L15.0001 6.00021ZM3.00012 10.5002L0.0926995 14.951C-0.1125 15.272 0.0373027 15.6956 0.400903 15.8264L11.3439 19.7627C11.6163 19.8611 11.9215 19.759 12.0751 19.519L15.0001 15.0002L3.00012 10.5002ZM15.0001 15.0002L27.0001 10.5002L29.9521 5.88536C30.1081 5.62976 29.8601 5.3169 29.5841 5.4213L18.6107 9.57091C18.3539 9.66811 18.1359 9.84951 17.9907 10.0877L15.0001 15.0002ZM27.0001 11.7822L15.6001 16.0572V28.8002L26.6064 24.7807C26.8434 24.6943 27.0001 24.469 27.0001 24.217V11.7822ZM3.00012 18.0365V24.217C3.00012 24.469 3.15687 24.6943 3.39387 24.7807L14.4001 28.8002V18.1361L13.0829 20.1717C12.7409 20.7021 12.166 21.0026 11.563 21.0026C11.3554 21.0026 11.1442 20.9668 10.9384 20.8924L3.00012 18.0365Z" fill="#2B5FAE"/>
</g>
<defs>
<clipPath id="clip0">
<rect width="30" height="30" fill="white"/>
</clipPath>
</defs>
</svg>
