<svg width="30" height="30" viewBox="0 0 30 30" fill="none" xmlns="http://www.w3.org/2000/svg">
<path d="M7.80015 2.3999C5.86681 2.3999 4.51657 3.05802 3.67515 3.73115C2.83373 4.40429 2.46343 5.13154 2.46343 5.13154C2.42817 5.20203 2.40714 5.27877 2.40155 5.35738C2.39595 5.43599 2.40589 5.51494 2.43081 5.5897C2.45572 5.66447 2.49513 5.7336 2.54676 5.79314C2.59839 5.85268 2.66125 5.90147 2.73174 5.93671C2.80223 5.97196 2.87898 5.99297 2.95759 5.99856C3.0362 6.00414 3.11514 5.99418 3.18991 5.96925C3.26467 5.94432 3.33379 5.90491 3.39333 5.85327C3.45286 5.80162 3.50163 5.73876 3.53687 5.66826C3.53687 5.66826 3.76657 5.19552 4.42515 4.66865C5.02266 4.19064 6.00684 3.74881 7.41694 3.66201L15.0423 23.0202C15.1 23.1658 15.2123 23.2831 15.3553 23.3471C15.4983 23.411 15.6606 23.4165 15.8076 23.3624L27.2076 19.1624C27.2846 19.1376 27.3559 19.0975 27.417 19.0445C27.4782 18.9915 27.528 18.9267 27.5634 18.8539C27.5988 18.7811 27.6192 18.7019 27.6232 18.6211C27.6273 18.5403 27.6149 18.4595 27.5869 18.3835C27.5589 18.3076 27.5159 18.2381 27.4603 18.1793C27.4047 18.1204 27.3379 18.0734 27.2637 18.041C27.1895 18.0087 27.1095 17.9917 27.0286 17.9911C26.9476 17.9905 26.8674 18.0062 26.7927 18.0374L15.9435 22.0335L8.35796 2.77959C8.31377 2.66767 8.23695 2.57162 8.13748 2.50391C8.03801 2.4362 7.92048 2.39997 7.80015 2.3999ZM23.5291 5.9999C23.4523 5.99672 23.3734 6.00788 23.297 6.03623L12.9927 9.83311C12.8415 9.88891 12.7189 10.0031 12.6529 10.1507C12.5869 10.2977 12.5824 10.4659 12.6412 10.6159L16.3455 20.019C16.4385 20.2548 16.6644 20.3999 16.9044 20.3999C16.9734 20.3999 17.0435 20.3876 17.1119 20.3624L27.4162 16.5667C27.5674 16.5109 27.6912 16.3955 27.7572 16.2479C27.8232 16.1009 27.826 15.9345 27.7666 15.7839L24.0623 6.37959C23.9727 6.15234 23.7593 6.00946 23.5291 5.9999ZM20.788 9.57295C21.0217 9.58406 21.2381 9.73243 21.3236 9.96553C21.4376 10.2763 21.2781 10.6208 20.9673 10.7354L17.863 11.8792C17.7946 11.9044 17.7246 11.9167 17.6556 11.9167C17.4114 11.9167 17.1819 11.7659 17.0931 11.5229C16.9785 11.2121 17.1374 10.8676 17.4482 10.753L20.5537 9.60928C20.6314 9.58063 20.7102 9.56925 20.788 9.57295ZM11.4001 20.3999C9.74595 20.3999 8.40015 21.7457 8.40015 23.3999C8.40015 25.0541 9.74595 26.3999 11.4001 26.3999C13.0543 26.3999 14.4001 25.0541 14.4001 23.3999C14.4001 21.7457 13.0543 20.3999 11.4001 20.3999ZM11.4001 26.3999H3.00015C2.92064 26.3988 2.8417 26.4135 2.76792 26.4431C2.69414 26.4728 2.62699 26.5168 2.57037 26.5726C2.51374 26.6284 2.46878 26.695 2.43809 26.7683C2.4074 26.8417 2.3916 26.9204 2.3916 26.9999C2.3916 27.0794 2.4074 27.1581 2.43809 27.2315C2.46878 27.3048 2.51374 27.3714 2.57037 27.4272C2.62699 27.483 2.69414 27.527 2.76792 27.5567C2.8417 27.5863 2.92064 27.601 3.00015 27.5999H27.0001C27.0797 27.601 27.1586 27.5863 27.2324 27.5567C27.3062 27.527 27.3733 27.483 27.4299 27.4272C27.4866 27.3714 27.5315 27.3048 27.5622 27.2315C27.5929 27.1581 27.6087 27.0794 27.6087 26.9999C27.6087 26.9204 27.5929 26.8417 27.5622 26.7683C27.5315 26.695 27.4866 26.6284 27.4299 26.5726C27.3733 26.5168 27.3062 26.4728 27.2324 26.4431C27.1586 26.4135 27.0797 26.3988 27.0001 26.3999H11.4001Z" fill="#2B5FAE"/>
</svg>
