<svg width="30" height="30" viewBox="0 0 30 30" fill="none" xmlns="http://www.w3.org/2000/svg">
<path d="M15 30C23.2843 30 30 23.2843 30 15C30 6.71573 23.2843 0 15 0C6.71573 0 0 6.71573 0 15C0 23.2843 6.71573 30 15 30Z" fill="#0052B4"/>
<path d="M15 5.86938L15.4857 7.36406H17.0572L15.7858 8.28779L16.2715 9.78246L15 8.85867L13.7286 9.78246L14.2142 8.28779L12.9428 7.36406H14.5144L15 5.86938Z" fill="#FFDA44"/>
<path d="M8.54379 8.54349L9.94419 9.25692L11.0554 8.14575L10.8095 9.6979L12.2098 10.4114L10.6576 10.6573L10.4118 12.2095L9.69827 10.8092L8.14612 11.0551L9.25735 9.94388L8.54379 8.54349Z" fill="#FFDA44"/>
<path d="M5.86963 14.9999L7.3643 14.5142V12.9426L8.28797 14.2141L9.78269 13.7284L8.85885 14.9999L9.78269 16.2713L8.28797 15.7857L7.3643 17.0571V15.4855L5.86963 14.9999Z" fill="#FFDA44"/>
<path d="M8.54379 21.456L9.25729 20.0556L8.14612 18.9444L9.69833 19.1904L10.4117 17.79L10.6576 19.3422L12.2098 19.5881L10.8096 20.3016L11.0554 21.8538L9.94419 20.7425L8.54379 21.456Z" fill="#FFDA44"/>
<path d="M15 24.1302L14.5143 22.6356H12.9428L14.2143 21.7118L13.7286 20.2173L15 21.141L16.2715 20.2173L15.7858 21.7118L17.0572 22.6356H15.4857L15 24.1302Z" fill="#FFDA44"/>
<path d="M21.4563 21.456L20.0559 20.7426L18.9446 21.8538L19.1906 20.3015L17.7903 19.5881L19.3425 19.3422L19.5884 17.79L20.3018 19.1904L21.8539 18.9444L20.7427 20.0557L21.4563 21.456Z" fill="#FFDA44"/>
<path d="M24.1304 14.9999L22.6357 15.4855V17.0571L21.712 15.7856L20.2175 16.2713L21.1412 14.9999L20.2175 13.7284L21.7121 14.2141L22.6357 12.9426V14.5142L24.1304 14.9999Z" fill="#FFDA44"/>
<path d="M21.4563 8.54367L20.7428 9.94406L21.854 11.0553L20.3017 10.8093L19.5884 12.2096L19.3425 10.6574L17.7903 10.4115L19.1906 9.69809L18.9446 8.146L20.056 9.25717L21.4563 8.54367Z" fill="#FFDA44"/>
</svg>
