<svg width="45" height="18" viewBox="0 0 45 18" fill="none" xmlns="http://www.w3.org/2000/svg">
<path d="M21.2819 8.66954V13.8713H19.6202V1.02528H24.0274C24.5534 1.01436 25.0765 1.10702 25.5663 1.29789C26.0561 1.48877 26.503 1.77408 26.8812 2.13738C27.2632 2.47861 27.5672 2.8971 27.7728 3.36471C27.9785 3.83233 28.0809 4.33824 28.0733 4.84843C28.0842 5.36136 27.9834 5.87057 27.7776 6.34117C27.5718 6.81176 27.266 7.23261 26.8812 7.57487C26.1105 8.30465 25.1593 8.6692 24.0274 8.66852H21.2819V8.66954ZM21.2819 2.60681V7.09108H24.0687C24.3742 7.10007 24.6782 7.04564 24.9613 6.93128C25.2444 6.81691 25.5004 6.64512 25.7128 6.4269C25.9242 6.22286 26.0921 5.97882 26.2068 5.70919C26.3216 5.43957 26.3807 5.14984 26.3807 4.85715C26.3807 4.56445 26.3216 4.27472 26.2068 4.0051C26.0921 3.73547 25.9242 3.49143 25.7128 3.2874C25.5031 3.06457 25.248 2.88858 24.9645 2.77107C24.6811 2.65356 24.3757 2.59722 24.0687 2.60579H21.2819V2.60681Z" fill="#5F6368"/>
<path d="M31.9025 4.79541C33.1307 4.79541 34.1002 5.12135 34.811 5.77324C35.5218 6.42512 35.8768 7.3189 35.8761 8.45457V13.8716H34.2867V12.6518H34.2144C33.5263 13.6563 32.6112 14.1586 31.469 14.1586C30.494 14.1586 29.6783 13.8716 29.0218 13.2976C28.7068 13.0341 28.455 12.7042 28.2846 12.3318C28.1143 11.9595 28.0297 11.5541 28.0372 11.1451C28.0372 10.2356 28.3833 9.51234 29.0755 8.97526C29.7677 8.43817 30.6918 8.16894 31.8478 8.16758C32.8345 8.16758 33.6471 8.34695 34.2856 8.70569V8.3285C34.2875 8.04972 34.2269 7.77402 34.1082 7.5214C33.9895 7.26877 33.8156 7.04554 33.5993 6.86791C33.1599 6.47419 32.5872 6.25937 31.9954 6.26625C31.0671 6.26625 30.3326 6.65506 29.7918 7.43267L28.3283 6.51737C29.1333 5.3694 30.3247 4.79541 31.9025 4.79541ZM29.7526 11.181C29.7515 11.391 29.8009 11.5983 29.8968 11.7855C29.9926 11.9727 30.1322 12.1344 30.3037 12.2572C30.6712 12.5443 31.1274 12.6964 31.5949 12.6877C32.2961 12.6866 32.9683 12.4094 33.4641 11.9169C34.0145 11.4024 34.2898 10.7987 34.2898 10.1058C33.7716 9.69581 33.0492 9.49082 32.1223 9.49082C31.4473 9.49082 30.8845 9.65242 30.4338 9.97563C29.9786 10.3036 29.7526 10.7023 29.7526 11.181Z" fill="#5F6368"/>
<path d="M45 5.08252L39.4513 17.7461H37.7359L39.795 13.3151L36.1465 5.08252H37.9527L40.5898 11.3964H40.6259L43.1907 5.08252H45Z" fill="#5F6368"/>
<path d="M14.567 7.54841C14.5676 7.04551 14.5248 6.54348 14.439 6.04785H7.43091V8.89011H11.4448C11.3627 9.34406 11.1888 9.77679 10.9338 10.1622C10.6787 10.5476 10.3476 10.8778 9.96063 11.1328V12.9777H12.3562C13.7588 11.6934 14.567 9.79413 14.567 7.54841Z" fill="#4285F4"/>
<path d="M7.431 14.7604C9.4364 14.7604 11.1249 14.1064 12.3563 12.979L9.96072 11.134C9.29397 11.5829 8.43525 11.8392 7.431 11.8392C5.49268 11.8392 3.84748 10.5416 3.25918 8.79297H0.791382V10.6943C1.4099 11.9166 2.35832 12.944 3.53077 13.662C4.70322 14.38 6.05354 14.7603 7.431 14.7604Z" fill="#34A853"/>
<path d="M3.25909 8.79257C2.94807 7.87628 2.94807 6.88402 3.25909 5.96773V4.06641H0.791296C0.27098 5.09461 0 6.22941 0 7.38015C0 8.53089 0.27098 9.66569 0.791296 10.6939L3.25909 8.79257Z" fill="#FBBC04"/>
<path d="M7.43099 2.92166C8.49076 2.90447 9.51478 3.30211 10.2817 4.02864L12.4027 1.92231C11.0578 0.667821 9.27603 -0.0209163 7.43099 0.000484185C6.05354 0.000546529 4.70322 0.380806 3.53077 1.09881C2.35832 1.81681 1.4099 2.8443 0.791382 4.06656L3.25918 5.96789C3.84748 4.21928 5.49268 2.92166 7.43099 2.92166Z" fill="#EA4335"/>
</svg>
