<svg width="58" height="34" viewBox="0 0 58 34" fill="none" xmlns="http://www.w3.org/2000/svg">
<path d="M25.7065 19.5831L27.238 9.7915H29.6446L28.1131 19.5831H25.7065Z" fill="#074784"/>
<path d="M18.5962 9.7915H22.4248C24.8313 9.7915 25.4877 11.238 25.1595 12.907C24.9407 14.3535 23.9562 15.2436 22.6436 15.5774L25.0501 19.5831H21.8778L20.0182 15.6887L19.4713 19.5831H16.9553L18.5962 9.7915ZM20.7839 11.6831L20.3464 14.131H21.1121C21.7684 14.131 22.4248 13.5746 22.5342 12.907C22.6436 12.2394 22.206 11.6831 21.4403 11.6831H20.7839Z" fill="#074784"/>
<path d="M36.9734 19.5831L38.5048 9.7915H41.0208L39.4893 19.5831H36.9734Z" fill="#074784"/>
<path d="M45.0684 11.9056L44.7402 13.5746H47.5843L47.2561 15.6887H44.412L44.1932 17.469H47.1467L46.8186 19.5831H41.3491L42.8806 9.7915H48.35L48.0219 11.9056H45.0684Z" fill="#074784"/>
<path d="M13.7832 11.9056L13.5644 13.5746H16.4085L16.0804 15.6887H13.2363L12.9081 17.469H15.8616L15.5334 19.5831H10.064L11.5954 9.7915H17.0649L16.7367 11.9056H13.7832Z" fill="#074784"/>
<path d="M33.6919 11.9056L33.4731 13.5746H36.2078L35.8797 15.6887H33.1449L32.4886 19.5831H29.9727L31.5041 9.7915H37.083L36.7548 11.9056H33.6919Z" fill="#074784"/>
<path d="M53.0538 9.7915H49.7722L48.2407 19.5831H51.5224C54.5853 19.5831 57.1012 17.469 57.5388 14.6873C57.7576 12.7957 56.8825 9.7915 53.0538 9.7915ZM54.9135 14.576C54.5853 16.3563 53.382 17.469 51.7412 17.469C51.5224 17.469 51.3036 17.469 51.0848 17.469L51.96 11.9056C52.1787 11.9056 52.2881 11.9056 52.5069 11.9056C54.3665 11.9056 55.1322 13.2408 54.9135 14.576Z" fill="#074784"/>
<path d="M0 8.45638H4.59435L5.14129 15.5775C8.20419 10.2367 11.2671 5.11833 14.4394 0H15.9708C12.6891 6.45355 9.40747 13.0184 6.23518 19.5832H2.84412L1.96901 11.6832C1.75023 9.79159 1.42206 8.90145 0 8.79018V8.45638Z" fill="#074784"/>
<path d="M6.2352 10.5707L9.84504 4.33972V4.11719H1.75024V4.33972L5.68825 6.12001L6.01642 10.5707H6.2352Z" fill="#F09C11"/>
<path d="M20.565 25.0354C19.9086 25.0354 19.3617 25.3692 18.9241 25.8143L19.4711 21.9199H17.8302L16.627 30.4876H18.2678L18.3772 29.82C18.7053 30.265 19.1429 30.5988 19.7992 30.5988C21.1119 30.5988 22.3152 29.3749 22.534 27.8171C22.7527 26.2594 21.8776 25.0354 20.565 25.0354ZM20.7837 27.8171C20.6744 28.4847 20.1274 29.0411 19.5805 29.0411C19.0335 29.0411 18.596 28.4847 18.7053 27.8171C18.8147 27.1495 19.3617 26.5932 19.9086 26.5932C20.4556 26.5932 20.8931 27.1495 20.7837 27.8171Z" fill="#074784"/>
<path d="M27.1286 25.1465H28.9882L24.0657 33.1578H22.2061L24.2845 29.8197L22.6436 25.1465H24.5032L25.3783 27.9282L27.1286 25.1465Z" fill="#074784"/>
<path d="M40.0364 30.4876H37.7393L40.3646 21.9199H42.6618L40.0364 30.4876Z" fill="#074784"/>
<path d="M36.7548 21.9199L33.6919 27.4833L33.4732 21.9199H29.5352V22.2537C30.8478 22.2537 31.0666 22.4763 31.2854 23.4777L32.0511 30.4876H34.4577L39.2708 21.9199H36.7548Z" fill="#074784"/>
<path d="M51.7411 29.2636L51.1942 30.4876H48.6782L53.2726 21.9199H56.3355L57.1012 30.4876H55.351H54.5852L54.4758 29.2636H51.7411ZM52.5068 27.5946H54.4758L54.2571 23.5889L52.5068 27.5946Z" fill="#074784"/>
<path d="M45.0683 30.71C43.4275 30.71 42.3336 30.1536 41.5679 29.7086L42.6618 28.0395C43.3181 28.4846 43.865 28.9297 45.1777 28.9297C45.6153 28.9297 45.9434 28.8184 46.1622 28.4846C46.4904 27.9283 46.0528 27.5945 45.1777 27.1494L44.7402 26.7043C43.4275 25.8142 42.7712 24.924 43.4275 23.3663C43.865 22.3649 44.8495 21.6973 46.5998 21.6973C47.8031 21.6973 48.8969 22.2536 49.5533 22.6987L48.2406 24.1452C47.5843 23.5888 47.0373 23.3663 46.4904 23.3663C46.0528 23.3663 45.6153 23.5888 45.5059 23.8114C45.2871 24.2564 45.6153 24.5902 46.2716 25.0353L46.8185 25.3691C48.4594 26.3705 48.7876 27.4832 48.4594 28.4846C47.9124 30.3762 46.4904 30.71 45.0683 30.71Z" fill="#074784"/>
</svg>
