<svg width="20" height="25" viewBox="0 0 20 25" fill="none" xmlns="http://www.w3.org/2000/svg">
<path d="M5.22659 11.0476C6.36216 13.5536 8.79331 14.6444 10 14.6444C10.7935 14.6444 12.1163 14.1724 13.2521 13.1371C12.8368 13.166 12.3929 13.1807 11.9186 13.1807C11.8073 13.1807 11.6905 13.1797 11.5657 13.1778C11.3266 13.3619 11.0304 13.4657 10.7231 13.4657H9.7124C8.95077 13.4657 8.33118 12.8461 8.33118 12.0845C8.33118 11.3229 8.95077 10.7033 9.7124 10.7033H10.7231C11.0882 10.7033 11.4296 10.8456 11.6829 11.091C11.7671 11.092 11.85 11.0924 11.9314 11.0924C13.2361 11.0924 14.0959 10.9727 14.6583 10.8284C14.5854 10.6509 14.5456 10.4566 14.5456 10.2538V6.75176C14.5456 6.38746 14.6808 6.03824 14.9146 5.76847C14.7898 4.79723 14.5634 4.05575 14.2254 3.50878C13.529 2.38164 12.1863 1.8567 10 1.8567C8.18632 1.8567 6.93385 2.23321 6.17114 3.0077C5.57991 3.6081 5.2373 4.46479 5.07715 5.75863C5.3162 6.02942 5.45446 6.3822 5.45446 6.75176V10.2538C5.45453 10.5452 5.37078 10.8171 5.22659 11.0476Z" fill="#2A2A2A"/>
<path d="M2.7414 11.0806H3.95378C4.41019 11.0806 4.78049 10.7104 4.78049 10.2538V6.75176C4.78049 6.44668 4.61481 6.18088 4.36902 6.03763C4.63974 3.17001 5.74634 1.18287 9.99983 1.18287C12.4424 1.18287 13.9672 1.80947 14.7984 3.15465C15.282 3.93743 15.5147 4.94849 15.6234 6.04195C15.3815 6.1862 15.2191 6.44964 15.2191 6.75169V10.2537C15.2191 10.6474 15.4945 10.9761 15.863 11.0595C15.3286 11.409 14.2221 11.7661 11.9311 11.7661C11.7456 11.7661 11.5521 11.7637 11.3507 11.7589C11.2328 11.5321 10.9961 11.377 10.7229 11.377H9.71227C9.32162 11.377 9.00481 11.6937 9.00481 12.0844C9.00481 12.4751 9.32162 12.7919 9.71227 12.7919H10.7229C10.9589 12.7919 11.1675 12.6758 11.296 12.4981C11.5087 12.5035 11.7171 12.5069 11.9184 12.5069C14.5008 12.5068 16.1424 12.066 16.8073 11.1915C16.8356 11.1543 16.8614 11.1172 16.8849 11.0806H17.2584C17.7149 11.0806 18.0851 10.7104 18.0851 10.2538V6.75176C18.0851 6.29521 17.7149 5.92505 17.2584 5.92505H16.8024C16.6741 4.60392 16.3897 3.47927 15.8047 2.53276C14.7518 0.828465 12.8528 0 9.99976 0C7.14649 0 5.24775 0.828465 4.19472 2.53283C3.60982 3.47934 3.32556 4.60386 3.1972 5.92511H2.74133C2.28472 5.92511 1.91455 6.29521 1.91455 6.75183V10.2539C1.91455 10.7104 2.28479 11.0806 2.7414 11.0806Z" fill="#2A2A2A"/>
<path d="M19.9952 21.3786C19.7203 19.6694 19.1544 17.4678 18.0195 16.6856C17.2456 16.1519 14.5438 14.7083 13.3901 14.092L13.3658 14.0791C13.2338 14.0085 13.0727 14.0227 12.9549 14.115C12.3497 14.5901 11.6871 14.9101 10.9857 15.0663C10.8617 15.0938 10.7599 15.182 10.7148 15.3007L10 17.1846L9.2852 15.3007C9.24013 15.1819 9.13832 15.0938 9.01435 15.0663C8.31289 14.9101 7.65017 14.5901 7.04486 14.115C6.92722 14.0226 6.76605 14.0084 6.63406 14.0791C5.49324 14.6885 2.75646 16.1624 1.98378 16.6833C0.67674 17.5638 0.105924 20.7491 0.00479125 21.3786C-0.00524789 21.4411 0.000546509 21.505 0.0216354 21.5645C0.0683949 21.6966 1.2673 24.7975 9.99993 24.7975C18.7324 24.7975 19.9315 21.6966 19.9783 21.5646C19.9995 21.5049 20.0053 21.441 19.9952 21.3786ZM15.9292 19.4159H12.4704V18.6875H15.9292V19.4159Z" fill="#2A2A2A"/>
</svg>
