<svg width="25" height="25" viewBox="0 0 25 25" fill="none" xmlns="http://www.w3.org/2000/svg">
<path d="M6.03516 5.63198V7.87336C6.07136 7.85396 6.10498 7.83758 6.13472 7.82508C6.24031 7.78284 8.50131 6.89663 12.5001 6.89663C16.4989 6.89663 18.7598 7.78284 18.8542 7.82034C18.887 7.83413 18.9249 7.8531 18.965 7.87508V5.6337C16.7049 5.29395 14.5189 4.57293 12.5001 3.50137C10.4812 4.57239 8.29518 5.29283 6.03516 5.63198V5.63198Z" fill="#2B5FAE"/>
<path d="M5.17304 8.65215V5.25862C5.17309 5.15405 5.21116 5.05306 5.28015 4.97447C5.34913 4.89589 5.44433 4.84506 5.54801 4.83146C7.91299 4.52113 10.2001 3.77583 12.2939 2.63319C12.3572 2.59878 12.428 2.58076 12.5 2.58076C12.5719 2.58076 12.6428 2.59878 12.706 2.63319C14.7998 3.7757 17.087 4.521 19.4519 4.83146C19.5556 4.84506 19.6508 4.89589 19.7198 4.97447C19.7887 5.05306 19.8268 5.15405 19.8269 5.25862V8.65517C20.7043 9.8065 21.4264 11.0684 21.9745 12.4082C21.9771 12.3026 21.9818 12.1978 21.9818 12.0918V2.84095C18.6946 2.83852 15.4763 1.89779 12.7051 0.12931L12.5 0L12.2948 0.12931C9.52365 1.89779 6.30535 2.83852 3.01807 2.84095V12.0909C3.01807 12.197 3.02281 12.3017 3.02539 12.4073C3.57379 11.067 4.29585 9.80444 5.17304 8.65215Z" fill="#2B5FAE"/>
<path d="M21.9819 14.6553C21.9819 14.6553 19.8269 9.15959 18.5339 8.6208C18.5339 8.6208 16.379 7.75873 12.5 7.75873C8.62105 7.75873 6.46607 8.6208 6.46607 8.6208C5.17309 9.15959 3.01811 14.6553 3.01811 14.6553C1.47731 14.6553 0.0408025 16.0699 0.00115099 17.9958C-0.0397935 19.9721 1.01528 22.8449 2.58712 22.8449H3.44911V24.5691C3.44911 24.6834 3.49452 24.793 3.57534 24.8739C3.65617 24.9547 3.7658 25.0001 3.8801 25.0001H7.75906C7.87336 25.0001 7.98299 24.9547 8.06382 24.8739C8.14464 24.793 8.19005 24.6834 8.19005 24.5691V22.8449H16.8099V24.5691C16.8099 24.6834 16.8554 24.793 16.9362 24.8739C17.017 24.9547 17.1266 25.0001 17.2409 25.0001H21.1199C21.2342 25.0001 21.3438 24.9547 21.4247 24.8739C21.5055 24.793 21.5509 24.6834 21.5509 24.5691V22.8449H22.4129C23.9847 22.8449 25.0398 19.9721 24.9988 17.9958C24.9592 16.0699 23.5227 14.6553 21.9819 14.6553ZM6.89707 10.776C7.19575 10.0294 9.05204 9.48287 12.5 9.48287C16.379 9.48287 17.8043 10.0294 18.1029 10.776L19.8269 14.6553H5.17309L6.89707 10.776ZM2.15613 18.5346C2.15613 18.1936 2.25723 17.8602 2.44667 17.5767C2.6361 17.2932 2.90535 17.0722 3.22037 16.9417C3.53538 16.8112 3.88202 16.7771 4.21644 16.8436C4.55086 16.9101 4.85804 17.0743 5.09914 17.3154C5.34024 17.5566 5.50444 17.8638 5.57096 18.1982C5.63748 18.5327 5.60334 18.8793 5.47285 19.1944C5.34237 19.5094 5.1214 19.7787 4.8379 19.9682C4.55439 20.1576 4.22108 20.2587 3.8801 20.2587C3.42288 20.2587 2.98438 20.0771 2.66107 19.7537C2.33776 19.4304 2.15613 18.9919 2.15613 18.5346V18.5346ZM8.19005 17.2415H16.8099V18.1036H8.19005V17.2415ZM15.948 19.8277H9.05204V18.9656H15.948V19.8277ZM21.1199 20.2587C20.7789 20.2587 20.4456 20.1576 20.1621 19.9682C19.8786 19.7787 19.6576 19.5094 19.5271 19.1944C19.3967 18.8793 19.3625 18.5327 19.429 18.1982C19.4956 17.8638 19.6598 17.5566 19.9009 17.3154C20.142 17.0743 20.4491 16.9101 20.7836 16.8436C21.118 16.7771 21.4646 16.8112 21.7796 16.9417C22.0947 17.0722 22.3639 17.2932 22.5533 17.5767C22.7428 17.8602 22.8439 18.1936 22.8439 18.5346C22.8439 18.9919 22.6622 19.4304 22.3389 19.7537C22.0156 20.0771 21.5771 20.2587 21.1199 20.2587Z" fill="#2B5FAE"/>
</svg>
