<svg width="25" height="24" viewBox="0 0 25 24" fill="none" xmlns="http://www.w3.org/2000/svg">
<path d="M5.75152 15.1929C5.82528 15.1462 5.90612 15.0996 5.99614 15.053C5.61355 13.933 5.41735 12.7588 5.41521 11.5764V5.03485C5.41526 4.93473 5.45207 4.83803 5.51877 4.76279C5.58547 4.68755 5.67752 4.63889 5.77777 4.62587C8.0645 4.32875 10.276 3.61516 12.3005 2.52114C12.3616 2.4882 12.4301 2.47094 12.4997 2.47094C12.5693 2.47094 12.6378 2.4882 12.6989 2.52114C14.7236 3.6151 16.9352 4.32868 19.222 4.62587C19.3222 4.63898 19.4141 4.68768 19.4808 4.76292C19.5474 4.83815 19.5841 4.93479 19.5842 5.03485V11.5764C19.5813 13.5588 19.0355 15.5033 18.0047 17.2027L18.3306 17.3789L20.1463 17.6562C21.1463 15.7827 21.6686 13.6956 21.6678 11.5764V2.72006C18.4893 2.71773 15.3775 1.81703 12.6981 0.123808L12.4997 0L12.3013 0.123808C9.62188 1.81708 6.51006 2.71777 3.33154 2.72006V11.5764C3.33128 13.1196 3.60828 14.6505 4.14959 16.0975L5.75152 15.1929Z" fill="#9E9E9E"/>
<path d="M12.5 3.35071C10.5481 4.37672 8.43436 5.06706 6.24902 5.3923V11.5765C6.251 12.6584 6.42857 13.733 6.77494 14.7592C7.83547 14.5146 8.92381 14.4087 10.0121 14.4443C11.5697 14.4065 13.1164 14.7096 14.542 15.332L17.272 16.8074C18.2364 15.2294 18.7477 13.4209 18.751 11.5765V5.3923C16.5657 5.06694 14.452 4.37661 12.5 3.35071ZM12.5 11.8972L11.4224 12.9644C11.2661 13.1191 11.0541 13.206 10.8331 13.206C10.6121 13.206 10.4001 13.1191 10.2438 12.9644L7.91596 10.6591L9.16616 9.421L10.8331 11.0718L12.5 9.421L15.8339 6.11946L17.0841 7.35754L12.5 11.8972Z" fill="#9E9E9E"/>
<path d="M4.99848 23.9361C5.9191 23.9361 6.66541 23.197 6.66541 22.2854C6.66541 21.3737 5.9191 20.6346 4.99848 20.6346C4.07786 20.6346 3.33154 21.3737 3.33154 22.2854C3.33154 23.197 4.07786 23.9361 4.99848 23.9361Z" fill="#9E9E9E"/>
<path d="M24.9018 20.7461L24.5726 19.6855C24.5646 19.6641 24.5549 19.6434 24.5435 19.6236C24.4188 19.4345 24.2499 19.2779 24.0511 19.1673C23.8524 19.0566 23.6295 18.9951 23.4016 18.988L18.1007 18.1791C18.0743 18.1759 18.0488 18.1675 18.0257 18.1544L14.1459 16.0579C12.8419 15.5016 11.4313 15.2327 10.0119 15.2697C7.19483 15.2697 6.47388 15.7154 6.16549 15.9093L3.84846 17.2217C3.71922 17.2954 3.57254 17.3339 3.42339 17.3331H2.09817C1.24387 17.3331 0.639605 17.9068 0.44374 18.8848L0.0228391 20.5521C-0.0140343 20.7444 -0.00617683 20.9424 0.0458145 21.1312C0.0978058 21.32 0.192563 21.4945 0.322887 21.6416C0.489275 21.8394 0.69677 21.9992 0.931221 22.1103C1.16567 22.2214 1.42156 22.2812 1.68144 22.2854H2.49824C2.49824 21.6287 2.76167 20.9989 3.23059 20.5345C3.69951 20.0702 4.33549 19.8093 4.99864 19.8093C5.66179 19.8093 6.29778 20.0702 6.76669 20.5345C7.23561 20.9989 7.49904 21.6287 7.49904 22.2854H17.0839C17.0839 21.6287 17.3474 20.9989 17.8163 20.5345C18.2852 20.0702 18.9212 19.8093 19.5843 19.8093C20.2475 19.8093 20.8835 20.0702 21.3524 20.5345C21.8213 20.9989 22.0847 21.6287 22.0847 22.2854H23.9017C24.0855 22.2851 24.2663 22.2392 24.4276 22.1519C24.5889 22.0645 24.7256 21.9386 24.825 21.7855C24.9245 21.6324 24.9836 21.457 24.9971 21.2755C25.0105 21.0939 24.9777 20.9119 24.9018 20.7461ZM9.59521 17.9068C7.99912 17.8201 6.39053 17.7004 4.96947 17.5353L6.60723 16.6068C6.81977 16.4747 7.36986 16.1363 9.59521 16.0992V17.9068ZM10.4287 17.9522V16.1033C11.5692 16.1094 12.6969 16.3409 13.7459 16.7842L16.2505 18.1379C14.7669 18.1131 12.6457 18.0636 10.4287 17.9522Z" fill="#9E9E9E"/>
<path d="M19.5844 23.9361C20.505 23.9361 21.2514 23.197 21.2514 22.2854C21.2514 21.3737 20.505 20.6346 19.5844 20.6346C18.6638 20.6346 17.9175 21.3737 17.9175 22.2854C17.9175 23.197 18.6638 23.9361 19.5844 23.9361Z" fill="#9E9E9E"/>
</svg>
