<svg width="224" height="52" viewBox="0 0 224 52" fill="none" xmlns="http://www.w3.org/2000/svg">
<path opacity="0.4" d="M198.948 18.4289C198.82 18.4289 198.693 18.3799 198.595 18.2829C197.855 17.5519 196.574 17.2229 194.447 17.2199C192.32 17.2239 191.04 17.5509 190.3 18.2829C190.104 18.4769 189.787 18.475 189.593 18.278C189.399 18.083 189.401 17.764 189.598 17.5709C190.805 16.379 192.825 16.2229 194.448 16.219C196.073 16.2229 198.094 16.3769 199.302 17.5709C199.498 17.764 199.5 18.083 199.306 18.278C199.206 18.378 199.077 18.4289 198.948 18.4289ZM187.543 18.1789C187.689 17.945 187.622 17.636 187.389 17.4879C186.647 17.0149 185.83 16.6649 184.969 16.445C183.963 16.189 182.936 16.127 181.912 16.253C181.639 16.287 181.443 16.5369 181.478 16.8109C181.51 17.0849 181.763 17.2859 182.036 17.247C182.933 17.136 183.838 17.1919 184.723 17.416C185.483 17.608 186.2 17.9189 186.852 18.3349C186.936 18.3879 187.03 18.413 187.122 18.413C187.286 18.409 187.448 18.327 187.543 18.1789ZM212.318 18.278C212.511 18.083 212.509 17.764 212.314 17.5709C211.105 16.379 209.085 16.2229 207.46 16.219C205.835 16.2229 203.815 16.3769 202.608 17.5709C202.412 17.764 202.41 18.083 202.604 18.278C202.798 18.475 203.115 18.4769 203.311 18.2829C204.053 17.5519 205.332 17.2229 207.458 17.2199C209.587 17.2239 210.866 17.5509 211.605 18.2829C211.704 18.3799 211.831 18.4289 211.958 18.4289C212.09 18.4289 212.219 18.378 212.318 18.278ZM215.055 18.3309C215.711 17.9149 216.428 17.6039 217.186 17.4119C218.071 17.1879 218.975 17.131 219.874 17.243C220.149 17.2819 220.397 17.0819 220.433 16.8069C220.467 16.535 220.273 16.2849 219.998 16.2489C218.977 16.1229 217.948 16.186 216.94 16.441C216.08 16.6609 215.264 17.011 214.52 17.4839C214.288 17.632 214.217 17.941 214.367 18.174C214.463 18.323 214.624 18.4049 214.789 18.4049C214.879 18.4089 214.973 18.3839 215.055 18.3309ZM201.448 29.798V18.799C201.448 18.523 201.222 18.299 200.948 18.299C200.673 18.299 200.448 18.523 200.448 18.799V29.798C200.448 31.177 199.326 32.299 197.948 32.299C196.57 32.299 195.448 31.177 195.448 29.798C195.448 29.523 195.222 29.298 194.948 29.298C194.673 29.298 194.448 29.523 194.448 29.798C194.448 31.7299 196.017 33.299 197.948 33.299C199.878 33.299 201.448 31.7299 201.448 29.798ZM222.678 16.0149C222.907 15.8589 222.963 15.5459 222.807 15.32C217.858 8.10695 209.684 3.79895 200.949 3.79895C192.213 3.79895 184.04 8.10695 179.09 15.32C178.935 15.5479 178.989 15.8589 179.219 16.0149C179.448 16.1709 179.758 16.113 179.913 15.885C184.678 8.94295 192.542 4.79895 200.949 4.79895C209.356 4.79895 217.22 8.94495 221.985 15.885C222.082 16.027 222.237 16.1029 222.397 16.1029C222.494 16.1029 222.592 16.0729 222.678 16.0149ZM200.948 0.29895C200.396 0.29895 199.948 0.74595 199.948 1.29895C199.948 1.85295 200.396 2.29895 200.948 2.29895C201.5 2.29895 201.948 1.85295 201.948 1.29895C201.948 0.74595 201.5 0.29895 200.948 0.29895ZM47.751 47.9329C47.902 47.9329 48.028 47.984 48.129 48.081C48.228 48.183 48.278 48.3079 48.278 48.459C48.278 48.6059 48.222 48.7369 48.11 48.8509C47.587 49.3119 46.969 49.5389 46.259 49.5389C45.475 49.5389 44.805 49.262 44.251 48.708C43.695 48.151 43.419 47.481 43.419 46.699C43.419 45.916 43.695 45.2459 44.251 44.6899C44.805 44.1329 45.475 43.8579 46.259 43.8579C46.973 43.8579 47.589 44.0869 48.11 44.5459C48.232 44.6539 48.293 44.7869 48.293 44.945C48.293 45.097 48.243 45.2259 48.144 45.327C48.044 45.43 47.918 45.478 47.766 45.478C47.638 45.478 47.523 45.437 47.421 45.3569C47.248 45.2109 47.067 45.101 46.878 45.027C46.69 44.9529 46.483 44.916 46.26 44.916C46.013 44.916 45.781 44.963 45.565 45.055C45.349 45.151 45.16 45.276 44.998 45.438C44.836 45.5979 44.708 45.7879 44.614 46.0019C44.521 46.2189 44.475 46.45 44.475 46.695C44.475 46.943 44.521 47.174 44.614 47.3899C44.708 47.6069 44.836 47.7929 44.998 47.9539C45.16 48.1149 45.35 48.241 45.565 48.334C45.782 48.429 46.013 48.4759 46.26 48.4759C46.484 48.4759 46.69 48.4389 46.878 48.367C47.067 48.296 47.246 48.185 47.416 48.04C47.511 47.9739 47.622 47.937 47.751 47.9329ZM57.478 46.1209C57.478 45.8109 57.417 45.5199 57.297 45.2459C57.177 44.972 57.015 44.729 56.81 44.5239C56.605 44.3189 56.365 44.16 56.09 44.04C55.815 43.919 55.523 43.8579 55.216 43.8579C54.532 43.8579 53.956 44.128 53.486 44.666C53.262 44.395 53.004 44.1899 52.706 44.062C52.408 43.9259 52.09 43.861 51.752 43.861C51.292 43.861 50.882 43.9819 50.52 44.222C50.486 44.1129 50.424 44.025 50.332 43.958C50.241 43.894 50.136 43.8579 50.018 43.8579C49.872 43.8579 49.748 43.9109 49.645 44.012C49.542 44.116 49.491 44.2409 49.491 44.3839V49.0039C49.491 49.1519 49.543 49.277 49.645 49.382C49.749 49.485 49.874 49.5359 50.023 49.5359C50.169 49.5359 50.293 49.484 50.395 49.382C50.499 49.278 50.551 49.1529 50.551 49.0039V46.118C50.551 45.952 50.581 45.7979 50.645 45.6499C50.707 45.5039 50.793 45.3789 50.903 45.2669C51.013 45.1589 51.14 45.073 51.286 45.007C51.432 44.944 51.588 44.9129 51.753 44.9129C51.918 44.9129 52.073 44.9439 52.219 45.0099C52.365 45.0749 52.491 45.16 52.601 45.271C52.708 45.3769 52.795 45.5029 52.86 45.6499C52.923 45.7959 52.956 45.952 52.956 46.118V49.0039C52.956 49.1519 53.008 49.277 53.111 49.382C53.214 49.485 53.34 49.5359 53.488 49.5359C53.634 49.5359 53.758 49.484 53.861 49.382C53.965 49.278 54.016 49.1529 54.016 49.0039V46.118C54.016 45.952 54.047 45.7979 54.109 45.6499C54.172 45.5039 54.258 45.379 54.368 45.271C54.478 45.1629 54.605 45.077 54.751 45.0099C54.897 44.9469 55.052 44.9129 55.219 44.9129C55.386 44.9129 55.546 44.9439 55.693 45.0099C55.84 45.076 55.967 45.1609 56.076 45.2729C56.183 45.381 56.269 45.5079 56.332 45.6559C56.395 45.8019 56.425 45.955 56.425 46.118V49.0039C56.425 49.1519 56.477 49.277 56.577 49.382C56.68 49.485 56.805 49.5359 56.953 49.5359C57.099 49.5359 57.224 49.484 57.326 49.382C57.43 49.278 57.481 49.1529 57.481 49.0039V46.1209H57.478ZM61.652 49.5389C62.041 49.5389 62.403 49.472 62.736 49.334C63.069 49.194 63.377 48.9869 63.661 48.708C64.216 48.159 64.493 47.49 64.493 46.699C64.493 46.305 64.424 45.9399 64.286 45.604C64.146 45.268 63.939 44.9619 63.661 44.688C63.1 44.1339 62.43 43.8559 61.652 43.8559C60.869 43.8559 60.199 44.1339 59.645 44.688C59.089 45.2459 58.813 45.915 58.813 46.699V51.444C58.813 51.596 58.863 51.7229 58.962 51.824C59.061 51.924 59.189 51.971 59.34 51.971C59.488 51.971 59.614 51.921 59.718 51.824C59.821 51.7229 59.872 51.596 59.872 51.444V48.916C60.381 49.332 60.974 49.5389 61.652 49.5389ZM59.873 46.699C59.873 46.456 59.919 46.2249 60.013 46.0099C60.107 45.7939 60.232 45.6069 60.391 45.4469C60.549 45.2859 60.738 45.159 60.954 45.0639C61.17 44.9669 61.403 44.9199 61.652 44.9199C61.9 44.9199 62.131 44.9669 62.348 45.0639C62.564 45.159 62.751 45.287 62.913 45.45C63.073 45.611 63.199 45.7999 63.292 46.0149C63.386 46.228 63.433 46.456 63.433 46.702C63.433 46.945 63.386 47.1749 63.292 47.3899C63.199 47.6049 63.073 47.79 62.913 47.9529C62.751 48.1149 62.563 48.243 62.348 48.338C62.13 48.435 61.9 48.4819 61.652 48.4819C61.403 48.4819 61.17 48.435 60.954 48.338C60.737 48.243 60.549 48.116 60.391 47.956C60.232 47.795 60.107 47.604 60.013 47.3919C59.919 47.1729 59.873 46.94 59.873 46.699ZM70.118 49.012C70.118 49.158 70.171 49.2829 70.274 49.3849C70.377 49.4889 70.502 49.5389 70.651 49.5389C70.797 49.5389 70.921 49.4849 71.024 49.3849C71.127 49.2819 71.179 49.157 71.179 49.012V46.699C71.179 45.916 70.902 45.2459 70.347 44.6899C69.785 44.1329 69.117 43.8579 68.338 43.8579C67.553 43.8579 66.884 44.1329 66.329 44.6899C65.775 45.2459 65.497 45.916 65.497 46.699C65.497 47.481 65.775 48.151 66.329 48.708C66.884 49.262 67.553 49.5389 68.338 49.5389C68.677 49.5389 68.994 49.4829 69.292 49.3779C69.589 49.271 69.864 49.1119 70.117 48.91L70.118 49.012ZM68.339 44.9189C68.587 44.9189 68.818 44.9669 69.034 45.062C69.25 45.159 69.439 45.287 69.599 45.449C69.759 45.611 69.887 45.801 69.98 46.012C70.073 46.228 70.118 46.455 70.118 46.7C70.118 46.942 70.073 47.173 69.98 47.387C69.887 47.6049 69.759 47.791 69.599 47.9529C69.439 48.1139 69.249 48.2439 69.034 48.338C68.817 48.435 68.587 48.484 68.339 48.484C68.088 48.484 67.857 48.435 67.639 48.338C67.424 48.2439 67.236 48.116 67.076 47.956C66.917 47.795 66.792 47.604 66.698 47.3919C66.605 47.1729 66.559 46.945 66.559 46.7029C66.559 46.459 66.605 46.2299 66.698 46.014C66.792 45.797 66.917 45.6099 67.076 45.4479C67.235 45.2899 67.424 45.1629 67.639 45.0649C67.856 44.9669 68.088 44.9189 68.339 44.9189ZM72.286 48.6829C72.215 48.7729 72.181 48.881 72.181 49.012C72.181 49.083 72.194 49.1539 72.221 49.215C72.247 49.278 72.285 49.3359 72.332 49.3849C72.379 49.4349 72.436 49.4739 72.499 49.499C72.563 49.524 72.633 49.54 72.707 49.54C72.856 49.54 72.98 49.4829 73.083 49.3769L74.635 47.5229L76.176 49.3769C76.284 49.4829 76.41 49.54 76.556 49.54C76.631 49.54 76.701 49.524 76.764 49.499C76.828 49.4739 76.884 49.4349 76.932 49.3849C76.979 49.3359 77.017 49.281 77.047 49.215C77.075 49.152 77.089 49.083 77.089 49.012C77.089 48.877 77.052 48.7689 76.978 48.6829L75.32 46.6969L76.964 44.7399C77.048 44.6349 77.09 44.517 77.09 44.387C77.09 44.318 77.076 44.2479 77.048 44.1849C77.018 44.1219 76.98 44.0639 76.933 44.0149C76.885 43.965 76.829 43.927 76.765 43.902C76.702 43.8759 76.632 43.861 76.557 43.861C76.399 43.861 76.269 43.92 76.167 44.034L74.636 45.866L73.104 44.034C73 43.92 72.868 43.861 72.708 43.861C72.634 43.861 72.564 43.8759 72.5 43.902C72.437 43.927 72.38 43.965 72.333 44.0149C72.286 44.0639 72.248 44.1189 72.222 44.1849C72.195 44.2479 72.182 44.318 72.182 44.387C72.182 44.531 72.222 44.6479 72.303 44.7399L73.947 46.6969L72.286 48.6829ZM83.545 46.699C83.542 46.305 83.472 45.9419 83.335 45.6079C83.197 45.2719 82.989 44.965 82.714 44.6899C82.151 44.1329 81.483 43.8579 80.705 43.8579C79.92 43.8579 79.251 44.1329 78.696 44.6899C78.142 45.2459 77.864 45.916 77.864 46.699C77.864 47.481 78.142 48.151 78.696 48.708C79.251 49.262 79.92 49.5389 80.705 49.5389C81.482 49.5389 82.151 49.262 82.714 48.708C83.268 48.159 83.545 47.491 83.545 46.699ZM80.705 44.9189C80.952 44.9189 81.184 44.9669 81.4 45.062C81.615 45.159 81.804 45.287 81.965 45.449C82.124 45.611 82.252 45.801 82.345 46.012C82.438 46.228 82.484 46.455 82.484 46.7C82.484 46.942 82.438 47.173 82.345 47.387C82.252 47.6049 82.124 47.791 81.965 47.9529C81.804 48.1139 81.614 48.2439 81.4 48.338C81.183 48.435 80.952 48.484 80.705 48.484C80.454 48.484 80.221 48.435 80.004 48.338C79.789 48.2439 79.602 48.116 79.441 47.956C79.283 47.795 79.157 47.604 79.064 47.3919C78.971 47.1729 78.924 46.945 78.924 46.7029C78.924 46.459 78.971 46.2299 79.064 46.014C79.157 45.798 79.283 45.6099 79.441 45.4479C79.601 45.2899 79.789 45.1629 80.004 45.0649C80.221 44.9669 80.454 44.9189 80.705 44.9189ZM95.638 46.699C95.635 46.305 95.565 45.9419 95.428 45.6079C95.29 45.2719 95.082 44.965 94.807 44.6899C94.244 44.1329 93.576 43.8579 92.798 43.8579C92.013 43.8579 91.344 44.1329 90.789 44.6899C90.235 45.2459 89.957 45.916 89.957 46.699C89.957 47.481 90.235 48.151 90.789 48.708C91.344 49.262 92.013 49.5389 92.798 49.5389C93.575 49.5389 94.244 49.262 94.807 48.708C95.361 48.159 95.638 47.491 95.638 46.699ZM92.798 44.9189C93.045 44.9189 93.277 44.9669 93.493 45.062C93.708 45.159 93.897 45.287 94.058 45.449C94.217 45.611 94.345 45.801 94.438 46.012C94.531 46.228 94.577 46.455 94.577 46.7C94.577 46.942 94.531 47.173 94.438 47.387C94.345 47.6049 94.217 47.791 94.058 47.9529C93.897 48.1139 93.707 48.2439 93.493 48.338C93.276 48.435 93.045 48.484 92.798 48.484C92.547 48.484 92.314 48.435 92.097 48.338C91.882 48.2439 91.695 48.116 91.534 47.956C91.376 47.795 91.25 47.604 91.157 47.3919C91.064 47.1729 91.017 46.945 91.017 46.7029C91.017 46.459 91.064 46.2299 91.157 46.014C91.25 45.798 91.376 45.6099 91.534 45.4479C91.694 45.2899 91.882 45.1629 92.097 45.0649C92.314 44.9669 92.547 44.9189 92.798 44.9189ZM85.237 43.8579C85.163 43.8579 85.092 43.8729 85.03 43.8989C84.966 43.924 84.91 43.962 84.862 44.012C84.814 44.061 84.777 44.117 84.75 44.1819C84.724 44.2449 84.709 44.3149 84.709 44.3839V49.0089C84.709 49.0799 84.724 49.1489 84.75 49.2119C84.777 49.2749 84.814 49.333 84.862 49.382C84.91 49.4319 84.966 49.4689 85.03 49.4959C85.093 49.5229 85.163 49.5359 85.237 49.5359H87.55C87.782 49.5359 88.002 49.492 88.206 49.402C88.41 49.312 88.589 49.1909 88.741 49.0389C88.892 48.8869 89.012 48.709 89.1 48.5039C89.189 48.2999 89.233 48.082 89.233 47.854C89.233 47.708 89.218 47.577 89.189 47.457C89.161 47.337 89.118 47.226 89.063 47.116C89.007 47.007 88.936 46.9009 88.851 46.8009C88.767 46.6999 88.668 46.6009 88.558 46.4959C88.75 46.2249 88.846 45.903 88.846 45.542C88.846 45.313 88.802 45.097 88.712 44.8919C88.623 44.6889 88.502 44.5079 88.35 44.359C88.197 44.207 88.019 44.0859 87.815 43.9959C87.611 43.9059 87.392 43.861 87.163 43.861H85.237V43.8579ZM85.766 46.172V44.9189H87.164C87.249 44.9189 87.329 44.937 87.405 44.972C87.481 45.004 87.548 45.049 87.603 45.1069C87.658 45.1629 87.704 45.2279 87.737 45.3029C87.771 45.3789 87.789 45.459 87.789 45.542C87.789 45.6339 87.771 45.7189 87.737 45.7939C87.704 45.8699 87.657 45.937 87.599 45.992C87.542 46.048 87.475 46.0919 87.4 46.124C87.324 46.153 87.246 46.172 87.164 46.172H85.766ZM85.766 48.4799V47.228H87.551C87.631 47.228 87.71 47.2439 87.786 47.2749C87.862 47.3079 87.928 47.351 87.985 47.409C88.043 47.465 88.089 47.531 88.123 47.609C88.157 47.687 88.174 47.7689 88.174 47.8569C88.174 47.945 88.157 48.0249 88.123 48.0989C88.089 48.172 88.044 48.2409 87.988 48.2959C87.933 48.3549 87.866 48.3999 87.791 48.4329C87.715 48.4629 87.635 48.4799 87.551 48.4799H85.766ZM135.982 49.5389C136.13 49.5389 136.256 49.4869 136.359 49.3849C136.463 49.2819 136.515 49.157 136.515 49.012V44.387C136.515 44.241 136.462 44.117 136.359 44.0149C136.256 43.9109 136.132 43.861 135.988 43.861C135.84 43.861 135.714 43.9139 135.609 44.0149C135.506 44.1189 135.456 44.2439 135.456 44.387V46.894C135.456 47.113 135.414 47.32 135.331 47.5079C135.249 47.699 135.134 47.867 134.988 48.0149C134.842 48.1609 134.675 48.2729 134.48 48.3569C134.289 48.4389 134.084 48.4819 133.868 48.4819C133.646 48.4819 133.441 48.4389 133.25 48.3569C133.057 48.2729 132.889 48.1609 132.745 48.0169C132.599 47.8719 132.488 47.7039 132.404 47.5109C132.322 47.3199 132.281 47.113 132.281 46.894V44.387C132.281 44.241 132.228 44.117 132.126 44.0149C132.023 43.9109 131.898 43.861 131.753 43.861C131.606 43.861 131.479 43.9139 131.376 44.0149C131.272 44.1189 131.221 44.2439 131.221 44.387V46.894C131.221 47.254 131.291 47.597 131.432 47.916C131.573 48.2369 131.762 48.52 132.002 48.7589C132.241 48.9979 132.523 49.1909 132.843 49.3289C133.164 49.4689 133.506 49.5389 133.868 49.5389C134.173 49.5389 134.454 49.498 134.716 49.415C134.977 49.332 135.223 49.199 135.456 49.019C135.459 49.165 135.51 49.289 135.607 49.387C135.705 49.4869 135.831 49.5389 135.982 49.5389ZM101.633 49.5389C101.781 49.5389 101.907 49.4849 102.01 49.3849C102.114 49.2809 102.166 49.157 102.166 49.012V44.387C102.166 44.241 102.114 44.1169 102.01 44.0169C101.907 43.9129 101.783 43.861 101.638 43.861C101.49 43.861 101.364 43.9139 101.26 44.0169C101.157 44.1199 101.106 44.2439 101.106 44.387V46.894C101.106 47.115 101.065 47.32 100.981 47.5079C100.899 47.699 100.785 47.867 100.639 48.0149C100.493 48.1609 100.325 48.2749 100.131 48.3569C99.939 48.4389 99.735 48.4819 99.518 48.4819C99.297 48.4819 99.092 48.4389 98.9 48.3569C98.707 48.2749 98.539 48.1619 98.395 48.0169C98.25 47.8719 98.137 47.7039 98.055 47.5109C97.972 47.3199 97.93 47.115 97.93 46.894V44.387C97.93 44.241 97.879 44.1169 97.776 44.0169C97.673 43.9129 97.548 43.861 97.404 43.861C97.255 43.861 97.129 43.9139 97.026 44.0169C96.922 44.1199 96.871 44.2439 96.871 44.387V46.894C96.871 47.254 96.941 47.597 97.082 47.917C97.222 48.2369 97.412 48.521 97.652 48.7579C97.892 48.998 98.173 49.1909 98.493 49.3289C98.815 49.472 99.157 49.5389 99.518 49.5389C99.823 49.5389 100.104 49.498 100.366 49.415C100.626 49.332 100.873 49.2 101.106 49.019C101.109 49.165 101.16 49.289 101.258 49.387C101.354 49.4869 101.48 49.5389 101.633 49.5389ZM99.518 43.256C99.751 43.256 99.97 43.2239 100.175 43.1569C100.379 43.0909 100.558 43 100.71 42.8829C100.862 42.769 100.982 42.6289 101.072 42.4689C101.162 42.3139 101.206 42.1419 101.206 41.958C101.206 41.812 101.157 41.6849 101.057 41.5799C100.957 41.4749 100.831 41.4249 100.68 41.4249C100.528 41.4249 100.401 41.478 100.299 41.576C100.224 41.653 100.177 41.7459 100.156 41.8479C100.149 41.944 100.088 42.0219 99.969 42.0859C99.844 42.1579 99.693 42.193 99.517 42.193C99.341 42.193 99.191 42.1579 99.066 42.0859C98.948 42.0219 98.882 41.943 98.874 41.8479C98.856 41.7439 98.811 41.653 98.737 41.576C98.634 41.4729 98.508 41.4249 98.356 41.4249C98.204 41.4249 98.077 41.4799 97.978 41.5799C97.878 41.6839 97.829 41.809 97.829 41.958C97.829 42.1419 97.874 42.3119 97.964 42.4689C98.053 42.6289 98.174 42.769 98.326 42.8829C98.478 43 98.657 43.0909 98.861 43.1569C99.065 43.2239 99.284 43.256 99.518 43.256ZM110.538 47.9329C110.409 47.937 110.298 47.9739 110.203 48.0429C110.034 48.1889 109.855 48.299 109.665 48.3699C109.477 48.4419 109.27 48.479 109.047 48.479C108.8 48.479 108.568 48.4299 108.352 48.3369C108.136 48.2439 107.947 48.118 107.785 47.957C107.623 47.796 107.495 47.6069 107.401 47.3929C107.308 47.1739 107.262 46.944 107.262 46.699C107.262 46.453 107.308 46.22 107.401 46.005C107.495 45.788 107.623 45.6009 107.785 45.4409C107.947 45.2809 108.137 45.1539 108.352 45.0599C108.569 44.9659 108.8 44.9189 109.047 44.9189C109.271 44.9189 109.477 44.956 109.665 45.028C109.855 45.104 110.036 45.2149 110.208 45.3579C110.31 45.4399 110.425 45.479 110.553 45.479C110.705 45.479 110.831 45.4299 110.932 45.3299C111.031 45.2269 111.081 45.101 111.081 44.949C111.081 44.79 111.019 44.657 110.898 44.549C110.377 44.089 109.76 43.861 109.046 43.861C108.261 43.861 107.592 44.136 107.037 44.693C106.483 45.249 106.205 45.9189 106.205 46.702C106.205 47.486 106.483 48.1559 107.037 48.7109C107.592 49.2659 108.261 49.542 109.046 49.542C109.755 49.542 110.373 49.313 110.898 48.854C111.008 48.7439 111.064 48.6119 111.064 48.4619C111.064 48.3109 111.015 48.186 110.915 48.084C110.815 47.9819 110.69 47.9329 110.538 47.9329ZM116.296 47.9399C116.164 47.944 116.048 47.9889 115.945 48.0729C115.787 48.2099 115.613 48.3089 115.426 48.3779C115.239 48.444 115.035 48.4819 114.811 48.4819C114.617 48.4819 114.427 48.452 114.246 48.3899C114.066 48.3279 113.901 48.2439 113.75 48.132C113.6 48.0229 113.469 47.8919 113.357 47.736C113.245 47.584 113.161 47.4129 113.103 47.2259H117.12C117.268 47.2259 117.393 47.1749 117.497 47.0779C117.601 46.9759 117.651 46.8489 117.651 46.7C117.651 46.306 117.583 45.943 117.444 45.6049C117.305 45.269 117.096 44.9619 116.821 44.6909C116.258 44.1339 115.59 43.859 114.811 43.859C114.028 43.859 113.358 44.1339 112.804 44.6909C112.249 45.2469 111.972 45.917 111.972 46.7C111.972 47.482 112.249 48.152 112.804 48.709C113.358 49.263 114.028 49.54 114.811 49.54C115.524 49.54 116.144 49.311 116.668 48.852C116.771 48.748 116.819 48.6219 116.819 48.4729C116.819 48.319 116.768 48.194 116.671 48.0929C116.573 47.9919 116.448 47.9399 116.296 47.9399ZM113.105 46.172C113.16 45.984 113.242 45.8179 113.353 45.6619C113.465 45.5079 113.597 45.3769 113.749 45.2659C113.9 45.1579 114.067 45.0709 114.25 45.0089C114.434 44.9469 114.621 44.917 114.813 44.917C115.007 44.917 115.193 44.9469 115.375 45.0089C115.557 45.0709 115.723 45.1549 115.872 45.2659C116.021 45.375 116.152 45.506 116.268 45.6619C116.381 45.8149 116.466 45.983 116.526 46.172H113.105ZM121.525 49.5389C121.916 49.5389 122.277 49.472 122.609 49.334C122.943 49.194 123.252 48.9869 123.536 48.708C124.09 48.159 124.368 47.49 124.368 46.699C124.368 46.305 124.298 45.9399 124.159 45.604C124.021 45.268 123.812 44.9619 123.536 44.688C122.974 44.1339 122.305 43.8559 121.525 43.8559C120.743 43.8559 120.073 44.1339 119.519 44.688C118.961 45.2459 118.687 45.915 118.687 46.699V51.444C118.687 51.596 118.738 51.7229 118.834 51.824C118.935 51.924 119.062 51.971 119.212 51.971C119.36 51.971 119.485 51.921 119.589 51.824C119.693 51.7229 119.745 51.596 119.745 51.444V48.916C120.255 49.332 120.848 49.5389 121.525 49.5389ZM119.748 46.699C119.748 46.456 119.793 46.2249 119.887 46.0099C119.981 45.7949 120.106 45.6069 120.266 45.4469C120.423 45.2859 120.612 45.159 120.829 45.0639C121.045 44.9669 121.277 44.9199 121.525 44.9199C121.773 44.9199 122.004 44.9669 122.222 45.0639C122.437 45.159 122.625 45.287 122.786 45.45C122.946 45.611 123.073 45.7999 123.166 46.0149C123.261 46.228 123.306 46.456 123.306 46.702C123.306 46.945 123.261 47.1749 123.166 47.3899C123.073 47.6049 122.946 47.79 122.786 47.9529C122.625 48.1149 122.436 48.243 122.222 48.338C122.004 48.435 121.773 48.4819 121.525 48.4819C121.277 48.4819 121.045 48.435 120.829 48.338C120.611 48.243 120.424 48.116 120.266 47.956C120.106 47.795 119.981 47.604 119.887 47.3919C119.793 47.1729 119.748 46.94 119.748 46.699ZM126.061 43.8579C125.987 43.8579 125.915 43.8729 125.854 43.8989C125.791 43.924 125.733 43.962 125.686 44.012C125.639 44.061 125.602 44.117 125.576 44.1819C125.55 44.2449 125.534 44.3149 125.534 44.3839V49.0089C125.534 49.0799 125.55 49.1489 125.576 49.2119C125.602 49.2749 125.639 49.333 125.686 49.382C125.733 49.4319 125.79 49.4689 125.854 49.4959C125.918 49.5229 125.987 49.5359 126.061 49.5359H128.374C128.605 49.5359 128.826 49.492 129.029 49.402C129.234 49.312 129.413 49.1909 129.564 49.0389C129.715 48.8869 129.835 48.709 129.923 48.5039C130.013 48.2999 130.056 48.082 130.056 47.854C130.056 47.708 130.04 47.577 130.013 47.457C129.984 47.337 129.941 47.226 129.886 47.116C129.829 47.007 129.758 46.9009 129.673 46.8009C129.589 46.6999 129.491 46.6009 129.38 46.4959C129.572 46.2249 129.668 45.903 129.668 45.542C129.668 45.313 129.624 45.097 129.535 44.8919C129.444 44.6889 129.324 44.5079 129.172 44.359C129.021 44.207 128.841 44.0859 128.64 43.9959C128.435 43.9059 128.215 43.861 127.988 43.861H126.06V43.8579H126.061ZM126.588 46.172V44.9189H127.986C128.07 44.9189 128.15 44.937 128.228 44.972C128.301 45.004 128.37 45.049 128.423 45.1069C128.48 45.1629 128.525 45.2279 128.56 45.3029C128.591 45.3789 128.611 45.459 128.611 45.542C128.611 45.6339 128.591 45.7189 128.56 45.7939C128.525 45.8699 128.478 45.937 128.42 45.992C128.36 46.048 128.295 46.0919 128.222 46.124C128.146 46.153 128.066 46.172 127.986 46.172H126.588ZM126.588 48.4799V47.228H128.373C128.453 47.228 128.532 47.2439 128.607 47.2749C128.683 47.3079 128.75 47.351 128.808 47.409C128.865 47.465 128.912 47.531 128.945 47.609C128.978 47.687 128.996 47.7689 128.996 47.8569C128.996 47.945 128.978 48.0249 128.945 48.0989C128.912 48.172 128.866 48.2409 128.81 48.2959C128.753 48.3549 128.687 48.3999 128.613 48.4329C128.537 48.4629 128.458 48.4799 128.373 48.4799H126.588ZM142.038 47.9329C141.909 47.937 141.798 47.9739 141.703 48.0429C141.534 48.1889 141.355 48.299 141.165 48.3699C140.977 48.4419 140.769 48.479 140.547 48.479C140.299 48.479 140.068 48.4299 139.852 48.3369C139.636 48.2439 139.448 48.118 139.286 47.957C139.125 47.796 138.997 47.6069 138.901 47.3929C138.809 47.1739 138.762 46.944 138.762 46.699C138.762 46.453 138.809 46.22 138.901 46.005C138.997 45.788 139.125 45.6009 139.286 45.4409C139.448 45.2809 139.64 45.1539 139.852 45.0599C140.069 44.9659 140.299 44.9189 140.547 44.9189C140.772 44.9189 140.977 44.956 141.165 45.028C141.355 45.104 141.535 45.2149 141.708 45.3579C141.811 45.4399 141.925 45.479 142.053 45.479C142.204 45.479 142.331 45.4299 142.432 45.3299C142.533 45.2269 142.58 45.101 142.58 44.949C142.58 44.79 142.519 44.657 142.398 44.549C141.877 44.089 141.257 43.861 140.544 43.861C139.759 43.861 139.09 44.136 138.535 44.693C137.979 45.249 137.703 45.9189 137.703 46.702C137.703 47.486 137.979 48.1559 138.535 48.7109C139.09 49.2659 139.759 49.542 140.544 49.542C141.253 49.542 141.871 49.313 142.398 48.854C142.506 48.7439 142.564 48.6119 142.564 48.4619C142.564 48.3109 142.515 48.186 142.415 48.084C142.315 47.9819 142.189 47.9329 142.038 47.9329ZM97 28.9989C97 29.5649 96.884 30.1029 96.692 30.6029C96.044 32.2919 94.418 33.499 92.5 33.499L83.502 33.5009C82.673 33.5009 82.001 32.8279 82.001 31.999C82.001 31.171 82.673 30.4989 83.502 30.4989H92.499C93.328 30.4989 94 29.8239 94 28.996C94 28.177 93.338 27.5099 92.519 27.4989C92.519 27.4989 84.709 27.4979 86.5 27.4979C84.709 27.4979 83.176 26.444 82.451 24.931C82.17 24.343 82 23.6919 82 22.9979C82 22.4769 82.105 21.9869 82.267 21.524C82.879 19.77 84.528 18.5029 86.49 18.4989C86.493 18.4989 86.496 18.4979 86.5 18.4979C86.504 18.4979 86.506 18.4989 86.51 18.4989H94.499C95.328 18.4989 96 19.1709 96 19.9989C96 20.8209 95.338 21.4869 94.519 21.4989C94.512 21.4989 94.506 21.5009 94.499 21.5009H86.482C85.662 21.5129 85.001 22.1789 85.001 22.9989C85.001 23.8209 85.663 24.4869 86.482 24.4989H92.5C92.507 24.4989 92.513 24.5009 92.52 24.5009C94.383 24.5089 95.978 25.649 96.654 27.271C96.875 27.804 97 28.3859 97 28.9989ZM132 31.999C132 31.171 131.328 30.4989 130.5 30.4989C129.671 30.4989 129 31.171 129 31.999C129 32.827 129.671 33.499 130.5 33.499C131.328 33.499 132 32.827 132 31.999ZM147.499 18.5009C146.67 18.5009 145.998 19.1729 145.998 20.0019V20.0129V25.986V26.0009C145.998 26.0049 145.997 26.0079 145.997 26.0119C145.994 27.1639 145.545 28.205 144.828 29C144.004 29.9139 142.825 30.5 141.5 30.5C140.175 30.5 138.996 29.9139 138.172 29C137.455 28.205 137.006 27.1639 137.003 26.0119C137.003 26.0079 137.002 26.0049 137.002 26.0009V25.986V20.011V20.0009C137.002 19.1719 136.329 18.5 135.501 18.5C134.672 18.5 134 19.1719 134 20.0009V26C134 27.034 134.21 28.021 134.59 28.917C134.602 28.944 134.618 28.974 134.63 29C134.76 29.298 134.91 29.5849 135.077 29.858C135.577 30.684 136.232 31.408 137.002 31.985C137.002 31.987 137.002 31.9869 137.002 31.9869C138.257 32.9319 139.813 33.5 141.5 33.5C143.188 33.5 144.743 32.935 145.997 31.9869C145.997 31.9869 145.997 31.987 145.997 31.985C147.023 31.214 147.848 30.188 148.369 29C148.381 28.974 148.396 28.944 148.408 28.917C148.789 28.021 148.999 27.034 148.999 26V20.0019C149 19.1729 148.328 18.5009 147.499 18.5009ZM115 26C115 30.136 111.636 33.5009 107.5 33.5009C107.487 33.5009 107.475 33.4969 107.462 33.4969C105.788 33.4889 104.248 32.9249 103.002 31.985C101.183 30.617 100 28.4459 100 26C100 25.999 100 25.9989 100 25.9989C100 21.8619 103.364 18.4979 107.5 18.4979C107.513 18.4979 107.525 18.5019 107.538 18.5019C109.212 18.5099 110.752 19.0739 111.998 20.0129C113.816 21.3819 115 23.554 115 26ZM107.5 30.4989C109.982 30.4989 112 28.4779 112 25.9989V25.9849C111.992 23.5099 109.977 21.4989 107.5 21.4989C105.018 21.4989 103 23.52 103 26V26.0149C103.008 28.4849 105.023 30.4989 107.5 30.4989ZM125.5 30.5C123.02 30.5 121.001 28.479 121.001 26.0009C121.001 25.996 121.002 25.9909 121.002 25.9849V14.002C121.002 13.173 120.329 12.5009 119.501 12.5009C118.672 12.5009 118 13.173 118 14.002V26C118 26.0009 118 26.0009 118 26.0009C118 30.1369 121.363 33.5019 125.5 33.5019C125.514 33.5019 125.525 33.498 125.538 33.498C126.35 33.477 127.001 32.8149 127.001 32C127.001 31.173 126.329 30.5 125.5 30.5ZM48.499 33.4969C49.328 33.4969 50 32.8249 50 31.9959V25.9979C50 21.8619 46.636 18.4979 42.5 18.4979C38.364 18.4979 35 21.8619 35 25.9979C35 30.1339 38.364 33.499 42.5 33.499C43.329 33.499 44.001 32.827 44.001 31.9969C44.001 31.1699 43.329 30.497 42.5 30.497C40.02 30.497 38.001 28.4769 38.001 25.9979C38.001 23.5189 40.02 21.4989 42.5 21.4989C44.981 21.4989 46.998 23.5189 46.998 25.9979V31.9959C46.998 32.8249 47.67 33.4969 48.499 33.4969ZM77.499 33.4969C78.328 33.4969 79 32.8249 79 31.9959V25.9979C79 21.8619 75.636 18.4979 71.5 18.4979C67.364 18.4979 64 21.8619 64 25.9979C64 30.1339 67.364 33.499 71.5 33.499C72.329 33.499 73.001 32.827 73.001 31.9969C73.001 31.1699 72.329 30.497 71.5 30.497C69.02 30.497 67.001 28.4769 67.001 25.9979C67.001 23.5189 69.02 21.4989 71.5 21.4989C73.981 21.4989 75.998 23.5189 75.998 25.9979V31.9959C75.998 32.8249 76.67 33.4969 77.499 33.4969ZM165.499 33.4969C166.328 33.4969 167 32.8249 167 31.9959V25.9979C167 21.8619 163.637 18.4979 159.5 18.4979C155.363 18.4979 152 21.8619 152 25.9979C152 30.1339 155.363 33.499 159.5 33.499C160.329 33.499 161.001 32.827 161.001 31.9969C161.001 31.1699 160.329 30.497 159.5 30.497C157.02 30.497 155.001 28.4769 155.001 25.9979C155.001 23.5189 157.02 21.4989 159.5 21.4989C161.98 21.4989 163.998 23.5189 163.998 25.9979V31.9959C163.998 32.8249 164.67 33.4969 165.499 33.4969ZM60.5 18.4979C59.547 18.4979 58.64 18.6849 57.801 19.0089C57.729 19.0359 57.654 19.0599 57.583 19.0889C57.526 19.1119 57.473 19.1439 57.416 19.1689C54.816 20.3489 53 22.962 53 25.9979V25.9989V31.9959C53 32.8249 53.672 33.4969 54.501 33.4969C55.33 33.4969 56.002 32.8249 56.002 31.9959V25.9979C56.002 24.7579 56.506 23.634 57.32 22.819C58.135 22.005 59.26 21.5 60.5 21.5C60.502 21.5 60.503 21.4989 60.505 21.4989C61.332 21.4959 62.001 20.825 62.001 20C62.001 19.17 61.329 18.4979 60.5 18.4979ZM18.501 39.499C19.33 39.499 20.002 38.827 20.002 37.998V26C20.002 23.521 22.019 21.5009 24.5 21.5009C26.98 21.5009 28.999 23.521 28.999 26C28.999 28.479 26.98 30.4989 24.5 30.4989C23.671 30.4989 22.999 31.172 22.999 31.999C22.999 32.829 23.671 33.5009 24.5 33.5009C28.636 33.5009 32 30.136 32 26C32 21.864 28.636 18.5 24.5 18.5C20.363 18.5 17 21.864 17 26V37.998C17 38.827 17.672 39.499 18.501 39.499ZM216 49.499H148.469C147.917 49.499 147.469 49.052 147.469 48.499C147.469 47.944 147.917 47.499 148.469 47.499H216C219.309 47.499 222 44.81 222 41.499V24.0639C222 23.5099 222.448 23.0639 223 23.0639C223.552 23.0639 224 23.5099 224 24.0639V41.5009C224 45.91 220.411 49.499 216 49.499ZM40.641 48.499C40.641 47.944 40.193 47.499 39.641 47.499H9C5.691 47.499 3 44.81 3 41.499V9.49895C3 6.18995 5.691 3.49895 9 3.49895H182.547C183.1 3.49895 183.547 3.05195 183.547 2.49895C183.547 1.94595 183.1 1.49895 182.547 1.49895H9C4.589 1.49895 1 5.08795 1 9.49895V41.499C1 45.91 4.589 49.499 9 49.499H39.641C40.193 49.499 40.641 49.052 40.641 48.499Z" fill="black"/>
<path d="M198.5 18.129C198.373 18.129 198.246 18.081 198.148 17.984C197.407 17.253 196.127 16.924 193.999 16.921C191.872 16.924 190.592 17.252 189.852 17.984C189.655 18.178 189.339 18.176 189.145 17.98C188.951 17.784 188.953 17.466 189.149 17.273C190.356 16.08 192.376 15.924 194 15.921C195.625 15.924 197.646 16.079 198.853 17.273C199.049 17.466 199.051 17.784 198.857 17.98C198.758 18.079 198.629 18.129 198.5 18.129ZM187.096 17.879C187.243 17.646 187.175 17.337 186.942 17.189C186.199 16.715 185.383 16.365 184.522 16.145C183.516 15.889 182.489 15.827 181.465 15.953C181.192 15.987 180.997 16.237 181.031 16.511C181.064 16.784 181.314 16.985 181.589 16.946C182.486 16.835 183.391 16.891 184.276 17.115C185.035 17.308 185.752 17.618 186.405 18.034C186.489 18.087 186.582 18.112 186.674 18.112C186.838 18.11 187 18.028 187.096 17.879ZM211.87 17.98C212.064 17.784 212.062 17.466 211.866 17.273C210.658 16.08 208.638 15.924 207.013 15.921C205.388 15.924 203.369 16.079 202.161 17.273C201.965 17.466 201.963 17.784 202.157 17.98C202.352 18.176 202.668 18.178 202.865 17.984C203.606 17.253 204.886 16.924 207.012 16.921C209.141 16.924 210.42 17.252 211.16 17.984C211.258 18.081 211.385 18.129 211.512 18.129C211.643 18.129 211.771 18.079 211.87 17.98ZM214.607 18.032C215.263 17.616 215.98 17.306 216.738 17.113C217.623 16.889 218.527 16.832 219.425 16.944C219.698 16.983 219.949 16.783 219.983 16.509C220.018 16.235 219.824 15.986 219.549 15.951C218.528 15.825 217.499 15.888 216.492 16.143C215.631 16.363 214.816 16.713 214.072 17.187C213.839 17.335 213.769 17.644 213.918 17.877C214.014 18.026 214.175 18.108 214.34 18.108C214.432 18.11 214.525 18.085 214.607 18.032ZM201 29.499V18.5C201 18.224 200.775 18 200.5 18C200.225 18 200 18.224 200 18.5V29.499C200 30.878 198.878 32 197.5 32C196.122 32 195 30.878 195 29.499C195 29.224 194.775 28.999 194.5 28.999C194.225 28.999 194 29.224 194 29.499C194 31.431 195.57 33 197.5 33C199.43 33 201 31.431 201 29.499ZM222.23 15.715C222.459 15.559 222.515 15.247 222.359 15.02C217.409 7.807 209.236 3.5 200.5 3.5C191.764 3.5 183.591 7.807 178.641 15.02C178.485 15.248 178.541 15.559 178.77 15.715C178.999 15.872 179.309 15.814 179.464 15.586C184.229 8.645 192.093 4.5 200.5 4.5C208.907 4.5 216.771 8.645 221.536 15.586C221.633 15.727 221.789 15.803 221.949 15.803C222.046 15.803 222.145 15.774 222.23 15.715ZM200.5 0C199.948 0 199.5 0.447 199.5 1C199.5 1.553 199.948 2 200.5 2C201.052 2 201.5 1.553 201.5 1C201.5 0.447 201.052 0 200.5 0ZM47.494 47.459C47.365 47.463 47.254 47.5 47.159 47.569C46.99 47.715 46.811 47.826 46.621 47.897C46.432 47.969 46.226 48.006 46.002 48.006C45.755 48.006 45.523 47.958 45.307 47.865C45.091 47.771 44.901 47.646 44.739 47.484C44.577 47.324 44.449 47.134 44.356 46.92C44.263 46.702 44.217 46.473 44.217 46.225C44.217 45.979 44.263 45.746 44.356 45.532C44.449 45.315 44.577 45.127 44.739 44.967C44.901 44.806 45.091 44.681 45.307 44.585C45.523 44.493 45.755 44.446 46.002 44.446C46.226 44.446 46.432 44.483 46.621 44.557C46.81 44.631 46.991 44.742 47.164 44.887C47.265 44.967 47.38 45.007 47.508 45.007C47.661 45.007 47.787 44.957 47.886 44.856C47.985 44.755 48.035 44.627 48.035 44.475C48.035 44.317 47.974 44.184 47.852 44.076C47.331 43.616 46.715 43.387 46.001 43.387C45.217 43.387 44.547 43.663 43.993 44.219C43.438 44.775 43.161 45.445 43.161 46.228C43.161 47.011 43.438 47.681 43.993 48.236C44.547 48.791 45.217 49.068 46.001 49.068C46.711 49.068 47.328 48.839 47.852 48.379C47.964 48.268 48.019 48.137 48.019 47.988C48.019 47.836 47.969 47.711 47.87 47.609C47.771 47.509 47.645 47.459 47.494 47.459ZM57.22 45.647C57.22 45.339 57.16 45.047 57.04 44.772C56.919 44.498 56.757 44.256 56.553 44.052C56.348 43.848 56.108 43.686 55.833 43.567C55.558 43.446 55.266 43.385 54.959 43.385C54.275 43.385 53.699 43.655 53.229 44.192C53.005 43.921 52.746 43.718 52.448 43.587C52.15 43.453 51.832 43.387 51.494 43.387C51.034 43.387 50.624 43.507 50.262 43.747C50.228 43.64 50.166 43.551 50.074 43.485C49.983 43.42 49.878 43.385 49.76 43.385C49.614 43.385 49.49 43.438 49.387 43.539C49.284 43.643 49.233 43.768 49.233 43.912V48.532C49.233 48.679 49.284 48.806 49.387 48.91C49.491 49.014 49.616 49.064 49.765 49.064C49.911 49.064 50.035 49.011 50.137 48.91C50.241 48.806 50.293 48.681 50.293 48.532V45.646C50.293 45.48 50.324 45.326 50.387 45.179C50.449 45.033 50.536 44.907 50.645 44.795C50.755 44.687 50.882 44.601 51.028 44.536C51.174 44.473 51.329 44.442 51.495 44.442C51.66 44.442 51.815 44.473 51.961 44.539C52.106 44.602 52.233 44.688 52.342 44.798C52.45 44.906 52.536 45.032 52.601 45.179C52.664 45.325 52.697 45.48 52.697 45.646V48.532C52.697 48.679 52.749 48.806 52.852 48.91C52.955 49.014 53.081 49.064 53.229 49.064C53.375 49.064 53.499 49.011 53.602 48.91C53.706 48.806 53.757 48.681 53.757 48.532V45.646C53.757 45.48 53.788 45.326 53.85 45.179C53.913 45.033 53.999 44.908 54.108 44.798C54.218 44.691 54.345 44.605 54.491 44.539C54.637 44.476 54.792 44.442 54.959 44.442C55.126 44.442 55.286 44.473 55.433 44.539C55.58 44.602 55.708 44.69 55.816 44.8C55.923 44.91 56.009 45.037 56.072 45.183C56.134 45.329 56.165 45.482 56.165 45.646V48.532C56.165 48.679 56.217 48.806 56.317 48.91C56.419 49.014 56.544 49.064 56.693 49.064C56.839 49.064 56.963 49.011 57.066 48.91C57.17 48.806 57.221 48.681 57.221 48.532L57.22 45.647ZM61.396 49.065C61.785 49.065 62.147 48.998 62.479 48.86C62.812 48.723 63.12 48.514 63.404 48.235C63.959 47.686 64.236 47.016 64.236 46.225C64.236 45.833 64.166 45.468 64.028 45.132C63.889 44.796 63.681 44.49 63.403 44.216C62.842 43.662 62.172 43.384 61.394 43.384C60.611 43.384 59.941 43.662 59.387 44.216C58.831 44.772 58.555 45.442 58.555 46.225V50.973C58.555 51.124 58.605 51.25 58.704 51.35C58.805 51.451 58.932 51.501 59.083 51.501C59.232 51.501 59.358 51.451 59.461 51.353C59.564 51.252 59.615 51.126 59.615 50.974V48.445C60.124 48.858 60.717 49.065 61.396 49.065ZM59.616 46.228C59.616 45.984 59.662 45.754 59.755 45.539C59.849 45.322 59.974 45.135 60.133 44.975C60.292 44.813 60.48 44.686 60.696 44.591C60.912 44.496 61.145 44.449 61.395 44.449C61.643 44.449 61.874 44.496 62.091 44.591C62.307 44.686 62.495 44.815 62.656 44.977C62.817 45.139 62.943 45.328 63.035 45.542C63.129 45.756 63.176 45.984 63.176 46.229C63.176 46.474 63.129 46.703 63.035 46.917C62.942 47.132 62.816 47.318 62.656 47.482C62.494 47.644 62.307 47.771 62.091 47.867C61.874 47.963 61.643 48.01 61.395 48.01C61.145 48.01 60.912 47.963 60.696 47.867C60.479 47.771 60.291 47.644 60.133 47.484C59.974 47.324 59.849 47.134 59.755 46.92C59.662 46.7 59.616 46.47 59.616 46.228ZM69.861 48.539C69.861 48.685 69.914 48.81 70.017 48.912C70.12 49.014 70.245 49.065 70.393 49.065C70.539 49.065 70.663 49.014 70.767 48.912C70.87 48.809 70.922 48.684 70.922 48.539V46.226C70.922 45.443 70.645 44.773 70.09 44.218C69.528 43.662 68.859 43.386 68.081 43.386C67.296 43.386 66.627 43.662 66.072 44.218C65.518 44.773 65.24 45.443 65.24 46.226C65.24 47.01 65.518 47.681 66.072 48.236C66.627 48.79 67.296 49.066 68.081 49.066C68.419 49.066 68.737 49.012 69.035 48.906C69.332 48.797 69.607 48.64 69.86 48.437L69.861 48.539ZM68.082 44.446C68.33 44.446 68.561 44.494 68.777 44.588C68.992 44.685 69.182 44.812 69.342 44.974C69.502 45.137 69.63 45.327 69.722 45.539C69.815 45.754 69.86 45.981 69.86 46.227C69.86 46.469 69.815 46.7 69.722 46.914C69.629 47.13 69.501 47.317 69.342 47.479C69.181 47.641 68.992 47.77 68.777 47.864C68.56 47.961 68.329 48.009 68.082 48.009C67.831 48.009 67.599 47.961 67.382 47.864C67.167 47.77 66.979 47.643 66.819 47.483C66.66 47.321 66.535 47.132 66.442 46.918C66.349 46.7 66.303 46.472 66.303 46.228C66.303 45.984 66.349 45.755 66.442 45.54C66.535 45.322 66.661 45.135 66.819 44.975C66.979 44.815 67.167 44.688 67.382 44.591C67.599 44.494 67.831 44.446 68.082 44.446ZM72.029 48.209C71.958 48.298 71.924 48.408 71.924 48.539C71.924 48.61 71.937 48.679 71.964 48.742C71.99 48.805 72.028 48.862 72.075 48.912C72.122 48.961 72.179 48.999 72.242 49.026C72.306 49.052 72.376 49.067 72.45 49.067C72.599 49.067 72.723 49.011 72.826 48.903L74.378 47.048L75.919 48.903C76.027 49.011 76.153 49.067 76.299 49.067C76.374 49.067 76.444 49.052 76.507 49.026C76.571 48.999 76.627 48.961 76.675 48.912C76.722 48.862 76.76 48.808 76.79 48.742C76.818 48.679 76.832 48.61 76.832 48.539C76.832 48.403 76.795 48.294 76.721 48.209L75.063 46.222L76.707 44.265C76.791 44.161 76.833 44.043 76.833 43.914C76.833 43.844 76.819 43.774 76.791 43.711C76.761 43.648 76.723 43.59 76.676 43.541C76.628 43.492 76.572 43.454 76.508 43.428C76.445 43.402 76.375 43.387 76.3 43.387C76.142 43.387 76.012 43.445 75.91 43.56L74.379 45.392L72.847 43.56C72.743 43.445 72.611 43.387 72.451 43.387C72.377 43.387 72.307 43.402 72.243 43.428C72.18 43.454 72.123 43.492 72.076 43.541C72.029 43.59 71.991 43.645 71.965 43.711C71.938 43.774 71.925 43.844 71.925 43.914C71.925 44.058 71.965 44.173 72.046 44.265L73.69 46.222L72.029 48.209ZM83.288 46.228C83.285 45.834 83.215 45.472 83.078 45.137C82.94 44.802 82.732 44.495 82.457 44.219C81.894 43.663 81.226 43.387 80.448 43.387C79.663 43.387 78.994 43.663 78.439 44.219C77.885 44.775 77.607 45.445 77.607 46.228C77.607 47.011 77.885 47.681 78.439 48.236C78.994 48.791 79.663 49.068 80.448 49.068C81.225 49.068 81.894 48.791 82.457 48.236C83.011 47.687 83.288 47.019 83.288 46.228ZM80.448 44.446C80.695 44.446 80.927 44.494 81.143 44.588C81.358 44.685 81.547 44.812 81.708 44.974C81.867 45.137 81.995 45.327 82.088 45.539C82.181 45.754 82.227 45.981 82.227 46.227C82.227 46.469 82.181 46.7 82.088 46.914C81.995 47.13 81.867 47.317 81.708 47.479C81.547 47.641 81.357 47.77 81.143 47.864C80.926 47.961 80.695 48.009 80.448 48.009C80.197 48.009 79.964 47.961 79.747 47.864C79.532 47.77 79.345 47.643 79.184 47.483C79.026 47.321 78.9 47.132 78.807 46.918C78.714 46.7 78.667 46.472 78.667 46.228C78.667 45.984 78.714 45.755 78.807 45.54C78.9 45.324 79.026 45.135 79.184 44.975C79.344 44.815 79.532 44.688 79.747 44.591C79.964 44.494 80.197 44.446 80.448 44.446ZM95.381 46.228C95.378 45.834 95.308 45.472 95.171 45.137C95.033 44.802 94.825 44.495 94.55 44.219C93.987 43.663 93.319 43.387 92.541 43.387C91.756 43.387 91.087 43.663 90.532 44.219C89.978 44.775 89.7 45.445 89.7 46.228C89.7 47.011 89.978 47.681 90.532 48.236C91.087 48.791 91.756 49.068 92.541 49.068C93.318 49.068 93.987 48.791 94.55 48.236C95.104 47.687 95.381 47.019 95.381 46.228ZM92.541 44.446C92.788 44.446 93.02 44.494 93.236 44.588C93.451 44.685 93.64 44.812 93.801 44.974C93.96 45.137 94.088 45.327 94.181 45.539C94.274 45.754 94.32 45.981 94.32 46.227C94.32 46.469 94.274 46.7 94.181 46.914C94.088 47.13 93.96 47.317 93.801 47.479C93.64 47.641 93.45 47.77 93.236 47.864C93.019 47.961 92.788 48.009 92.541 48.009C92.29 48.009 92.057 47.961 91.84 47.864C91.625 47.77 91.438 47.643 91.277 47.483C91.119 47.321 90.993 47.132 90.9 46.918C90.807 46.7 90.76 46.472 90.76 46.228C90.76 45.984 90.807 45.755 90.9 45.54C90.993 45.324 91.119 45.135 91.277 44.975C91.437 44.815 91.625 44.688 91.84 44.591C92.057 44.494 92.29 44.446 92.541 44.446ZM84.98 43.387C84.906 43.387 84.835 43.402 84.773 43.428C84.709 43.454 84.653 43.492 84.605 43.542C84.557 43.591 84.52 43.647 84.493 43.711C84.467 43.774 84.452 43.844 84.452 43.914V48.539C84.452 48.61 84.467 48.678 84.493 48.742C84.52 48.805 84.557 48.862 84.605 48.912C84.653 48.961 84.709 48.999 84.773 49.026C84.836 49.052 84.906 49.065 84.98 49.065H87.293C87.525 49.065 87.745 49.022 87.949 48.932C88.153 48.841 88.332 48.721 88.484 48.569C88.635 48.417 88.755 48.239 88.843 48.034C88.932 47.83 88.976 47.612 88.976 47.383C88.976 47.237 88.961 47.105 88.932 46.986C88.904 46.866 88.861 46.753 88.806 46.644C88.75 46.536 88.679 46.431 88.594 46.33C88.51 46.228 88.411 46.128 88.301 46.025C88.493 45.753 88.589 45.433 88.589 45.07C88.589 44.841 88.545 44.625 88.455 44.42C88.366 44.216 88.245 44.037 88.093 43.886C87.94 43.735 87.762 43.614 87.558 43.524C87.354 43.434 87.135 43.389 86.906 43.389L84.98 43.387ZM85.509 45.699V44.446H86.907C86.992 44.446 87.072 44.463 87.148 44.498C87.224 44.53 87.291 44.576 87.346 44.632C87.401 44.689 87.447 44.754 87.48 44.83C87.514 44.905 87.532 44.985 87.532 45.069C87.532 45.161 87.514 45.246 87.48 45.321C87.447 45.397 87.4 45.463 87.342 45.518C87.285 45.575 87.218 45.619 87.143 45.651C87.067 45.682 86.989 45.699 86.907 45.699H85.509ZM85.509 48.007V46.754H87.294C87.374 46.754 87.453 46.771 87.529 46.802C87.605 46.834 87.671 46.878 87.728 46.935C87.786 46.992 87.832 47.058 87.866 47.135C87.9 47.213 87.917 47.295 87.917 47.383C87.917 47.472 87.9 47.552 87.866 47.626C87.832 47.7 87.787 47.767 87.731 47.824C87.676 47.882 87.609 47.927 87.534 47.959C87.458 47.991 87.378 48.007 87.294 48.007H85.509ZM135.779 49.065C135.926 49.065 136.052 49.014 136.156 48.912C136.26 48.81 136.31 48.684 136.31 48.539V43.914C136.31 43.768 136.258 43.643 136.156 43.541C136.052 43.438 135.929 43.386 135.784 43.386C135.637 43.386 135.51 43.439 135.406 43.541C135.302 43.645 135.252 43.769 135.252 43.914V46.419C135.252 46.64 135.21 46.845 135.127 47.035C135.045 47.225 134.93 47.393 134.785 47.54C134.639 47.686 134.471 47.799 134.277 47.883C134.085 47.965 133.88 48.008 133.664 48.008C133.443 48.008 133.238 47.965 133.046 47.883C132.854 47.799 132.686 47.687 132.541 47.543C132.396 47.399 132.284 47.23 132.201 47.038C132.118 46.845 132.077 46.64 132.077 46.419V43.914C132.077 43.768 132.025 43.643 131.922 43.541C131.819 43.439 131.693 43.386 131.549 43.386C131.401 43.386 131.276 43.439 131.172 43.541C131.068 43.645 131.018 43.769 131.018 43.914V46.419C131.018 46.78 131.087 47.123 131.229 47.442C131.369 47.764 131.559 48.046 131.798 48.286C132.037 48.524 132.319 48.716 132.639 48.856C132.96 48.996 133.303 49.065 133.664 49.065C133.969 49.065 134.25 49.024 134.512 48.942C134.772 48.858 135.02 48.725 135.252 48.545C135.255 48.691 135.307 48.814 135.404 48.914C135.501 49.017 135.627 49.065 135.779 49.065ZM101.376 49.065C101.524 49.065 101.65 49.014 101.753 48.912C101.857 48.808 101.909 48.684 101.909 48.539V43.914C101.909 43.768 101.857 43.643 101.753 43.542C101.65 43.438 101.526 43.387 101.381 43.387C101.233 43.387 101.107 43.439 101.003 43.542C100.9 43.646 100.849 43.769 100.849 43.914V46.419C100.849 46.64 100.808 46.845 100.724 47.035C100.642 47.225 100.528 47.393 100.382 47.54C100.236 47.687 100.068 47.8 99.874 47.883C99.682 47.965 99.478 48.007 99.261 48.007C99.04 48.007 98.835 47.965 98.643 47.883C98.45 47.8 98.282 47.687 98.138 47.543C97.993 47.399 97.88 47.23 97.798 47.038C97.715 46.847 97.673 46.64 97.673 46.419V43.914C97.673 43.768 97.622 43.643 97.519 43.542C97.416 43.438 97.291 43.387 97.147 43.387C96.998 43.387 96.872 43.439 96.769 43.542C96.665 43.646 96.614 43.769 96.614 43.914V46.419C96.614 46.78 96.684 47.123 96.825 47.444C96.965 47.764 97.155 48.046 97.395 48.285C97.635 48.524 97.916 48.716 98.236 48.856C98.558 48.997 98.9 49.065 99.261 49.065C99.566 49.065 99.847 49.024 100.109 48.942C100.369 48.858 100.616 48.727 100.849 48.545C100.852 48.691 100.903 48.814 101.001 48.914C101.098 49.017 101.224 49.065 101.376 49.065ZM99.261 42.783C99.494 42.783 99.713 42.75 99.918 42.684C100.122 42.618 100.301 42.526 100.453 42.41C100.605 42.294 100.725 42.155 100.815 41.996C100.905 41.839 100.949 41.667 100.949 41.485C100.949 41.337 100.9 41.211 100.8 41.106C100.7 41.003 100.574 40.952 100.423 40.952C100.271 40.952 100.144 41.003 100.042 41.102C99.967 41.182 99.92 41.272 99.899 41.376C99.892 41.473 99.831 41.55 99.712 41.614C99.587 41.685 99.436 41.72 99.26 41.72C99.084 41.72 98.934 41.685 98.809 41.614C98.691 41.55 98.625 41.47 98.617 41.376C98.599 41.272 98.554 41.182 98.48 41.102C98.377 41.001 98.251 40.952 98.099 40.952C97.947 40.952 97.82 41.005 97.721 41.106C97.621 41.21 97.572 41.335 97.572 41.485C97.572 41.667 97.617 41.839 97.707 41.996C97.796 42.155 97.917 42.294 98.069 42.41C98.221 42.526 98.4 42.618 98.604 42.684C98.809 42.75 99.027 42.783 99.261 42.783ZM110.281 47.459C110.152 47.463 110.041 47.5 109.946 47.569C109.777 47.715 109.598 47.826 109.408 47.897C109.22 47.969 109.013 48.006 108.79 48.006C108.543 48.006 108.311 47.958 108.095 47.865C107.879 47.771 107.69 47.646 107.528 47.484C107.366 47.324 107.238 47.134 107.144 46.92C107.051 46.702 107.005 46.473 107.005 46.225C107.005 45.979 107.051 45.746 107.144 45.532C107.238 45.315 107.366 45.127 107.528 44.967C107.69 44.806 107.88 44.681 108.095 44.585C108.312 44.493 108.543 44.446 108.79 44.446C109.014 44.446 109.22 44.483 109.408 44.557C109.598 44.631 109.779 44.742 109.951 44.887C110.053 44.967 110.168 45.007 110.296 45.007C110.448 45.007 110.574 44.957 110.675 44.856C110.774 44.755 110.824 44.627 110.824 44.475C110.824 44.317 110.762 44.184 110.641 44.076C110.12 43.616 109.503 43.387 108.789 43.387C108.004 43.387 107.335 43.663 106.78 44.219C106.226 44.775 105.948 45.445 105.948 46.228C105.948 47.011 106.226 47.681 106.78 48.236C107.335 48.791 108.004 49.068 108.789 49.068C109.498 49.068 110.116 48.839 110.641 48.379C110.751 48.268 110.807 48.137 110.807 47.988C110.807 47.836 110.758 47.711 110.658 47.609C110.559 47.509 110.434 47.459 110.281 47.459ZM116.039 47.47C115.907 47.474 115.791 47.517 115.687 47.601C115.529 47.738 115.357 47.838 115.17 47.906C114.983 47.974 114.779 48.01 114.555 48.01C114.361 48.01 114.171 47.979 113.99 47.918C113.81 47.857 113.645 47.772 113.494 47.661C113.344 47.551 113.213 47.42 113.101 47.265C112.989 47.11 112.905 46.941 112.847 46.754H116.864C117.012 46.754 117.139 46.704 117.241 46.605C117.345 46.505 117.397 46.378 117.397 46.228C117.397 45.834 117.327 45.472 117.188 45.134C117.049 44.797 116.841 44.491 116.565 44.219C116.002 43.663 115.334 43.388 114.555 43.388C113.772 43.388 113.102 43.663 112.548 44.219C111.993 44.775 111.716 45.445 111.716 46.228C111.716 47.011 111.993 47.681 112.548 48.236C113.102 48.791 113.772 49.068 114.555 49.068C115.268 49.068 115.888 48.839 116.412 48.379C116.515 48.275 116.563 48.149 116.563 47.999C116.563 47.846 116.514 47.72 116.415 47.621C116.316 47.521 116.191 47.47 116.039 47.47ZM112.849 45.699C112.904 45.511 112.986 45.344 113.097 45.188C113.209 45.035 113.341 44.903 113.493 44.792C113.644 44.684 113.811 44.598 113.994 44.536C114.178 44.474 114.365 44.443 114.557 44.443C114.751 44.443 114.938 44.474 115.119 44.536C115.3 44.598 115.466 44.682 115.616 44.792C115.765 44.902 115.896 45.033 116.012 45.188C116.125 45.342 116.21 45.512 116.27 45.699H112.849ZM121.27 49.065C121.661 49.065 122.022 48.998 122.354 48.86C122.688 48.723 122.997 48.514 123.28 48.235C123.835 47.686 124.112 47.016 124.112 46.225C124.112 45.833 124.043 45.468 123.903 45.132C123.766 44.796 123.557 44.49 123.28 44.216C122.718 43.662 122.05 43.384 121.27 43.384C120.487 43.384 119.817 43.662 119.264 44.216C118.707 44.772 118.432 45.442 118.432 46.225V50.973C118.432 51.124 118.483 51.25 118.58 51.35C118.68 51.451 118.807 51.499 118.958 51.499C119.107 51.499 119.232 51.449 119.335 51.35C119.439 51.25 119.491 51.124 119.491 50.973V48.442C119.998 48.858 120.591 49.065 121.27 49.065ZM119.491 46.228C119.491 45.984 119.536 45.754 119.63 45.539C119.723 45.322 119.85 45.135 120.008 44.975C120.166 44.813 120.356 44.686 120.571 44.591C120.788 44.496 121.02 44.449 121.27 44.449C121.518 44.449 121.749 44.496 121.965 44.591C122.181 44.686 122.369 44.815 122.529 44.977C122.689 45.139 122.816 45.328 122.91 45.542C123.004 45.756 123.05 45.984 123.05 46.229C123.05 46.474 123.004 46.703 122.91 46.917C122.816 47.131 122.689 47.318 122.529 47.482C122.369 47.644 122.179 47.771 121.965 47.867C121.748 47.963 121.518 48.01 121.27 48.01C121.02 48.01 120.788 47.963 120.571 47.867C120.354 47.771 120.167 47.644 120.008 47.484C119.849 47.324 119.723 47.134 119.63 46.92C119.536 46.7 119.491 46.47 119.491 46.228ZM125.805 43.387C125.731 43.387 125.659 43.402 125.596 43.428C125.533 43.454 125.477 43.492 125.428 43.542C125.381 43.591 125.344 43.647 125.317 43.711C125.292 43.774 125.276 43.844 125.276 43.914V48.539C125.276 48.61 125.292 48.678 125.317 48.742C125.344 48.805 125.381 48.862 125.428 48.912C125.477 48.961 125.532 48.999 125.596 49.026C125.659 49.052 125.731 49.065 125.805 49.065H128.118C128.35 49.065 128.569 49.022 128.774 48.932C128.979 48.841 129.157 48.721 129.309 48.569C129.46 48.417 129.58 48.239 129.668 48.034C129.756 47.83 129.8 47.612 129.8 47.383C129.8 47.237 129.785 47.105 129.757 46.986C129.729 46.866 129.686 46.753 129.629 46.644C129.574 46.536 129.503 46.431 129.418 46.33C129.334 46.228 129.236 46.128 129.125 46.025C129.316 45.753 129.413 45.433 129.413 45.07C129.413 44.841 129.369 44.625 129.279 44.42C129.189 44.216 129.068 44.037 128.917 43.886C128.764 43.735 128.586 43.614 128.383 43.524C128.178 43.434 127.96 43.389 127.731 43.389L125.805 43.387ZM126.331 45.699V44.446H127.73C127.814 44.446 127.894 44.463 127.97 44.498C128.045 44.53 128.113 44.576 128.167 44.632C128.222 44.689 128.269 44.754 128.302 44.83C128.335 44.905 128.353 44.985 128.353 45.069C128.353 45.161 128.335 45.246 128.302 45.321C128.269 45.397 128.222 45.463 128.164 45.518C128.106 45.575 128.039 45.619 127.965 45.651C127.89 45.682 127.81 45.699 127.73 45.699H126.331ZM126.331 48.007V46.754H128.116C128.195 46.754 128.275 46.771 128.351 46.802C128.426 46.834 128.493 46.878 128.55 46.935C128.607 46.992 128.654 47.058 128.689 47.135C128.722 47.213 128.738 47.295 128.738 47.383C128.738 47.472 128.722 47.552 128.689 47.626C128.654 47.7 128.609 47.767 128.552 47.824C128.497 47.882 128.431 47.927 128.355 47.959C128.279 47.991 128.201 48.007 128.116 48.007H126.331ZM141.781 47.459C141.652 47.463 141.541 47.5 141.445 47.569C141.277 47.715 141.097 47.826 140.908 47.897C140.72 47.969 140.513 48.006 140.29 48.006C140.042 48.006 139.811 47.958 139.596 47.865C139.379 47.771 139.19 47.646 139.028 47.484C138.867 47.324 138.739 47.134 138.645 46.92C138.551 46.702 138.505 46.473 138.505 46.225C138.505 45.979 138.551 45.746 138.645 45.532C138.739 45.315 138.867 45.127 139.028 44.967C139.19 44.806 139.381 44.681 139.596 44.585C139.813 44.493 140.042 44.446 140.29 44.446C140.514 44.446 140.721 44.483 140.908 44.557C141.097 44.631 141.277 44.742 141.451 44.887C141.553 44.967 141.668 45.007 141.796 45.007C141.947 45.007 142.074 44.957 142.174 44.856C142.274 44.755 142.323 44.627 142.323 44.475C142.323 44.317 142.261 44.184 142.14 44.076C141.619 43.616 141.001 43.387 140.288 43.387C139.503 43.387 138.834 43.663 138.278 44.219C137.725 44.775 137.447 45.445 137.447 46.228C137.447 47.011 137.725 47.681 138.278 48.236C138.834 48.791 139.503 49.068 140.288 49.068C140.997 49.068 141.615 48.839 142.14 48.379C142.25 48.268 142.306 48.137 142.306 47.988C142.306 47.836 142.257 47.711 142.158 47.609C142.059 47.509 141.934 47.459 141.781 47.459ZM95.653 26.271C94.977 24.651 93.382 23.51 91.519 23.502C91.512 23.502 91.506 23.5 91.499 23.5H85.481C84.661 23.489 84 22.822 84 22C84 21.179 84.662 20.513 85.481 20.502H93.498C93.505 20.502 93.511 20.5 93.518 20.5C94.338 20.489 94.999 19.822 94.999 19C94.999 18.172 94.327 17.5 93.498 17.5H85.51C85.507 17.5 85.504 17.499 85.5 17.499C85.496 17.499 85.494 17.5 85.49 17.5C83.528 17.504 81.879 18.771 81.267 20.525C81.105 20.989 81 21.48 81 21.999C81 22.693 81.17 23.344 81.451 23.931C82.176 25.446 83.709 26.499 85.5 26.499C83.709 26.499 91.519 26.5 91.519 26.5C92.338 26.511 93 27.178 93 27.997C93 28.825 92.328 29.5 91.499 29.5H82.502C81.673 29.5 81.001 30.172 81.001 31C81.001 31.829 81.673 32.502 82.502 32.502L91.5 32.5C93.418 32.5 95.044 31.295 95.692 29.604C95.883 29.104 96 28.567 96 28C96 27.387 95.875 26.804 95.653 26.271ZM131 31C131 30.172 130.328 29.5 129.5 29.5C128.671 29.5 128 30.172 128 31C128 31.828 128.671 32.5 129.5 32.5C130.328 32.5 131 31.828 131 31ZM146.499 17.502C145.67 17.502 144.998 18.174 144.998 19.003V19.013V24.987V25.001C144.998 25.005 144.997 25.008 144.997 25.012C144.994 26.164 144.545 27.205 143.828 28C143.004 28.914 141.825 29.5 140.5 29.5C139.175 29.5 137.996 28.914 137.172 28C136.455 27.205 136.006 26.164 136.003 25.012C136.003 25.008 136.002 25.005 136.002 25.001V24.986V19.012V19.002C136.002 18.173 135.329 17.501 134.501 17.501C133.672 17.501 133 18.173 133 19.002V25.001C133 26.035 133.21 27.021 133.59 27.918C133.602 27.946 133.618 27.973 133.63 28.001C133.76 28.299 133.91 28.586 134.077 28.86C134.577 29.686 135.232 30.409 136.002 30.987C136.002 30.989 136.002 30.989 136.002 30.989C137.257 31.935 138.813 32.501 140.5 32.501C142.188 32.501 143.743 31.935 144.997 30.989V30.987C146.023 30.216 146.848 29.19 147.369 28.001C147.381 27.973 147.396 27.946 147.409 27.918C147.789 27.021 147.999 26.035 147.999 25.001V19.003C148 18.174 147.328 17.502 146.499 17.502ZM114 25.001C114 29.137 110.636 32.502 106.5 32.502C106.487 32.502 106.475 32.498 106.462 32.498C104.788 32.49 103.248 31.926 102.002 30.987C100.184 29.618 99 27.448 99 25.001V25C99 20.864 102.364 17.499 106.5 17.499C106.513 17.499 106.525 17.503 106.538 17.503C108.212 17.511 109.752 18.075 110.998 19.013C112.816 20.383 114 22.554 114 25.001ZM106.5 29.5C108.982 29.5 111 27.48 111 25V24.986C110.992 22.512 108.977 20.5 106.5 20.5C104.018 20.5 102 22.521 102 25.001V25.015C102.008 27.488 104.023 29.5 106.5 29.5ZM124.5 29.501C122.02 29.501 120.001 27.482 120.001 25.002C120.001 24.997 120.002 24.992 120.002 24.987V13.003C120.002 12.174 119.329 11.502 118.501 11.502C117.672 11.502 117 12.174 117 13.003V25.001C117 25.002 117 25.002 117 25.002C117 29.138 120.363 32.503 124.5 32.503C124.514 32.503 124.525 32.499 124.538 32.499C125.35 32.478 126.001 31.817 126.001 31.001C126.001 30.174 125.329 29.501 124.5 29.501ZM47.499 32.498C48.328 32.498 49 31.826 49 30.997V24.999C49 20.863 45.636 17.499 41.5 17.499C37.364 17.499 34 20.863 34 24.999C34 29.135 37.364 32.5 41.5 32.5C42.329 32.5 43.001 31.828 43.001 30.998C43.001 30.171 42.329 29.498 41.5 29.498C39.02 29.498 37.001 27.479 37.001 24.999C37.001 22.519 39.02 20.5 41.5 20.5C43.981 20.5 45.998 22.519 45.998 24.999V30.997C45.998 31.826 46.67 32.498 47.499 32.498ZM76.499 32.498C77.328 32.498 78 31.826 78 30.997V24.999C78 20.863 74.636 17.499 70.5 17.499C66.364 17.499 63 20.863 63 24.999C63 29.135 66.364 32.5 70.5 32.5C71.329 32.5 72.001 31.828 72.001 30.998C72.001 30.171 71.329 29.498 70.5 29.498C68.02 29.498 66.001 27.479 66.001 24.999C66.001 22.519 68.02 20.5 70.5 20.5C72.981 20.5 74.998 22.519 74.998 24.999V30.997C74.998 31.826 75.67 32.498 76.499 32.498ZM164.499 32.498C165.328 32.498 166 31.826 166 30.997V24.999C166 20.863 162.637 17.499 158.5 17.499C154.363 17.499 151 20.863 151 24.999C151 29.135 154.363 32.5 158.5 32.5C159.329 32.5 160.001 31.828 160.001 30.998C160.001 30.171 159.329 29.498 158.5 29.498C156.02 29.498 154.001 27.479 154.001 24.999C154.001 22.519 156.02 20.5 158.5 20.5C160.98 20.5 162.998 22.519 162.998 24.999V30.997C162.998 31.826 163.67 32.498 164.499 32.498ZM59.5 17.499C58.547 17.499 57.64 17.685 56.801 18.01C56.729 18.037 56.654 18.06 56.583 18.09C56.526 18.113 56.473 18.145 56.416 18.17C53.816 19.349 52 21.963 52 24.999V25V30.997C52 31.826 52.672 32.498 53.501 32.498C54.33 32.498 55.002 31.826 55.002 30.997V24.999C55.002 23.759 55.506 22.635 56.32 21.82C57.135 21.006 58.26 20.501 59.5 20.501C59.502 20.501 59.503 20.5 59.505 20.5C60.332 20.497 61.001 19.826 61.001 19.001C61.001 18.171 60.329 17.499 59.5 17.499ZM17.501 38.5C18.33 38.5 19.002 37.828 19.002 36.999V25.001C19.002 22.521 21.019 20.502 23.5 20.502C25.98 20.502 27.999 22.521 27.999 25.001C27.999 27.481 25.98 29.5 23.5 29.5C22.671 29.5 21.999 30.173 21.999 31C21.999 31.83 22.671 32.502 23.5 32.502C27.636 32.502 31 29.137 31 25.001C31 20.865 27.636 17.501 23.5 17.501C19.363 17.501 16 20.865 16 25.001V36.999C16 37.828 16.672 38.5 17.501 38.5Z" fill="white"/>
<path d="M223 23.064V40.501C223 44.912 219.411 48.501 215 48.501H147.469C146.917 48.501 146.469 48.054 146.469 47.501C146.469 46.948 146.917 46.501 147.469 46.501H215C218.309 46.501 221 43.81 221 40.501V23.064C221 22.511 221.448 22.064 222 22.064C222.552 22.064 223 22.511 223 23.064ZM38.641 46.5H8C4.691 46.5 2 43.81 2 40.5V8.5C2 5.191 4.691 2.5 8 2.5H181.547C182.1 2.5 182.547 2.053 182.547 1.5C182.547 0.947 182.1 0.5 181.547 0.5H8C3.589 0.5 0 4.089 0 8.5V40.5C0 44.911 3.589 48.5 8 48.5H38.641C39.193 48.5 39.641 48.053 39.641 47.5C39.641 46.946 39.193 46.5 38.641 46.5Z" fill="#A3CC39"/>
</svg>
