<svg xmlns="http://www.w3.org/2000/svg" width="102" height="32" viewBox="0 0 102 32">
    <g fill="none" fill-rule="evenodd">
        <path fill="#fccf00" d="M0 16C0 7.16 7.337 0 16.387 0 25.445 0 32.78 7.16 32.78 16s-7.335 16-16.393 16c-1.787 0-3.505-.28-5.114-.792 1.165-6.604 5.436-11.99 11.08-14.275a3.675 3.675 0 0 0 2.76 1.233c2.011 0 3.64-1.593 3.64-3.56 0-1.965-1.629-3.558-3.64-3.558-2.012 0-3.64 1.588-3.645 3.551-7.203 2.115-13.039 7.024-16 13.333a16.091 16.091 0 0 1-2.506-2.755c.17-6.144 3.283-11.513 7.944-14.677a3.675 3.675 0 0 0 2.725 1.197c2.013 0 3.643-1.598 3.643-3.56 0-1.967-1.63-3.559-3.643-3.559-2.015 0-3.645 1.592-3.645 3.56 0 .102.007.207.015.305C5.66 9.93 2.096 12.872.011 16.62.001 16.418 0 16.207 0 16"/>
        <path fill="#FFF" d="M96.78 20.488V8.04c0-.164-.084-.235-.285-.235h-3.338c-.195 0-.279.071-.279.235v13.342c0 2.4 1.107 2.813 3.655 2.813.078 0 .142-.007.2-.058.058-.044.047-.169.047-.169v-3.48zM44.488 20.486V8.041c0-.163-.09-.236-.286-.236h-3.334c-.196 0-.283.073-.283.236v13.34c0 2.4 1.107 2.814 3.649 2.814.085 0 .143-.006.205-.057.053-.046.049-.168.049-.168v-3.484zM52.816 24.195c-.164 0-.234-.07-.234-.235v-8.755c0-.094-.047-.14-.139-.14h-.7c-.163 0-.23-.068-.23-.234v-1.937c0-.161.067-.234.23-.234h.7c.092 0 .139-.046.139-.138v-.816c0-2.732 1.26-3.901 3.96-3.901h1.759c.164 0 .236.071.236.235v2.108c0 .166-.072.233-.236.233h-1.198c-1.028 0-1.28.257-1.28 1.216v.925c0 .092.046.138.137.138h1.487c.163 0 .234.073.234.234v1.937c0 .166-.071.235-.234.235H55.96c-.091 0-.137.045-.137.139v8.755c0 .165-.073.235-.234.235h-2.773zM46.328 10.146c-.194 0-.28-.063-.28-.212V8.02c0-.15.086-.215.28-.215h3.345c.193 0 .278.065.278.215v1.914c0 .15-.085.212-.278.212h-3.345zM46.328 24.195c-.194 0-.28-.071-.28-.239V12.724c0-.163.086-.236.28-.236h3.345c.193 0 .278.073.278.236v11.232c0 .168-.085.24-.278.24h-3.345zM71.34 21.027c-.23-.673-.316-1.576-.316-2.687 0-1.11.085-2.013.316-2.682.644-2.06 2.413-3.17 4.804-3.17 1.834 0 3.374.835 4.2 2.105.068.117.068.232-.045.326l-2 1.316c-.137.092-.253.072-.342-.045-.463-.647-1.058-.972-1.77-.972-.897 0-1.469.395-1.723 1.203-.138.392-.205 1.043-.205 1.92 0 .88.067 1.525.205 1.922.254.808.826 1.201 1.723 1.201.712 0 1.307-.322 1.77-.97.09-.115.205-.14.342-.046l2 1.319c.113.09.113.206.045.325-.826 1.267-2.366 2.103-4.2 2.103-2.391 0-4.16-1.111-4.804-3.168M88.635 17.162c.1 0 .144-.047.147-.138 0-.302-.046-.58-.123-.834-.292-.81-.897-1.225-1.93-1.225-.916 0-1.755.416-2.05 1.225-.073.255-.12.532-.12.834 0 .09.047.138.143.138h3.933zm-7.076 3.843c-.268-.79-.388-1.67-.388-2.665 0-1.038.092-1.942.364-2.682.689-2.013 2.58-3.17 5.109-3.17 2.578 0 4.447 1.182 5.138 3.148.265.785.316 1.94.316 3.448 0 .16-.098.228-.274.228h-7.057c-.098 0-.147.05-.147.139.026.232.012.44.082.624.318.996 1.154 1.481 2.461 1.483.951.002 1.71-.283 2.187-.595.437-.287.43-.387.674-.2l1.829 1.235c.165.113.147.208.023.322-1.251 1.251-2.922 1.875-5.06 1.875-2.677 0-4.568-1.158-5.257-3.19zM66.001 17.162c.1 0 .148-.047.148-.138 0-.302-.048-.58-.124-.834-.292-.81-.896-1.225-1.926-1.225-.923 0-1.758.416-2.05 1.225a2.876 2.876 0 0 0-.124.834c0 .09.046.138.148.138h3.928zm-7.076 3.843c-.268-.79-.388-1.67-.388-2.665 0-1.038.093-1.942.365-2.682.688-2.013 2.58-3.17 5.11-3.17 2.576 0 4.447 1.182 5.133 3.148.269.785.318 1.94.318 3.448 0 .16-.097.228-.268.228h-7.061c-.098 0-.144.05-.144.139.019.232.01.44.083.624.317.996 1.15 1.481 2.456 1.483.956.002 1.713-.283 2.192-.595.434-.287.429-.387.67-.2l1.83 1.235c.162.113.147.208.026.322-1.256 1.251-2.923 1.875-5.06 1.875-2.681 0-4.575-1.158-5.262-3.19zM101.463 20.488V8.04c0-.164-.085-.235-.284-.235H97.84c-.195 0-.28.071-.28.235v13.342c0 2.4 1.107 2.813 3.65 2.813.079 0 .142-.007.204-.058.054-.044.048-.169.048-.169v-3.48z"/>
    </g>
</svg>
