<svg width="26" height="26" viewBox="0 0 26 26" fill="none" xmlns="http://www.w3.org/2000/svg">
<path d="M13 0C5.83313 0 0 5.83313 0 13C0 20.1669 5.83313 26 13 26C20.1669 26 26 20.1669 26 13C26 5.83313 20.1669 0 13 0ZM13 2.16667C18.9959 2.16667 23.8333 7.00408 23.8333 13C23.8333 18.9959 18.9959 23.8333 13 23.8333C7.00408 23.8333 2.16667 18.9959 2.16667 13C2.16667 7.00408 7.00408 2.16667 13 2.16667ZM9.43262 7.90072L7.90072 9.43262L11.4681 13L7.90072 16.5674L9.43262 18.0993L13 14.5319L16.5674 18.0993L18.0993 16.5674L14.5319 13L18.0993 9.43262L16.5674 7.90072L13 11.4681L9.43262 7.90072Z" fill="#D82827"/>
</svg>
