<svg width="25" height="25" viewBox="0 0 25 25" fill="none" xmlns="http://www.w3.org/2000/svg">
<path d="M12.5 0C5.60877 0 0 5.60878 0 12.5C0 19.3912 5.60877 25 12.5 25C19.3912 25 25 19.3912 25 12.5C25 5.60878 19.3912 0 12.5 0ZM12.5 2.08333C18.2653 2.08333 22.9167 6.73469 22.9167 12.5C22.9167 18.2653 18.2653 22.9167 12.5 22.9167C6.73469 22.9167 2.08333 18.2653 2.08333 12.5C2.08333 6.73469 6.73469 2.08333 12.5 2.08333ZM9.06982 7.59684L7.59684 9.06982L11.027 12.5L7.59684 15.9302L9.06982 17.4032L12.5 13.973L15.9302 17.4032L17.4032 15.9302L13.973 12.5L17.4032 9.06982L15.9302 7.59684L12.5 11.027L9.06982 7.59684Z" fill="#9E9E9E"/>
</svg>
