<svg width="223" height="52" viewBox="0 0 223 52" fill="none" xmlns="http://www.w3.org/2000/svg">
<path d="M198.5 18.129C198.373 18.129 198.246 18.081 198.148 17.984C197.407 17.253 196.127 16.924 193.999 16.921C191.872 16.924 190.592 17.252 189.852 17.984C189.655 18.178 189.339 18.176 189.145 17.98C188.951 17.784 188.953 17.466 189.149 17.273C190.356 16.08 192.376 15.924 194 15.921C195.625 15.924 197.646 16.079 198.853 17.273C199.049 17.466 199.051 17.784 198.857 17.98C198.758 18.079 198.629 18.129 198.5 18.129ZM187.096 17.879C187.243 17.646 187.175 17.337 186.942 17.189C186.199 16.715 185.383 16.365 184.522 16.145C183.516 15.889 182.489 15.827 181.465 15.953C181.192 15.987 180.997 16.237 181.031 16.511C181.064 16.784 181.314 16.985 181.589 16.946C182.486 16.835 183.391 16.891 184.276 17.115C185.035 17.308 185.752 17.618 186.405 18.034C186.489 18.087 186.582 18.112 186.674 18.112C186.838 18.11 187 18.028 187.096 17.879ZM211.87 17.98C212.064 17.784 212.062 17.466 211.866 17.273C210.658 16.08 208.638 15.924 207.013 15.921C205.388 15.924 203.369 16.079 202.161 17.273C201.965 17.466 201.963 17.784 202.157 17.98C202.352 18.176 202.668 18.178 202.865 17.984C203.606 17.253 204.886 16.924 207.012 16.921C209.141 16.924 210.42 17.252 211.16 17.984C211.258 18.081 211.385 18.129 211.512 18.129C211.643 18.129 211.771 18.079 211.87 17.98ZM214.607 18.032C215.263 17.616 215.98 17.306 216.738 17.113C217.623 16.889 218.527 16.832 219.425 16.944C219.698 16.983 219.949 16.783 219.983 16.509C220.018 16.235 219.824 15.986 219.549 15.951C218.528 15.825 217.499 15.888 216.492 16.143C215.631 16.363 214.816 16.713 214.072 17.187C213.839 17.335 213.769 17.644 213.918 17.877C214.014 18.026 214.175 18.108 214.34 18.108C214.432 18.11 214.525 18.085 214.607 18.032ZM201 29.499V18.5C201 18.224 200.775 18 200.5 18C200.225 18 200 18.224 200 18.5V29.499C200 30.878 198.878 32 197.5 32C196.122 32 195 30.878 195 29.499C195 29.224 194.775 28.999 194.5 28.999C194.225 28.999 194 29.224 194 29.499C194 31.431 195.57 33 197.5 33C199.43 33 201 31.431 201 29.499ZM222.23 15.715C222.459 15.559 222.515 15.247 222.359 15.02C217.409 7.807 209.236 3.5 200.5 3.5C191.764 3.5 183.591 7.807 178.641 15.02C178.485 15.248 178.541 15.559 178.77 15.715C178.999 15.872 179.309 15.814 179.464 15.586C184.229 8.645 192.093 4.5 200.5 4.5C208.907 4.5 216.771 8.645 221.536 15.586C221.633 15.727 221.789 15.803 221.949 15.803C222.046 15.803 222.145 15.774 222.23 15.715ZM200.5 0C199.948 0 199.5 0.447 199.5 1C199.5 1.553 199.948 2 200.5 2C201.052 2 201.5 1.553 201.5 1C201.5 0.447 201.052 0 200.5 0ZM47.494 47.459C47.365 47.463 47.254 47.5 47.159 47.569C46.99 47.715 46.811 47.826 46.621 47.897C46.432 47.969 46.226 48.006 46.002 48.006C45.755 48.006 45.523 47.958 45.307 47.865C45.091 47.771 44.901 47.646 44.739 47.484C44.577 47.324 44.449 47.134 44.356 46.92C44.263 46.702 44.217 46.473 44.217 46.225C44.217 45.979 44.263 45.746 44.356 45.532C44.449 45.315 44.577 45.127 44.739 44.967C44.901 44.806 45.091 44.681 45.307 44.585C45.523 44.493 45.755 44.446 46.002 44.446C46.226 44.446 46.432 44.483 46.621 44.557C46.81 44.631 46.991 44.742 47.164 44.887C47.265 44.967 47.38 45.007 47.508 45.007C47.661 45.007 47.787 44.957 47.886 44.856C47.985 44.755 48.035 44.627 48.035 44.475C48.035 44.317 47.974 44.184 47.852 44.076C47.331 43.616 46.715 43.387 46.001 43.387C45.217 43.387 44.547 43.663 43.993 44.219C43.438 44.775 43.161 45.445 43.161 46.228C43.161 47.011 43.438 47.681 43.993 48.236C44.547 48.791 45.217 49.068 46.001 49.068C46.711 49.068 47.328 48.839 47.852 48.379C47.964 48.268 48.019 48.137 48.019 47.988C48.019 47.836 47.969 47.711 47.87 47.609C47.771 47.509 47.645 47.459 47.494 47.459ZM57.22 45.647C57.22 45.339 57.16 45.047 57.04 44.772C56.919 44.498 56.757 44.256 56.553 44.052C56.348 43.848 56.108 43.686 55.833 43.567C55.558 43.446 55.266 43.385 54.959 43.385C54.275 43.385 53.699 43.655 53.229 44.192C53.005 43.921 52.746 43.718 52.448 43.587C52.15 43.453 51.832 43.387 51.494 43.387C51.034 43.387 50.624 43.507 50.262 43.747C50.228 43.64 50.166 43.551 50.074 43.485C49.983 43.42 49.878 43.385 49.76 43.385C49.614 43.385 49.49 43.438 49.387 43.539C49.284 43.643 49.233 43.768 49.233 43.912V48.532C49.233 48.679 49.284 48.806 49.387 48.91C49.491 49.014 49.616 49.064 49.765 49.064C49.911 49.064 50.035 49.011 50.137 48.91C50.241 48.806 50.293 48.681 50.293 48.532V45.646C50.293 45.48 50.324 45.326 50.387 45.179C50.449 45.033 50.536 44.907 50.645 44.795C50.755 44.687 50.882 44.601 51.028 44.536C51.174 44.473 51.329 44.442 51.495 44.442C51.66 44.442 51.815 44.473 51.961 44.539C52.106 44.602 52.233 44.688 52.342 44.798C52.45 44.906 52.536 45.032 52.601 45.179C52.664 45.325 52.697 45.48 52.697 45.646V48.532C52.697 48.679 52.749 48.806 52.852 48.91C52.955 49.014 53.081 49.064 53.229 49.064C53.375 49.064 53.499 49.011 53.602 48.91C53.706 48.806 53.757 48.681 53.757 48.532V45.646C53.757 45.48 53.788 45.326 53.85 45.179C53.913 45.033 53.999 44.908 54.108 44.798C54.218 44.691 54.345 44.605 54.491 44.539C54.637 44.476 54.792 44.442 54.959 44.442C55.126 44.442 55.286 44.473 55.433 44.539C55.58 44.602 55.708 44.69 55.816 44.8C55.923 44.91 56.009 45.037 56.072 45.183C56.134 45.329 56.165 45.482 56.165 45.646V48.532C56.165 48.679 56.217 48.806 56.317 48.91C56.419 49.014 56.544 49.064 56.693 49.064C56.839 49.064 56.963 49.011 57.066 48.91C57.17 48.806 57.221 48.681 57.221 48.532L57.22 45.647ZM61.396 49.065C61.785 49.065 62.147 48.998 62.479 48.86C62.812 48.723 63.12 48.514 63.404 48.235C63.959 47.686 64.236 47.016 64.236 46.225C64.236 45.833 64.166 45.468 64.028 45.132C63.889 44.796 63.681 44.49 63.403 44.216C62.842 43.662 62.172 43.384 61.394 43.384C60.611 43.384 59.941 43.662 59.387 44.216C58.831 44.772 58.555 45.442 58.555 46.225V50.973C58.555 51.124 58.605 51.25 58.704 51.35C58.805 51.451 58.932 51.501 59.083 51.501C59.232 51.501 59.358 51.451 59.461 51.353C59.564 51.252 59.615 51.126 59.615 50.974V48.445C60.124 48.858 60.717 49.065 61.396 49.065ZM59.616 46.228C59.616 45.984 59.662 45.754 59.755 45.539C59.849 45.322 59.974 45.135 60.133 44.975C60.292 44.813 60.48 44.686 60.696 44.591C60.912 44.496 61.145 44.449 61.395 44.449C61.643 44.449 61.874 44.496 62.091 44.591C62.307 44.686 62.495 44.815 62.656 44.977C62.817 45.139 62.943 45.328 63.035 45.542C63.129 45.756 63.176 45.984 63.176 46.229C63.176 46.474 63.129 46.703 63.035 46.917C62.942 47.132 62.816 47.318 62.656 47.482C62.494 47.644 62.307 47.771 62.091 47.867C61.874 47.963 61.643 48.01 61.395 48.01C61.145 48.01 60.912 47.963 60.696 47.867C60.479 47.771 60.291 47.644 60.133 47.484C59.974 47.324 59.849 47.134 59.755 46.92C59.662 46.7 59.616 46.47 59.616 46.228ZM69.861 48.539C69.861 48.685 69.914 48.81 70.017 48.912C70.12 49.014 70.245 49.065 70.393 49.065C70.539 49.065 70.663 49.014 70.767 48.912C70.87 48.809 70.922 48.684 70.922 48.539V46.226C70.922 45.443 70.645 44.773 70.09 44.218C69.528 43.662 68.859 43.386 68.081 43.386C67.296 43.386 66.627 43.662 66.072 44.218C65.518 44.773 65.24 45.443 65.24 46.226C65.24 47.01 65.518 47.681 66.072 48.236C66.627 48.79 67.296 49.066 68.081 49.066C68.419 49.066 68.737 49.012 69.035 48.906C69.332 48.797 69.607 48.64 69.86 48.437L69.861 48.539ZM68.082 44.446C68.33 44.446 68.561 44.494 68.777 44.588C68.992 44.685 69.182 44.812 69.342 44.974C69.502 45.137 69.63 45.327 69.722 45.539C69.815 45.754 69.86 45.981 69.86 46.227C69.86 46.469 69.815 46.7 69.722 46.914C69.629 47.13 69.501 47.317 69.342 47.479C69.181 47.641 68.992 47.77 68.777 47.864C68.56 47.961 68.329 48.009 68.082 48.009C67.831 48.009 67.599 47.961 67.382 47.864C67.167 47.77 66.979 47.643 66.819 47.483C66.66 47.321 66.535 47.132 66.442 46.918C66.349 46.7 66.303 46.472 66.303 46.228C66.303 45.984 66.349 45.755 66.442 45.54C66.535 45.322 66.661 45.135 66.819 44.975C66.979 44.815 67.167 44.688 67.382 44.591C67.599 44.494 67.831 44.446 68.082 44.446ZM72.029 48.209C71.958 48.298 71.924 48.408 71.924 48.539C71.924 48.61 71.937 48.679 71.964 48.742C71.99 48.805 72.028 48.862 72.075 48.912C72.122 48.961 72.179 48.999 72.242 49.026C72.306 49.052 72.376 49.067 72.45 49.067C72.599 49.067 72.723 49.011 72.826 48.903L74.378 47.048L75.919 48.903C76.027 49.011 76.153 49.067 76.299 49.067C76.374 49.067 76.444 49.052 76.507 49.026C76.571 48.999 76.627 48.961 76.675 48.912C76.722 48.862 76.76 48.808 76.79 48.742C76.818 48.679 76.832 48.61 76.832 48.539C76.832 48.403 76.795 48.294 76.721 48.209L75.063 46.222L76.707 44.265C76.791 44.161 76.833 44.043 76.833 43.914C76.833 43.844 76.819 43.774 76.791 43.711C76.761 43.648 76.723 43.59 76.676 43.541C76.628 43.492 76.572 43.454 76.508 43.428C76.445 43.402 76.375 43.387 76.3 43.387C76.142 43.387 76.012 43.445 75.91 43.56L74.379 45.392L72.847 43.56C72.743 43.445 72.611 43.387 72.451 43.387C72.377 43.387 72.307 43.402 72.243 43.428C72.18 43.454 72.123 43.492 72.076 43.541C72.029 43.59 71.991 43.645 71.965 43.711C71.938 43.774 71.925 43.844 71.925 43.914C71.925 44.058 71.965 44.173 72.046 44.265L73.69 46.222L72.029 48.209ZM83.288 46.228C83.285 45.834 83.215 45.472 83.078 45.137C82.94 44.802 82.732 44.495 82.457 44.219C81.894 43.663 81.226 43.387 80.448 43.387C79.663 43.387 78.994 43.663 78.439 44.219C77.885 44.775 77.607 45.445 77.607 46.228C77.607 47.011 77.885 47.681 78.439 48.236C78.994 48.791 79.663 49.068 80.448 49.068C81.225 49.068 81.894 48.791 82.457 48.236C83.011 47.687 83.288 47.019 83.288 46.228ZM80.448 44.446C80.695 44.446 80.927 44.494 81.143 44.588C81.358 44.685 81.547 44.812 81.708 44.974C81.867 45.137 81.995 45.327 82.088 45.539C82.181 45.754 82.227 45.981 82.227 46.227C82.227 46.469 82.181 46.7 82.088 46.914C81.995 47.13 81.867 47.317 81.708 47.479C81.547 47.641 81.357 47.77 81.143 47.864C80.926 47.961 80.695 48.009 80.448 48.009C80.197 48.009 79.964 47.961 79.747 47.864C79.532 47.77 79.345 47.643 79.184 47.483C79.026 47.321 78.9 47.132 78.807 46.918C78.714 46.7 78.667 46.472 78.667 46.228C78.667 45.984 78.714 45.755 78.807 45.54C78.9 45.324 79.026 45.135 79.184 44.975C79.344 44.815 79.532 44.688 79.747 44.591C79.964 44.494 80.197 44.446 80.448 44.446ZM95.381 46.228C95.378 45.834 95.308 45.472 95.171 45.137C95.033 44.802 94.825 44.495 94.55 44.219C93.987 43.663 93.319 43.387 92.541 43.387C91.756 43.387 91.087 43.663 90.532 44.219C89.978 44.775 89.7 45.445 89.7 46.228C89.7 47.011 89.978 47.681 90.532 48.236C91.087 48.791 91.756 49.068 92.541 49.068C93.318 49.068 93.987 48.791 94.55 48.236C95.104 47.687 95.381 47.019 95.381 46.228ZM92.541 44.446C92.788 44.446 93.02 44.494 93.236 44.588C93.451 44.685 93.64 44.812 93.801 44.974C93.96 45.137 94.088 45.327 94.181 45.539C94.274 45.754 94.32 45.981 94.32 46.227C94.32 46.469 94.274 46.7 94.181 46.914C94.088 47.13 93.96 47.317 93.801 47.479C93.64 47.641 93.45 47.77 93.236 47.864C93.019 47.961 92.788 48.009 92.541 48.009C92.29 48.009 92.057 47.961 91.84 47.864C91.625 47.77 91.438 47.643 91.277 47.483C91.119 47.321 90.993 47.132 90.9 46.918C90.807 46.7 90.76 46.472 90.76 46.228C90.76 45.984 90.807 45.755 90.9 45.54C90.993 45.324 91.119 45.135 91.277 44.975C91.437 44.815 91.625 44.688 91.84 44.591C92.057 44.494 92.29 44.446 92.541 44.446ZM84.98 43.387C84.906 43.387 84.835 43.402 84.773 43.428C84.709 43.454 84.653 43.492 84.605 43.542C84.557 43.591 84.52 43.647 84.493 43.711C84.467 43.774 84.452 43.844 84.452 43.914V48.539C84.452 48.61 84.467 48.678 84.493 48.742C84.52 48.805 84.557 48.862 84.605 48.912C84.653 48.961 84.709 48.999 84.773 49.026C84.836 49.052 84.906 49.065 84.98 49.065H87.293C87.525 49.065 87.745 49.022 87.949 48.932C88.153 48.841 88.332 48.721 88.484 48.569C88.635 48.417 88.755 48.239 88.843 48.034C88.932 47.83 88.976 47.612 88.976 47.383C88.976 47.237 88.961 47.105 88.932 46.986C88.904 46.866 88.861 46.753 88.806 46.644C88.75 46.536 88.679 46.431 88.594 46.33C88.51 46.228 88.411 46.128 88.301 46.025C88.493 45.753 88.589 45.433 88.589 45.07C88.589 44.841 88.545 44.625 88.455 44.42C88.366 44.216 88.245 44.037 88.093 43.886C87.94 43.735 87.762 43.614 87.558 43.524C87.354 43.434 87.135 43.389 86.906 43.389L84.98 43.387ZM85.509 45.699V44.446H86.907C86.992 44.446 87.072 44.463 87.148 44.498C87.224 44.53 87.291 44.576 87.346 44.632C87.401 44.689 87.447 44.754 87.48 44.83C87.514 44.905 87.532 44.985 87.532 45.069C87.532 45.161 87.514 45.246 87.48 45.321C87.447 45.397 87.4 45.463 87.342 45.518C87.285 45.575 87.218 45.619 87.143 45.651C87.067 45.682 86.989 45.699 86.907 45.699H85.509ZM85.509 48.007V46.754H87.294C87.374 46.754 87.453 46.771 87.529 46.802C87.605 46.834 87.671 46.878 87.728 46.935C87.786 46.992 87.832 47.058 87.866 47.135C87.9 47.213 87.917 47.295 87.917 47.383C87.917 47.472 87.9 47.552 87.866 47.626C87.832 47.7 87.787 47.767 87.731 47.824C87.676 47.882 87.609 47.927 87.534 47.959C87.458 47.991 87.378 48.007 87.294 48.007H85.509ZM135.779 49.065C135.926 49.065 136.052 49.014 136.156 48.912C136.26 48.81 136.31 48.684 136.31 48.539V43.914C136.31 43.768 136.258 43.643 136.156 43.541C136.052 43.438 135.929 43.386 135.784 43.386C135.637 43.386 135.51 43.439 135.406 43.541C135.302 43.645 135.252 43.769 135.252 43.914V46.419C135.252 46.64 135.21 46.845 135.127 47.035C135.045 47.225 134.93 47.393 134.785 47.54C134.639 47.686 134.471 47.799 134.277 47.883C134.085 47.965 133.88 48.008 133.664 48.008C133.443 48.008 133.238 47.965 133.046 47.883C132.854 47.799 132.686 47.687 132.541 47.543C132.396 47.399 132.284 47.23 132.201 47.038C132.118 46.845 132.077 46.64 132.077 46.419V43.914C132.077 43.768 132.025 43.643 131.922 43.541C131.819 43.439 131.693 43.386 131.549 43.386C131.401 43.386 131.276 43.439 131.172 43.541C131.068 43.645 131.018 43.769 131.018 43.914V46.419C131.018 46.78 131.087 47.123 131.229 47.442C131.369 47.764 131.559 48.046 131.798 48.286C132.037 48.524 132.319 48.716 132.639 48.856C132.96 48.996 133.303 49.065 133.664 49.065C133.969 49.065 134.25 49.024 134.512 48.942C134.772 48.858 135.02 48.725 135.252 48.545C135.255 48.691 135.307 48.814 135.404 48.914C135.501 49.017 135.627 49.065 135.779 49.065ZM101.376 49.065C101.524 49.065 101.65 49.014 101.753 48.912C101.857 48.808 101.909 48.684 101.909 48.539V43.914C101.909 43.768 101.857 43.643 101.753 43.542C101.65 43.438 101.526 43.387 101.381 43.387C101.233 43.387 101.107 43.439 101.003 43.542C100.9 43.646 100.849 43.769 100.849 43.914V46.419C100.849 46.64 100.808 46.845 100.724 47.035C100.642 47.225 100.528 47.393 100.382 47.54C100.236 47.687 100.068 47.8 99.874 47.883C99.682 47.965 99.478 48.007 99.261 48.007C99.04 48.007 98.835 47.965 98.643 47.883C98.45 47.8 98.282 47.687 98.138 47.543C97.993 47.399 97.88 47.23 97.798 47.038C97.715 46.847 97.673 46.64 97.673 46.419V43.914C97.673 43.768 97.622 43.643 97.519 43.542C97.416 43.438 97.291 43.387 97.147 43.387C96.998 43.387 96.872 43.439 96.769 43.542C96.665 43.646 96.614 43.769 96.614 43.914V46.419C96.614 46.78 96.684 47.123 96.825 47.444C96.965 47.764 97.155 48.046 97.395 48.285C97.635 48.524 97.916 48.716 98.236 48.856C98.558 48.997 98.9 49.065 99.261 49.065C99.566 49.065 99.847 49.024 100.109 48.942C100.369 48.858 100.616 48.727 100.849 48.545C100.852 48.691 100.903 48.814 101.001 48.914C101.098 49.017 101.224 49.065 101.376 49.065ZM99.261 42.783C99.494 42.783 99.713 42.75 99.918 42.684C100.122 42.618 100.301 42.526 100.453 42.41C100.605 42.294 100.725 42.155 100.815 41.996C100.905 41.839 100.949 41.667 100.949 41.485C100.949 41.337 100.9 41.211 100.8 41.106C100.7 41.003 100.574 40.952 100.423 40.952C100.271 40.952 100.144 41.003 100.042 41.102C99.967 41.182 99.92 41.272 99.899 41.376C99.892 41.473 99.831 41.55 99.712 41.614C99.587 41.685 99.436 41.72 99.26 41.72C99.084 41.72 98.934 41.685 98.809 41.614C98.691 41.55 98.625 41.47 98.617 41.376C98.599 41.272 98.554 41.182 98.48 41.102C98.377 41.001 98.251 40.952 98.099 40.952C97.947 40.952 97.82 41.005 97.721 41.106C97.621 41.21 97.572 41.335 97.572 41.485C97.572 41.667 97.617 41.839 97.707 41.996C97.796 42.155 97.917 42.294 98.069 42.41C98.221 42.526 98.4 42.618 98.604 42.684C98.809 42.75 99.027 42.783 99.261 42.783ZM110.281 47.459C110.152 47.463 110.041 47.5 109.946 47.569C109.777 47.715 109.598 47.826 109.408 47.897C109.22 47.969 109.013 48.006 108.79 48.006C108.543 48.006 108.311 47.958 108.095 47.865C107.879 47.771 107.69 47.646 107.528 47.484C107.366 47.324 107.238 47.134 107.144 46.92C107.051 46.702 107.005 46.473 107.005 46.225C107.005 45.979 107.051 45.746 107.144 45.532C107.238 45.315 107.366 45.127 107.528 44.967C107.69 44.806 107.88 44.681 108.095 44.585C108.312 44.493 108.543 44.446 108.79 44.446C109.014 44.446 109.22 44.483 109.408 44.557C109.598 44.631 109.779 44.742 109.951 44.887C110.053 44.967 110.168 45.007 110.296 45.007C110.448 45.007 110.574 44.957 110.675 44.856C110.774 44.755 110.824 44.627 110.824 44.475C110.824 44.317 110.762 44.184 110.641 44.076C110.12 43.616 109.503 43.387 108.789 43.387C108.004 43.387 107.335 43.663 106.78 44.219C106.226 44.775 105.948 45.445 105.948 46.228C105.948 47.011 106.226 47.681 106.78 48.236C107.335 48.791 108.004 49.068 108.789 49.068C109.498 49.068 110.116 48.839 110.641 48.379C110.751 48.268 110.807 48.137 110.807 47.988C110.807 47.836 110.758 47.711 110.658 47.609C110.559 47.509 110.434 47.459 110.281 47.459ZM116.039 47.47C115.907 47.474 115.791 47.517 115.687 47.601C115.529 47.738 115.357 47.838 115.17 47.906C114.983 47.974 114.779 48.01 114.555 48.01C114.361 48.01 114.171 47.979 113.99 47.918C113.81 47.857 113.645 47.772 113.494 47.661C113.344 47.551 113.213 47.42 113.101 47.265C112.989 47.11 112.905 46.941 112.847 46.754H116.864C117.012 46.754 117.139 46.704 117.241 46.605C117.345 46.505 117.397 46.378 117.397 46.228C117.397 45.834 117.327 45.472 117.188 45.134C117.049 44.797 116.841 44.491 116.565 44.219C116.002 43.663 115.334 43.388 114.555 43.388C113.772 43.388 113.102 43.663 112.548 44.219C111.993 44.775 111.716 45.445 111.716 46.228C111.716 47.011 111.993 47.681 112.548 48.236C113.102 48.791 113.772 49.068 114.555 49.068C115.268 49.068 115.888 48.839 116.412 48.379C116.515 48.275 116.563 48.149 116.563 47.999C116.563 47.846 116.514 47.72 116.415 47.621C116.316 47.521 116.191 47.47 116.039 47.47ZM112.849 45.699C112.904 45.511 112.986 45.344 113.097 45.188C113.209 45.035 113.341 44.903 113.493 44.792C113.644 44.684 113.811 44.598 113.994 44.536C114.178 44.474 114.365 44.443 114.557 44.443C114.751 44.443 114.938 44.474 115.119 44.536C115.3 44.598 115.466 44.682 115.616 44.792C115.765 44.902 115.896 45.033 116.012 45.188C116.125 45.342 116.21 45.512 116.27 45.699H112.849ZM121.27 49.065C121.661 49.065 122.022 48.998 122.354 48.86C122.688 48.723 122.997 48.514 123.28 48.235C123.835 47.686 124.112 47.016 124.112 46.225C124.112 45.833 124.043 45.468 123.903 45.132C123.766 44.796 123.557 44.49 123.28 44.216C122.718 43.662 122.05 43.384 121.27 43.384C120.487 43.384 119.817 43.662 119.264 44.216C118.707 44.772 118.432 45.442 118.432 46.225V50.973C118.432 51.124 118.483 51.25 118.58 51.35C118.68 51.451 118.807 51.499 118.958 51.499C119.107 51.499 119.232 51.449 119.335 51.35C119.439 51.25 119.491 51.124 119.491 50.973V48.442C119.998 48.858 120.591 49.065 121.27 49.065ZM119.491 46.228C119.491 45.984 119.536 45.754 119.63 45.539C119.723 45.322 119.85 45.135 120.008 44.975C120.166 44.813 120.356 44.686 120.571 44.591C120.788 44.496 121.02 44.449 121.27 44.449C121.518 44.449 121.749 44.496 121.965 44.591C122.181 44.686 122.369 44.815 122.529 44.977C122.689 45.139 122.816 45.328 122.91 45.542C123.004 45.756 123.05 45.984 123.05 46.229C123.05 46.474 123.004 46.703 122.91 46.917C122.816 47.131 122.689 47.318 122.529 47.482C122.369 47.644 122.179 47.771 121.965 47.867C121.748 47.963 121.518 48.01 121.27 48.01C121.02 48.01 120.788 47.963 120.571 47.867C120.354 47.771 120.167 47.644 120.008 47.484C119.849 47.324 119.723 47.134 119.63 46.92C119.536 46.7 119.491 46.47 119.491 46.228ZM125.805 43.387C125.731 43.387 125.659 43.402 125.596 43.428C125.533 43.454 125.477 43.492 125.428 43.542C125.381 43.591 125.344 43.647 125.317 43.711C125.292 43.774 125.276 43.844 125.276 43.914V48.539C125.276 48.61 125.292 48.678 125.317 48.742C125.344 48.805 125.381 48.862 125.428 48.912C125.477 48.961 125.532 48.999 125.596 49.026C125.659 49.052 125.731 49.065 125.805 49.065H128.118C128.35 49.065 128.569 49.022 128.774 48.932C128.979 48.841 129.157 48.721 129.309 48.569C129.46 48.417 129.58 48.239 129.668 48.034C129.756 47.83 129.8 47.612 129.8 47.383C129.8 47.237 129.785 47.105 129.757 46.986C129.729 46.866 129.686 46.753 129.629 46.644C129.574 46.536 129.503 46.431 129.418 46.33C129.334 46.228 129.236 46.128 129.125 46.025C129.316 45.753 129.413 45.433 129.413 45.07C129.413 44.841 129.369 44.625 129.279 44.42C129.189 44.216 129.068 44.037 128.917 43.886C128.764 43.735 128.586 43.614 128.383 43.524C128.178 43.434 127.96 43.389 127.731 43.389L125.805 43.387ZM126.331 45.699V44.446H127.73C127.814 44.446 127.894 44.463 127.97 44.498C128.045 44.53 128.113 44.576 128.167 44.632C128.222 44.689 128.269 44.754 128.302 44.83C128.335 44.905 128.353 44.985 128.353 45.069C128.353 45.161 128.335 45.246 128.302 45.321C128.269 45.397 128.222 45.463 128.164 45.518C128.106 45.575 128.039 45.619 127.965 45.651C127.89 45.682 127.81 45.699 127.73 45.699H126.331ZM126.331 48.007V46.754H128.116C128.195 46.754 128.275 46.771 128.351 46.802C128.426 46.834 128.493 46.878 128.55 46.935C128.607 46.992 128.654 47.058 128.689 47.135C128.722 47.213 128.738 47.295 128.738 47.383C128.738 47.472 128.722 47.552 128.689 47.626C128.654 47.7 128.609 47.767 128.552 47.824C128.497 47.882 128.431 47.927 128.355 47.959C128.279 47.991 128.201 48.007 128.116 48.007H126.331ZM141.781 47.459C141.652 47.463 141.541 47.5 141.445 47.569C141.277 47.715 141.097 47.826 140.908 47.897C140.72 47.969 140.513 48.006 140.29 48.006C140.042 48.006 139.811 47.958 139.596 47.865C139.379 47.771 139.19 47.646 139.028 47.484C138.867 47.324 138.739 47.134 138.645 46.92C138.551 46.702 138.505 46.473 138.505 46.225C138.505 45.979 138.551 45.746 138.645 45.532C138.739 45.315 138.867 45.127 139.028 44.967C139.19 44.806 139.381 44.681 139.596 44.585C139.813 44.493 140.042 44.446 140.29 44.446C140.514 44.446 140.721 44.483 140.908 44.557C141.097 44.631 141.277 44.742 141.451 44.887C141.553 44.967 141.668 45.007 141.796 45.007C141.947 45.007 142.074 44.957 142.174 44.856C142.274 44.755 142.323 44.627 142.323 44.475C142.323 44.317 142.261 44.184 142.14 44.076C141.619 43.616 141.001 43.387 140.288 43.387C139.503 43.387 138.834 43.663 138.278 44.219C137.725 44.775 137.447 45.445 137.447 46.228C137.447 47.011 137.725 47.681 138.278 48.236C138.834 48.791 139.503 49.068 140.288 49.068C140.997 49.068 141.615 48.839 142.14 48.379C142.25 48.268 142.306 48.137 142.306 47.988C142.306 47.836 142.257 47.711 142.158 47.609C142.059 47.509 141.934 47.459 141.781 47.459ZM95.653 26.271C94.977 24.651 93.382 23.51 91.519 23.502C91.512 23.502 91.506 23.5 91.499 23.5H85.481C84.661 23.489 84 22.822 84 22C84 21.179 84.662 20.513 85.481 20.502H93.498C93.505 20.502 93.511 20.5 93.518 20.5C94.338 20.489 94.999 19.822 94.999 19C94.999 18.172 94.327 17.5 93.498 17.5H85.51C85.507 17.5 85.504 17.499 85.5 17.499C85.496 17.499 85.494 17.5 85.49 17.5C83.528 17.504 81.879 18.771 81.267 20.525C81.105 20.989 81 21.48 81 21.999C81 22.693 81.17 23.344 81.451 23.931C82.176 25.446 83.709 26.499 85.5 26.499C83.709 26.499 91.519 26.5 91.519 26.5C92.338 26.511 93 27.178 93 27.997C93 28.825 92.328 29.5 91.499 29.5H82.502C81.673 29.5 81.001 30.172 81.001 31C81.001 31.829 81.673 32.502 82.502 32.502L91.5 32.5C93.418 32.5 95.044 31.295 95.692 29.604C95.883 29.104 96 28.567 96 28C96 27.387 95.875 26.804 95.653 26.271ZM131 31C131 30.172 130.328 29.5 129.5 29.5C128.671 29.5 128 30.172 128 31C128 31.828 128.671 32.5 129.5 32.5C130.328 32.5 131 31.828 131 31ZM146.499 17.502C145.67 17.502 144.998 18.174 144.998 19.003V19.013V24.987V25.001C144.998 25.005 144.997 25.008 144.997 25.012C144.994 26.164 144.545 27.205 143.828 28C143.004 28.914 141.825 29.5 140.5 29.5C139.175 29.5 137.996 28.914 137.172 28C136.455 27.205 136.006 26.164 136.003 25.012C136.003 25.008 136.002 25.005 136.002 25.001V24.986V19.012V19.002C136.002 18.173 135.329 17.501 134.501 17.501C133.672 17.501 133 18.173 133 19.002V25.001C133 26.035 133.21 27.021 133.59 27.918C133.602 27.946 133.618 27.973 133.63 28.001C133.76 28.299 133.91 28.586 134.077 28.86C134.577 29.686 135.232 30.409 136.002 30.987C136.002 30.989 136.002 30.989 136.002 30.989C137.257 31.935 138.813 32.501 140.5 32.501C142.188 32.501 143.743 31.935 144.997 30.989V30.987C146.023 30.216 146.848 29.19 147.369 28.001C147.381 27.973 147.396 27.946 147.409 27.918C147.789 27.021 147.999 26.035 147.999 25.001V19.003C148 18.174 147.328 17.502 146.499 17.502ZM114 25.001C114 29.137 110.636 32.502 106.5 32.502C106.487 32.502 106.475 32.498 106.462 32.498C104.788 32.49 103.248 31.926 102.002 30.987C100.184 29.618 99 27.448 99 25.001V25C99 20.864 102.364 17.499 106.5 17.499C106.513 17.499 106.525 17.503 106.538 17.503C108.212 17.511 109.752 18.075 110.998 19.013C112.816 20.383 114 22.554 114 25.001ZM106.5 29.5C108.982 29.5 111 27.48 111 25V24.986C110.992 22.512 108.977 20.5 106.5 20.5C104.018 20.5 102 22.521 102 25.001V25.015C102.008 27.488 104.023 29.5 106.5 29.5ZM124.5 29.501C122.02 29.501 120.001 27.482 120.001 25.002C120.001 24.997 120.002 24.992 120.002 24.987V13.003C120.002 12.174 119.329 11.502 118.501 11.502C117.672 11.502 117 12.174 117 13.003V25.001C117 25.002 117 25.002 117 25.002C117 29.138 120.363 32.503 124.5 32.503C124.514 32.503 124.525 32.499 124.538 32.499C125.35 32.478 126.001 31.817 126.001 31.001C126.001 30.174 125.329 29.501 124.5 29.501ZM47.499 32.498C48.328 32.498 49 31.826 49 30.997V24.999C49 20.863 45.636 17.499 41.5 17.499C37.364 17.499 34 20.863 34 24.999C34 29.135 37.364 32.5 41.5 32.5C42.329 32.5 43.001 31.828 43.001 30.998C43.001 30.171 42.329 29.498 41.5 29.498C39.02 29.498 37.001 27.479 37.001 24.999C37.001 22.519 39.02 20.5 41.5 20.5C43.981 20.5 45.998 22.519 45.998 24.999V30.997C45.998 31.826 46.67 32.498 47.499 32.498ZM76.499 32.498C77.328 32.498 78 31.826 78 30.997V24.999C78 20.863 74.636 17.499 70.5 17.499C66.364 17.499 63 20.863 63 24.999C63 29.135 66.364 32.5 70.5 32.5C71.329 32.5 72.001 31.828 72.001 30.998C72.001 30.171 71.329 29.498 70.5 29.498C68.02 29.498 66.001 27.479 66.001 24.999C66.001 22.519 68.02 20.5 70.5 20.5C72.981 20.5 74.998 22.519 74.998 24.999V30.997C74.998 31.826 75.67 32.498 76.499 32.498ZM164.499 32.498C165.328 32.498 166 31.826 166 30.997V24.999C166 20.863 162.637 17.499 158.5 17.499C154.363 17.499 151 20.863 151 24.999C151 29.135 154.363 32.5 158.5 32.5C159.329 32.5 160.001 31.828 160.001 30.998C160.001 30.171 159.329 29.498 158.5 29.498C156.02 29.498 154.001 27.479 154.001 24.999C154.001 22.519 156.02 20.5 158.5 20.5C160.98 20.5 162.998 22.519 162.998 24.999V30.997C162.998 31.826 163.67 32.498 164.499 32.498ZM59.5 17.499C58.547 17.499 57.64 17.685 56.801 18.01C56.729 18.037 56.654 18.06 56.583 18.09C56.526 18.113 56.473 18.145 56.416 18.17C53.816 19.349 52 21.963 52 24.999V25V30.997C52 31.826 52.672 32.498 53.501 32.498C54.33 32.498 55.002 31.826 55.002 30.997V24.999C55.002 23.759 55.506 22.635 56.32 21.82C57.135 21.006 58.26 20.501 59.5 20.501C59.502 20.501 59.503 20.5 59.505 20.5C60.332 20.497 61.001 19.826 61.001 19.001C61.001 18.171 60.329 17.499 59.5 17.499ZM17.501 38.5C18.33 38.5 19.002 37.828 19.002 36.999V25.001C19.002 22.521 21.019 20.502 23.5 20.502C25.98 20.502 27.999 22.521 27.999 25.001C27.999 27.481 25.98 29.5 23.5 29.5C22.671 29.5 21.999 30.173 21.999 31C21.999 31.83 22.671 32.502 23.5 32.502C27.636 32.502 31 29.137 31 25.001C31 20.865 27.636 17.501 23.5 17.501C19.363 17.501 16 20.865 16 25.001V36.999C16 37.828 16.672 38.5 17.501 38.5Z" fill="white"/>
<path d="M223 23.064V40.501C223 44.912 219.411 48.501 215 48.501H147.469C146.917 48.501 146.469 48.054 146.469 47.501C146.469 46.948 146.917 46.501 147.469 46.501H215C218.309 46.501 221 43.81 221 40.501V23.064C221 22.511 221.448 22.064 222 22.064C222.552 22.064 223 22.511 223 23.064ZM38.641 46.5H8C4.691 46.5 2 43.81 2 40.5V8.5C2 5.191 4.691 2.5 8 2.5H181.547C182.1 2.5 182.547 2.053 182.547 1.5C182.547 0.947 182.1 0.5 181.547 0.5H8C3.589 0.5 0 4.089 0 8.5V40.5C0 44.911 3.589 48.5 8 48.5H38.641C39.193 48.5 39.641 48.053 39.641 47.5C39.641 46.946 39.193 46.5 38.641 46.5Z" fill="white"/>
</svg>
