<svg width="223" height="52" viewBox="0 0 223 52" fill="none" xmlns="http://www.w3.org/2000/svg">
<path d="M198.5 18.129C198.373 18.129 198.246 18.081 198.148 17.984C197.407 17.253 196.127 16.924 193.999 16.921C191.872 16.924 190.592 17.252 189.852 17.984C189.655 18.178 189.339 18.176 189.145 17.98C188.952 17.784 188.954 17.466 189.149 17.273C190.356 16.08 192.377 15.924 194.001 15.921C195.626 15.924 197.647 16.079 198.855 17.273C199.05 17.466 199.052 17.784 198.859 17.98C198.758 18.079 198.629 18.129 198.5 18.129ZM187.096 17.879C187.243 17.646 187.175 17.337 186.942 17.189C186.2 16.715 185.383 16.365 184.522 16.145C183.516 15.889 182.489 15.827 181.465 15.953C181.192 15.987 180.997 16.237 181.031 16.511C181.064 16.785 181.316 16.985 181.589 16.946C182.486 16.835 183.391 16.891 184.276 17.115C185.036 17.308 185.753 17.618 186.405 18.034C186.489 18.087 186.583 18.112 186.675 18.112C186.838 18.11 187 18.028 187.096 17.879ZM211.87 17.98C212.064 17.784 212.062 17.466 211.866 17.273C210.658 16.08 208.638 15.924 207.013 15.921C205.388 15.924 203.368 16.079 202.16 17.273C201.964 17.466 201.962 17.784 202.156 17.98C202.35 18.176 202.667 18.178 202.864 17.984C203.604 17.253 204.885 16.924 207.01 16.921C209.139 16.924 210.418 17.252 211.158 17.984C211.256 18.081 211.383 18.129 211.51 18.129C211.643 18.129 211.771 18.079 211.87 17.98ZM214.607 18.032C215.263 17.616 215.98 17.306 216.738 17.113C217.623 16.889 218.527 16.832 219.425 16.944C219.7 16.983 219.949 16.783 219.983 16.509C220.018 16.236 219.825 15.986 219.549 15.951C218.528 15.825 217.5 15.888 216.492 16.143C215.631 16.363 214.816 16.713 214.072 17.187C213.839 17.335 213.769 17.644 213.918 17.877C214.014 18.026 214.175 18.108 214.34 18.108C214.432 18.11 214.525 18.085 214.607 18.032ZM201 29.499V18.5C201 18.224 200.775 18 200.5 18C200.225 18 200 18.224 200 18.5V29.499C200 30.878 198.878 32 197.5 32C196.122 32 195 30.878 195 29.499C195 29.224 194.775 28.999 194.5 28.999C194.225 28.999 194 29.224 194 29.499C194 31.431 195.57 33 197.5 33C199.43 33 201 31.431 201 29.499ZM222.23 15.715C222.459 15.559 222.515 15.247 222.359 15.02C217.409 7.807 209.236 3.5 200.5 3.5C191.764 3.5 183.591 7.807 178.641 15.02C178.485 15.248 178.541 15.559 178.77 15.715C178.999 15.872 179.309 15.814 179.464 15.586C184.229 8.645 192.093 4.5 200.5 4.5C208.907 4.5 216.771 8.645 221.536 15.586C221.633 15.727 221.789 15.803 221.949 15.803C222.046 15.803 222.145 15.774 222.23 15.715ZM200.5 0C199.948 0 199.5 0.447 199.5 1C199.5 1.553 199.948 2 200.5 2C201.052 2 201.5 1.553 201.5 1C201.5 0.447 201.052 0 200.5 0ZM47.494 47.459C47.645 47.459 47.772 47.509 47.872 47.608C47.971 47.709 48.021 47.834 48.021 47.985C48.021 48.132 47.965 48.264 47.854 48.377C47.33 48.837 46.713 49.065 46.003 49.065C45.219 49.065 44.549 48.789 43.995 48.235C43.44 47.68 43.163 47.008 43.163 46.225C43.163 45.442 43.44 44.772 43.995 44.216C44.549 43.66 45.219 43.384 46.003 43.384C46.717 43.384 47.333 43.613 47.854 44.073C47.976 44.179 48.037 44.312 48.037 44.472C48.037 44.623 47.987 44.751 47.888 44.853C47.788 44.956 47.662 45.003 47.51 45.003C47.382 45.003 47.267 44.963 47.166 44.882C46.993 44.736 46.812 44.627 46.623 44.552C46.434 44.478 46.228 44.441 46.004 44.441C45.757 44.441 45.525 44.49 45.309 44.582C45.093 44.677 44.903 44.805 44.741 44.964C44.579 45.124 44.451 45.315 44.358 45.527C44.265 45.745 44.219 45.976 44.219 46.222C44.219 46.468 44.265 46.701 44.358 46.916C44.451 47.132 44.579 47.319 44.741 47.481C44.903 47.641 45.093 47.768 45.309 47.86C45.525 47.954 45.757 48.002 46.004 48.002C46.228 48.002 46.434 47.965 46.623 47.892C46.812 47.823 46.991 47.71 47.161 47.566C47.254 47.5 47.365 47.463 47.494 47.459ZM57.22 45.647C57.22 45.338 57.16 45.046 57.04 44.772C56.919 44.498 56.757 44.255 56.553 44.051C56.348 43.848 56.108 43.686 55.833 43.567C55.558 43.446 55.266 43.384 54.959 43.384C54.275 43.384 53.699 43.655 53.229 44.192C53.005 43.921 52.746 43.717 52.448 43.587C52.15 43.453 51.832 43.387 51.494 43.387C51.034 43.387 50.624 43.507 50.262 43.747C50.228 43.64 50.166 43.551 50.074 43.485C49.983 43.42 49.878 43.384 49.76 43.384C49.614 43.384 49.49 43.438 49.387 43.538C49.284 43.642 49.233 43.767 49.233 43.911V48.531C49.233 48.677 49.284 48.804 49.387 48.909C49.491 49.013 49.616 49.062 49.765 49.062C49.911 49.062 50.035 49.009 50.137 48.909C50.241 48.805 50.293 48.68 50.293 48.531V45.644C50.293 45.478 50.324 45.325 50.387 45.177C50.449 45.031 50.536 44.906 50.645 44.793C50.755 44.685 50.882 44.599 51.028 44.534C51.174 44.471 51.329 44.44 51.495 44.44C51.66 44.44 51.815 44.471 51.961 44.537C52.106 44.6 52.233 44.686 52.342 44.796C52.45 44.904 52.536 45.03 52.601 45.177C52.664 45.323 52.697 45.478 52.697 45.644V48.531C52.697 48.677 52.749 48.804 52.852 48.909C52.955 49.014 53.081 49.062 53.229 49.062C53.375 49.062 53.499 49.009 53.602 48.909C53.706 48.805 53.757 48.68 53.757 48.531V45.644C53.757 45.478 53.788 45.325 53.85 45.177C53.913 45.031 53.999 44.906 54.108 44.796C54.218 44.689 54.345 44.603 54.491 44.537C54.637 44.474 54.792 44.44 54.959 44.44C55.126 44.44 55.286 44.471 55.433 44.537C55.58 44.6 55.708 44.688 55.816 44.798C55.923 44.908 56.009 45.035 56.072 45.181C56.134 45.327 56.165 45.48 56.165 45.644V48.531C56.165 48.677 56.217 48.804 56.317 48.909C56.419 49.013 56.544 49.062 56.693 49.062C56.839 49.062 56.963 49.009 57.066 48.909C57.17 48.805 57.221 48.68 57.221 48.531L57.22 45.647ZM61.396 49.065C61.785 49.065 62.147 48.998 62.479 48.86C62.812 48.723 63.12 48.514 63.404 48.235C63.959 47.686 64.236 47.016 64.236 46.225C64.236 45.832 64.166 45.467 64.028 45.131C63.889 44.795 63.681 44.489 63.403 44.215C62.842 43.661 62.172 43.383 61.394 43.383C60.611 43.383 59.941 43.661 59.387 44.215C58.831 44.772 58.555 45.442 58.555 46.225V50.973C58.555 51.123 58.605 51.249 58.704 51.35C58.805 51.451 58.932 51.501 59.083 51.501C59.232 51.501 59.358 51.451 59.461 51.353C59.564 51.252 59.615 51.126 59.615 50.974V48.445C60.124 48.858 60.717 49.065 61.396 49.065ZM59.616 46.228C59.616 45.984 59.662 45.754 59.755 45.54C59.849 45.322 59.974 45.136 60.133 44.977C60.292 44.815 60.48 44.688 60.696 44.592C60.912 44.497 61.145 44.45 61.395 44.45C61.643 44.45 61.874 44.497 62.091 44.592C62.307 44.688 62.495 44.817 62.656 44.979C62.817 45.141 62.943 45.33 63.035 45.543C63.129 45.757 63.176 45.984 63.176 46.231C63.176 46.475 63.129 46.705 63.035 46.919C62.942 47.134 62.816 47.319 62.656 47.483C62.494 47.645 62.307 47.772 62.091 47.869C61.874 47.965 61.643 48.012 61.395 48.012C61.145 48.012 60.912 47.965 60.696 47.869C60.479 47.772 60.291 47.645 60.133 47.485C59.974 47.326 59.849 47.135 59.755 46.922C59.662 46.7 59.616 46.47 59.616 46.228ZM69.861 48.539C69.861 48.685 69.914 48.81 70.017 48.912C70.12 49.014 70.245 49.065 70.393 49.065C70.539 49.065 70.663 49.014 70.767 48.912C70.87 48.809 70.922 48.684 70.922 48.539V46.226C70.922 45.443 70.645 44.773 70.09 44.218C69.528 43.662 68.859 43.386 68.081 43.386C67.296 43.386 66.627 43.662 66.072 44.218C65.518 44.773 65.24 45.443 65.24 46.226C65.24 47.01 65.518 47.681 66.072 48.236C66.627 48.791 67.296 49.066 68.081 49.066C68.419 49.066 68.737 49.012 69.035 48.907C69.332 48.798 69.607 48.64 69.86 48.437L69.861 48.539ZM68.082 44.446C68.33 44.446 68.561 44.494 68.777 44.588C68.992 44.685 69.182 44.812 69.342 44.974C69.502 45.137 69.63 45.328 69.722 45.539C69.815 45.754 69.86 45.981 69.86 46.227C69.86 46.468 69.815 46.7 69.722 46.914C69.629 47.13 69.501 47.317 69.342 47.479C69.181 47.641 68.992 47.77 68.777 47.864C68.56 47.961 68.329 48.009 68.082 48.009C67.831 48.009 67.599 47.961 67.382 47.864C67.167 47.77 66.979 47.643 66.819 47.483C66.66 47.321 66.535 47.131 66.442 46.918C66.349 46.7 66.303 46.472 66.303 46.228C66.303 45.984 66.349 45.755 66.442 45.54C66.535 45.321 66.661 45.135 66.819 44.976C66.979 44.816 67.167 44.689 67.382 44.591C67.599 44.494 67.831 44.446 68.082 44.446ZM72.029 48.209C71.958 48.298 71.924 48.408 71.924 48.539C71.924 48.61 71.937 48.679 71.964 48.742C71.99 48.805 72.028 48.862 72.075 48.912C72.122 48.961 72.179 48.999 72.242 49.026C72.306 49.051 72.376 49.067 72.45 49.067C72.599 49.067 72.723 49.01 72.826 48.903L74.378 47.048L75.919 48.903C76.027 49.01 76.153 49.067 76.299 49.067C76.374 49.067 76.444 49.051 76.507 49.026C76.571 48.999 76.627 48.961 76.675 48.912C76.722 48.862 76.76 48.808 76.79 48.742C76.818 48.679 76.832 48.61 76.832 48.539C76.832 48.403 76.795 48.294 76.721 48.209L75.063 46.222L76.707 44.265C76.791 44.161 76.833 44.043 76.833 43.914C76.833 43.844 76.819 43.774 76.791 43.711C76.761 43.648 76.723 43.59 76.676 43.541C76.628 43.492 76.572 43.454 76.508 43.428C76.445 43.402 76.375 43.387 76.3 43.387C76.142 43.387 76.012 43.445 75.91 43.56L74.379 45.392L72.847 43.56C72.743 43.445 72.611 43.387 72.451 43.387C72.377 43.387 72.307 43.402 72.243 43.428C72.18 43.454 72.123 43.492 72.076 43.541C72.029 43.59 71.991 43.645 71.965 43.711C71.938 43.774 71.925 43.844 71.925 43.914C71.925 44.058 71.965 44.173 72.046 44.265L73.69 46.222L72.029 48.209ZM83.288 46.228C83.285 45.834 83.215 45.472 83.078 45.137C82.94 44.802 82.732 44.495 82.457 44.219C81.894 43.663 81.226 43.387 80.448 43.387C79.663 43.387 78.994 43.663 78.439 44.219C77.885 44.775 77.607 45.445 77.607 46.228C77.607 47.011 77.885 47.681 78.439 48.236C78.994 48.792 79.663 49.068 80.448 49.068C81.225 49.068 81.894 48.792 82.457 48.236C83.011 47.687 83.288 47.019 83.288 46.228ZM80.448 44.446C80.695 44.446 80.927 44.494 81.143 44.588C81.358 44.685 81.547 44.812 81.708 44.974C81.867 45.137 81.995 45.328 82.088 45.539C82.181 45.754 82.227 45.981 82.227 46.227C82.227 46.468 82.181 46.7 82.088 46.914C81.995 47.13 81.867 47.317 81.708 47.479C81.547 47.641 81.357 47.77 81.143 47.864C80.926 47.961 80.695 48.009 80.448 48.009C80.197 48.009 79.964 47.961 79.747 47.864C79.532 47.77 79.345 47.643 79.184 47.483C79.026 47.321 78.9 47.131 78.807 46.918C78.714 46.7 78.667 46.472 78.667 46.228C78.667 45.984 78.714 45.755 78.807 45.54C78.9 45.324 79.026 45.135 79.184 44.976C79.344 44.816 79.532 44.689 79.747 44.591C79.964 44.494 80.197 44.446 80.448 44.446ZM84.98 43.387C84.906 43.387 84.835 43.402 84.773 43.428C84.709 43.454 84.653 43.492 84.605 43.542C84.557 43.591 84.52 43.647 84.493 43.711C84.467 43.774 84.452 43.844 84.452 43.914V48.539C84.452 48.61 84.467 48.678 84.493 48.742C84.52 48.805 84.557 48.862 84.605 48.912C84.653 48.961 84.709 48.999 84.773 49.026C84.836 49.051 84.906 49.065 84.98 49.065H87.293C87.525 49.065 87.745 49.022 87.949 48.932C88.153 48.84 88.332 48.72 88.484 48.569C88.635 48.417 88.755 48.239 88.843 48.034C88.932 47.83 88.976 47.612 88.976 47.383C88.976 47.237 88.961 47.105 88.932 46.986C88.904 46.867 88.861 46.754 88.806 46.644C88.75 46.537 88.679 46.431 88.594 46.331C88.51 46.228 88.411 46.129 88.301 46.025C88.493 45.754 88.589 45.433 88.589 45.07C88.589 44.841 88.545 44.626 88.455 44.421C88.366 44.217 88.245 44.038 88.093 43.887C87.94 43.737 87.762 43.616 87.558 43.526C87.354 43.436 87.135 43.391 86.906 43.391L84.98 43.387ZM85.509 45.699V44.446H86.907C86.992 44.446 87.072 44.463 87.148 44.498C87.224 44.53 87.291 44.576 87.346 44.632C87.401 44.689 87.447 44.754 87.48 44.83C87.514 44.905 87.532 44.985 87.532 45.069C87.532 45.161 87.514 45.246 87.48 45.321C87.447 45.397 87.4 45.463 87.342 45.518C87.285 45.575 87.218 45.619 87.143 45.651C87.067 45.682 86.989 45.699 86.907 45.699H85.509ZM85.509 48.007V46.754H87.294C87.374 46.754 87.453 46.771 87.529 46.802C87.605 46.834 87.671 46.878 87.728 46.935C87.786 46.993 87.832 47.058 87.866 47.135C87.9 47.213 87.917 47.295 87.917 47.383C87.917 47.472 87.9 47.552 87.866 47.626C87.832 47.7 87.787 47.767 87.731 47.824C87.676 47.882 87.609 47.927 87.534 47.959C87.458 47.991 87.378 48.007 87.294 48.007H85.509ZM94.779 49.065C94.927 49.065 95.053 49.014 95.156 48.912C95.26 48.809 95.311 48.684 95.311 48.539V43.914C95.311 43.768 95.259 43.643 95.156 43.541C95.053 43.438 94.929 43.386 94.784 43.386C94.636 43.386 94.51 43.439 94.406 43.541C94.303 43.645 94.252 43.769 94.252 43.914V46.419C94.252 46.64 94.21 46.845 94.127 47.035C94.045 47.225 93.93 47.393 93.785 47.54C93.639 47.686 93.471 47.799 93.277 47.883C93.085 47.965 92.88 48.008 92.664 48.008C92.443 48.008 92.238 47.965 92.046 47.883C91.853 47.799 91.685 47.687 91.541 47.543C91.396 47.399 91.284 47.23 91.201 47.038C91.118 46.845 91.077 46.64 91.077 46.419V43.914C91.077 43.768 91.025 43.643 90.922 43.541C90.819 43.439 90.694 43.386 90.549 43.386C90.401 43.386 90.275 43.439 90.172 43.541C90.068 43.645 90.017 43.769 90.017 43.914V46.419C90.017 46.78 90.087 47.123 90.228 47.442C90.368 47.764 90.558 48.046 90.798 48.286C91.037 48.524 91.319 48.716 91.639 48.856C91.96 48.996 92.302 49.065 92.664 49.065C92.969 49.065 93.25 49.024 93.512 48.942C93.772 48.858 94.019 48.725 94.252 48.545C94.255 48.691 94.306 48.814 94.404 48.914C94.501 49.017 94.627 49.065 94.779 49.065ZM101.376 49.065C101.524 49.065 101.65 49.014 101.753 48.912C101.857 48.808 101.909 48.684 101.909 48.539V43.914C101.909 43.768 101.857 43.643 101.753 43.542C101.65 43.438 101.526 43.387 101.381 43.387C101.233 43.387 101.107 43.439 101.003 43.542C100.9 43.646 100.849 43.769 100.849 43.914V46.419C100.849 46.64 100.808 46.845 100.724 47.035C100.642 47.225 100.528 47.393 100.382 47.54C100.236 47.687 100.068 47.8 99.874 47.883C99.682 47.965 99.478 48.007 99.261 48.007C99.04 48.007 98.835 47.965 98.643 47.883C98.45 47.8 98.282 47.687 98.138 47.543C97.993 47.399 97.88 47.23 97.798 47.038C97.715 46.847 97.673 46.64 97.673 46.419V43.914C97.673 43.768 97.622 43.643 97.519 43.542C97.416 43.438 97.291 43.387 97.147 43.387C96.998 43.387 96.872 43.439 96.769 43.542C96.665 43.646 96.614 43.769 96.614 43.914V46.419C96.614 46.78 96.684 47.123 96.825 47.444C96.965 47.764 97.155 48.046 97.395 48.285C97.635 48.524 97.916 48.716 98.236 48.856C98.558 48.997 98.9 49.065 99.261 49.065C99.566 49.065 99.847 49.024 100.109 48.942C100.369 48.858 100.616 48.727 100.849 48.545C100.852 48.691 100.903 48.814 101.001 48.914C101.098 49.017 101.224 49.065 101.376 49.065ZM99.261 42.783C99.494 42.783 99.713 42.75 99.918 42.684C100.122 42.618 100.301 42.526 100.453 42.41C100.605 42.294 100.725 42.155 100.815 41.996C100.905 41.839 100.949 41.667 100.949 41.485C100.949 41.337 100.9 41.211 100.8 41.106C100.7 41.002 100.574 40.952 100.423 40.952C100.271 40.952 100.144 41.003 100.042 41.102C99.967 41.182 99.92 41.272 99.899 41.375C99.892 41.473 99.831 41.549 99.712 41.613C99.587 41.683 99.436 41.718 99.26 41.718C99.084 41.718 98.934 41.683 98.809 41.613C98.691 41.549 98.625 41.468 98.617 41.375C98.599 41.271 98.554 41.182 98.48 41.102C98.377 41 98.251 40.952 98.099 40.952C97.947 40.952 97.82 41.005 97.721 41.106C97.621 41.21 97.572 41.335 97.572 41.485C97.572 41.667 97.617 41.839 97.707 41.996C97.796 42.155 97.917 42.294 98.069 42.41C98.221 42.526 98.4 42.618 98.604 42.684C98.809 42.75 99.027 42.783 99.261 42.783ZM110.281 47.459C110.152 47.463 110.041 47.5 109.946 47.569C109.777 47.715 109.598 47.826 109.408 47.897C109.22 47.968 109.013 48.005 108.79 48.005C108.543 48.005 108.311 47.957 108.095 47.864C107.879 47.769 107.69 47.644 107.528 47.482C107.366 47.323 107.238 47.132 107.144 46.919C107.051 46.701 107.005 46.473 107.005 46.225C107.005 45.979 107.051 45.746 107.144 45.532C107.238 45.315 107.366 45.127 107.528 44.967C107.69 44.806 107.88 44.681 108.095 44.585C108.312 44.493 108.543 44.446 108.79 44.446C109.014 44.446 109.22 44.483 109.408 44.557C109.598 44.63 109.779 44.742 109.951 44.886C110.053 44.966 110.168 45.006 110.296 45.006C110.448 45.006 110.574 44.956 110.675 44.856C110.774 44.754 110.824 44.627 110.824 44.475C110.824 44.317 110.762 44.184 110.641 44.076C110.12 43.616 109.503 43.387 108.789 43.387C108.004 43.387 107.335 43.663 106.78 44.219C106.226 44.775 105.948 45.445 105.948 46.228C105.948 47.011 106.226 47.681 106.78 48.236C107.335 48.792 108.004 49.068 108.789 49.068C109.498 49.068 110.116 48.839 110.641 48.38C110.751 48.27 110.807 48.138 110.807 47.988C110.807 47.837 110.758 47.712 110.658 47.609C110.559 47.509 110.434 47.459 110.281 47.459ZM116.039 47.47C115.907 47.474 115.791 47.517 115.687 47.601C115.529 47.738 115.357 47.838 115.169 47.907C114.982 47.974 114.778 48.011 114.554 48.011C114.36 48.011 114.17 47.981 113.989 47.919C113.809 47.857 113.644 47.773 113.493 47.662C113.343 47.552 113.212 47.421 113.1 47.266C112.988 47.112 112.904 46.942 112.846 46.755H116.862C117.01 46.755 117.137 46.705 117.24 46.606C117.344 46.506 117.395 46.379 117.395 46.229C117.395 45.835 117.326 45.473 117.186 45.135C117.047 44.798 116.839 44.492 116.563 44.22C116 43.664 115.333 43.389 114.554 43.389C113.771 43.389 113.101 43.664 112.547 44.22C111.992 44.776 111.715 45.446 111.715 46.229C111.715 47.012 111.992 47.682 112.547 48.237C113.101 48.793 113.771 49.069 114.554 49.069C115.266 49.069 115.887 48.84 116.411 48.381C116.515 48.277 116.561 48.152 116.561 48.001C116.561 47.848 116.512 47.722 116.414 47.623C116.316 47.521 116.191 47.47 116.039 47.47ZM112.849 45.699C112.904 45.511 112.986 45.344 113.097 45.188C113.209 45.035 113.341 44.903 113.493 44.792C113.644 44.685 113.811 44.599 113.994 44.536C114.178 44.473 114.365 44.442 114.557 44.442C114.751 44.442 114.938 44.473 115.119 44.536C115.3 44.599 115.466 44.682 115.616 44.792C115.765 44.901 115.896 45.033 116.012 45.188C116.125 45.341 116.21 45.511 116.27 45.699H112.849ZM121.27 49.065C121.662 49.065 122.022 48.998 122.354 48.86C122.688 48.723 122.998 48.514 123.28 48.235C123.836 47.686 124.112 47.016 124.112 46.225C124.112 45.832 124.044 45.467 123.903 45.131C123.766 44.795 123.557 44.489 123.28 44.215C122.718 43.661 122.051 43.383 121.27 43.383C120.487 43.383 119.817 43.661 119.264 44.215C118.707 44.772 118.432 45.442 118.432 46.225V50.973C118.432 51.123 118.483 51.249 118.58 51.35C118.68 51.451 118.807 51.498 118.958 51.498C119.107 51.498 119.232 51.448 119.335 51.35C119.439 51.249 119.491 51.123 119.491 50.973V48.442C119.998 48.858 120.591 49.065 121.27 49.065ZM119.491 46.228C119.491 45.984 119.536 45.754 119.63 45.54C119.723 45.322 119.85 45.136 120.008 44.977C120.166 44.815 120.356 44.688 120.571 44.592C120.789 44.497 121.02 44.45 121.27 44.45C121.518 44.45 121.749 44.497 121.965 44.592C122.182 44.688 122.369 44.817 122.529 44.979C122.689 45.141 122.816 45.33 122.91 45.543C123.004 45.756 123.05 45.984 123.05 46.231C123.05 46.475 123.004 46.705 122.91 46.919C122.816 47.133 122.689 47.319 122.529 47.483C122.369 47.645 122.179 47.772 121.965 47.869C121.748 47.965 121.518 48.012 121.27 48.012C121.02 48.012 120.789 47.965 120.571 47.869C120.354 47.772 120.168 47.645 120.008 47.485C119.85 47.326 119.723 47.135 119.63 46.922C119.536 46.7 119.491 46.47 119.491 46.228ZM125.805 43.387C125.731 43.387 125.659 43.402 125.596 43.428C125.533 43.454 125.477 43.492 125.428 43.542C125.381 43.591 125.344 43.647 125.317 43.711C125.293 43.774 125.276 43.844 125.276 43.914V48.539C125.276 48.61 125.293 48.678 125.317 48.742C125.344 48.805 125.381 48.862 125.428 48.912C125.477 48.961 125.532 48.999 125.596 49.026C125.659 49.051 125.731 49.065 125.805 49.065H128.118C128.349 49.065 128.568 49.022 128.773 48.932C128.978 48.84 129.157 48.72 129.308 48.569C129.459 48.417 129.579 48.239 129.667 48.034C129.755 47.83 129.799 47.612 129.799 47.383C129.799 47.237 129.784 47.105 129.756 46.986C129.728 46.867 129.685 46.754 129.628 46.644C129.573 46.537 129.502 46.431 129.417 46.331C129.333 46.228 129.235 46.129 129.124 46.025C129.315 45.754 129.412 45.433 129.412 45.07C129.412 44.841 129.368 44.626 129.278 44.421C129.188 44.217 129.067 44.038 128.916 43.887C128.763 43.737 128.585 43.616 128.382 43.526C128.177 43.436 127.959 43.391 127.73 43.391L125.805 43.387ZM126.331 45.699V44.446H127.73C127.814 44.446 127.894 44.463 127.97 44.498C128.044 44.53 128.113 44.576 128.166 44.632C128.222 44.689 128.269 44.754 128.301 44.83C128.334 44.905 128.353 44.985 128.353 45.069C128.353 45.161 128.334 45.246 128.301 45.321C128.269 45.397 128.222 45.463 128.163 45.518C128.104 45.575 128.038 45.619 127.964 45.651C127.89 45.682 127.81 45.699 127.73 45.699H126.331ZM126.331 48.007V46.754H128.116C128.195 46.754 128.275 46.771 128.351 46.802C128.425 46.834 128.493 46.878 128.549 46.935C128.607 46.993 128.653 47.058 128.689 47.135C128.722 47.213 128.738 47.295 128.738 47.383C128.738 47.472 128.722 47.552 128.689 47.626C128.654 47.7 128.609 47.767 128.552 47.824C128.496 47.882 128.431 47.927 128.355 47.959C128.279 47.991 128.201 48.007 128.116 48.007H126.331ZM132.275 42.377C132.275 42.205 132.212 42.058 132.09 41.937C131.97 41.816 131.821 41.753 131.65 41.753C131.479 41.753 131.333 41.816 131.21 41.937C131.088 42.058 131.027 42.208 131.027 42.377C131.027 42.55 131.088 42.696 131.21 42.819C131.333 42.94 131.481 43.002 131.65 43.002C131.824 43.002 131.97 42.94 132.09 42.819C132.214 42.696 132.275 42.55 132.275 42.377ZM131.124 48.534C131.124 48.682 131.176 48.807 131.279 48.912C131.382 49.015 131.507 49.065 131.65 49.065C131.796 49.065 131.921 49.014 132.023 48.912C132.127 48.808 132.181 48.683 132.183 48.534V43.919C132.181 43.771 132.125 43.646 132.023 43.541C131.919 43.438 131.794 43.387 131.65 43.387C131.504 43.387 131.379 43.439 131.279 43.541C131.175 43.645 131.124 43.77 131.124 43.919V48.534ZM137.781 47.459C137.652 47.463 137.541 47.5 137.445 47.569C137.277 47.715 137.097 47.826 136.908 47.897C136.72 47.968 136.513 48.005 136.29 48.005C136.042 48.005 135.811 47.957 135.596 47.864C135.379 47.769 135.19 47.644 135.028 47.482C134.868 47.323 134.74 47.132 134.645 46.919C134.551 46.701 134.505 46.473 134.505 46.225C134.505 45.979 134.551 45.746 134.645 45.532C134.74 45.315 134.868 45.127 135.028 44.967C135.19 44.806 135.382 44.681 135.596 44.585C135.813 44.493 136.042 44.446 136.29 44.446C136.514 44.446 136.721 44.483 136.908 44.557C137.097 44.63 137.277 44.742 137.451 44.886C137.553 44.966 137.668 45.006 137.796 45.006C137.947 45.006 138.074 44.956 138.174 44.856C138.274 44.754 138.323 44.627 138.323 44.475C138.323 44.317 138.261 44.184 138.14 44.076C137.619 43.616 137 43.387 136.287 43.387C135.502 43.387 134.833 43.663 134.276 44.219C133.723 44.775 133.446 45.445 133.446 46.228C133.446 47.011 133.723 47.681 134.276 48.236C134.833 48.792 135.502 49.068 136.287 49.068C136.996 49.068 137.614 48.839 138.14 48.38C138.249 48.27 138.306 48.138 138.306 47.988C138.306 47.837 138.256 47.712 138.158 47.609C138.059 47.509 137.934 47.459 137.781 47.459ZM96 28C96 28.567 95.884 29.104 95.692 29.604C95.044 31.292 93.418 32.5 91.5 32.5L82.502 32.502C81.673 32.502 81.001 31.829 81.001 31C81.001 30.172 81.673 29.5 82.502 29.5H91.499C92.328 29.5 93 28.825 93 27.997C93 27.178 92.338 26.511 91.519 26.5C91.519 26.5 83.709 26.499 85.5 26.499C83.709 26.499 82.176 25.445 81.451 23.931C81.17 23.344 81 22.693 81 21.999C81 21.479 81.105 20.989 81.267 20.525C81.879 18.771 83.528 17.504 85.49 17.5C85.493 17.5 85.496 17.499 85.5 17.499C85.504 17.499 85.506 17.5 85.51 17.5H93.499C94.328 17.5 95 18.172 95 19C95 19.822 94.338 20.489 93.519 20.5C93.512 20.5 93.506 20.502 93.499 20.502H85.482C84.662 20.513 84.001 21.179 84.001 22C84.001 22.822 84.663 23.489 85.482 23.5H91.5C91.507 23.5 91.513 23.502 91.52 23.502C93.383 23.51 94.978 24.65 95.654 26.271C95.875 26.804 96 27.387 96 28ZM131 31C131 30.172 130.328 29.5 129.5 29.5C128.671 29.5 128 30.172 128 31C128 31.828 128.671 32.5 129.5 32.5C130.328 32.5 131 31.828 131 31ZM146.499 17.502C145.67 17.502 144.998 18.174 144.998 19.003V19.013V24.987V25.001C144.998 25.005 144.997 25.008 144.997 25.012C144.994 26.164 144.545 27.205 143.828 28C143.004 28.914 141.825 29.5 140.5 29.5C139.175 29.5 137.996 28.914 137.172 28C136.455 27.205 136.006 26.164 136.003 25.012C136.003 25.008 136.002 25.005 136.002 25.001V24.986V19.012V19.002C136.002 18.173 135.329 17.501 134.501 17.501C133.672 17.501 133 18.173 133 19.002V25.001C133 26.035 133.21 27.021 133.59 27.918C133.602 27.946 133.618 27.973 133.63 28.001C133.76 28.299 133.91 28.586 134.077 28.86C134.577 29.686 135.232 30.409 136.002 30.987C136.002 30.989 136.002 30.989 136.002 30.989C137.257 31.935 138.813 32.501 140.5 32.501C142.188 32.501 143.743 31.935 144.997 30.989C144.997 30.989 144.997 30.989 144.997 30.987C146.023 30.216 146.848 29.19 147.369 28.001C147.381 27.973 147.396 27.946 147.409 27.918C147.789 27.021 147.999 26.035 147.999 25.001V19.003C148 18.174 147.328 17.502 146.499 17.502ZM114 25.001C114 29.137 110.636 32.502 106.5 32.502C106.487 32.502 106.475 32.498 106.462 32.498C104.788 32.49 103.248 31.926 102.002 30.987C100.184 29.618 99 27.448 99 25.001C99 25 99 25 99 25C99 20.864 102.364 17.499 106.5 17.499C106.513 17.499 106.525 17.503 106.538 17.503C108.212 17.511 109.752 18.075 110.998 19.013C112.816 20.383 114 22.554 114 25.001ZM106.5 29.5C108.982 29.5 111 27.48 111 25V24.986C110.992 22.512 108.977 20.5 106.5 20.5C104.018 20.5 102 22.521 102 25.001V25.015C102.008 27.488 104.023 29.5 106.5 29.5ZM124.5 29.501C122.02 29.501 120.001 27.482 120.001 25.002C120.001 24.997 120.002 24.992 120.002 24.987V13.003C120.002 12.174 119.329 11.502 118.501 11.502C117.672 11.502 117 12.174 117 13.003V25.001C117 25.002 117 25.002 117 25.002C117 29.138 120.363 32.503 124.5 32.503C124.514 32.503 124.525 32.499 124.538 32.499C125.35 32.478 126.001 31.817 126.001 31.001C126.001 30.174 125.329 29.501 124.5 29.501ZM47.499 32.498C48.328 32.498 49 31.826 49 30.997V24.999C49 20.863 45.636 17.499 41.5 17.499C37.364 17.499 34 20.863 34 24.999C34 29.135 37.364 32.5 41.5 32.5C42.329 32.5 43.001 31.828 43.001 30.998C43.001 30.171 42.329 29.498 41.5 29.498C39.02 29.498 37.001 27.479 37.001 24.999C37.001 22.519 39.02 20.5 41.5 20.5C43.981 20.5 45.998 22.519 45.998 24.999V30.997C45.998 31.826 46.67 32.498 47.499 32.498ZM76.499 32.498C77.328 32.498 78 31.826 78 30.997V24.999C78 20.863 74.636 17.499 70.5 17.499C66.364 17.499 63 20.863 63 24.999C63 29.135 66.364 32.5 70.5 32.5C71.329 32.5 72.001 31.828 72.001 30.998C72.001 30.171 71.329 29.498 70.5 29.498C68.02 29.498 66.001 27.479 66.001 24.999C66.001 22.519 68.02 20.5 70.5 20.5C72.981 20.5 74.998 22.519 74.998 24.999V30.997C74.998 31.826 75.67 32.498 76.499 32.498ZM164.499 32.498C165.328 32.498 166 31.826 166 30.997V24.999C166 20.863 162.637 17.499 158.5 17.499C154.363 17.499 151 20.863 151 24.999C151 29.135 154.363 32.5 158.5 32.5C159.329 32.5 160.001 31.828 160.001 30.998C160.001 30.171 159.329 29.498 158.5 29.498C156.02 29.498 154.001 27.479 154.001 24.999C154.001 22.519 156.02 20.5 158.5 20.5C160.98 20.5 162.998 22.519 162.998 24.999V30.997C162.998 31.826 163.67 32.498 164.499 32.498ZM59.5 17.499C58.547 17.499 57.64 17.685 56.801 18.01C56.729 18.037 56.654 18.06 56.583 18.09C56.526 18.113 56.473 18.145 56.416 18.17C53.816 19.349 52 21.963 52 24.999V25V30.997C52 31.826 52.672 32.498 53.501 32.498C54.33 32.498 55.002 31.826 55.002 30.997V24.999C55.002 23.759 55.506 22.635 56.32 21.82C57.135 21.006 58.26 20.501 59.5 20.501C59.502 20.501 59.503 20.5 59.505 20.5C60.332 20.497 61.001 19.826 61.001 19.001C61.001 18.171 60.329 17.499 59.5 17.499ZM17.501 38.5C18.33 38.5 19.002 37.828 19.002 36.999V25.001C19.002 22.521 21.019 20.502 23.5 20.502C25.98 20.502 27.999 22.521 27.999 25.001C27.999 27.481 25.98 29.5 23.5 29.5C22.671 29.5 21.999 30.173 21.999 31C21.999 31.83 22.671 32.502 23.5 32.502C27.636 32.502 31 29.137 31 25.001C31 20.865 27.636 17.501 23.5 17.501C19.363 17.501 16 20.865 16 25.001V36.999C16 37.828 16.672 38.5 17.501 38.5Z" fill="white"/>
<path d="M215 48.5H141.469C140.917 48.5 140.469 48.053 140.469 47.5C140.469 46.946 140.917 46.5 141.469 46.5H215C218.309 46.5 221 43.81 221 40.5V23.064C221 22.511 221.448 22.064 222 22.064C222.552 22.064 223 22.511 223 23.064V40.501C223 44.911 219.411 48.5 215 48.5ZM39.641 47.5C39.641 46.946 39.193 46.5 38.641 46.5H8C4.691 46.5 2 43.81 2 40.5V8.5C2 5.191 4.691 2.5 8 2.5H181.547C182.1 2.5 182.547 2.053 182.547 1.5C182.547 0.947 182.1 0.5 181.547 0.5H8C3.589 0.5 0 4.089 0 8.5V40.5C0 44.911 3.589 48.5 8 48.5H38.641C39.193 48.5 39.641 48.053 39.641 47.5Z" fill="white"/>
</svg>
