<svg width="44" height="42" viewBox="0 0 44 42" fill="none" xmlns="http://www.w3.org/2000/svg">
<path d="M27.9633 11.2241L25.7831 7.45862L21.9478 16.9282C21.8927 17.0618 21.7984 17.1762 21.677 17.2566C21.5556 17.337 21.4127 17.3797 21.2665 17.3793H21.2365C21.0854 17.3735 20.9398 17.3216 20.8196 17.2309C20.6995 17.1401 20.6107 17.0149 20.5655 16.8724L18.1132 9.00683L16.7588 11.235C16.6939 11.3417 16.6022 11.4301 16.4926 11.4916C16.3831 11.5531 16.2593 11.5857 16.1332 11.5862H10.9999V10.1379H15.7182L17.7048 6.86845C17.7777 6.74853 17.8843 6.65205 18.0116 6.59067C18.1389 6.52929 18.2815 6.50563 18.4221 6.52256C18.5627 6.53949 18.6954 6.59627 18.804 6.68606C18.9127 6.77584 18.9926 6.89477 19.0343 7.02848L21.3567 14.4828L24.9853 5.52445C25.0362 5.39738 25.1224 5.28713 25.2341 5.20643C25.3458 5.12574 25.4783 5.07789 25.6164 5.06842C25.7544 5.05896 25.8924 5.08826 26.0143 5.15293C26.1362 5.21761 26.237 5.31503 26.3052 5.43393L29.0252 10.1379H35.6251C36.7919 5.34631 34.2171 2.793 34.2171 2.793C33.5618 1.92705 32.7112 1.22378 31.7327 0.738972C30.7542 0.254164 29.6748 0.00115155 28.58 0C24.8203 0 21.9999 2.793 21.9999 2.793C21.9999 2.793 19.1795 0 15.4197 0C14.3245 0.000701573 13.2445 0.253498 12.2654 0.738324C11.2864 1.22315 10.4353 1.92666 9.77968 2.793C9.77968 2.793 1.31999 11.1727 21.9999 26.069C30.1662 20.1868 33.7867 15.3213 35.18 11.5862H28.5998C28.4709 11.5865 28.3441 11.5531 28.2323 11.4895C28.1206 11.426 28.0278 11.3344 27.9633 11.2241Z" fill="#2B5FAE"/>
<path d="M41.7997 8.68964C41.3463 8.6915 40.9046 8.83163 40.5349 9.09088C40.1653 9.35012 39.8858 9.71581 39.7346 10.1379H35.628C35.5072 10.6288 35.3576 11.1124 35.1799 11.5862H39.7346C39.8697 11.9607 40.1065 12.2913 40.419 12.542C40.7315 12.7926 41.1078 12.9536 41.5067 13.0073C41.9056 13.0611 42.3118 13.0055 42.6809 12.8467C43.05 12.6879 43.3678 12.432 43.5995 12.1069C43.8313 11.7818 43.9681 11.4001 43.995 11.0034C44.0219 10.6068 43.9379 10.2104 43.7522 9.85772C43.5664 9.50501 43.286 9.20951 42.9417 9.00351C42.5974 8.79751 42.2023 8.68893 41.7997 8.68964ZM41.7997 11.5862C41.6547 11.5862 41.5129 11.5437 41.3923 11.4642C41.2717 11.3846 41.1777 11.2715 41.1222 11.1392C41.0667 11.0069 41.0522 10.8612 41.0805 10.7208C41.1088 10.5803 41.1786 10.4513 41.2812 10.35C41.3837 10.2487 41.5144 10.1798 41.6566 10.1518C41.7989 10.1239 41.9463 10.1382 42.0803 10.193C42.2143 10.2478 42.3289 10.3407 42.4094 10.4597C42.49 10.5788 42.533 10.7188 42.533 10.8621C42.533 11.0541 42.4558 11.2383 42.3182 11.3741C42.1807 11.5099 41.9942 11.5862 41.7997 11.5862Z" fill="#2B5FAE"/>
<path d="M5.86663 10.1379H0V11.5862H5.86663V10.1379Z" fill="#2B5FAE"/>
<path d="M43.0229 26.1935C42.6539 25.6352 42.0889 25.2313 41.4365 25.0595C40.7842 24.8878 40.0905 24.9602 39.489 25.263L35.4792 27.2906C35.7528 27.9341 35.7825 28.6534 35.5628 29.3167C35.3431 29.9801 34.8888 30.5431 34.2831 30.9026L26.1219 35.6819C24.208 36.808 21.9284 37.1627 19.7566 36.6726L12.3822 34.9296L12.7232 33.5211L20.0829 35.259C21.888 35.6645 23.7818 35.3697 25.3731 34.4357L33.5336 29.6564C33.8669 29.4598 34.1083 29.1414 34.2055 28.7703C34.3027 28.3992 34.2478 28.0052 34.0528 27.6737C33.6264 26.9446 32.9324 26.4053 32.1145 26.1674C31.2966 25.9295 30.4173 26.0112 29.6587 26.3956L23.74 29.395C23.3259 29.6051 22.8666 29.7133 22.401 29.7102C21.9355 29.7072 21.4775 29.5931 21.0663 29.3776L17.033 27.2624C15.696 26.564 14.1968 26.2242 12.6852 26.277C11.1735 26.3297 9.70238 26.7731 8.41858 27.5629L10.7183 38.388L11.943 38.1273C12.5861 37.9908 13.2482 37.9649 13.9002 38.0506L23.0602 39.0427C24.7833 39.2695 26.5308 38.8662 27.9735 37.9087L42.6203 28.2052C42.9414 27.9894 43.1638 27.6577 43.2395 27.2815C43.3152 26.9054 43.2382 26.5149 43.0251 26.1943L43.0229 26.1935Z" fill="#2B5FAE"/>
<path d="M0.733398 26.4216L4.04365 42L9.73354 40.7907L6.42256 25.2123L0.733398 26.4216ZM3.61318 29.5064L3.31178 28.09L4.74691 27.7924L5.04831 29.2081L3.61318 29.5064Z" fill="#2B5FAE"/>
</svg>
