<svg width="47" height="45" viewBox="0 0 47 45" fill="none" xmlns="http://www.w3.org/2000/svg">
<path d="M10.8132 28.5626C10.9519 28.4749 11.1039 28.3872 11.2731 28.2996C10.5538 26.1939 10.185 23.9865 10.181 21.7637V9.46552C10.1811 9.27728 10.2503 9.09551 10.3757 8.95405C10.5011 8.81259 10.6741 8.72111 10.8626 8.69664C15.1616 8.13804 19.3192 6.79649 23.1253 4.73974C23.2402 4.67781 23.3689 4.64537 23.4998 4.64537C23.6306 4.64537 23.7594 4.67781 23.8743 4.73974C27.6807 6.79639 31.8385 8.13792 36.1378 8.69664C36.3261 8.72128 36.499 8.81284 36.6242 8.95428C36.7494 9.09572 36.8185 9.2774 36.8186 9.46552V21.7637C36.8133 25.4906 35.787 29.1462 33.8493 32.341L34.4619 32.6723L37.8755 33.1937C39.7554 29.6715 40.7374 25.7476 40.7359 21.7637V5.11371C34.7603 5.10933 28.9101 3.41602 23.8727 0.232759L23.4998 0L23.1269 0.232759C18.0895 3.4161 12.2393 5.10941 6.26367 5.11371V21.7637C6.26317 24.6648 6.78393 27.5429 7.8016 30.2633L10.8132 28.5626Z" fill="#2B5FAE"/>
<path d="M23.4997 6.29919C19.83 8.2281 15.8562 9.52594 11.7478 10.1374V21.7637C11.7515 23.7977 12.0853 25.818 12.7365 27.7471C14.7303 27.2873 16.7764 27.0883 18.8224 27.1551C21.7506 27.0841 24.6585 27.654 27.3386 28.824L32.4711 31.5977C34.284 28.6312 35.2453 25.2311 35.2516 21.7637V10.1374C31.1432 9.52571 27.1695 8.22788 23.4997 6.29919ZM23.4997 22.3665L21.4737 24.3729C21.1798 24.6638 20.7813 24.8272 20.3659 24.8272C19.9504 24.8272 19.5519 24.6638 19.258 24.3729L14.8816 20.0389L17.232 17.7113L20.3659 20.8148L23.4997 17.7113L29.7674 11.5045L32.1178 13.832L23.4997 22.3665Z" fill="#2B5FAE"/>
<path d="M9.39751 45C11.1283 45 12.5313 43.6105 12.5313 41.8965C12.5313 40.1826 11.1283 38.7931 9.39751 38.7931C7.66674 38.7931 6.26367 40.1826 6.26367 41.8965C6.26367 43.6105 7.66674 45 9.39751 45Z" fill="#2B5FAE"/>
<path d="M46.8155 39.0026L46.1965 37.0086C46.1815 36.9684 46.1632 36.9295 46.1417 36.8922C45.9074 36.5367 45.5899 36.2424 45.2161 36.0344C44.8424 35.8264 44.4235 35.7108 43.995 35.6974L34.0294 34.1767C33.9797 34.1707 33.9318 34.1548 33.8884 34.1302L26.5944 30.1888C24.1428 29.143 21.4909 28.6373 18.8225 28.7069C13.5263 28.7069 12.1709 29.5448 11.5911 29.9095L7.2351 32.3767C6.99214 32.5153 6.71637 32.5876 6.43597 32.5862H3.94457C2.33847 32.5862 1.20246 33.6646 0.834232 35.5034L0.0429376 38.6379C-0.0263844 38.9993 -0.0116124 39.3716 0.0861312 39.7266C0.183875 40.0815 0.362019 40.4097 0.607028 40.6862C0.919836 41.0579 1.30993 41.3585 1.7507 41.5674C2.19146 41.7762 2.67254 41.8885 3.16111 41.8965H4.69669C4.69669 40.6619 5.19194 39.4778 6.07351 38.6048C6.95507 37.7318 8.15073 37.2414 9.39744 37.2414C10.6442 37.2414 11.8398 37.7318 12.7214 38.6048C13.6029 39.4778 14.0982 40.6619 14.0982 41.8965H32.1178C32.1178 40.6619 32.613 39.4778 33.4946 38.6048C34.3762 37.7318 35.5718 37.2414 36.8185 37.2414C38.0652 37.2414 39.2609 37.7318 40.1425 38.6048C41.024 39.4778 41.5193 40.6619 41.5193 41.8965H44.9352C45.2808 41.896 45.6207 41.8096 45.924 41.6454C46.2272 41.4812 46.484 41.2444 46.671 40.9566C46.8581 40.6688 46.9692 40.3391 46.9945 39.9978C47.0197 39.6564 46.9582 39.3143 46.8155 39.0026ZM18.039 33.6646C15.0384 33.5017 12.0142 33.2767 9.3426 32.9664L12.4216 31.2207C12.8212 30.9724 13.8553 30.3362 18.039 30.2664V33.6646ZM19.6059 33.75V30.2741C21.75 30.2855 23.8702 30.7208 25.8423 31.5543L30.5509 34.0991C27.7617 34.0526 23.7739 33.9595 19.6059 33.75Z" fill="#2B5FAE"/>
<path d="M36.8185 45C38.5493 45 39.9524 43.6105 39.9524 41.8965C39.9524 40.1826 38.5493 38.7931 36.8185 38.7931C35.0878 38.7931 33.6847 40.1826 33.6847 41.8965C33.6847 43.6105 35.0878 45 36.8185 45Z" fill="#2B5FAE"/>
</svg>
