<svg width="47" height="42" viewBox="0 0 47 42" fill="none" xmlns="http://www.w3.org/2000/svg">
<path d="M46.2079 16.3333H30.5053C30.5288 16.0767 30.5444 15.82 30.5444 15.5556C30.5594 13.5374 29.7974 11.5898 28.4142 10.1111H34.4603C34.668 10.1111 34.8672 10.0292 35.0141 9.88331C35.161 9.73744 35.2435 9.53961 35.2435 9.33333C35.2435 9.12705 35.161 8.92922 35.0141 8.78336C34.8672 8.6375 34.668 8.55556 34.4603 8.55556H26.2722C25.6436 8.25779 24.9705 8.06341 24.2791 7.98V0.777778C24.2791 0.571498 24.1966 0.373668 24.0497 0.227806C23.9028 0.0819444 23.7036 0 23.4959 0C23.2882 0 23.089 0.0819444 22.9421 0.227806C22.7952 0.373668 22.7127 0.571498 22.7127 0.777778V7.98C22.0213 8.06341 21.3482 8.25779 20.7196 8.55556H12.5315C12.3238 8.55556 12.1246 8.6375 11.9777 8.78336C11.8309 8.92922 11.7483 9.12705 11.7483 9.33333C11.7483 9.53961 11.8309 9.73744 11.9777 9.88331C12.1246 10.0292 12.3238 10.1111 12.5315 10.1111H18.5776C17.1945 11.5898 16.4324 13.5374 16.4474 15.5556C16.4474 15.82 16.463 16.0767 16.4865 16.3333H0.783959C0.589741 16.3331 0.402378 16.4046 0.258243 16.5339C0.114108 16.6632 0.0234856 16.841 0.00396682 17.0329C-0.0155519 17.2248 0.0374261 17.4171 0.152616 17.5724C0.267807 17.7277 0.436991 17.835 0.627325 17.8733L8.40421 19.4833H8.41047C8.03947 19.9028 7.83413 20.4417 7.83249 21C7.83249 21.6188 8.08003 22.2123 8.52065 22.6499C8.96127 23.0875 9.55888 23.3333 10.182 23.3333C10.8051 23.3333 11.4027 23.0875 11.8434 22.6499C12.284 22.2123 12.5315 21.6188 12.5315 21C12.5283 20.7669 12.4895 20.5356 12.4164 20.314H12.4219L19.4156 21.7607H19.4234C20.5815 22.675 22.0164 23.1744 23.4959 23.1778C24.9794 23.1715 26.4182 22.6733 27.5841 21.7622L34.5699 20.3156H34.5754C34.5025 20.5366 34.4637 20.7674 34.4603 21C34.4603 21.6188 34.7078 22.2123 35.1485 22.6499C35.5891 23.0875 36.1867 23.3333 36.8098 23.3333C37.4329 23.3333 38.0305 23.0875 38.4712 22.6499C38.9118 22.2123 39.1593 21.6188 39.1593 21C39.1573 20.4422 38.952 19.904 38.5813 19.4849H38.5876L46.3645 17.8749C46.5566 17.8383 46.728 17.7315 46.8449 17.5757C46.9618 17.4199 47.0157 17.2263 46.996 17.033C46.9764 16.8397 46.8846 16.6606 46.7387 16.5312C46.5929 16.4017 46.4035 16.3311 46.2079 16.3333ZM10.182 21.7778C10.0271 21.7778 9.87569 21.7322 9.7469 21.6467C9.61811 21.5612 9.51773 21.4398 9.45845 21.2976C9.39917 21.1555 9.38367 20.9991 9.41388 20.8483C9.4441 20.6974 9.51869 20.5588 9.62822 20.45C9.73775 20.3413 9.8773 20.2672 10.0292 20.2372C10.1811 20.2072 10.3386 20.2226 10.4817 20.2814C10.6248 20.3403 10.7471 20.44 10.8332 20.5679C10.9192 20.6958 10.9652 20.8462 10.9652 21C10.9652 21.2063 10.8827 21.4041 10.7358 21.55C10.5889 21.6958 10.3897 21.7778 10.182 21.7778ZM26.6286 15.5556H20.3632C20.1555 15.5556 19.9563 15.4736 19.8094 15.3278C19.6626 15.1819 19.5801 14.9841 19.5801 14.7778C19.5801 13.7464 19.9926 12.7572 20.727 12.0279C21.4613 11.2986 22.4574 10.8889 23.4959 10.8889C24.5345 10.8889 25.5305 11.2986 26.2648 12.0279C26.9992 12.7572 27.4118 13.7464 27.4118 14.7778C27.4118 14.9841 27.3292 15.1819 27.1824 15.3278C27.0355 15.4736 26.8363 15.5556 26.6286 15.5556ZM36.8098 21.7778C36.6549 21.7778 36.5035 21.7322 36.3747 21.6467C36.2459 21.5612 36.1455 21.4398 36.0863 21.2976C36.027 21.1555 36.0115 20.9991 36.0417 20.8483C36.0719 20.6974 36.1465 20.5588 36.256 20.45C36.3655 20.3413 36.5051 20.2672 36.657 20.2372C36.8089 20.2072 36.9664 20.2226 37.1095 20.2814C37.2526 20.3403 37.3749 20.44 37.461 20.5679C37.547 20.6958 37.593 20.8462 37.593 21C37.593 21.2063 37.5105 21.4041 37.3636 21.55C37.2167 21.6958 37.0175 21.7778 36.8098 21.7778Z" fill="#2B5FAE"/>
<path d="M45.9478 25.0226C45.5538 24.423 44.9503 23.9891 44.2536 23.8046C43.5569 23.6201 42.8161 23.698 42.1737 24.0232L37.8914 26.201C38.1836 26.8921 38.2153 27.6647 37.9807 28.3772C37.7461 29.0896 37.2609 29.6943 36.614 30.0805L27.8981 35.2139C25.8541 36.4233 23.4196 36.8043 21.1002 36.2779L13.2246 34.4058L13.5888 32.893L21.4487 34.7597C23.3765 35.1951 25.399 34.8785 27.0985 33.8753L35.8136 28.742C36.1695 28.5308 36.4273 28.1889 36.5311 27.7903C36.6349 27.3916 36.5763 26.9684 36.3681 26.6124C35.9126 25.8293 35.1715 25.2501 34.298 24.9946C33.4245 24.7391 32.4855 24.8268 31.6753 25.2396L25.3544 28.4612C24.9121 28.6869 24.4215 28.8031 23.9243 28.7998C23.4271 28.7966 22.9381 28.674 22.4989 28.4425L18.1915 26.1706C16.7636 25.4206 15.1625 25.0556 13.5481 25.1122C11.9338 25.1689 10.3626 25.6451 8.99158 26.4934L11.4476 38.1204L12.7555 37.8404C13.4423 37.6938 14.1494 37.6659 14.8458 37.758L24.6284 38.8235C26.4685 39.0672 28.3349 38.634 29.8756 37.6055L45.5179 27.1833C45.8608 26.9516 46.0983 26.5953 46.1791 26.1912C46.26 25.7872 46.1778 25.3678 45.9502 25.0234L45.9478 25.0226Z" fill="#2B5FAE"/>
<path d="M0.783936 25.2677L4.31917 42L10.3958 40.7011L6.85977 23.9688L0.783936 25.2677ZM3.85945 28.581L3.53756 27.0597L5.07023 26.74L5.39211 28.2606L3.85945 28.581Z" fill="#2B5FAE"/>
</svg>
