<svg width="42" height="42" viewBox="0 0 42 42" fill="none" xmlns="http://www.w3.org/2000/svg">
<path d="M10.1389 9.46162V13.2271C10.1997 13.1945 10.2562 13.167 10.3062 13.146C10.4836 13.0751 14.2821 11.5862 21 11.5862C27.7179 11.5862 31.5164 13.0751 31.675 13.1381C31.73 13.1612 31.7937 13.1931 31.8611 13.23V9.46451C28.0641 8.89373 24.3915 7.68241 21 5.8822C17.6083 7.68151 13.9357 8.89185 10.1389 9.46162Z" fill="#2B5FAE"/>
<path d="M8.69079 14.5356V8.83448C8.69088 8.6588 8.75483 8.48914 8.87073 8.35711C8.98662 8.22509 9.14656 8.1397 9.32073 8.11686C13.2939 7.5955 17.1363 6.34339 20.6539 4.42376C20.7601 4.36596 20.8791 4.33567 21 4.33567C21.1209 4.33567 21.2399 4.36596 21.3461 4.42376C24.8638 6.34318 28.7062 7.59528 32.6793 8.11686C32.8535 8.1397 33.0134 8.22509 33.1293 8.35711C33.2452 8.48914 33.3091 8.6588 33.3092 8.83448V14.5407C34.7833 16.4749 35.9965 18.5948 36.9173 20.8458C36.9216 20.6683 36.9296 20.4924 36.9296 20.3142V4.77279C31.4069 4.76871 26.0002 3.18829 21.3447 0.217241L21 0L20.6553 0.217241C15.9998 3.18829 10.5931 4.76871 5.07043 4.77279V20.3128C5.07043 20.4909 5.0784 20.6669 5.08274 20.8443C6.00405 18.5925 7.21711 16.4715 8.69079 14.5356Z" fill="#2B5FAE"/>
<path d="M36.9296 24.6207C36.9296 24.6207 33.3092 15.3879 31.137 14.4828C31.137 14.4828 27.5166 13.0345 21 13.0345C14.4834 13.0345 10.863 14.4828 10.863 14.4828C8.69079 15.3879 5.07043 24.6207 5.07043 24.6207C2.48188 24.6207 0.0685482 26.9973 0.00193366 30.2328C-0.0668531 33.5529 1.70567 38.3793 4.34636 38.3793H5.7945V41.2759C5.7945 41.4679 5.87079 41.6521 6.00658 41.7879C6.14237 41.9237 6.32654 42 6.51857 42H13.0352C13.2273 42 13.4114 41.9237 13.5472 41.7879C13.683 41.6521 13.7593 41.4679 13.7593 41.2759V38.3793H28.2407V41.2759C28.2407 41.4679 28.317 41.6521 28.4528 41.7879C28.5886 41.9237 28.7727 42 28.9648 42H35.4814C35.6735 42 35.8576 41.9237 35.9934 41.7879C36.1292 41.6521 36.2055 41.4679 36.2055 41.2759V38.3793H37.6536C40.2943 38.3793 42.0669 33.5529 41.9981 30.2328C41.9315 26.9973 39.5181 24.6207 36.9296 24.6207ZM11.5871 18.1035C12.0889 16.8492 15.2074 15.931 21 15.931C27.5166 15.931 29.9111 16.8492 30.4129 18.1035L33.3092 24.6207H8.69079L11.5871 18.1035ZM3.62229 31.1379C3.62229 30.565 3.79215 30.005 4.1104 29.5287C4.42865 29.0524 4.88099 28.6811 5.41021 28.4619C5.93944 28.2426 6.52179 28.1853 7.08361 28.297C7.64544 28.4088 8.1615 28.6847 8.56656 29.0898C8.97161 29.4949 9.24745 30.011 9.35921 30.5728C9.47096 31.1347 9.41361 31.7171 9.19439 32.2464C8.97518 32.7757 8.60396 33.2281 8.12766 33.5463C7.65137 33.8646 7.09141 34.0345 6.51857 34.0345C5.75043 34.0345 5.01375 33.7293 4.47059 33.1861C3.92743 32.6429 3.62229 31.9061 3.62229 31.1379ZM13.7593 28.9655H28.2407V30.4138H13.7593V28.9655ZM26.7926 33.3103H15.2074V31.8621H26.7926V33.3103ZM35.4814 34.0345C34.9086 34.0345 34.3486 33.8646 33.8723 33.5463C33.396 33.2281 33.0248 32.7757 32.8056 32.2464C32.5864 31.7171 32.529 31.1347 32.6408 30.5728C32.7525 30.011 33.0284 29.4949 33.4334 29.0898C33.8385 28.6847 34.3546 28.4088 34.9164 28.297C35.4782 28.1853 36.0606 28.2426 36.5898 28.4619C37.119 28.6811 37.5714 29.0524 37.8896 29.5287C38.2078 30.005 38.3777 30.565 38.3777 31.1379C38.3777 31.9061 38.0726 32.6429 37.5294 33.1861C36.9862 33.7293 36.2496 34.0345 35.4814 34.0345Z" fill="#2B5FAE"/>
</svg>
