<svg width="30" height="30" viewBox="0 0 30 30" fill="none" xmlns="http://www.w3.org/2000/svg">
<path d="M18.5604 19.5163C18.4713 18.5483 18.5064 17.8733 18.5064 16.9897C18.9447 16.7601 19.7299 15.2952 19.8611 14.0577C20.2057 14.0296 20.7494 13.6944 20.9088 12.3679C20.9932 11.6554 20.6533 11.2546 20.4447 11.128C21.0049 9.44287 22.1697 4.22803 18.2932 3.68897C17.8924 2.98818 16.8705 2.63428 15.5439 2.63428C10.2307 2.73272 9.59082 6.64678 10.7557 11.128C10.5471 11.2546 10.2072 11.6554 10.2916 12.3679C10.4533 13.6944 10.9947 14.0296 11.3393 14.0577C11.4705 15.2952 12.2861 16.7601 12.7268 16.9897C12.7268 17.8733 12.7596 18.5483 12.6705 19.5163C11.6205 22.3429 4.52832 21.5483 4.2002 26.9999H27.0002C26.6721 21.5483 19.6104 22.3429 18.5604 19.5163Z" fill="#2B5FAE"/>
</svg>
