<svg width="45" height="48" viewBox="0 0 45 48" fill="none" xmlns="http://www.w3.org/2000/svg">
<path d="M43.0268 21.4921C42.966 18.966 42.4553 16.5225 41.5041 14.2153C41.8331 13.9919 42.0873 13.667 42.2186 13.2874C42.3845 12.8073 42.345 12.274 42.1099 11.8243C40.6502 9.02964 38.6464 6.62511 36.1541 4.67768C35.8534 4.4427 35.4189 4.49583 35.1838 4.79678C34.9488 5.09764 35.002 5.5321 35.3029 5.76717C37.6387 7.59235 39.5167 9.84563 40.8846 12.4645C40.945 12.5801 40.9547 12.7119 40.9119 12.8355C40.869 12.9599 40.7793 13.0581 40.6595 13.1121L37.3954 14.5838C37.171 14.6848 36.9046 14.5956 36.7888 14.3804C33.9739 9.14875 28.537 5.89875 22.6 5.89875C16.663 5.89875 11.2262 9.14875 8.41121 14.3804C8.29534 14.5956 8.02885 14.685 7.80469 14.5838L4.54046 13.112C4.42071 13.0581 4.33108 12.9599 4.28812 12.8356C4.24534 12.712 4.25504 12.58 4.31547 12.4644C7.88591 5.62885 14.8921 1.38249 22.6 1.38249C26.2017 1.38249 29.7605 2.33662 32.8917 4.14175C33.2224 4.33201 33.6451 4.21882 33.8358 3.88812C34.0264 3.55732 33.9129 3.13468 33.5822 2.94397C30.2414 1.01797 26.4437 0 22.6 0C18.578 0 14.6289 1.1077 11.1798 3.20343C7.74241 5.29186 4.94508 8.27297 3.09005 11.8243C2.85508 12.2742 2.81553 12.8074 2.98158 13.2875C3.11297 13.6673 3.36725 13.9921 3.69629 14.2155C2.75566 16.4972 2.24477 18.9119 2.17492 21.4085C0.906171 21.8821 9.24377e-05 23.1059 9.24377e-05 24.5378V30.2286C9.24377e-05 30.6104 0.309541 30.9198 0.69134 30.9198C1.07314 30.9198 1.38259 30.6104 1.38259 30.2286V24.5378C1.38259 23.459 2.26021 22.5814 3.33898 22.5814H5.14051C6.21928 22.5814 7.0969 23.4591 7.0969 24.5378V34.565C7.0969 35.6438 6.21928 36.5214 5.14051 36.5214H3.33889C2.26011 36.5214 1.38249 35.6437 1.38249 34.565V33.2644C1.38249 32.8826 1.07305 32.5732 0.691247 32.5732C0.309449 32.5732 0 32.8826 0 33.2644V34.565C0 36.4061 1.49781 37.904 3.33898 37.904H5.14051C6.98159 37.904 8.47949 36.4062 8.47949 34.565V24.5378C8.47949 23.1134 7.58274 21.8953 6.32444 21.4164C6.39096 19.5212 6.78145 17.6817 7.48674 15.9336C8.3103 16.17 9.21315 15.8079 9.62886 15.0354C12.2024 10.2525 17.1727 7.28124 22.6002 7.28124C28.0277 7.28124 32.998 10.2524 35.5716 15.0354C35.9027 15.6509 36.5432 16.0071 37.2064 16.0071C37.3758 16.0071 37.5466 15.9832 37.7141 15.9352C38.4105 17.6616 38.7994 19.4774 38.8727 21.3478C37.512 21.7697 36.5207 23.0401 36.5207 24.5378V34.565C36.5207 35.8437 37.2435 36.9562 38.3016 37.517C37.3496 39.6569 35.3439 41.1799 33.0167 41.5032C32.7886 41.1062 32.4716 40.7592 32.0799 40.4945C31.7636 40.2807 31.3339 40.364 31.1202 40.6804C30.9064 40.9967 30.9897 41.4263 31.3061 41.6401C31.7655 41.9505 32.0397 42.4661 32.0397 43.0195V44.2635C32.0397 45.1805 31.2938 45.9265 30.3767 45.9265H27.0016C26.0846 45.9265 25.3386 45.1805 25.3386 44.2635V43.0195C25.3386 42.1025 26.0845 41.3565 27.0016 41.3565H28.4127C28.7945 41.3565 29.1039 41.047 29.1039 40.6652C29.1039 40.2834 28.7945 39.974 28.4127 39.974H27.0016C25.3223 39.974 23.9561 41.3402 23.9561 43.0195V44.2635C23.9561 45.9428 25.3223 47.309 27.0016 47.309H30.3767C31.5495 47.309 32.5688 46.6422 33.0775 45.6682C35.3165 45.4654 37.406 44.5934 39.1365 43.1324C40.821 41.7103 42.0173 39.8608 42.6144 37.7646C43.9923 37.3533 45 36.075 45 34.565V24.5378C44.9999 23.1832 44.1886 22.0152 43.0268 21.4921ZM6.21734 15.3847C5.46456 17.24 5.03961 19.1903 4.95017 21.1989H3.56619C3.65628 18.9842 4.11921 16.8414 4.94656 14.8118L6.21734 15.3847ZM40.2498 21.1989C40.1603 19.1902 39.7355 17.24 38.9826 15.3848L40.2536 14.8117C41.0808 16.8414 41.5437 18.9844 41.6338 21.1989H40.2498ZM33.4221 44.2372V43.0195C33.4221 42.9592 33.4201 42.8992 33.4166 42.8395C36.1919 42.3792 38.5596 40.5 39.643 37.8963C39.7146 37.9009 39.7867 37.904 39.8595 37.904H41.1184C39.9441 41.2523 36.9378 43.733 33.4221 44.2372ZM43.6174 34.565C43.6174 35.6438 42.7398 36.5214 41.6611 36.5214H39.8595C38.7807 36.5214 37.9032 35.6437 37.9032 34.565V24.5378C37.9032 23.459 38.7808 22.5814 39.8595 22.5814H41.6611C42.7399 22.5814 43.6174 23.4591 43.6174 24.5378V34.565Z" fill="#2A2A2A"/>
<path d="M23.8244 29.2578C23.7391 29.2578 23.6525 29.242 23.5685 29.2085C23.2127 29.0672 23.0391 28.6641 23.1807 28.3085L26.0443 21.1085C26.1858 20.7529 26.5889 20.5791 26.9443 20.7207C27.3 20.8621 27.4737 21.2651 27.3321 21.6207L24.4684 28.8207C24.3604 29.0923 24.0999 29.2578 23.8244 29.2578Z" fill="#2A2A2A"/>
<path d="M30.499 29.2578C30.4058 29.2578 30.3112 29.239 30.2204 29.1991C29.87 29.045 29.7108 28.6361 29.8648 28.2857L32.6027 22.0576H29.7035C29.3207 22.0576 29.0105 21.7474 29.0105 21.3646C29.0105 20.9818 29.3207 20.6716 29.7035 20.6716H33.6644C33.8985 20.6716 34.1168 20.7898 34.2447 20.9858C34.3726 21.1818 34.393 21.4292 34.2988 21.6435L31.1338 28.8435C31.0197 29.1032 30.7656 29.2578 30.499 29.2578Z" fill="#2A2A2A"/>
<path d="M20.2184 29.2577C20.2164 29.2577 20.2143 29.2577 20.2123 29.2577C19.8296 29.2543 19.522 28.9414 19.5253 28.5587C19.5291 28.1236 19.5329 27.638 19.5366 27.1326H16.6336C16.3885 27.1326 16.1615 27.0031 16.0369 26.792C15.9123 26.5808 15.9085 26.3195 16.0269 26.1048C16.4317 25.3711 18.4719 21.6852 18.8855 21.1779C19.2308 20.7544 19.6961 20.5819 20.131 20.7164C20.5707 20.8526 20.8832 21.2804 20.927 21.806C20.9486 22.0654 20.9425 23.9892 20.9321 25.7465H21.1551C21.5379 25.7465 21.8481 26.0567 21.8481 26.4395C21.8481 26.8224 21.5379 27.1325 21.1551 27.1325H20.9228C20.918 27.7813 20.9137 28.3076 20.9114 28.5706C20.908 28.9513 20.5983 29.2577 20.2184 29.2577ZM17.8107 25.7466H19.5457C19.5526 24.5627 19.5572 23.4205 19.5553 22.6922C19.1397 23.3889 18.4804 24.5464 17.8107 25.7466Z" fill="#2A2A2A"/>
<path d="M13.0628 29.3297C11.6793 29.3297 11.5775 29.2958 11.4845 29.2647C11.2535 29.1877 11.081 29.0132 11.011 28.7859C10.8904 28.394 11.0589 28.1736 11.509 27.5842C11.8751 27.1049 12.5567 26.2124 13.6987 24.5807C14.0379 24.0961 14.2567 23.6621 14.3493 23.2899L14.3738 23.0975C14.3532 22.4817 13.8459 21.9871 13.2251 21.9871C12.677 21.9871 12.2027 22.3765 12.0973 22.9129C12.0234 23.2884 11.6592 23.5327 11.2837 23.4594C10.9082 23.3856 10.6635 23.0214 10.7372 22.6458C10.97 21.461 12.0162 20.6011 13.225 20.6011C14.6229 20.6011 15.7603 21.7384 15.7603 23.1364C15.7603 23.1656 15.7585 23.195 15.7547 23.224L15.7191 23.5026C15.7161 23.5258 15.7121 23.5487 15.7068 23.5715C15.5786 24.1241 15.285 24.7311 14.834 25.3753C13.9832 26.5908 13.3835 27.4031 12.9775 27.9419C13.6593 27.9441 14.5381 27.9358 15.3637 27.9254C15.7468 27.9224 16.0606 28.227 16.0654 28.6095C16.0702 28.9923 15.7639 29.3064 15.3812 29.3112C14.3562 29.3243 13.6094 29.3297 13.0628 29.3297Z" fill="#2A2A2A"/>
</svg>
