<svg width="30" height="30" viewBox="0 0 30 30" fill="none" xmlns="http://www.w3.org/2000/svg">
<g clip-path="url(#clip0)">
<path d="M29.916 24.7243L26.262 19.2413L26.9025 19.0413C27.1661 18.959 27.3131 18.6786 27.2307 18.415C27.2274 18.4041 27.2236 18.3934 27.2195 18.3828L26.096 15.4934L28.384 13.3659C28.5861 13.1778 28.5975 12.8614 28.4094 12.6593C28.4012 12.6505 28.3927 12.6421 28.384 12.6339L26.096 10.5069L27.22 7.61747C27.3201 7.3601 27.1926 7.07035 26.9352 6.97022C26.9246 6.9661 26.9138 6.96235 26.903 6.95897L23.895 6.02099L23.632 2.93603C23.6204 2.79871 23.553 2.67222 23.4455 2.58603C23.3386 2.50009 23.2009 2.46222 23.0651 2.48153L19.9346 2.91503L18.3317 0.243059C18.1897 0.00618683 17.8826 -0.0707497 17.6458 0.071186C17.6397 0.0748735 17.6337 0.0786234 17.6277 0.0825609L15.0002 1.81204L12.3732 0.0825609C12.1427 -0.0693747 11.8326 -0.00562552 11.6806 0.224934C11.6767 0.230872 11.6729 0.236934 11.6693 0.243059L10.0663 2.91603L6.93632 2.48253C6.66282 2.44453 6.41026 2.63547 6.37226 2.90896C6.37101 2.91778 6.37007 2.92665 6.36932 2.93553L6.10583 6.02049L3.10036 6.95847C2.83674 7.04079 2.68981 7.32116 2.77212 7.58478C2.77549 7.59565 2.77924 7.6064 2.78337 7.61697L3.90685 10.5064L1.61638 12.6339C1.41426 12.822 1.40288 13.1384 1.59101 13.3405C1.59913 13.3493 1.60763 13.3577 1.61638 13.3659L3.90435 15.4929L2.78037 18.3823C2.68031 18.6397 2.8078 18.9294 3.06518 19.0296C3.0758 19.0337 3.08655 19.0374 3.09736 19.0408L3.76085 19.2473L0.074401 25.2377C-0.0703472 25.4729 0.00290186 25.7809 0.238086 25.9256C0.34321 25.9903 0.468521 26.0139 0.589895 25.9917L5.60627 25.0797L6.51026 29.5997C6.54988 29.7979 6.70494 29.9528 6.90325 29.9922C6.93525 29.9979 6.96775 30.0004 7.00025 29.9997C7.16737 29.9997 7.3235 29.9162 7.41625 29.7772L10.9242 24.5153L11.6687 25.7567C11.7388 25.8737 11.8537 25.957 11.9867 25.9872C12.0239 25.9958 12.062 26 12.1002 25.9997C12.1979 25.9997 12.2936 25.9711 12.3752 25.9172L15.0002 24.1878L17.6271 25.9172C17.8577 26.0692 18.1678 26.0054 18.3197 25.7749C18.3237 25.7689 18.3274 25.7629 18.3311 25.7567L19.0761 24.5148L22.5841 29.7772C22.6768 29.9162 22.8329 29.9997 23.0001 29.9997C23.0326 29.9997 23.0651 29.9966 23.097 29.9902C23.2954 29.9508 23.4504 29.7959 23.49 29.5977L24.4 25.0382L29.455 25.4997C29.73 25.5246 29.9731 25.3219 29.998 25.0469C30.0083 24.9331 29.9794 24.8193 29.916 24.7243ZM7.25531 28.2177L6.49032 24.3998C6.43688 24.1324 6.17914 23.9571 5.91083 24.0058L1.51338 24.8057L4.74584 19.5548L6.10533 19.9788L6.36832 23.0638C6.37995 23.2011 6.44732 23.3276 6.55482 23.4138C6.66194 23.4993 6.7995 23.5371 6.93531 23.5183L10.0658 23.0848L10.3553 23.5678L7.25531 28.2177ZM19.2467 22.2883L17.7417 24.7973L15.2752 23.1713C15.1083 23.0614 14.8921 23.0614 14.7252 23.1713L12.2582 24.7952L10.7533 22.2858C10.663 22.1352 10.5003 22.0429 10.3248 22.0428C10.3016 22.0427 10.2786 22.0444 10.2558 22.0478L7.32031 22.4538L7.07331 19.5593C7.056 19.3566 6.91763 19.1846 6.72332 19.1243L3.90685 18.2453L4.95684 15.5394C5.03115 15.3484 4.9814 15.1314 4.83134 14.9919L2.69137 12.9999L4.83384 11.0079C4.9839 10.8684 5.03365 10.6514 4.95934 10.4604L3.90935 7.75346L6.72682 6.87498C6.92113 6.81466 7.0595 6.64267 7.07681 6.43998L7.32381 3.54552L10.2593 3.95201C10.4588 3.98051 10.6559 3.88651 10.7593 3.71352L12.2642 1.20455L14.7252 2.82853C14.8921 2.9384 15.1083 2.9384 15.2752 2.82853L17.7422 1.20455L19.2472 3.71402C19.3509 3.8852 19.5463 3.97864 19.7447 3.95201L22.6801 3.54602L22.9271 6.44048C22.9444 6.64317 23.0828 6.81516 23.2771 6.87548L26.0946 7.75446L25.0416 10.4604C24.9673 10.6514 25.017 10.8684 25.1671 11.0079L27.3091 12.9999L25.1666 14.9919C25.0165 15.1314 24.9668 15.3484 25.0411 15.5394L26.0911 18.2463L23.2761 19.1248C23.0818 19.1851 22.9434 19.3571 22.9261 19.5598L22.6791 22.4543L19.7442 22.0498C19.5456 22.0232 19.3503 22.1169 19.2467 22.2883ZM24.0451 23.9998C23.7917 23.9801 23.563 24.1512 23.5101 24.3998L22.7466 28.2162L19.6467 23.5663L19.9357 23.0843L23.0656 23.5178C23.3391 23.5558 23.5917 23.3648 23.6297 23.0913C23.6309 23.0825 23.6319 23.0736 23.6326 23.0648L23.8961 19.9798L25.2686 19.5518L28.504 24.4073L24.0451 23.9998Z" fill="#2A2A2A"/>
<path d="M22.5001 10.4999C22.5001 9.6715 21.8285 8.99994 21.0001 8.99994H17.5001V6.99997C17.5015 5.62067 16.3845 4.50137 15.0052 4.5C15.0035 4.5 15.0018 4.5 15.0002 4.5C14.724 4.5 14.5002 4.72387 14.5002 4.99999V7.38196L13.6002 9.17794L11.9912 10.4654C11.9749 10.2055 11.7606 10.0023 11.5002 9.99993H8.00024C7.72412 9.99993 7.50024 10.2238 7.50024 10.4999V17.9998C7.50024 18.276 7.72412 18.4998 8.00024 18.4998H11.5002C11.7763 18.4998 12.0002 18.276 12.0002 17.9998H19.5001C20.3268 17.9957 20.996 17.3266 21.0001 16.4999C20.9984 16.242 20.9295 15.989 20.8001 15.7659C20.8923 15.7083 20.9776 15.6402 21.0541 15.5629C21.5389 15.0914 21.6403 14.3503 21.3001 13.7659C21.3923 13.7083 21.4776 13.6402 21.5541 13.5629C22.0389 13.0914 22.1403 12.3503 21.8001 11.7659C21.8923 11.7083 21.9776 11.6402 22.0541 11.5629C22.3411 11.2839 22.5021 10.9001 22.5001 10.4999ZM11.0003 17.4998H8.5003V10.9999H11.0003V17.4998ZM21.3471 10.8559C21.2559 10.9492 21.1305 11.0012 21.0001 10.9999H19.0001V11.9999H20.5001C20.7762 11.9999 21.0001 12.2238 21.0001 12.4999C21.0005 12.6346 20.9452 12.7635 20.8471 12.8559C20.7559 12.9492 20.6305 13.0012 20.5001 12.9999H18.5001V13.9999H20.0001C20.2762 13.9999 20.5001 14.2238 20.5001 14.4999C20.5005 14.6346 20.4452 14.7635 20.3471 14.8559C20.2559 14.9492 20.1305 15.0012 20.0001 14.9999H18.0001V15.9999H19.5001C19.7762 15.9999 20.0001 16.2237 20.0001 16.4999C20.0005 16.6346 19.9452 16.7635 19.8471 16.8558C19.7559 16.9492 19.6305 17.0012 19.5001 16.9998H12.0002V11.7399L14.3127 9.89043C14.3692 9.84512 14.4152 9.78818 14.4477 9.72343L15.4477 7.72346C15.4823 7.65402 15.5002 7.57752 15.5002 7.49996V5.58549C16.1005 5.79617 16.5018 6.36373 16.5001 6.99997V9.49994C16.5001 9.77606 16.724 9.99993 17.0001 9.99993H21.0001C21.2762 9.99993 21.5001 10.2238 21.5001 10.4999C21.5006 10.6346 21.4451 10.7635 21.3471 10.8559Z" fill="#2A2A2A"/>
</g>
<defs>
<clipPath id="clip0">
<rect width="30" height="30" fill="white"/>
</clipPath>
</defs>
</svg>
