<svg width="30" height="30" viewBox="0 0 30 30" fill="none" xmlns="http://www.w3.org/2000/svg">
<g clip-path="url(#clip0)">
<path d="M29.7 3.49684L21.7 0.0408385C21.5736 -0.0136612 21.4304 -0.0136612 21.304 0.0408385L16.566 2.08684C14.055 -0.0995629 10.4978 -0.616523 7.46829 0.764689C4.4388 2.1459 2.4962 5.17034 2.5 8.49984V10.9998C1.11997 11.0015 0.00165306 12.1198 0 13.4998V27.4998C0.00165306 28.8799 1.11997 29.9982 2.5 29.9998H19.5C20.88 29.9982 21.9983 28.8799 22 27.4998V20.8498C22.016 20.8398 22.0345 20.8358 22.05 20.8248L27.5785 16.8888C29.092 15.8144 29.9938 14.0754 30 12.2193V3.95584C30.0003 3.75676 29.8825 3.57647 29.7 3.49684ZM3.5 8.49984C3.49911 5.6502 5.11374 3.0464 7.66674 1.78045C10.2197 0.514504 13.2697 0.805282 15.5375 2.53084L13.3 3.49684C13.294 3.50004 13.2882 3.50355 13.2825 3.50734C11.5821 2.72705 9.60135 2.86609 8.02659 3.8763C6.45183 4.88651 5.49968 6.62891 5.5 8.49984V10.9998H3.5L3.5 8.49984ZM13 10.9998H6.49997L6.5 8.49984C6.49412 6.94071 7.29874 5.49051 8.62472 4.67034C9.95071 3.85017 11.6076 3.77784 13 4.47934V10.9998ZM19.5 28.9998H2.5C1.67157 28.9998 1 28.3283 1 27.4998V26.9998H4C4.27614 26.9998 4.5 26.776 4.5 26.4998C4.5 26.2237 4.27614 25.9998 4 25.9998H1V24.9998H4C4.27614 24.9998 4.5 24.776 4.5 24.4998C4.5 24.2237 4.27614 23.9998 4 23.9998H1V22.9998H4C4.27614 22.9998 4.5 22.776 4.5 22.4998C4.5 22.2237 4.27614 21.9998 4 21.9998H1V20.9998H4C4.27614 20.9998 4.5 20.776 4.5 20.4998C4.5 20.2237 4.27614 19.9998 4 19.9998H1V18.9998H4C4.27614 18.9998 4.5 18.776 4.5 18.4998C4.5 18.2237 4.27614 17.9998 4 17.9998H1V16.9998H4C4.27614 16.9998 4.5 16.776 4.5 16.4998C4.5 16.2237 4.27614 15.9998 4 15.9998H1V14.9998H4C4.27614 14.9998 4.5 14.776 4.5 14.4998C4.5 14.2237 4.27614 13.9998 4 13.9998H1V13.4998C1 12.6714 1.67157 11.9998 2.5 11.9998H13V12.2193C13.0058 14.075 13.9073 15.8137 15.4205 16.8878L19.792 19.9998H18C17.7239 19.9998 17.5 20.2237 17.5 20.4998C17.5 20.776 17.7239 20.9998 18 20.9998H21V21.9998H18C17.7239 21.9998 17.5 22.2237 17.5 22.4998C17.5 22.776 17.7239 22.9998 18 22.9998H21V23.9998H18C17.7239 23.9998 17.5 24.2237 17.5 24.4998C17.5 24.776 17.7239 24.9998 18 24.9998H21V25.9998H18C17.7239 25.9998 17.5 26.2237 17.5 26.4998C17.5 26.776 17.7239 26.9998 18 26.9998H21V27.4998C21 28.3283 20.3284 28.9998 19.5 28.9998ZM29 12.2193C28.9945 13.7515 28.2497 15.1868 27 16.0733L21.5 19.9883L16 16.0733C14.7503 15.1868 14.0055 13.7515 14 12.2193V4.28434L16.675 3.12884L16.689 3.12284L21.5 1.04434L29 4.28434V12.2193Z" fill="#2A2A2A"/>
<path d="M21.3 2.21949L15.3 4.81149C15.1175 4.89112 14.9997 5.07141 15 5.27049V12.2205C15.0056 13.4293 15.5942 14.5611 16.5805 15.26L21.21 18.555C21.3836 18.6786 21.6164 18.6786 21.79 18.555L26.4195 15.26C27.4064 14.5612 27.995 13.4287 28 12.2195V5.26949C28.0003 5.07041 27.8825 4.89012 27.7 4.81049L21.7 2.21849C21.5723 2.16315 21.4274 2.16351 21.3 2.21949ZM27 5.59999V12.2195C26.9952 13.105 26.5629 13.9337 25.8395 14.4445L21.5 17.533L17.1605 14.4445C16.4375 13.9334 16.0053 13.1049 16 12.2195V5.59999L21.5 3.22349L27 5.59999Z" fill="#2A2A2A"/>
<path d="M18.3713 10.9569C18.2284 10.8497 18.0392 10.8269 17.8749 10.8971C17.7106 10.9672 17.5963 11.1197 17.5749 11.2971C17.5535 11.4744 17.6284 11.6497 17.7713 11.7569L20.0568 13.4709C20.2728 13.633 20.5785 13.5943 20.7473 13.3834L25.3188 7.66939C25.4912 7.45358 25.4561 7.13884 25.2403 6.96639C25.0245 6.79394 24.7097 6.82908 24.5373 7.04489L20.2693 12.3804L18.3713 10.9569Z" fill="#2A2A2A"/>
<path d="M13.9998 18.5001C14.0004 17.084 13.0106 15.8603 11.6256 15.5648C10.2406 15.2694 8.83765 15.9827 8.26036 17.2759C7.68306 18.569 8.08866 20.0897 9.23326 20.9236L8.50827 24.9106C8.48174 25.0564 8.52126 25.2065 8.61616 25.3203C8.71106 25.4341 8.85157 25.5 8.99977 25.5001H12.9998C13.148 25.5 13.2885 25.4341 13.3834 25.3203C13.4783 25.2065 13.5178 25.0564 13.4913 24.9106L12.7663 20.9236C13.5395 20.3579 13.9974 19.4581 13.9998 18.5001ZM11.9693 20.2501C11.7836 20.3547 11.6847 20.5655 11.7228 20.7751L12.3998 24.5001H9.59976L10.2778 20.7746C10.3159 20.565 10.2169 20.3542 10.0313 20.2496C9.23382 19.8076 8.8362 18.8823 9.06445 17.9996C9.2927 17.1169 10.089 16.5003 11.0008 16.5003C11.9125 16.5003 12.7088 17.1169 12.9371 17.9996C13.1653 18.8823 12.7677 19.8076 11.9703 20.2496L11.9693 20.2501Z" fill="#2A2A2A"/>
</g>
<defs>
<clipPath id="clip0">
<rect width="30" height="30" fill="white"/>
</clipPath>
</defs>
</svg>
