<svg width="26" height="22" viewBox="0 0 26 22" fill="none" xmlns="http://www.w3.org/2000/svg">
<path d="M17.6785 11.873C18.3189 12.0574 18.9593 12.1509 19.5822 12.1509C20.5441 12.1509 21.3468 11.9311 21.9691 11.6619C21.3691 13.8585 19.9277 17.6486 17.0564 18.0754C16.7905 18.115 16.5726 18.3072 16.5001 18.5661L15.8725 20.8106C15.8196 21.0005 15.851 21.2036 15.9592 21.3684C16.0675 21.5331 16.2415 21.643 16.4365 21.6697C16.6484 21.6986 16.8644 21.7134 17.0785 21.7134C20.525 21.7134 23.9382 18.1161 25.3785 12.9653C26.224 9.94344 26.4719 5.4003 24.3893 2.54072C23.224 0.94061 21.5238 0.0861452 19.3359 0.000778872C19.3269 0.000506117 19.3182 0.000233362 19.3092 0.000233357C16.6097 0.000232085 14.216 1.81825 13.4878 4.42092C13.0528 5.97684 13.2494 7.60859 14.0419 9.01669C14.826 10.409 16.1174 11.4238 17.6785 11.873Z" fill="#BEBEBE"/>
<path d="M0.780476 9.01654C1.56457 10.4091 2.85595 11.4239 4.41706 11.8731C5.05743 12.0575 5.6978 12.151 6.32044 12.151C7.28236 12.151 8.08528 11.9312 8.70765 11.662C8.10765 13.8586 6.66627 17.6487 3.79469 18.0755C3.52878 18.1151 3.31114 18.3074 3.23832 18.5662L2.61077 20.8108C2.55786 21.0006 2.58922 21.2038 2.6975 21.3685C2.8055 21.5332 2.9795 21.6431 3.17477 21.6699C3.38641 21.6988 3.60242 21.7135 3.81678 21.7135C7.26327 21.7135 10.6765 18.1162 12.1171 12.9654C12.9622 9.94356 13.2102 5.40042 11.1273 2.5403C9.96221 0.940459 8.26174 0.0857218 6.07417 0.000628191C6.06517 0.000355436 6.05644 8.26811e-05 6.04717 8.26767e-05C3.34796 8.14044e-05 0.953933 1.8181 0.225744 4.42076C-0.208716 5.97669 -0.0118063 7.60871 0.780476 9.01654Z" fill="#BEBEBE"/>
</svg>
