<svg width="97" height="97" viewBox="0 0 97 97" fill="none" xmlns="http://www.w3.org/2000/svg">
<g clip-path="url(#clip0)">
<path d="M44.4572 92.895C19.9452 92.895 0 72.9505 0 48.4386C0 23.9266 19.9452 3.98138 44.4572 3.98138C52.9808 3.98138 61.2736 6.41016 68.4393 11.0094C69.8461 11.9152 70.2583 13.7905 69.3525 15.201C68.4437 16.6114 66.5722 17.0192 65.1617 16.1141C58.978 12.1409 51.8168 10.0437 44.4572 10.0437C23.2872 10.0437 6.06231 27.2686 6.06231 48.4386C6.06231 69.6078 23.2872 86.8327 44.4572 86.8327C65.6264 86.8327 82.8513 69.6078 82.8513 48.4386C82.8513 47.1731 82.7907 45.9203 82.6737 44.6881C82.5124 43.0186 83.7327 41.5393 85.3978 41.378C87.071 41.224 88.5459 42.437 88.7079 44.102C88.8448 45.5288 88.9137 46.9755 88.9137 48.4386C88.9137 72.9505 68.9691 92.895 44.4572 92.895Z" fill="#35A744"/>
<path d="M49.5086 58.5422C48.733 58.5422 47.9568 58.2469 47.367 57.6534L29.18 39.4665C27.996 38.2817 27.996 36.3621 29.18 35.178C30.3641 33.994 32.2837 33.994 33.4677 35.178L49.513 51.2233L91.8234 8.9122C93.0082 7.72816 94.9278 7.72816 96.1119 8.9122C97.2959 10.0962 97.2959 12.0159 96.1119 13.1999L51.6547 57.6571C51.0604 58.2469 50.2849 58.5422 49.5086 58.5422Z" fill="#35A744"/>
</g>
<defs>
<clipPath id="clip0">
<rect width="97" height="97" fill="white"/>
</clipPath>
</defs>
</svg>
