<svg width="26" height="22" viewBox="0 0 26 22" fill="none" xmlns="http://www.w3.org/2000/svg">
<path d="M17.6785 11.8728C18.3189 12.0571 18.9593 12.1507 19.5822 12.1507C20.5441 12.1507 21.3468 11.9308 21.9691 11.6617C21.3691 13.8582 19.9277 17.6484 17.0564 18.0752C16.7905 18.1147 16.5726 18.307 16.5001 18.5658L15.8725 20.8104C15.8196 21.0002 15.851 21.2034 15.9592 21.3681C16.0675 21.5329 16.2415 21.6428 16.4365 21.6695C16.6484 21.6984 16.8644 21.7131 17.0785 21.7131C20.525 21.7131 23.9382 18.1158 25.3785 12.965C26.224 9.94319 26.4719 5.40005 24.3893 2.54048C23.224 0.940365 21.5238 0.0859011 19.3359 0.000534731C19.3269 0.000261976 19.3182 -1.0779e-05 19.3092 -1.07833e-05C16.6097 -1.20557e-05 14.216 1.81801 13.4878 4.42067C13.0528 5.9766 13.2494 7.60834 14.0419 9.01645C14.826 10.4087 16.1174 11.4236 17.6785 11.8728Z" fill="#2A2A2A" fill-opacity="0.5"/>
<path d="M0.780476 9.01642C1.56457 10.409 2.85595 11.4238 4.41706 11.873C5.05743 12.0574 5.6978 12.1509 6.32044 12.1509C7.28236 12.1509 8.08528 11.9311 8.70765 11.6619C8.10765 13.8585 6.66627 17.6486 3.79469 18.0754C3.52878 18.115 3.31114 18.3072 3.23832 18.5661L2.61077 20.8106C2.55786 21.0005 2.58922 21.2036 2.6975 21.3684C2.8055 21.5331 2.9795 21.643 3.17477 21.6697C3.38641 21.6986 3.60242 21.7134 3.81678 21.7134C7.26327 21.7134 10.6765 18.1161 12.1171 12.9653C12.9622 9.94344 13.2102 5.4003 11.1273 2.54017C9.96221 0.940337 8.26174 0.0855997 6.07417 0.000506121C6.06517 0.000233366 6.05644 -3.93892e-05 6.04717 -3.93936e-05C3.34796 -4.06659e-05 0.953933 1.81798 0.225744 4.42064C-0.208716 5.97657 -0.0118063 7.60859 0.780476 9.01642Z" fill="#2A2A2A" fill-opacity="0.5"/>
</svg>
