<svg width="25" height="25" viewBox="0 0 25 25" fill="none" xmlns="http://www.w3.org/2000/svg">
<path d="M19.6135 18.8085L18.9498 21.2854C18.8892 21.5156 18.7811 21.7306 18.6325 21.9166C18.4839 22.1026 18.2982 22.2555 18.0871 22.3655C17.876 22.4756 17.6442 22.5403 17.4067 22.5556C17.1691 22.5709 16.931 22.5364 16.7075 22.4544C14.2409 21.4976 12.0331 19.9755 10.2615 18.0105C8.60628 16.2084 7.36817 14.0639 6.63507 11.7294C5.81687 9.20159 5.60562 6.51662 6.01842 3.89199C6.05897 3.65815 6.14776 3.43531 6.27914 3.23766C6.41053 3.04002 6.58163 2.87189 6.78155 2.74399C6.98147 2.6161 7.20583 2.53123 7.44035 2.49479C7.67487 2.45835 7.9144 2.47115 8.1437 2.53236L10.6206 3.19604C11.0223 3.29946 11.3728 3.54543 11.6066 3.88811C11.8404 4.23079 11.9416 4.64679 11.8913 5.05858C11.7835 5.87925 11.7688 6.70949 11.8476 7.53346C11.8795 7.85873 11.8175 8.18634 11.6689 8.47745C11.5204 8.76856 11.2914 9.01098 11.0093 9.17598L9.67981 9.94358C10.3013 12.3255 11.5542 14.4955 13.3062 16.2247L14.6357 15.4571C14.9197 15.2953 15.2441 15.2183 15.5705 15.2351C15.8969 15.252 16.2116 15.3621 16.4774 15.5524C17.1515 16.0326 17.8779 16.435 18.6425 16.752C19.0284 16.916 19.3406 17.2162 19.5196 17.5954C19.6986 17.9745 19.7321 18.4063 19.6135 18.8085Z" stroke="white" stroke-width="2" stroke-linecap="round" stroke-linejoin="round"/>
</svg>
