<svg width="30" height="30" viewBox="0 0 30 30" fill="none" xmlns="http://www.w3.org/2000/svg">
<path d="M15 30C23.2843 30 30 23.2843 30 15C30 6.71573 23.2843 0 15 0C6.71573 0 0 6.71573 0 15C0 23.2843 6.71573 30 15 30Z" fill="#F0F0F0"/>
<path d="M3.10078 5.86768C1.92252 7.40066 1.03406 9.16756 0.516739 11.087H8.32014L3.10078 5.86768Z" fill="#0052B4"/>
<path d="M29.4833 11.087C28.9659 9.16756 28.0774 7.40067 26.8992 5.86768L21.68 11.087H29.4833Z" fill="#0052B4"/>
<path d="M0.516739 18.9128C1.03412 20.8323 1.92258 22.5992 3.10078 24.1321L8.31996 18.9128H0.516739Z" fill="#0052B4"/>
<path d="M24.1323 3.1007C22.5993 1.92244 20.8325 1.03398 18.913 0.516602V8.31994L24.1323 3.1007Z" fill="#0052B4"/>
<path d="M5.86769 26.8991C7.40068 28.0774 9.16757 28.9658 11.087 29.4832V21.6799L5.86769 26.8991Z" fill="#0052B4"/>
<path d="M11.0869 0.516602C9.16751 1.03398 7.40062 1.92244 5.86769 3.10064L11.0869 8.31988V0.516602Z" fill="#0052B4"/>
<path d="M18.9131 29.4832C20.8325 28.9658 22.5994 28.0774 24.1323 26.8992L18.9131 21.6799V29.4832Z" fill="#0052B4"/>
<path d="M21.68 18.9128L26.8992 24.1321C28.0774 22.5992 28.9659 20.8323 29.4833 18.9128H21.68Z" fill="#0052B4"/>
<path d="M29.873 13.0435H16.9566H16.9566V0.126973C16.3161 0.0435938 15.6631 0 15 0C14.3368 0 13.6839 0.0435938 13.0435 0.126973V13.0434V13.0434H0.126973C0.0435938 13.6839 0 14.3369 0 15C0 15.6632 0.0435938 16.3161 0.126973 16.9565H13.0434H13.0434V29.873C13.6839 29.9564 14.3368 30 15 30C15.6631 30 16.3161 29.9565 16.9565 29.873V16.9566V16.9566H29.873C29.9564 16.3161 30 15.6632 30 15C30 14.3369 29.9564 13.6839 29.873 13.0435Z" fill="#D80027"/>
<path d="M18.9131 18.9131L25.6066 25.6067C25.9144 25.2989 26.2081 24.9772 26.4883 24.6437L20.7577 18.9131H18.9131V18.9131Z" fill="#D80027"/>
<path d="M11.0869 18.9131H11.0868L4.39336 25.6065C4.70109 25.9144 5.02283 26.2081 5.35634 26.4883L11.0869 20.7576V18.9131Z" fill="#D80027"/>
<path d="M11.0869 11.087V11.0869L4.39342 4.39331C4.08557 4.70105 3.7919 5.02278 3.5117 5.3563L9.24235 11.087H11.0869V11.087Z" fill="#D80027"/>
<path d="M18.9131 11.087L25.6066 4.39338C25.2989 4.08553 24.9772 3.79186 24.6437 3.51172L18.9131 9.24236V11.087Z" fill="#D80027"/>
</svg>
