<svg width="40" height="40" viewBox="0 0 40 40" fill="none" xmlns="http://www.w3.org/2000/svg">
<path fill-rule="evenodd" clip-rule="evenodd" d="M20.0078 0.1714C30.9255 0.1714 39.8297 9.07461 39.8297 20.0088C39.8297 30.9103 30.9255 39.8298 20.0078 39.8298C9.08985 39.8298 0.170288 30.9103 0.170288 20.0088C0.170288 9.07461 9.08985 0.17041 20.0078 0.17041" fill="#3266BC"/>
<path fill-rule="evenodd" clip-rule="evenodd" d="M20.0078 2.68896C29.5287 2.68896 37.3112 10.4715 37.3112 20.0088C37.3112 29.5298 29.5287 37.296 20.0078 37.296C10.4878 37.296 2.7052 29.5298 2.7052 20.0088C2.7052 10.4715 10.4878 2.68896 20.0087 2.68896H20.0078ZM8.42374 10.6987L14.6305 26.7996L16.9044 20.9186H22.8675L25.1413 26.7996L31.4129 10.5044C30.3078 9.17116 28.9758 8.03415 27.4809 7.15727L23.1277 19.1475H16.9856L12.6148 7.10802C11.007 8.03415 9.59353 9.25233 8.42374 10.6987ZM33.9158 14.7448L26.8478 33.185C31.5928 30.6997 34.8575 25.7275 34.8575 20.0088C34.8575 18.1565 34.5328 16.3854 33.9158 14.7448ZM23.7608 34.3869L23.7125 34.0137L19.8782 24.0702L16.043 34.0137L16.0275 34.322C17.294 34.6799 18.6262 34.8576 20.0078 34.8576C21.3071 34.8576 22.5582 34.6953 23.7608 34.3869H23.7608ZM12.8758 33.0227L5.98646 15.0695C5.43442 16.6126 5.14151 18.2706 5.14151 20.0088C5.14151 25.5978 8.26131 30.5041 12.8758 33.0227ZM20.0078 5.14265C21.3081 5.14265 22.5911 5.30501 23.81 5.62997L20.0571 16.0122L16.2876 5.61339C17.4738 5.30501 18.7248 5.14265 20.0078 5.14265Z" fill="white"/>
</svg>
